<svg xmlns="http://www.w3.org/2000/svg" width="256" height="256"><path fill-opacity=".016" d="M0 128.004v128.004l128.25-.254 128.25-.254.254-127.75L257.008 0H0v128.004m.485.496c0 70.4.119 99.053.265 63.672.146-35.38.146-92.98 0-128C.604 29.153.485 58.1.485 128.5" fill="#1976D2" fill-rule="evenodd"/><path fill-opacity=".414" d="M105.555 1.614C73.839 7.339 45.146 25.066 25.618 51 13.354 67.287 5.008 86.487 1.546 106.381c-1.981 11.381-1.981 31.857 0 43.238 8.09 46.484 41.058 84.938 85.581 99.822C101.157 254.131 112.802 256 128 256c33.777 0 64.614-12.397 89.364-35.925 7.815-7.429 19.184-22.673 24.39-32.702 5.055-9.736 10.698-26.224 12.278-35.873.631-3.85 1.557-7.781 2.058-8.736 1.065-2.032 1.253-31.441.194-30.381-.394.393-1.305-2.769-2.024-7.029-1.752-10.371-7.333-26.763-12.506-36.727-5.206-10.029-16.575-25.273-24.39-32.702-18.805-17.877-42.752-30.03-67.745-34.379-11.044-1.923-33.229-1.888-44.064.068M147.899 63.5C143.367 69.166 136 80.731 136 82.181c0 .451 3.1.819 6.89.819 18.566 0 39.852 7.387 59.151 20.528l8.195 5.58 6.632-3.832c7.635-4.413 7.63-4.388 3.153-15.389-3.79-9.313-9.77-19.176-15.779-26.027l-4.948-5.64-11.193 6.441-11.194 6.441-4.703-3.429C166.911 63.814 155.776 58 153.678 58c-.759 0-3.359 2.475-5.779 5.5m-95.799.123C44.136 72.671 35.87 87.38 33.163 97.32c-1.174 4.31-2.258 3.314 13.292 12.211l7.045 4.032v13.169c0 7.504.43 13.559 1 14.077C56.255 142.404 67.05 144 76.089 144h8.756l-4.391-8.75c-8.317-16.573-12.265-36.735-10.988-56.112.376-5.699.884-10.886 1.129-11.525C71.012 66.528 59.242 59 57.129 59c-.527 0-2.79 2.08-5.029 4.623m67.068 47.466c-12.45 6.325-13.585 24.974-1.987 32.65 5.622 3.72 13.218 4.215 19.324 1.259 12.776-6.185 14.084-24.948 2.283-32.757-5.561-3.68-13.702-4.158-19.62-1.152M.402 128c0 8.525.154 12.012.341 7.75.188-4.262.188-11.237 0-15.5-.187-4.263-.341-.775-.341 7.75m159.013 35.663c-5.068 8.774-21.584 25.525-31.488 31.935-4.165 2.696-11.46 6.702-16.21 8.902l-8.637 4-.04 8.16-.04 8.159 7.25 1.288c3.987.708 11.975 1.287 17.75 1.287s13.762-.579 17.75-1.287l7.25-1.288.017-13.159.017-13.16 5.693-2.466c7.929-3.435 17.277-9.864 17.255-11.867-.028-2.544-6.258-17.062-9.644-22.474l-3.007-4.808-3.916 6.778" fill="#1976D2" fill-rule="evenodd"/><path fill-opacity=".606" d="M108 1.651C90.523 4.326 71.676 11.808 56 22.293 46.364 28.739 28.739 46.364 22.293 56c-29.533 44.153-29.533 99.847 0 144 6.446 9.636 24.071 27.261 33.707 33.707 44.153 29.533 99.847 29.533 144 0 9.636-6.446 27.261-24.071 33.707-33.707 10.405-15.557 18.137-34.97 20.312-51 .634-4.675 1.564-9.281 2.067-10.236 1.115-2.119 1.232-23.079.125-22.395-.433.268-1.35-3.634-2.036-8.672-2.258-16.584-9.913-35.916-20.468-51.697-6.446-9.636-24.071-27.261-33.707-33.707-27.357-18.299-59.783-25.574-92-20.642m11 26.911c-1.375.235-5.537.92-9.25 1.523L103 31.182l-.017 13.159-.017 13.159-5.693 2.466C89.74 63.23 80 69.798 80 71.615c0 2.698 5.95 16.898 9.32 22.243l3.35 5.314 4.355-7.336c8.901-14.991 29.483-32.425 48.233-40.856l7.74-3.48.001-8.143.001-8.143-6.25-1.133c-6.929-1.256-23.857-2.182-27.75-1.519m31.3 31.761c-4.593 4.944-8.746 10.666-12.177 16.776l-3.143 5.599 9.864.646c19.386 1.271 38.91 8.255 56.918 20.361l8.467 5.692 5.135-2.779c9.114-4.93 9.142-4.967 7.723-9.848-2.21-7.598-8.866-20.299-14.873-28.382-8.799-11.838-7.3-11.538-20.285-4.066l-11.21 6.451-4.522-3.452c-4.32-3.298-11.691-7.418-16.634-9.297-1.909-.726-2.824-.326-5.263 2.299m-100.246 5.19c-3.284 4.133-7.547 10.331-9.472 13.775C37.02 85.656 32 97.979 32 100.352c0 .719 4.886 4.104 10.858 7.522l10.859 6.215-.489 9.343c-.269 5.139-.186 11.361.183 13.826l.673 4.483 5.708 1.152c7.236 1.461 22.532 2.58 24.57 1.798 1.291-.495.983-1.536-1.842-6.228-8.933-14.835-12.784-32.419-12.33-56.302l.31-16.338-6.5-3.874c-3.575-2.13-6.832-3.89-7.238-3.911-.406-.021-3.425 3.343-6.708 7.475m75.446 42.956c-.55.196-2.229.627-3.732.958-3.441.758-9.371 5.908-11.481 9.971-1.941 3.74-2.129 13.126-.331 16.606 3.773 7.308 10.168 11.319 18.044 11.319 7.876 0 14.271-4.011 18.044-11.319 1.779-3.444 1.612-12.869-.293-16.504-1.723-3.287-6.115-7.684-9.251-9.262-2.274-1.144-9.495-2.305-11-1.769m50.046 12.281c8.631 17.199 12.766 39.917 10.783 59.25-1.098 10.713-1.594 9.728 7.299 14.5l5.59 3 5.211-5.714c2.866-3.142 7.304-9.419 9.862-13.949 5.249-9.294 10.598-23.035 9.16-23.531-.523-.18-5.589-3.047-11.257-6.372l-10.307-6.045.612-9.195c.336-5.057.24-11.219-.215-13.694-.824-4.486-.843-4.504-6.305-5.654-3.014-.634-9.832-1.197-15.151-1.25l-9.673-.096 4.391 8.75M.378 128c0 6.325.163 8.912.361 5.75.198-3.163.198-8.338 0-11.5-.198-3.163-.361-.575-.361 5.75M39 150.575c-3.025 1.879-5.876 3.543-6.335 3.699-1.04.352 2.602 11.329 6.018 18.138 3.196 6.369 10.287 16.931 14.611 21.763l3.289 3.676 11.255-6.477 11.255-6.476 4.703 3.429c5.265 3.839 16.424 9.673 18.501 9.673 2.486 0 17.703-20.915 17.703-24.331 0-.368-2.812-.672-6.25-.677-18.777-.022-40.092-7.325-59.564-20.407-4.573-3.072-8.623-5.549-9-5.506-.377.044-3.161 1.617-6.186 3.496m121.322 10.7c-3.144 6.471-13.42 18.9-20.522 24.822-8.342 6.955-18.558 13.51-28.605 18.353L103 208.4v16.363l4.75 1.224c10.151 2.616 36.335 2.22 43.848-.663 1.101-.422 1.402-3.271 1.402-13.268v-12.729l8.25-4.112c4.537-2.262 9.906-5.492 11.929-7.179l3.68-3.065-1.953-5.736c-2.296-6.74-9.973-21.424-11.461-21.92-.568-.189-1.973 1.593-3.123 3.96" fill="#1976D2" fill-rule="evenodd"/><path fill-opacity=".827" d="M117.5.632C85.861 4.039 59.594 16.378 37.986 37.986 13.321 62.651.648 93.202.648 128c0 34.798 12.673 65.349 37.338 90.014 24.665 24.665 55.216 37.338 90.014 37.338 34.798 0 65.349-12.673 90.014-37.338 18.906-18.906 30.435-40.701 35.414-66.948.865-4.558 1.572-10.011 1.572-12.117 0-2.107.45-4.109 1-4.449.55-.34 1-3.768 1-7.618 0-4.412-.37-6.772-1-6.382-.602.372-1-.953-1-3.331 0-2.171-.707-7.677-1.572-12.235-4.979-26.247-16.508-48.042-35.414-66.948-18.882-18.882-40.707-30.436-66.863-35.398C142.554.957 124.323-.102 117.5.632M113 28.639c-1.375.272-4.187.931-6.25 1.466l-3.75.972v25.734l-6.48 3.033c-3.563 1.667-8.604 4.522-11.202 6.344-2.597 1.822-5.108 3.58-5.58 3.908-1.302.905 3.766 14.432 8.518 22.737 3.571 6.242 4.37 7.099 5.23 5.612 12.058-20.861 28.253-35.694 50.765-46.496L153 47.751V31.094l-3.75-1.13c-3.889-1.171-31.853-2.193-36.25-1.325m34.5 34.425c-5.443 6.585-12.492 17.689-12.497 19.686-.002.903 2.37 1.25 8.539 1.25 19.419 0 42.724 8.441 61.217 22.173l5.258 3.905 7.105-4.149c6.942-4.054 7.091-4.227 6.553-7.541-1.38-8.509-13.988-30.644-21.51-37.765l-3.039-2.877-11.051 6.212-11.051 6.211-6.837-4.545c-6.056-4.025-15.164-8.637-17.02-8.617-.367.004-2.917 2.729-5.667 6.057M53.318 61.25c-7.955 8.411-16.245 22.424-20.394 34.476l-1.8 5.226 2.688 1.862c1.478 1.024 6.513 4.016 11.188 6.649l8.5 4.787-.327 12.727c-.265 10.358-.044 13.01 1.192 14.245.834.834 4.937 2.026 9.117 2.648 7.35 1.093 22.518 1.569 22.518.707 0-.233-1.806-3.771-4.013-7.863-8.867-16.438-11.505-28.733-11.438-53.304l.05-18.09-6.693-3.66c-3.68-2.013-6.877-3.66-7.103-3.66-.226 0-1.794 1.462-3.485 3.25m67.77 48.136c-1.876.678-5.076 2.877-7.11 4.887-9.488 9.375-6.857 25.12 5.204 31.13 8.376 4.174 16.222 2.957 22.7-3.521 7.986-7.985 7.986-19.779 0-27.764-5.671-5.671-13.358-7.421-20.794-4.732M170 111.378c0 .364 1.175 2.523 2.611 4.797 3.829 6.066 8.1 16.593 10.561 26.031 1.833 7.028 2.186 11.345 2.315 28.288l.152 19.994 6.749 3.877 6.75 3.877 2.944-2.82c8.297-7.949 21.918-32.813 21.918-40.009 0-.701-4.848-4.039-10.773-7.418l-10.772-6.144.386-10.416c.212-5.729.095-11.961-.259-13.849-.597-3.183-1.024-3.518-5.863-4.598-6.031-1.346-26.719-2.592-26.719-1.61M.336 128c0 4.125.177 5.813.392 3.75.216-2.062.216-5.437 0-7.5-.215-2.062-.392-.375-.392 3.75m38.414 22.169c-3.712 2.197-6.75 4.562-6.75 5.256 0 7.184 13.629 32.055 21.918 39.997l2.945 2.821 10.668-6.122C73.398 188.755 78.603 186 79.097 186c.494 0 3.055 1.55 5.692 3.444 2.636 1.894 7.683 4.81 11.216 6.481l6.424 3.038 2.887-2.732c4.711-4.456 15.684-20.879 15.684-23.473 0-.178-3.781-.408-8.403-.511-20.214-.455-43.935-9.064-61.405-22.287-2.878-2.178-5.336-3.921-5.462-3.872-.127.048-3.268 1.885-6.98 4.081m120.245 12.956c-9.131 15.37-29.396 32.703-48.314 41.324l-7.759 3.536.289 8.752.289 8.752 6.5 1.209c8.359 1.554 27.646 1.554 36-.001l6.5-1.21.278-13.122.278-13.122 5.058-2.102c2.782-1.156 8.203-4.193 12.048-6.749 6.355-4.224 6.931-4.886 6.336-7.27-1.223-4.895-6.534-16.773-9.858-22.044l-3.31-5.25-4.335 7.297" fill="#1976D2" fill-rule="evenodd"/></svg>