<?xml version="1.0" encoding="utf-8"?>
<!-- Generator: Adobe Illustrator 27.0.0, SVG Export Plug-In . SVG Version: 6.00 Build 0)  -->
<svg version="1.1" id="Layer_1" xmlns="http://www.w3.org/2000/svg" xmlns:xlink="http://www.w3.org/1999/xlink" x="0px" y="0px"
	 viewBox="0 0 200 100" style="enable-background:new 0 0 200 100;" xml:space="preserve">
<style type="text/css">
	.st0{fill:#101010;}
	.st1{display:none;}
	.st2{display:inline;}
	.st3{fill:#3C3C3B;}
	.st4{fill:#8DB9D6;}
	.st5{fill:#A1CFEC;}
	.st6{fill:#659EC8;}
	.st7{fill:#72B2DF;}
	.st8{fill:#92C7E9;}
	.st9{fill:#2171AB;}
	.st10{fill:#80B1D1;}
	.st11{fill:#237EBF;}
	.st12{fill:#064F83;}
	.st13{fill:#055894;}
	.st14{fill:#73B2DF;}
</style>
<g id="Layer_5">
	<g>
		<path class="st0" d="M36.4,55.8h3.8L53,20.1h6.4l12.8,35.6H76v4.4H62.2v-4.4h4.2l-3.1-8.9H49.2L46,55.8h4.3v4.4H36.4V55.8z
			 M61.9,42.3L57,28.4c-0.6-1.6-0.7-3.1-0.7-3.1h-0.1c0,0-0.1,1.4-0.7,3.1l-4.9,13.9H61.9z"/>
		<path class="st0" d="M91.8,30.8c4.2,0,11.2,1.6,11.2,6.5v3.5h-4.9v-2c0-2.2-3.6-3.3-6.2-3.3c-5.8,0-9.8,4.1-9.8,10.2
			c0,6.5,4.6,10.3,10.1,10.3c4.9,0,8.2-2.9,9.2-3.7l2.1,4c-1.3,1.2-5.5,4.4-11.5,4.4c-8.3,0-15.5-5.7-15.5-15
			C76.5,37.1,83.2,30.8,91.8,30.8z"/>
		<path class="st0" d="M122.3,30.8c8.6,0,15.5,6.3,15.5,15c0,8.7-6.9,15.1-15.5,15.1s-15.5-6.4-15.5-15.1
			C106.8,37.1,113.7,30.8,122.3,30.8z M122.3,56.1c5.4,0,9.8-4.3,9.8-10.3c0-6-4.5-10.2-9.8-10.2c-5.5,0-9.8,4.2-9.8,10.2
			C112.4,51.8,116.8,56.1,122.3,56.1z"/>
		<path class="st0" d="M140.7,56h4.3V37c0-0.8-0.4-1.2-1.2-1.2h-3.6v-4.2h6.5c2.5,0,3.7,1,3.7,3.3v1.8c0,1.1-0.1,2-0.1,2h0.1
			c1.3-4.2,4.6-7.5,9.1-7.5c0.7,0,1.4,0.1,1.4,0.1v5.5c0,0-0.7-0.1-1.6-0.1c-6.1,0-8.7,6.2-8.7,11.8V56h4.2v4.2h-14.1V56z"/>
		<path class="st0" d="M164.9,56h4.5V37c0-0.8-0.4-1.2-1.2-1.2h-3.5v-4.2h6.5c2.5,0,3.6,1.1,3.6,3.2v1.5c0,0.9-0.1,1.6-0.1,1.6h0.1
			c0.6-1.5,3.9-7,11.2-7c6.6,0,9.6,3.7,9.6,11V56h4.5v4.2h-10.1V43c0-4-0.8-7.2-5.4-7.2c-5.8,0-9.6,5.3-9.6,11v9.1h4.5v4.2h-14.5
			L164.9,56L164.9,56z"/>
	</g>
</g>
<g id="Layer_6" class="st1">
	<g class="st2">
		<path class="st3" d="M5.4,86h12.7v2.6H8.4v7.8h8.9v2.5H8.3v10.7h-3C5.3,109.7,5.3,86,5.4,86z"/>
		<path class="st3" d="M48.2,86v23.6h-3V86.1C45.2,86.1,48.2,86.1,48.2,86z"/>
		<path class="st3" d="M76.4,109.7V86.1h3.3L87.4,98c1.8,2.8,3.1,5.3,4.2,7.7h0.1c-0.3-3.2-0.3-6-0.3-9.7v-9.9h2.9v23.6h-3.1
			l-7.5-12c-1.6-2.6-3.2-5.3-4.4-7.9h-0.1c0.2,3,0.2,5.8,0.2,9.7v10.1h-2.9V109.7z"/>
		<path class="st3" d="M126.2,102.2l-2.5,7.4h-3.1l8-23.6h3.7l8.1,23.6h-3.3l-2.5-7.4H126.2z M133.9,99.8l-2.3-6.8
			c-0.5-1.5-0.9-2.9-1.2-4.3h-0.1c-0.4,1.4-0.7,2.8-1.2,4.3l-2.3,6.8H133.9z"/>
		<path class="st3" d="M166.6,109.7V86.1h3.3l7.6,11.9c1.8,2.8,3.1,5.3,4.2,7.7h0.1c-0.3-3.2-0.3-6-0.3-9.7v-9.9h2.9v23.6h-3.1
			l-7.5-12c-1.6-2.6-3.2-5.3-4.4-7.9h-0.1c0.2,3,0.2,5.8,0.2,9.7v10.1h-2.9V109.7z"/>
	</g>
</g>
<g id="Layer_8">
	<g>
		<path class="st0" d="M53.6,79.1V67.4h6.6v1.2h-4.9v3.9h4.1v1.2h-4.1v5.3H53.6z"/>
		<path class="st0" d="M72.8,79.1V67.4h1.7v11.7H72.8z"/>
		<path class="st0" d="M88.1,79.1V67.4h1.6l5.9,9.1v-9.1h1.4v11.7h-1.6l-5.9-9.1v9.1L88.1,79.1L88.1,79.1z"/>
		<path class="st0" d="M118.4,79.1l-1.3-3.3h-5l-1.3,3.3h-1.5l4.7-11.7h1.7l4.6,11.7H118.4z M116.7,74.7l-2-5.1l-2,5.1H116.7z"/>
		<path class="st0" d="M132.5,79.1V67.4h1.6l5.9,9.1v-9.1h1.4v11.7h-1.6l-5.9-9.1v9.1L132.5,79.1L132.5,79.1z"/>
		<path class="st0" d="M160.1,79.4c-1.8,0-3.3-0.5-4.2-1.6c-1-1.1-1.5-2.6-1.5-4.5c0-2,0.5-3.5,1.5-4.5c1-1.1,2.5-1.6,4.3-1.6
			c1,0,2.3,0.1,3.7,0.5v1.6c-1.6-0.5-2.9-0.8-3.7-0.8c-1.3,0-2.3,0.4-3,1.3c-0.7,0.8-1,2.1-1,3.6c0,1.5,0.4,2.7,1.1,3.5
			c0.7,0.9,1.8,1.3,3.1,1.3c1.1,0,2.3-0.3,3.6-1v1.4C162.8,79.1,161.5,79.4,160.1,79.4z"/>
		<path class="st0" d="M176.9,79.1V67.4h6.6v1.2h-4.9v3.8h4.1v1.2h-4.1v4.2h5.2v1.2H176.9z"/>
	</g>
</g>
<g id="Layer_10">
	<g>
		<path class="st4" d="M35.8,40.5c0,0.7,0,1.4,0,2.1c0,0-0.1,1.6-0.2,2.2c0,0.6-0.4,2-0.5,2.1c0,0.1-0.2,0.6-0.2,0.8
			c0,0.1-0.1,0.4-0.1,0.4c-0.1-0.1-8.6-8.6-12.9-12.9c-0.4-0.4-3.1-3.1-3.2-3.2c0,0-0.1-0.1-0.2-0.1c0,0,0-0.3,0-0.7
			c0-1.2,0-3.6,0-5c0.1,0,2.3,0,2.4,0c0.2,0,0.3,0,0.5,0c0,0,0.2,0,0.2,0c0,0,0.2,0.2,0.3,0.3c0.1,0.2,11.8,11.7,12,11.9
			C34.1,38.9,35.7,40.4,35.8,40.5z"/>
		<path class="st5" d="M18.5,26.4c0,0.5,0,1.1,0,1.7c0,1.3,0,2.7,0,4c0,0.1-0.1,0.1-0.2,0.1c-4,4-8,8-12.1,12
			C5.1,45.3,4,46.3,3,47.4c0,0-0.1,0.1-0.2,0.2l0-0.1c0-0.1-0.1-0.3-0.2-0.6c-0.1-0.3-0.3-1.1-0.4-1.6c0-0.3-0.2-1.6-0.2-2.7
			c0-0.5,0-1.8,0-1.9c0,0,14.2-14.3,14.3-14.3c0.2,0,0.4,0,0.7,0c0,0,0.4,0,0.8,0C17.7,26.4,18.1,26.4,18.5,26.4z"/>
		<path class="st6" d="M18.5,32.1L18.5,32.1C18.5,32.1,18.6,32.1,18.5,32.1c0.1,0.1,0.4,0.4,0.5,0.5c0.1,0.1,15.6,15.6,15.7,15.7
			c0,0.1,0,0.2-0.1,0.2c-0.1,0.2-0.2,0.4-0.3,0.6c-0.1,0.2-0.5,1.1-0.7,1.3c-0.2,0.4-0.4,0.7-0.7,1.1c-0.1,0.2-0.2,0.3-0.4,0.5
			c-0.1,0.1-0.2,0.3-0.3,0.4c-0.1,0.1-0.1,0.2-0.3,0.3c0,0-11.8-11.8-13.2-13.3c0,0-0.1-0.1-0.1-0.1C18.5,36.9,18.5,34.5,18.5,32.1z
			"/>
		<path class="st7" d="M18.5,32.1c0,2.5,0,4.9,0,7.4c0,0,0,0-0.1,0c0,0-0.1,0.1-0.1,0.1c-0.7,0.7-1.4,1.4-2.1,2.1
			c-0.7,0.7-1.4,1.4-2.1,2.1c-0.7,0.7-1.4,1.4-2.1,2.1c-0.7,0.7-1.4,1.4-2.1,2.1c-0.3,0.3-0.6,0.6-0.9,0.9c-1.1,1.1-2.2,2.2-3.3,3.3
			c0,0-0.1,0.1-0.1,0.1c-0.1-0.1-1.3-1.9-1.4-2c-0.2-0.3-0.3-0.6-0.5-1c0-0.1-0.4-1-0.5-1.2c0-0.1-0.1-0.4-0.2-0.5
			c0.1-0.1,0.2-0.2,0.3-0.3c1.1-1.1,2.1-2,3.2-3.1c4-4,8-8,12-12c0,0,0.1-0.1,0.1-0.1C18.4,32.1,18.4,32.1,18.5,32.1z"/>
		<path class="st8" d="M16,26.4c0,0-0.1,0.2-0.2,0.2C11.2,31.2,6.6,35.8,2,40.4c0,0-0.2,0.1-0.2,0.1c0-0.6,0-1.7,0-2.2
			c0,0,0-1.9,0-1.9c0,0,0,0,0,0c-0.1,0-1.1,0-1.4,0c0,0-0.1-0.1-0.1-0.2c0,0,0-0.6,0-0.6c0,0,0-0.7,0-1c0,0,0-0.7,0.2-1.4
			c0.1-0.3,0.1-0.4,0.2-0.7s0.3-0.9,0.4-0.9c0.2-0.3,0.3-0.6,0.8-1.3c0.5-0.7,0.6-0.7,1-1.1c0.1-0.1,1-0.8,1.3-1
			c0.4-0.2,1.3-0.7,1.5-0.7c0.2-0.1,0.8-0.2,1.3-0.3c0.5-0.1,0.8-0.1,1.4-0.2c0.6-0.1,1.4-0.1,1.9-0.1c0.5,0,1.6-0.1,2.2-0.1
			C12.9,26.5,15.6,26.4,16,26.4z"/>
		<path class="st9" d="M18.5,39.4L18.5,39.4c1.5,1.5,13.3,13.4,13.4,13.4c-0.1,0.1-0.2,0.3-0.3,0.4c-0.4,0.4-0.7,0.7-1.1,1.1
			c-0.5,0.5-1.9,1.5-1.9,1.5S27.3,56.7,27,57c-0.1-0.1-8.5-8.5-8.5-8.6C18.5,45.5,18.5,39.5,18.5,39.4z"/>
		<path class="st10" d="M35.8,40.5c0,0-11.2-11.1-13.9-13.9c0,0,0-0.1-0.1-0.1c0,0-0.1-0.1-0.1-0.1c0.5,0,1,0,1.5,0
			c0.1,0,1.6,0.1,1.7,0.1c0.1,0,3,0.2,2.9,0.2c0,0,1.1,0.1,2.5,0.3c0.7,0.1,2.1,0.6,2.9,0.9c0.7,0.3,1.4,0.8,1.6,1
			c0.1,0.1,0.8,0.7,1,0.9c0.1,0.1,0.3,0.4,0.4,0.5c0.1,0.1,0.6,1,0.8,1.3c0.1,0.3,0.3,0.6,0.4,1c0.1,0.7,0.3,1.3,0.3,1.9
			c0,0.3,0,0.7,0,1.1s0,0.5-0.1,0.6c0,0,0,0-0.1,0c-0.2,0-0.8,0-0.8,0c-0.2,0-0.5,0-0.7,0c0,0,0,2.1,0,3.2
			C35.8,39.7,35.8,40.3,35.8,40.5z"/>
		<path class="st11" d="M18.5,39.5c0,0,0,0.1,0,0.1c0,2.9,0,5.8,0,8.8c0,0-0.1,0.1-0.2,0.2c-1.7,1.6-3.3,3.3-4.9,4.9
			c-1,1-1.7,1.7-2.7,2.7c0,0-0.3,0.4-0.4,0.4c-0.1-0.1-0.3-0.2-0.4-0.3c-0.2-0.1-1.4-1-1.7-1.2c-0.2-0.1-1.4-1.2-1.6-1.5
			c-0.2-0.2-1-1.2-1-1.2c0.1-0.1,0.2-0.1,0.2-0.2C6.8,51.1,7.9,50,9,49c0.3-0.3,0.6-0.6,0.9-0.9c0.7-0.7,1.4-1.4,2.1-2.1
			c0.7-0.7,1.4-1.4,2.1-2.1c0.7-0.7,1.4-1.4,2.1-2.1C16.9,41,17.6,40.3,18.5,39.5C18.4,39.5,18.5,39.5,18.5,39.5
			c0.1-0.1,0.1-0.1,0.1-0.1C18.5,39.4,18.5,39.5,18.5,39.5z"/>
		<path class="st12" d="M18.5,48.4c0,0,0,0,0.1,0.1c2.3,2.3,4.6,4.6,6.9,6.9c0.4,0.4,0.7,0.7,1.1,1.1c0,0,0.3,0.3,0.3,0.3
			c-0.2,0.1-0.4,0.3-0.7,0.4c-0.4,0.2-0.8,0.5-1.2,0.7c-0.4,0.2-0.8,0.5-1.2,0.7c-0.4,0.2-0.8,0.5-1.2,0.7c-0.1,0.1-0.3,0.1-0.4,0.2
			c-0.5,0.3-1,0.5-1.6,0.8c-0.3,0.1-0.9,0.4-1,0.4c-0.1,0-0.4,0.1-0.7,0.2s-0.4,0.1-0.6,0.1c0,0,0-0.1,0-0.1c0-4.1,0-8.2,0-12.3
			C18.5,48.8,18.4,48.5,18.5,48.4z"/>
		<path class="st13" d="M18.5,48.4c0,0.1,0,0.4,0,0.4c0,4.1,0,8.2,0,12.3c0,0,0,0.1,0,0.1c-0.1,0-0.1,0-0.3,0c0,0-0.2,0-0.2,0
			c0,0-0.3-0.1-0.6-0.2c-0.4-0.2-0.6-0.3-0.8-0.4c-0.5-0.2-1-0.5-1.5-0.8c-0.5-0.3-1.2-0.7-1.7-1c-0.7-0.4-0.9-0.5-1.9-1.3
			c-0.1,0-1-0.7-1-0.8c0,0,0.4-0.4,0.4-0.4c1-1,1.7-1.7,2.7-2.7c1.6-1.6,3.3-3.3,4.9-4.9C18.3,48.6,18.4,48.5,18.5,48.4
			C18.4,48.4,18.4,48.4,18.5,48.4z"/>
		<path class="st14" d="M16,26.4c0.1-0.2,0.3-0.4,0.4-0.6c0.2-0.2,0.4-0.5,0.6-0.8c0.1-0.1,0.2-0.3,0.3-0.4c0.2-0.3,1.9-2.4,1.9-2.5
			c0.1-0.2,0.3-0.4,0.5-0.6c0.1-0.2,0.3-0.4,0.5-0.6c0.1-0.2,0.3-0.3,0.4-0.5c0.1-0.1,0.3-0.3,0.5-0.5c0.2-0.1,0.2-0.1,0.4-0.2
			c0.1,0,0.1,0,0.2,0c0,0,0,0.2,0,0.3c-0.1,0.2-0.1,0.3-0.2,0.5c-0.1,0.1-0.1,0.3-0.2,0.5c-0.1,0.2-0.2,0.4-0.3,0.7
			c-0.1,0.1-0.2,0.5-0.3,0.8c-0.1,0.3-0.1,1.2-0.2,1.4c0,0.2,0,1,0.1,1.3c0.1,0.3,0.2,0.4,0.3,0.6c0.1,0.1,0.2,0.2,0.3,0.3
			c0,0,0.1,0.1,0.1,0.1c0,0,0.1,0.1,0.1,0.1c0,0-0.1,0-0.2,0C21.2,26.4,16.3,26.4,16,26.4z"/>
	</g>
</g>
</svg>
