<?xml version="1.0" encoding="utf-8"?>
<!-- Generator: Adobe Illustrator 27.0.0, SVG Export Plug-In . SVG Version: 6.00 Build 0)  -->
<svg version="1.1" id="Layer_1" xmlns="http://www.w3.org/2000/svg" xmlns:xlink="http://www.w3.org/1999/xlink" x="0px" y="0px"
	 viewBox="0 0 200 100" style="enable-background:new 0 0 200 100;" xml:space="preserve">
<style type="text/css">
	.st0{fill:#F66135;}
	.st1{fill:#181818;}
</style>
<path class="st0" d="M19.6,36.9c8.2,0,14.8,6.6,14.8,14.8s-6.6,14.8-14.8,14.8C19.6,66.5,19.6,36.9,19.6,36.9z"/>
<path class="st0" d="M9.1,36.7C16.9,39,21.4,47.3,19,55.1C16.6,63,8.4,67.5,0.5,65.1L9.1,36.7z"/>
<path class="st1" d="M42.6,39.5h8.8c4.6,0,7.3,2.7,7.3,6.3c0,2.2-1.1,4-2.8,4.9v0.2c1.6,0.7,3.6,2.4,3.6,5.5c0,4.4-3.5,6.9-7.4,6.9
	h-9.5V39.5z M50.8,49.3c2.1,0,3.4-1.3,3.4-3.1c0-1.8-1.3-3-3.3-3h-4v6.1H50.8z M50.9,59.5c2.2,0,3.8-1.1,3.8-3.4
	c0-2.4-1.8-3.4-3.9-3.4h-3.9v6.8H50.9z"/>
<path class="st1" d="M61.3,54.4c0-5.6,3.4-9.5,8.3-9.5c3.1,0,4.8,1.8,5.4,2.8h0.2v-2.3h4.4v17.9h-4.4V61h-0.2
	c-0.5,0.8-2.1,2.7-5.4,2.7C64.8,63.7,61.3,60,61.3,54.4 M75.4,54.4c0-3.4-2.1-5.4-4.8-5.4c-2.8,0-4.8,2.3-4.8,5.4
	c0,3.2,2,5.4,4.8,5.4C73.6,59.8,75.4,57.4,75.4,54.4"/>
<path class="st1" d="M82.9,40.4c0-1.5,1.1-2.6,2.7-2.6c1.6,0,2.7,1,2.7,2.6c0,1.6-1.1,2.6-2.7,2.6S82.9,42,82.9,40.4 M83.4,45.4h4.4
	v17.9h-4.4V45.4z"/>
<path class="st1" d="M91.5,45.4h4.2v2.9H96c0.6-1.4,2.2-3,4.7-3h1.6v4.2h-1.8c-2.8,0-4.5,2.1-4.5,5.3v8.5h-4.4L91.5,45.4L91.5,45.4z
	"/>
<path class="st1" d="M103.5,54.4c0-5.6,3.8-9.5,9-9.5c5.8,0,8.9,4.3,8.9,9.3v1.4h-13.6c0.1,2.7,2,4.6,4.9,4.6c2.2,0,3.9-1,4.5-2.5
	h4.1c-0.9,3.6-4.1,6-8.7,6C107.2,63.7,103.5,59.8,103.5,54.4 M117.2,52.5c-0.2-2.4-2.1-4-4.7-4c-2.5,0-4.4,1.8-4.7,4H117.2z"/>
<path class="st1" d="M123.5,57.9h4.1c0.2,1.5,1.4,2.4,3.4,2.4c2.1,0,3.2-0.9,3.2-2.2c0-3.8-10.3-0.2-10.3-7.7c0-3,2.6-5.5,7-5.5
	c3.9,0,6.8,2,7,5.5H134c-0.2-1.3-1.2-2.2-3.2-2.2c-1.8,0-3,0.8-3,2c0,3.4,10.5-0.2,10.5,7.6c0,3.4-2.8,5.9-7.6,5.9
	C126,63.7,123.6,61.5,123.5,57.9"/>
<path class="st1" d="M141.8,39.5h8c7.6,0,12.1,4.9,12.1,11.8c0,7.4-4.6,12-12.1,12h-8V39.5z M149.7,59.3c4.2,0,7.6-2.5,7.6-8
	c0-5.3-3.4-7.9-7.6-7.9h-3.3v15.9L149.7,59.3L149.7,59.3z"/>
<path class="st1" d="M164,54.4c0-5.6,3.8-9.5,9-9.5c5.8,0,8.9,4.3,8.9,9.3v1.4h-13.6c0.1,2.7,2,4.6,4.9,4.6c2.2,0,3.9-1,4.5-2.5h4.1
	c-0.9,3.6-4.1,6-8.7,6C167.7,63.7,164,59.8,164,54.4 M177.7,52.5c-0.2-2.4-2.1-4-4.7-4c-2.5,0-4.4,1.8-4.7,4H177.7z"/>
<polygon class="st1" points="182.4,45.4 187,45.4 191.3,58 191.6,58 195.8,45.4 200.5,45.4 193.9,63.3 188.9,63.3 "/>
</svg>
