<?xml version="1.0" encoding="utf-8"?>
<!-- Generator: Adobe Illustrator 27.0.0, SVG Export Plug-In . SVG Version: 6.00 Build 0)  -->
<svg version="1.1" id="Ebene_1" xmlns="http://www.w3.org/2000/svg" xmlns:xlink="http://www.w3.org/1999/xlink" x="0px" y="0px"
	 viewBox="0 0 200 100" style="enable-background:new 0 0 200 100;" xml:space="preserve">
<style type="text/css">
	.st0{fill:#800000;}
</style>
<path class="st0" d="M20,45.3v1c1.8,0.4,3.5,3.2,3.5,17.7c0,4.2,3.1,6.5,6,6.5c1.5,0,2.9-0.6,3.9-1.8c-0.4,0.1-0.8,0.1-1.2,0.1
	c-4.5,0-4.7-3.4-4.7-6.9c0-14.5-4-15.7-4-15.7c1.5-0.2,4-4.6,4-13.5c0-4.6,2.3-7.1,5.8-7.2c-0.8-0.7-1.8-1-2.8-1.1
	c-3,0-7.1,2.4-7.1,7.8C23.5,42.6,21.9,45.2,20,45.3L20,45.3z M53.4,51.7c-1.4,2.6-4.8,3.8-7.1,3.8c-6,0-8.9-5.8-8.9-12
	c0-5.1,2.4-9.9,7.8-9.9c2.4-0.1,4.6,1.6,5,4l0.6,0.5c1.3-0.8,2.2-2.1,2.5-3.6c-0.9-1.8-4.3-3.3-7.7-3.3c-7.6,0-12.6,5.8-12.6,14
	c0,7.3,4,12.9,11.5,12.9c4.9,0,9-2.2,9-5.7C53.6,52.2,53.5,51.9,53.4,51.7L53.4,51.7z M72.4,46.6v-0.9c0-1.9-0.3-8-7.1-8
	c-5,0-8.3,4.8-8.3,11.1c0.1,6.6,3.9,9.4,8.1,9.4c3.7,0,7.7-2.5,7.7-5.5c0-0.3-0.1-0.6-0.2-0.9c-1.4,2.1-3.7,3.4-6.1,3.5
	c-3.4,0-5.8-2.4-5.8-6.6c0-0.6,0-1,0-1.6l9.5,0.1C70.9,47.2,71.7,47,72.4,46.6L72.4,46.6z M64.7,39.9c2.9,0,4.2,2.8,4.2,5.3
	l-8.5,0.2C61.2,42.3,62.1,39.9,64.7,39.9z M82.4,57.7c-0.4-1.4-0.4-7-0.4-8.4c0-2.7,0.9-8.7,4-8.7c0.8,0,1.6,0.5,1.8,1.4
	c0.2,0.1,0.5,0.1,0.7,0.1c1.1,0,2-0.8,2-1.9v-0.1c0-1.3-0.9-2.4-2.7-2.4c-3.6,0-6,4.9-6.1,5.1l0.2-1.7c0.1-0.4,0.1-0.7,0.1-1.1
	c0-1.3-0.3-2.2-1.9-2.2c-1.2,0-2.5,0.3-3.5,1v0.7c0.2,0,1.9,0.2,1.9,4.8c0,5.5-0.2,11.1-0.2,13.4L82.4,57.7L82.4,57.7z M98.3,35.1
	h-1.9c-1.9,3.3-3.6,3.3-3.8,3.3l-0.2,1.2c0.8,0.2,1.4,0.7,1.8,1.3c0.3,1,0.5,2,0.4,3c0,2.4-0.2,5.8-0.2,8c0,4,0.8,6.4,5.3,6.4
	c2.9,0,5.2-1.9,5.2-3.5c0-0.3-0.1-0.6-0.2-0.8c-0.2,0.4-2,1.1-3.7,1.1c-2.8,0-3.1-1.8-3.1-4.3l0-10c0.2,0,0.4,0,0.6,0
	c0.8,0,1.9,0.1,2.6,0.1c1.6,0,3-0.8,3-2.1c0-0.2,0-0.5-0.1-0.7c0,0-0.2,0.5-1.4,0.5h-4.8L98.3,35.1L98.3,35.1z"/>
<path d="M113.1,57.7c-0.2-1-0.2-2-0.2-2.9c0-9,0.2-13.6,0.2-13.6c0.1-1.8-0.1-3.3-2-3.3c-1.2,0-2.5,0.3-3.5,1v0.7c0,0,2,0.2,1.9,4.8
	l-0.3,13.3v0.2L113.1,57.7L113.1,57.7z M108.9,32.4c0,1.2,1,2.1,2.1,2.1c1.2-0.1,2.1-1,2.1-2.1c-0.1-1.1-1-2-2.1-2.1
	C109.8,30.4,108.9,31.3,108.9,32.4L108.9,32.4z M120.9,55.6c0.7,1.6,3.5,2.6,6.4,2.6c6.2,0,9.4-5.6,9.4-10.9c0-6.7-3.7-9.6-7.4-9.6
	c-2.1,0.1-4,0.9-5.5,2.3c0.2-0.6,0.3-1.3,0.2-2c0.1-3.1,0.2-4.6,0.3-6.5c0-2.4-0.5-3.6-2.5-3.6c-1.2,0-2.3,0.4-3.2,1v0.7
	c1.2,0.2,1.9,1.3,1.9,3.6c0,0,0.1,5.2,0.1,13.2C120.5,51.8,120.2,54.1,120.9,55.6L120.9,55.6z M127.1,40.3c3.3,0,5.8,2.8,5.8,7.7
	c0,3-0.8,8.2-5.2,8.2c-2.8,0-3.4-1.3-3.6-4.4c-0.1-2.5-0.2-5.9-0.2-10.5v-0.1C124.9,40.6,126,40.3,127.1,40.3L127.1,40.3z
	 M146.4,57.7c-0.1-0.5-0.2-1.1-0.2-1.6c-0.2-4.4-0.3-16,0-21.7c0.3-4.3,0.3-6.4-2.4-6.4c-1.2,0-2.3,0.4-3.2,1v0.7
	c1.2,0.2,1.9,1.3,1.9,3.6c0,0,0.1,14.2,0,24v0.6L146.4,57.7z M166.8,46.6v-0.9c0-1.9-0.3-8-7.1-8c-5,0-8.3,4.8-8.3,11.1
	c0.1,6.6,3.9,9.4,8.1,9.4c3.8,0,7.7-2.5,7.7-5.5c0-0.3-0.1-0.6-0.2-0.9c-1.4,2.1-3.7,3.4-6.2,3.5c-3.3,0-5.8-2.4-5.8-6.6
	c0-0.6,0-1,0-1.6l9.5,0.1C165.4,47.2,166.2,47,166.8,46.6L166.8,46.6z M159.1,39.9c2.9,0,4.2,2.8,4.2,5.3l-8.5,0.2
	C155.6,42.4,156.5,39.9,159.1,39.9L159.1,39.9z M180,45.3v1c-1.8,0.4-3.5,3.2-3.5,17.7c0,4.2-3.1,6.5-6,6.5c-1.5,0-2.9-0.6-3.9-1.8
	c0.4,0.1,0.8,0.1,1.2,0.1c4.5,0,4.7-3.4,4.7-6.9c0-14.5,4-15.7,4-15.7c-1.5-0.2-4-4.6-4-13.5c0-4.6-2.3-7.1-5.8-7.2
	c0.8-0.7,1.8-1.1,2.8-1.1c3,0,7.1,2.4,7.1,7.8C176.6,42.6,178.1,45.3,180,45.3L180,45.3z M37.8,73.1c0-0.2-0.1-0.5,0-0.7
	c0-2.1,0-3.1,0-3.1c0-0.4,0-0.8-0.5-0.8c-0.3,0-0.6,0.1-0.8,0.2v0.2c0,0,0.5,0,0.4,1.1l-0.1,3.1l0,0L37.8,73.1z M36.8,67.3
	c0,0.3,0.2,0.5,0.5,0.5c0.3,0,0.5-0.2,0.5-0.5c0-0.3-0.2-0.5-0.5-0.5S36.8,67,36.8,67.3L36.8,67.3z M43.2,73.1
	c-0.1-1.2-0.1-2.4-0.1-3.5c0-0.6-0.5-1.1-1.1-1.1c-0.7,0-1.4,0.4-1.8,1l0-0.2c0-0.4,0-0.8-0.5-0.8c-0.3,0-0.6,0.1-0.8,0.2v0.2
	c0,0,0.5,0,0.5,1.1v3.1l0,0h0.9c0-0.2-0.1-0.5-0.1-0.7c0-1,0-2.2,0-2.6c0.3-0.4,0.8-0.6,1.3-0.6c0.6,0,0.8,0.4,0.7,1.3v2.6
	L43.2,73.1z M45.8,67.9h-0.5c-0.4,0.8-0.8,0.7-0.9,0.7l0,0.3c0.2,0,0.3,0.2,0.4,0.3c0.1,0.2,0.1,0.5,0.1,0.7c0,0.6-0.1,1.4-0.1,1.9
	c0,0.9,0.2,1.5,1.2,1.5c0.7,0,1.2-0.4,1.2-0.8c0-0.1,0-0.1,0-0.2c-0.2,0.2-0.5,0.3-0.8,0.2c-0.7,0-0.7-0.4-0.7-1v-2.3h0.8
	c0.4,0,0.7-0.2,0.7-0.5v-0.2c0,0,0,0.1-0.3,0.1h-1.1L45.8,67.9L45.8,67.9z M51.4,70.6v-0.2c0.1-0.9-0.5-1.7-1.4-1.8
	c-0.1,0-0.2,0-0.3,0c-1.1,0-1.9,1.1-1.9,2.6s0.9,2.2,1.9,2.2s1.8-0.6,1.8-1.3v-0.2c-0.3,0.5-0.8,0.8-1.4,0.8c-0.8,0-1.3-0.6-1.3-1.6
	v-0.4h2.2C51.1,70.7,51.3,70.6,51.4,70.6L51.4,70.6z M49.6,69c0.7,0,1,0.7,1,1.2h-2C48.8,69.6,49,69,49.6,69L49.6,69z M53.7,73.1
	c-0.1-0.6-0.1-1.3-0.1-1.9c0-0.6,0.2-2,0.9-2c0.2,0,0.4,0.1,0.4,0.3c0.1,0,0.1,0,0.2,0c0.2,0,0.5-0.2,0.5-0.4c0,0,0,0,0-0.1
	c0-0.3-0.2-0.6-0.5-0.6c0,0-0.1,0-0.1,0c-0.8,0-1.4,1.1-1.4,1.2l0-0.4V69c0-0.3-0.1-0.5-0.5-0.5c-0.3,0-0.6,0.1-0.8,0.2v0.2
	c0.1,0,0.5,0,0.5,1.1v3.1L53.7,73.1z M60.2,73.1c-0.1-1.2-0.1-2.4-0.1-3.5c0-0.6-0.5-1.1-1.1-1.1c-0.7,0-1.4,0.4-1.8,1l0-0.2
	c0-0.4,0-0.8-0.5-0.8c-0.3,0-0.6,0.1-0.8,0.2v0.2c0,0,0.5,0,0.5,1.1v3.1l0,0h0.9c0-0.2-0.1-0.5-0.1-0.7v-2.6
	c0.3-0.4,0.8-0.6,1.3-0.6c0.6,0,0.8,0.4,0.8,1.3v2.2c0,0.1,0,0.3,0,0.4L60.2,73.1L60.2,73.1z M63.8,72.1c-0.2,0.3-0.6,0.5-1,0.4
	c-0.4,0-0.7-0.2-0.7-0.6c0,0,0,0,0,0c0,0,0,0,0-0.1c0-0.9,1.7-0.9,1.7-0.9V72.1L63.8,72.1z M64.8,72.5c-0.1-0.3-0.1-0.7-0.1-1v-1.8
	c0-0.9-0.6-1.3-1.6-1.3c-0.7,0-1.5,0.3-1.5,0.8c0,0.2,0.2,0.4,0.4,0.4c0,0,0,0,0.1,0c0.1,0,0.2,0,0.3-0.1v-0.1
	c0-0.4,0.3-0.7,0.7-0.7c0,0,0,0,0,0c0.7,0,0.9,0.6,0.9,1.3v0.6c-0.2,0-0.5-0.1-0.7-0.1c-1,0-1.8,0.5-1.8,1.4c0,0.6,0.5,1.2,1.1,1.2
	c0,0,0.1,0,0.1,0c0.6,0,1.1-0.4,1.3-0.9c0,0.1,0.1,0.9,0.7,0.9c0.3,0,0.6-0.1,0.8-0.2v-0.2C65.2,72.8,65,72.7,64.8,72.5L64.8,72.5z
	 M67.3,67.9h-0.4c-0.4,0.8-0.8,0.7-0.9,0.7l0,0.3c0.2,0,0.3,0.2,0.4,0.3c0.1,0.2,0.1,0.5,0.1,0.7l0,1.9c0,0.9,0.2,1.5,1.2,1.5
	c0.7,0,1.2-0.4,1.2-0.8c0-0.1,0-0.1,0-0.2c-0.3,0.2-0.6,0.3-0.9,0.2c-0.6,0-0.7-0.4-0.7-1v-2.3H68c0.4,0,0.7-0.2,0.7-0.5
	c0-0.1,0-0.1,0-0.2c0,0,0,0.1-0.3,0.1h-1.1L67.3,67.9L67.3,67.9z M70.8,73.1c0-0.2,0-0.5,0-0.7c0-2.1,0-3.1,0-3.1
	c0-0.4,0-0.8-0.5-0.8c-0.3,0-0.6,0.1-0.8,0.2v0.2c0,0,0.5,0,0.4,1.1l-0.1,3.1l0,0L70.8,73.1z M69.8,67.3c0,0.3,0.2,0.5,0.5,0.5
	c0.3,0,0.5-0.2,0.5-0.5s-0.2-0.5-0.5-0.5c0,0,0,0,0,0C70,66.8,69.8,67,69.8,67.3C69.8,67.3,69.8,67.3,69.8,67.3L69.8,67.3z M72,70.9
	c-0.1-1.3,0.9-2.4,2.1-2.5c0,0,0.1,0,0.1,0c1,0,1.9,0.7,1.9,2.3c0.1,1.3-0.9,2.4-2.2,2.5c0,0,0,0,0,0C72,73.2,72,71.1,72,70.9
	L72,70.9z M72.9,70.6c0,1.2,0.5,2.2,1.3,2.2c0.6,0,1.1-0.7,1.1-1.7c0-1.2-0.6-2.1-1.4-2.1S72.9,69.9,72.9,70.6L72.9,70.6z
	 M81.2,73.1c-0.1-1.2-0.1-2.4-0.1-3.5c0-0.6-0.5-1.1-1.1-1.1c-0.7,0-1.4,0.4-1.8,1l0-0.2c0-0.4,0-0.8-0.5-0.8
	c-0.3,0-0.6,0.1-0.8,0.2v0.3c0,0,0.5,0,0.5,1.1v3.1l0,0h0.9c0-0.2-0.1-0.5-0.1-0.7v-2.6c0.3-0.4,0.8-0.6,1.3-0.6
	c0.6,0,0.7,0.4,0.7,1.3v2.2c0,0.1,0,0.3,0,0.4L81.2,73.1z M84.8,72.1c-0.2,0.3-0.6,0.5-1,0.4c-0.4,0-0.7-0.2-0.7-0.6c0,0,0,0,0,0v0
	c0-0.9,1.7-0.9,1.7-0.9L84.8,72.1L84.8,72.1z M85.8,72.5c-0.1-0.3-0.1-0.7-0.1-1v-1.8c0-0.9-0.7-1.3-1.6-1.3c-0.7,0-1.5,0.3-1.5,0.8
	c0,0.2,0.2,0.4,0.4,0.4c0,0,0,0,0,0c0.1,0,0.2,0,0.3-0.1v-0.1c0-0.4,0.3-0.7,0.7-0.7c0,0,0,0,0,0c0.7,0,0.9,0.6,0.9,1.3v0.6
	c-0.2,0-0.5-0.1-0.7-0.1c-1,0-1.8,0.5-1.8,1.4c0,0.6,0.5,1.2,1.1,1.2c0,0,0.1,0,0.1,0c0.6,0,1.1-0.4,1.3-0.9c0,0.1,0.1,0.9,0.7,0.9
	c0.3,0,0.6-0.1,0.8-0.2v-0.2C86.2,72.8,85.9,72.7,85.8,72.5L85.8,72.5z M88.4,73.1c0-0.1,0-0.3,0-0.4c0-1-0.1-3.7,0-5
	c0.1-1,0.1-1.5-0.5-1.5c-0.3,0-0.5,0.1-0.8,0.2v0.2c0.3,0,0.4,0.3,0.4,0.8v5.7L88.4,73.1z M95.1,69.6c0.1,0.1,0.2,0.1,0.3,0.1
	c0.2,0,0.5-0.2,0.5-0.4c0,0,0,0,0,0c0-0.6-0.8-0.8-1.4-0.8c-1.3,0-2.1,1.1-2.1,2.6s0.9,2.2,1.9,2.2s1.8-0.6,1.8-1.3v-0.2
	c-0.3,0.5-0.8,0.8-1.4,0.8c-0.9,0-1.4-0.9-1.4-1.8s0.4-1.8,1.1-1.8C94.9,69,95.1,69.2,95.1,69.6L95.1,69.6z M100.2,70.5v-0.2
	c0.1-0.9-0.5-1.7-1.4-1.8c-0.1,0-0.2,0-0.3,0c-1.2,0-1.9,1.1-1.9,2.6s0.9,2.2,1.9,2.2s1.8-0.6,1.8-1.3c0-0.1,0-0.1,0-0.2
	c-0.3,0.5-0.8,0.8-1.4,0.8c-0.8,0-1.3-0.6-1.3-1.6v-0.4h2.2C99.9,70.6,100.1,70.6,100.2,70.5L100.2,70.5z M98.4,69
	c0.7,0,1,0.7,1,1.2h-2C97.6,69.6,97.8,69,98.4,69L98.4,69z M102.5,73.1c-0.1-0.6-0.1-1.3-0.1-1.9c0-0.6,0.2-2,0.9-2
	c0.2,0,0.4,0.1,0.4,0.3c0.1,0,0.1,0,0.2,0c0.2,0,0.5-0.2,0.5-0.4c0,0,0,0,0,0c0-0.3-0.2-0.6-0.5-0.6c0,0-0.1,0-0.1,0
	c-0.8,0-1.4,1.1-1.4,1.2v-0.4c0-0.1,0-0.2,0-0.2c0-0.3-0.1-0.5-0.4-0.5c-0.3,0-0.6,0.1-0.8,0.2v0.3c0.1,0,0.5,0,0.5,1.1v3.1
	L102.5,73.1L102.5,73.1z M106.1,67.9h-0.5c-0.4,0.8-0.8,0.7-0.9,0.7V69c0.2,0,0.3,0.2,0.4,0.3c0.1,0.2,0.1,0.5,0.1,0.7l0,1.9
	c0,0.9,0.2,1.5,1.2,1.5c0.7,0,1.2-0.4,1.2-0.8c0-0.1,0-0.1-0.1-0.2c-0.2,0.2-0.5,0.3-0.8,0.2c-0.7,0-0.7-0.4-0.7-1v-2.3h0.8
	c0.4,0,0.7-0.2,0.7-0.5v-0.2c0,0,0,0.1-0.3,0.1h-1.1L106.1,67.9z M109.6,73.2c0-0.2,0-0.5,0-0.7c0-2.1,0-3.1,0-3.1
	c0-0.4,0-0.8-0.5-0.8c-0.3,0-0.6,0.1-0.8,0.2v0.1c0,0,0.5,0,0.5,1.1l-0.1,3.1l0,0L109.6,73.2z M108.6,67.3c0,0.3,0.2,0.5,0.5,0.5
	c0.3,0,0.5-0.2,0.5-0.5c0-0.3-0.2-0.5-0.5-0.5C108.8,66.9,108.5,67.1,108.6,67.3L108.6,67.3z M112,68.4v0.1c0,0.1,0,0.2,0,0.2h1
	c0.3,0,0.3-0.1,0.3-0.1v0.2c0,0.4-0.4,0.5-0.7,0.5h-0.6v0.6c0,1.1,0,2.2,0.1,3.4h-0.9v-0.1l0-2.4c0-0.5,0-0.9-0.1-1.4
	c-0.2-0.3-0.4-0.3-0.4-0.3v-0.3c0.3,0,0.5-0.3,0.5-0.6c0.1-1.5,0.9-1.9,1.5-1.9c0.4,0,0.9,0.2,0.9,0.6c0,0.2-0.2,0.4-0.5,0.4
	c-0.1,0-0.1,0-0.2,0c0-0.2-0.2-0.4-0.5-0.4c-0.5,0-0.7,0.4-0.6,0.9L112,68.4L112,68.4z M115.1,73.2c0-0.2-0.1-0.5-0.1-0.7
	c0-2.1,0.1-3.1,0.1-3.1c0-0.4,0-0.8-0.5-0.8c-0.3,0-0.6,0.1-0.8,0.2v0.1c0,0,0.5,0,0.5,1.1l-0.1,3.1l0,0L115.1,73.2z M114.1,67.3
	c0,0.3,0.2,0.5,0.5,0.5c0.3,0,0.5-0.2,0.5-0.5c0-0.3-0.2-0.5-0.5-0.5c0,0,0,0,0,0C114.3,66.9,114.1,67.1,114.1,67.3
	C114.1,67.3,114.1,67.4,114.1,67.3L114.1,67.3z M119.1,69.7c0.2,0.2,0.5,0.2,0.7,0c0.1-0.1,0.1-0.2,0.1-0.3c0-0.6-0.8-0.8-1.4-0.8
	c-1.3,0-2.1,1.1-2.1,2.6s0.9,2.2,1.9,2.2s1.8-0.6,1.8-1.3v-0.2c-0.3,0.5-0.8,0.8-1.4,0.8c-0.9,0-1.4-0.9-1.4-1.8s0.4-1.8,1.1-1.8
	C118.9,69.1,119.1,69.3,119.1,69.7L119.1,69.7z M123.1,72.2c-0.2,0.3-0.6,0.5-1,0.4c-0.4,0-0.7-0.3-0.7-0.6c0,0,0,0,0-0.1
	c0-0.9,1.7-0.9,1.7-0.9L123.1,72.2L123.1,72.2z M124.1,72.6c-0.1-0.3-0.1-0.7-0.1-1v-1.8c0-0.9-0.6-1.3-1.6-1.3
	c-0.7,0-1.5,0.3-1.5,0.8c0,0.2,0.2,0.4,0.4,0.4c0,0,0,0,0,0c0.1,0,0.2,0,0.3-0.1v-0.1c0-0.4,0.3-0.7,0.7-0.7c0,0,0,0,0,0
	c0.7,0,0.9,0.6,0.9,1.3v0.6c-0.2,0-0.5-0.1-0.7-0.1c-1,0-1.8,0.5-1.8,1.4c0,0.6,0.5,1.2,1.1,1.2c0,0,0.1,0,0.1,0
	c0.6,0,1.1-0.4,1.3-0.9c0,0.1,0.1,0.9,0.7,0.9c0.3,0,0.6-0.1,0.8-0.2v-0.2C124.4,72.9,124.2,72.8,124.1,72.6L124.1,72.6z
	 M126.6,67.9h-0.4c-0.4,0.8-0.8,0.7-0.9,0.7V69c0,0,0.2,0,0.4,0.3c0.1,0.2,0.1,0.5,0.1,0.7c0,0.6-0.1,1.4-0.1,1.9
	c0,0.9,0.2,1.5,1.2,1.5c0.7,0,1.2-0.4,1.2-0.8c0-0.1,0-0.1,0-0.2c-0.2,0.2-0.5,0.3-0.8,0.2c-0.7,0-0.7-0.4-0.7-1v-2.3h0.7
	c0.4,0,0.7-0.2,0.7-0.5v-0.2c0,0,0,0.1-0.3,0.1h-1.1L126.6,67.9L126.6,67.9z M130,73.2c0-0.2-0.1-0.5-0.1-0.7c0-2.1,0.1-3.1,0.1-3.1
	c0-0.4,0-0.8-0.5-0.8c-0.3,0-0.6,0.1-0.8,0.2v0.1c0,0,0.5,0,0.5,1.1l-0.1,3.1l0,0L130,73.2z M129,67.3c0,0.3,0.2,0.5,0.5,0.5
	c0.3,0,0.5-0.2,0.5-0.5s-0.2-0.5-0.5-0.5c0,0,0,0,0,0C129.2,66.9,129,67.1,129,67.3C129,67.3,129,67.4,129,67.3L129,67.3z M131.2,71
	c-0.1-1.3,0.9-2.4,2.1-2.5c0,0,0.1,0,0.1,0c1,0,1.9,0.7,1.9,2.3c0.1,1.3-0.9,2.4-2.2,2.5c0,0,0,0,0,0
	C131.3,73.3,131.2,71.2,131.2,71L131.2,71z M132.1,70.6c0,1.2,0.5,2.2,1.3,2.2c0.6,0,1.1-0.7,1.1-1.7c0-1.2-0.6-2.1-1.4-2.1
	S132.2,69.9,132.1,70.6L132.1,70.6z M140.5,73.2c-0.1-1.2-0.1-2.4-0.1-3.5c0-0.6-0.5-1.1-1.1-1.1c-0.7,0-1.4,0.4-1.7,1l0-0.2
	c0-0.4,0-0.8-0.5-0.8c-0.3,0-0.6,0.1-0.8,0.2v0.2c0,0,0.5,0,0.5,1.1v3.1l0,0h0.9c-0.1-0.2-0.1-0.5-0.1-0.7v-2.6
	c0.3-0.4,0.8-0.6,1.3-0.6c0.6,0,0.7,0.4,0.7,1.3v2.6L140.5,73.2z M145,72.7c0.2,0.4,0.8,0.6,1.5,0.6c1.3-0.1,2.2-1.1,2.1-2.4
	c0,0,0-0.1,0-0.1c0-1.6-0.8-2.2-1.7-2.2c-0.5,0-0.9,0.2-1.2,0.5c0-0.1,0-0.3,0-0.4l0.1-1.5c0-0.6-0.1-0.8-0.6-0.8
	c-0.3,0-0.5,0.1-0.7,0.2v0.2c0.3,0,0.4,0.3,0.4,0.8v3.1C144.8,71.3,144.9,72,145,72.7L145,72.7z M146.5,69.2c0.8,0,1.3,0.7,1.3,1.8
	c0,0.7-0.2,1.9-1.2,1.9c-0.6,0-0.8-0.3-0.8-1s0-1.4,0-2.4l0,0C146,69.3,146.2,69.1,146.5,69.2L146.5,69.2z M149.5,71
	c-0.1-1.3,0.9-2.4,2.1-2.5c0,0,0.1,0,0.1,0c1,0,1.9,0.7,1.9,2.3c0.1,1.3-0.9,2.4-2.2,2.5c0,0,0,0,0,0
	C149.5,73.3,149.4,71.2,149.5,71L149.5,71z M150.4,70.6c0,1.2,0.5,2.2,1.3,2.2s1.1-0.7,1.1-1.7c0-1.2-0.6-2.1-1.3-2.1
	S150.4,69.9,150.4,70.6L150.4,70.6z M159,72.9c-0.4,0-0.7-0.1-0.7-0.9v-2.6c0-1.2,0.1-1.7,0.1-2.3s-0.1-0.8-0.6-0.8
	c-0.3,0-0.5,0.1-0.7,0.2v0.2c0.3,0,0.4,0.3,0.4,0.8v1.2c-0.3-0.1-0.5-0.1-0.8-0.1c-1.3,0.1-2.3,1.2-2.2,2.5c0,0,0,0.1,0,0.1
	c0,1.6,0.8,2.2,1.7,2.2c0.5,0,1-0.3,1.3-0.6c0,0.4,0.3,0.6,0.7,0.6c0.3,0,0.6-0.1,0.8-0.2L159,72.9L159,72.9z M156.7,72.7
	c-0.8,0-1.3-0.6-1.3-1.7c0-0.7,0.2-1.9,1.2-1.9c0.3,0,0.6,0,0.9,0.1v3.2C157.3,72.6,157,72.6,156.7,72.7L156.7,72.7z M160.6,69.2
	c-0.1-0.4-0.2-0.6-0.7-0.6c-0.3,0-0.5,0.1-0.8,0.2v0.1c0,0,0.5,0.1,0.9,1.2l0.8,2.6c0.1,0.2,0.3,0.4,0.5,0.5l-0.1,0.2l-0.4,1
	c-0.2,0.4-0.5,0.6-0.9,0.5c-0.3,0-0.6-0.1-0.7-0.2v0.2c0,0.4,0.2,0.7,0.6,0.8c0,0,0.1,0,0.1,0c0.9,0,1.1-0.6,1.5-1.5l1.9-4.5
	c0.1-0.2,0.2-0.5,0.2-0.8c0-0.2-0.1-0.3-0.2-0.3c0,0-0.1,0-0.1,0c-0.2,0-0.5,0.1-0.7,0.2v0.2c0.1,0.1,0.2,0.2,0.2,0.4
	c0,0.2-0.1,0.4-0.1,0.6l-0.7,1.9c-0.1,0.2-0.1,0.4-0.2,0.6c-0.1-0.2-0.2-0.4-0.2-0.6C161.1,70.9,160.8,70,160.6,69.2L160.6,69.2z
	 M169,54.4c0.3,0,0.7,0.1,1,0.2c0.3,0.2,0.6,0.4,0.7,0.7c0.2,0.3,0.3,0.6,0.3,1c0,0.4-0.1,0.7-0.3,1c-0.2,0.3-0.4,0.6-0.7,0.7
	c-0.3,0.2-0.6,0.3-1,0.3c-0.4,0-0.7-0.1-1-0.3c-0.3-0.2-0.6-0.4-0.7-0.7c-0.2-0.3-0.3-0.6-0.3-1c0-0.4,0.1-0.7,0.3-1
	c0.2-0.3,0.4-0.5,0.7-0.7C168.3,54.5,168.7,54.4,169,54.4L169,54.4z M169,54.7c-0.3,0-0.5,0.1-0.8,0.2c-0.3,0.1-0.5,0.3-0.6,0.6
	c-0.1,0.2-0.2,0.5-0.2,0.8c0,0.3,0.1,0.6,0.2,0.8c0.1,0.3,0.3,0.5,0.6,0.6c0.2,0.1,0.5,0.2,0.8,0.2c0.3,0,0.6-0.1,0.8-0.2
	c0.2-0.1,0.5-0.3,0.6-0.6c0.1-0.2,0.2-0.5,0.2-0.8c0-0.3-0.1-0.6-0.2-0.8c-0.1-0.3-0.4-0.5-0.6-0.6C169.5,54.8,169.3,54.7,169,54.7
	L169,54.7z M168.1,57.4v-2.1h0.7c0.2,0,0.4,0,0.5,0.1c0.1,0,0.2,0.1,0.3,0.2c0.1,0.1,0.1,0.2,0.1,0.3c0,0.2-0.1,0.3-0.2,0.4
	c-0.1,0.1-0.3,0.2-0.4,0.2c0.1,0,0.1,0.1,0.2,0.1c0.1,0.1,0.2,0.3,0.3,0.4l0.2,0.4h-0.4l-0.2-0.3c-0.1-0.2-0.2-0.4-0.4-0.5
	c-0.1,0-0.2-0.1-0.3-0.1h-0.2v0.9L168.1,57.4L168.1,57.4z M168.5,56.2h0.4c0.1,0,0.3,0,0.4-0.1c0.1-0.1,0.1-0.1,0.1-0.2
	c0-0.1,0-0.1,0-0.2c0,0-0.1-0.1-0.2-0.1c-0.1,0-0.2-0.1-0.3-0.1h-0.4L168.5,56.2L168.5,56.2z"/>
</svg>
