<?xml version="1.0" encoding="utf-8"?>
<!-- Generator: Adobe Illustrator 27.3.1, SVG Export Plug-In . SVG Version: 6.00 Build 0)  -->
<svg version="1.1" xmlns="http://www.w3.org/2000/svg" xmlns:xlink="http://www.w3.org/1999/xlink" x="0px" y="0px"
	 viewBox="0 0 200 100" style="enable-background:new 0 0 200 100;" xml:space="preserve">
<style type="text/css">
	.st0{fill:#080F27;}
	.st1{fill:#2A9B49;}
	.st2{fill:#ED1B25;}
	.st3{fill:#033572;}
	.st4{fill-rule:evenodd;clip-rule:evenodd;}
	.st5{fill:#FD393C;}
	.st6{fill:#FFFFFF;}
	.st7{fill:#FABB16;}
	.st8{fill:#5F5F5F;}
	.st9{fill:#0080FF;}
	.st10{fill-rule:evenodd;clip-rule:evenodd;fill:#0080FF;}
	.st11{fill:#E84E0F;}
	.st12{fill:#263238;}
	.st13{fill:#D4E157;}
	.st14{fill:url(#SVGID_1_);}
	.st15{fill:url(#SVGID_00000119820468536714970770000005113216603351209628_);}
	.st16{fill:url(#SVGID_00000153694023609090861010000004099194257814149760_);}
	.st17{fill:url(#SVGID_00000116953145718774413560000009123924504525598391_);}
	.st18{fill:url(#SVGID_00000169530135976735965910000013196539163547974532_);}
	.st19{fill:url(#SVGID_00000158711992172870027050000012376035000103573160_);}
	.st20{fill:url(#SVGID_00000109029369088973861350000010642627654747251608_);}
	.st21{fill:#E63351;}
	.st22{clip-path:url(#SVGID_00000175323955501517907290000007711066313361826994_);}
	.st23{clip-path:url(#SVGID_00000003089001792761249090000017225432575532681894_);}
	.st24{clip-path:url(#SVGID_00000136389730585341634300000015275755316934957226_);}
	.st25{clip-path:url(#SVGID_00000118386675735159187020000014239688285081498300_);}
	.st26{clip-path:url(#SVGID_00000101793923674097920820000009118572416569823158_);}
	.st27{clip-path:url(#SVGID_00000037677099371967637830000000697341843617525437_);}
	.st28{clip-path:url(#SVGID_00000149350669771667256280000004326065136842252178_);}
	.st29{clip-path:url(#SVGID_00000095321345145988714060000016503736575082627207_);}
	.st30{clip-path:url(#SVGID_00000126285835885451654720000012737315913372681628_);}
	.st31{clip-path:url(#SVGID_00000121276905238945220310000017305172877131867570_);}
	.st32{clip-path:url(#SVGID_00000096033147688921148400000011333038319425532314_);}
	.st33{clip-path:url(#SVGID_00000107561416205134977990000001778073855965621943_);}
	.st34{clip-path:url(#SVGID_00000165931649852090264110000001191001224333437614_);}
	.st35{clip-path:url(#SVGID_00000085245386289784013950000015840618870891730307_);}
	.st36{clip-path:url(#SVGID_00000099633939279169082440000008551543211413850796_);}
	.st37{clip-path:url(#SVGID_00000039135535159262358860000007458800769643600523_);}
	.st38{clip-path:url(#SVGID_00000019636373005943014920000012007628773061009044_);}
	.st39{clip-path:url(#SVGID_00000023265077058115497400000007338293959727294399_);}
	.st40{clip-path:url(#SVGID_00000033335465159522360710000005310075828304754616_);}
	.st41{clip-path:url(#SVGID_00000163041107892960169610000003042196660691054525_);}
	.st42{clip-path:url(#SVGID_00000093143304521894086610000018384239915736733099_);}
	.st43{clip-path:url(#SVGID_00000093167017347309136840000007234663561446796682_);}
	.st44{clip-path:url(#SVGID_00000053540829288058982460000009318307557228078733_);}
	.st45{clip-path:url(#SVGID_00000053532249031698648100000014386758417114589881_);}
	.st46{fill:#A03C56;}
	.st47{clip-path:url(#SVGID_00000000198616885184739110000016641466710485053066_);}
	.st48{clip-path:url(#SVGID_00000165933979723113492750000018409883621945112496_);}
	.st49{clip-path:url(#SVGID_00000151527511798837679490000001609302204193193857_);}
	.st50{clip-path:url(#SVGID_00000173150879944800218010000007839351185023506600_);}
	.st51{clip-path:url(#SVGID_00000120532707199475590380000007502000938143058063_);}
	.st52{clip-path:url(#SVGID_00000124158884593555726880000006921876854404146092_);}
	.st53{clip-path:url(#SVGID_00000030483275783423677550000014057040508508320177_);}
	.st54{clip-path:url(#SVGID_00000003807989811081266710000002109069259638837178_);}
	.st55{clip-path:url(#SVGID_00000134960727593662522250000016553955994110036394_);}
	.st56{clip-path:url(#SVGID_00000138532111872495479420000008782205932519230369_);}
	.st57{clip-path:url(#SVGID_00000067942663327396892420000012781356967985479308_);}
	.st58{clip-path:url(#SVGID_00000029744572457425109600000002536937945489929128_);}
	.st59{clip-path:url(#SVGID_00000153705136700125955060000007366256522982836113_);}
	.st60{clip-path:url(#SVGID_00000181056074433821081310000013689521038107134131_);}
	.st61{fill:none;}
	.st62{fill:#1388D6;}
	.st63{fill-rule:evenodd;clip-rule:evenodd;fill:#6EBE43;}
	.st64{fill-rule:evenodd;clip-rule:evenodd;fill:#1388D6;}
	.st65{fill:#62B536;}
	.st66{fill:#848688;}
	.st67{fill-rule:evenodd;clip-rule:evenodd;fill:url(#SVGID_00000104702820234362030410000000525610572721126784_);}
	.st68{fill-rule:evenodd;clip-rule:evenodd;fill:url(#SVGID_00000017480288359775484580000004203183522694841021_);}
	.st69{fill-rule:evenodd;clip-rule:evenodd;fill:#FFFFFF;}
	.st70{fill-rule:evenodd;clip-rule:evenodd;fill:url(#SVGID_00000062183485514883456530000001512529004134202285_);}
	.st71{fill-rule:evenodd;clip-rule:evenodd;fill:url(#SVGID_00000157278415647979505130000003801044975974077083_);}
	.st72{fill:url(#SVGID_00000034770086413386715940000011611132527894695060_);}
	.st73{fill:url(#SVGID_00000132769649345605388740000010808571256992590271_);}
	.st74{fill:url(#SVGID_00000114070028257067088160000014295171450652052100_);}
	.st75{fill:url(#SVGID_00000092428924293708821330000003100309813903134371_);}
	.st76{fill:url(#SVGID_00000134940122483050015640000003842038169079527303_);}
	.st77{fill:url(#SVGID_00000183215638976492663120000002027740407508361647_);}
	.st78{fill:url(#SVGID_00000103262180776484594660000005323330744464622733_);}
	.st79{clip-path:url(#SVGID_00000041997955529467786970000017630961710534363326_);}
	.st80{clip-path:url(#SVGID_00000132767731031148192330000007396656408288141237_);}
	.st81{clip-path:url(#SVGID_00000115517254480679462180000017091082411461393587_);}
	.st82{clip-path:url(#SVGID_00000091006256266660388040000011819668496678183826_);}
	.st83{clip-path:url(#SVGID_00000114075023487944484440000006935573532063955861_);}
	.st84{clip-path:url(#SVGID_00000141422463329368913640000015469750640987858081_);}
	.st85{clip-path:url(#SVGID_00000162309741006344181880000010547616886622786237_);}
	.st86{clip-path:url(#SVGID_00000116199488462104243150000011035249560865917091_);}
	.st87{clip-path:url(#SVGID_00000137843287270546778560000012081541823736970672_);}
	.st88{clip-path:url(#SVGID_00000178883011831388428700000009980767727408433840_);}
	.st89{clip-path:url(#SVGID_00000125596083627432158180000000910639815008217272_);}
	.st90{clip-path:url(#SVGID_00000164473173121199091480000002623238037264347805_);}
	.st91{clip-path:url(#SVGID_00000183209975896558374240000014787485696388109497_);}
	.st92{clip-path:url(#SVGID_00000010275836852572716620000006456007301077254280_);}
	.st93{clip-path:url(#SVGID_00000098221445356219703090000017954287425265215635_);}
	.st94{clip-path:url(#SVGID_00000040571640897612317940000017640635403081684629_);}
	.st95{clip-path:url(#SVGID_00000054256163356019697040000015143800446393255828_);}
	.st96{clip-path:url(#SVGID_00000069374366633830734700000018435977629947087262_);}
	.st97{clip-path:url(#SVGID_00000083786257637276582140000011797973231286804388_);}
	.st98{clip-path:url(#SVGID_00000134932992639144031630000000217456023395409059_);}
	.st99{clip-path:url(#SVGID_00000059274495901087314040000002279507510105432223_);}
	.st100{clip-path:url(#SVGID_00000146461196443957531300000005840300772564854402_);}
	.st101{clip-path:url(#SVGID_00000057851191437204096200000016071099036633847467_);}
	.st102{clip-path:url(#SVGID_00000036963786942006593340000011936640183080034999_);}
	.st103{clip-path:url(#SVGID_00000027583310218811084280000003124191828942238363_);}
	.st104{clip-path:url(#SVGID_00000088108375534241276790000006605040503463668904_);}
	.st105{clip-path:url(#SVGID_00000144331090819667276320000013682498464234207910_);}
	.st106{clip-path:url(#SVGID_00000030475752888189329600000008025182124600280501_);}
	.st107{clip-path:url(#SVGID_00000064335977189891880860000000713917642507703227_);}
	.st108{clip-path:url(#SVGID_00000051341539969122996290000012062167746228386703_);}
	.st109{clip-path:url(#SVGID_00000026844658338962180670000008535775904975078310_);}
	.st110{clip-path:url(#SVGID_00000065759565894476388880000009162660372241783685_);}
	.st111{clip-path:url(#SVGID_00000086666665210883546020000018319842794375500939_);}
	.st112{clip-path:url(#SVGID_00000088120088651603411890000004736319226623555227_);}
	.st113{clip-path:url(#SVGID_00000054958861832782520950000007799755166218434985_);}
	.st114{clip-path:url(#SVGID_00000090256378855682052480000005638002853492249019_);}
	.st115{clip-path:url(#SVGID_00000149375740651914090670000009947367803954625980_);}
	.st116{clip-path:url(#SVGID_00000163064861813297601570000012586037381222454945_);}
</style>
<g id="Background">
</g>
<g id="Logos">
	<g>
		<path class="st0" d="M57,54.83H44.61c0.06,1.34,0.41,2.31,1.02,2.9c0.62,0.59,1.41,0.88,2.37,0.88c0.81,0,1.48-0.2,2.02-0.61
			c0.52-0.39,0.89-0.94,1.06-1.57h5.8c-0.22,1.24-0.75,2.4-1.54,3.38c-0.81,1-1.84,1.81-3.01,2.34c-1.28,0.58-2.66,0.87-4.07,0.85
			c-1.75,0-3.3-0.37-4.66-1.1c-1.35-0.73-2.46-1.84-3.19-3.19c-0.77-1.39-1.15-3.01-1.15-4.87c0-1.88,0.38-3.51,1.14-4.88
			c0.73-1.35,1.84-2.45,3.19-3.17c1.37-0.74,2.92-1.1,4.68-1.1c1.77,0,3.33,0.36,4.67,1.09c1.31,0.7,2.4,1.76,3.12,3.06
			c0.74,1.31,1.1,2.82,1.1,4.53C57.16,53.86,57.1,54.35,57,54.83z M50.68,49.89c-0.66-0.59-1.53-0.91-2.42-0.88
			c-1,0-1.84,0.3-2.5,0.9c-0.66,0.6-1.04,1.47-1.12,2.63h6.98C51.64,51.36,51.33,50.47,50.68,49.89z"/>
		<path class="st0" d="M75.11,45.79c1.16,0.74,2.08,1.79,2.75,3.17c0.67,1.38,1.01,3,1.01,4.88c0,1.86-0.34,3.48-1.01,4.87
			c-0.67,1.39-1.59,2.45-2.75,3.19c-1.18,0.74-2.56,1.13-3.95,1.1c-1.37,0-2.54-0.31-3.52-0.93c-0.96-0.6-1.71-1.48-2.15-2.53v3.23
			h-5.47V39.08h5.47v9.06c0.43-1.05,1.18-1.93,2.15-2.53c0.98-0.62,2.16-0.93,3.52-0.93C72.55,44.66,73.92,45.05,75.11,45.79z
			 M66.56,50.66c-0.74,0.78-1.11,1.84-1.11,3.19c0,1.32,0.37,2.38,1.11,3.17c0.74,0.79,1.68,1.18,2.83,1.18
			c1.17,0,2.12-0.38,2.83-1.15c0.71-0.77,1.07-1.84,1.07-3.2c0-1.37-0.36-2.43-1.07-3.2c-0.72-0.77-1.66-1.15-2.83-1.15
			C68.24,49.49,67.3,49.88,66.56,50.66L66.56,50.66z"/>
		<path class="st0" d="M89.84,45.68c1.06-0.64,2.27-0.97,3.51-0.96v5.86h-1.57c-1.45,0-2.58,0.31-3.38,0.93
			c-0.8,0.62-1.2,1.67-1.2,3.14v8.13h-5.47V44.91h5.47v3.36C87.85,47.21,88.76,46.32,89.84,45.68z"/>
		<path class="st0" d="M96.03,37.82c0.6-0.54,1.39-0.82,2.37-0.82c0.98,0,1.77,0.27,2.37,0.82c0.59,0.52,0.92,1.28,0.9,2.06
			c0.02,0.78-0.31,1.52-0.9,2.03c-0.6,0.54-1.39,0.82-2.37,0.82c-0.98,0-1.77-0.27-2.37-0.82c-0.58-0.51-0.91-1.26-0.9-2.03
			C95.12,39.09,95.44,38.34,96.03,37.82z M101.12,44.91v17.87h-5.47V44.91H101.12z"/>
		<path class="st0" d="M118.76,46.59c1.56,1.27,2.54,3.02,2.95,5.24h-5.8c-0.13-0.7-0.51-1.34-1.06-1.79
			c-0.53-0.43-1.21-0.64-2.02-0.64c-0.93-0.02-1.8,0.4-2.37,1.14c-0.62,0.76-0.93,1.86-0.93,3.31c0,1.45,0.31,2.56,0.93,3.31
			c0.57,0.73,1.44,1.15,2.37,1.14c0.81,0,1.48-0.21,2.02-0.64c0.55-0.46,0.93-1.09,1.06-1.79h5.8c-0.41,2.22-1.39,3.97-2.95,5.24
			c-1.56,1.27-3.49,1.91-5.8,1.91c-1.75,0-3.3-0.37-4.66-1.1c-1.35-0.73-2.46-1.84-3.19-3.19c-0.77-1.39-1.15-3.01-1.15-4.87
			c0-1.88,0.38-3.51,1.14-4.88c0.73-1.35,1.84-2.45,3.19-3.17c1.37-0.74,2.92-1.1,4.68-1.1C115.27,44.68,117.21,45.32,118.76,46.59z
			"/>
		<path class="st0" d="M135.38,62.78l-5.35-7.59v7.59h-5.47V39.08h5.47v13l5.35-7.17h6.44l-7.2,8.93l7.36,8.93L135.38,62.78z"/>
		<path class="st0" d="M160.77,54.83h-12.39c0.06,1.34,0.41,2.31,1.02,2.9c0.62,0.59,1.41,0.88,2.37,0.88c0.81,0,1.48-0.2,2.02-0.61
			c0.52-0.39,0.89-0.94,1.06-1.57h5.8c-0.22,1.24-0.75,2.4-1.54,3.38c-0.81,1-1.84,1.81-3.01,2.34c-1.28,0.58-2.66,0.87-4.07,0.85
			c-1.75,0-3.3-0.37-4.66-1.1c-1.35-0.73-2.46-1.84-3.19-3.19c-0.77-1.39-1.15-3.01-1.15-4.87c0-1.88,0.38-3.51,1.14-4.88
			c0.73-1.35,1.84-2.45,3.19-3.17c1.37-0.74,2.92-1.1,4.68-1.1c1.77,0,3.33,0.36,4.67,1.09c1.31,0.7,2.4,1.76,3.12,3.06
			c0.74,1.31,1.1,2.82,1.1,4.53C160.93,53.86,160.87,54.35,160.77,54.83z M154.45,49.89c-0.66-0.59-1.53-0.91-2.42-0.88
			c-1,0-1.84,0.3-2.5,0.9c-0.66,0.6-1.04,1.47-1.12,2.63h6.98C155.41,51.36,155.1,50.47,154.45,49.89z"/>
		<path class="st0" d="M36.39,48.34c0,0,0,0.4,0,0.5c0.01,1.92-1.54,3.48-3.46,3.49c-0.01,0-0.02,0-0.02,0
			c-1.04,0-1.96-0.36-2.68-1.28c-0.71-0.9-1.58-1.57-3.22-1.57c-1.75,0-3.94,1.13-3.94,4.31c0,3.05,1.98,4.41,3.94,4.41
			c1.89,0,2.66-1.02,3.17-1.6c0.88-1.01,1.78-1.31,2.87-1.31c1.32,0,3.33,1.15,3.35,3.49c0.02,2.7,0.01,4,0.01,4h-5.5l0.01-3.23
			c0,0-1.17,3.58-6.04,3.45c-3.68-0.1-7.35-3.09-7.36-9.16c0-5.89,3.43-9.03,7.37-9.16c3.53-0.11,5.28,1.7,6.03,3.45l-0.01-9.07h5.5
			L36.39,48.34z"/>
		<path class="st0" d="M182.47,48.34c0,0,0,0.4,0,0.5c0.01,1.92-1.54,3.48-3.46,3.49c-0.01,0-0.02,0-0.02,0
			c-1.04,0-1.96-0.36-2.68-1.28c-0.71-0.9-1.58-1.57-3.22-1.57c-1.75,0-3.94,1.13-3.94,4.31c0,3.05,1.98,4.41,3.94,4.41
			c1.89,0,2.66-1.02,3.17-1.6c0.88-1.01,1.78-1.31,2.87-1.31c1.32,0,3.33,1.15,3.35,3.49c0.02,2.7,0.01,4,0.01,4h-5.5l0.01-3.23
			c0,0-1.17,3.58-6.04,3.45c-3.68-0.1-7.35-3.09-7.36-9.16c0-5.89,3.43-9.03,7.37-9.16c3.53-0.11,5.28,1.7,6.03,3.45l-0.01-9.07h5.5
			L182.47,48.34z"/>
	</g>
</g>
</svg>
