<?xml version="1.0" encoding="utf-8"?>
<!-- Generator: Adobe Illustrator 27.3.1, SVG Export Plug-In . SVG Version: 6.00 Build 0)  -->
<svg version="1.1" xmlns="http://www.w3.org/2000/svg" xmlns:xlink="http://www.w3.org/1999/xlink" x="0px" y="0px"
	 viewBox="0 0 200 100" style="enable-background:new 0 0 200 100;" xml:space="preserve">
<style type="text/css">
	.st0{fill:#080F27;}
	.st1{fill:#2A9B49;}
	.st2{fill:#ED1B25;}
	.st3{fill:#033572;}
	.st4{fill-rule:evenodd;clip-rule:evenodd;}
	.st5{fill:#FD393C;}
	.st6{fill:#FFFFFF;}
	.st7{fill:#FABB16;}
	.st8{fill:#5F5F5F;}
	.st9{fill:#0080FF;}
	.st10{fill-rule:evenodd;clip-rule:evenodd;fill:#0080FF;}
	.st11{fill:#E84E0F;}
	.st12{fill:#263238;}
	.st13{fill:#D4E157;}
	.st14{fill:url(#SVGID_1_);}
	.st15{fill:url(#SVGID_00000059285936379128403410000007044767677494912673_);}
	.st16{fill:url(#SVGID_00000137824235499881947030000014648883395925637011_);}
	.st17{fill:url(#SVGID_00000100377760235469966350000016062179936233796237_);}
	.st18{fill:url(#SVGID_00000085224860105638980910000017134553558076820415_);}
	.st19{fill:url(#SVGID_00000098929081239398107650000010437073759741064107_);}
	.st20{fill:url(#SVGID_00000029041450678131823760000016848848638543929267_);}
	.st21{fill:#E63351;}
	.st22{clip-path:url(#SVGID_00000116195574317596191000000014358165423635755179_);}
	.st23{clip-path:url(#SVGID_00000106142108818432764290000011188289806159849105_);}
	.st24{clip-path:url(#SVGID_00000124142469974731689070000012332650042168736950_);}
	.st25{clip-path:url(#SVGID_00000071541466822808896860000000923413674212537765_);}
	.st26{clip-path:url(#SVGID_00000033371281284017838710000004170159932682057624_);}
	.st27{clip-path:url(#SVGID_00000083069897262936625270000017428210940390604951_);}
	.st28{clip-path:url(#SVGID_00000049931158306200732030000009350367807085330566_);}
	.st29{clip-path:url(#SVGID_00000003066696221201230750000013045353250502701714_);}
	.st30{clip-path:url(#SVGID_00000155145751721864870400000008973349807289873810_);}
	.st31{clip-path:url(#SVGID_00000111149301215826175440000015024603555362069669_);}
	.st32{clip-path:url(#SVGID_00000107580949782567144920000013040303344100828074_);}
	.st33{clip-path:url(#SVGID_00000168080882146247931510000013731622007531365794_);}
	.st34{clip-path:url(#SVGID_00000011710392981305175820000008730632181502412720_);}
	.st35{clip-path:url(#SVGID_00000183243201548737928180000002279832684016856719_);}
	.st36{clip-path:url(#SVGID_00000085218469300993913200000012915337816097454508_);}
	.st37{clip-path:url(#SVGID_00000012463917265844196190000010839345641836674476_);}
	.st38{clip-path:url(#SVGID_00000171685118587073399280000009247479801406625211_);}
	.st39{clip-path:url(#SVGID_00000152225124875023419640000014886746018566662583_);}
	.st40{clip-path:url(#SVGID_00000127746890937070798900000007713423558561619334_);}
	.st41{clip-path:url(#SVGID_00000066510746680315330440000000435288807954637188_);}
	.st42{clip-path:url(#SVGID_00000039122890371954582030000005418064612319458491_);}
	.st43{clip-path:url(#SVGID_00000085218674764665658090000002691768415717939877_);}
	.st44{clip-path:url(#SVGID_00000147912632238543474590000006258831086567989413_);}
	.st45{clip-path:url(#SVGID_00000093135354874158609210000007287176163978818700_);}
	.st46{fill:#A03C56;}
	.st47{clip-path:url(#SVGID_00000058567810142084746280000012903141847357435527_);}
	.st48{clip-path:url(#SVGID_00000088098999443601733470000014299989052484032411_);}
	.st49{clip-path:url(#SVGID_00000010275081551179521410000009265130478579456677_);}
	.st50{clip-path:url(#SVGID_00000003820102047027083140000007755296717570820996_);}
	.st51{clip-path:url(#SVGID_00000077299283116069681330000009839651478868004492_);}
	.st52{clip-path:url(#SVGID_00000121276707479631045750000006251312045135177659_);}
	.st53{clip-path:url(#SVGID_00000003085461831468207860000014612446457593707917_);}
	.st54{clip-path:url(#SVGID_00000027604279468265241550000014989866203097575095_);}
	.st55{clip-path:url(#SVGID_00000104690958912830702610000013327270944192314278_);}
	.st56{clip-path:url(#SVGID_00000163777299093149658130000014435344435918746522_);}
	.st57{clip-path:url(#SVGID_00000006669456180385980700000008992052362920500154_);}
	.st58{clip-path:url(#SVGID_00000168100474333863064200000015116185038461413770_);}
	.st59{clip-path:url(#SVGID_00000129918022803853673920000006734600917186557837_);}
	.st60{clip-path:url(#SVGID_00000001628610567586727580000002140863950219417230_);}
	.st61{fill:none;}
	.st62{fill:#1388D6;}
	.st63{fill-rule:evenodd;clip-rule:evenodd;fill:#6EBE43;}
	.st64{fill-rule:evenodd;clip-rule:evenodd;fill:#1388D6;}
	.st65{fill:#62B536;}
	.st66{fill:#848688;}
	.st67{fill-rule:evenodd;clip-rule:evenodd;fill:url(#SVGID_00000150088061051153334010000004964933497944574138_);}
	.st68{fill-rule:evenodd;clip-rule:evenodd;fill:url(#SVGID_00000183966889934700390430000002924555214366584229_);}
	.st69{fill-rule:evenodd;clip-rule:evenodd;fill:#FFFFFF;}
	.st70{fill-rule:evenodd;clip-rule:evenodd;fill:url(#SVGID_00000078027969968702738260000015234709203482289795_);}
	.st71{fill-rule:evenodd;clip-rule:evenodd;fill:url(#SVGID_00000120556473836741768260000004368020611730033024_);}
	.st72{fill:url(#SVGID_00000085208175823980464890000007029368668834686097_);}
	.st73{fill:url(#SVGID_00000116952008261303173730000003749939363403885196_);}
	.st74{fill:url(#SVGID_00000015316355466209652910000000191392068138886308_);}
	.st75{fill:url(#SVGID_00000096037733876863873430000011142100492637419904_);}
	.st76{fill:url(#SVGID_00000182517227757339467900000005476391964000370610_);}
	.st77{fill:url(#SVGID_00000034794085330048737980000013703322421871419559_);}
	.st78{fill:url(#SVGID_00000084528829598525456660000010274731429473687956_);}
	.st79{clip-path:url(#SVGID_00000127045801658869083220000005999001319867995806_);}
	.st80{clip-path:url(#SVGID_00000036950501612588140650000015413437143199750072_);}
	.st81{clip-path:url(#SVGID_00000084514670672098995740000005068621748764414114_);}
	.st82{clip-path:url(#SVGID_00000173859074589442004880000006340895376729989774_);}
	.st83{clip-path:url(#SVGID_00000088105245872331617320000010277465575253384636_);}
	.st84{clip-path:url(#SVGID_00000060732731525681784560000017202819425106101436_);}
	.st85{clip-path:url(#SVGID_00000165211283440579931060000015448586210037192116_);}
	.st86{clip-path:url(#SVGID_00000049915005127120234770000009866225743715121820_);}
	.st87{clip-path:url(#SVGID_00000007386465901423976350000017435704800422203572_);}
	.st88{clip-path:url(#SVGID_00000167373604396493513790000013722063959178423473_);}
	.st89{clip-path:url(#SVGID_00000067948775955269518210000006789842814001688489_);}
	.st90{clip-path:url(#SVGID_00000055696458141398942650000010117958255645287323_);}
	.st91{clip-path:url(#SVGID_00000009590529814121306190000004273147832937757886_);}
	.st92{clip-path:url(#SVGID_00000167370646098987930920000015274992025126582177_);}
	.st93{clip-path:url(#SVGID_00000076592392702631376040000004132972577924688795_);}
	.st94{clip-path:url(#SVGID_00000152237914724744348340000001107503823761452466_);}
	.st95{clip-path:url(#SVGID_00000086668565377534816590000006684706891707226773_);}
	.st96{clip-path:url(#SVGID_00000083769120492456594170000006720113134905581721_);}
	.st97{clip-path:url(#SVGID_00000060013416120641591760000006484739167491997346_);}
	.st98{clip-path:url(#SVGID_00000169534455473685433660000014064345045505812355_);}
	.st99{clip-path:url(#SVGID_00000067231092879120709180000006690000540616255390_);}
	.st100{clip-path:url(#SVGID_00000170958614785829123860000014510069727939378586_);}
	.st101{clip-path:url(#SVGID_00000093169440178192968760000017941524387309913754_);}
	.st102{clip-path:url(#SVGID_00000106148401731046085610000004148770932229451698_);}
	.st103{clip-path:url(#SVGID_00000045616276254578960910000005467075147124471989_);}
	.st104{clip-path:url(#SVGID_00000056402415032787687510000001695208215530557832_);}
	.st105{clip-path:url(#SVGID_00000038373752274717518240000010780015780379578267_);}
	.st106{clip-path:url(#SVGID_00000047046486514243592130000009565897594173272233_);}
	.st107{clip-path:url(#SVGID_00000023283115877482760100000015165491950966665356_);}
	.st108{clip-path:url(#SVGID_00000048478351369938208120000014573347226529014955_);}
	.st109{clip-path:url(#SVGID_00000165218387788821202970000010816232620812252304_);}
	.st110{clip-path:url(#SVGID_00000110456589091043177950000011664452687421488002_);}
	.st111{clip-path:url(#SVGID_00000049937739066616713940000005483579644271776923_);}
	.st112{clip-path:url(#SVGID_00000161605165978545983880000017305237304540661398_);}
	.st113{clip-path:url(#SVGID_00000018927383773115274730000001733330588228207492_);}
	.st114{clip-path:url(#SVGID_00000088130704838957740050000006998272589917691816_);}
	.st115{clip-path:url(#SVGID_00000049211466436702402330000016137231433143893148_);}
	.st116{clip-path:url(#SVGID_00000113325278866626090940000015492182015834455182_);}
</style>
<g id="Background">
</g>
<g id="Logos">
	<g id="XMLID_2369_">
		<g id="XMLID_2638_">
			<g id="XMLID_2639_">
				<g>
					<g id="XMLID_44_">
						<g id="XMLID_48_">
							<path id="XMLID_49_" class="st9" d="M30.99,64v-5.42c5.76,0,10.18-5.7,8-11.73c-0.83-2.24-2.6-4.04-4.84-4.84
								c-6.03-2.19-11.73,2.24-11.73,8l0,0h-5.42c0-9.16,8.85-16.3,18.46-13.31c4.21,1.3,7.53,4.65,8.83,8.83
								C47.26,55.15,40.15,64,30.99,64z"/>
						</g>
						<polygon id="XMLID_47_" class="st10" points="30.99,58.58 25.6,58.58 25.6,53.18 25.6,53.18 30.99,53.18 30.99,53.18 						
							"/>
						<polygon id="XMLID_46_" class="st10" points="25.6,62.73 21.45,62.73 21.45,62.73 21.45,58.58 25.6,58.58 						"/>
						<polygon id="XMLID_45_" class="st10" points="21.45,58.58 17.96,58.58 17.96,58.58 17.96,55.12 17.96,55.12 21.45,55.12 
							21.45,55.12 						"/>
					</g>
				</g>
			</g>
		</g>
		<g id="XMLID_2370_">
			<path id="XMLID_2635_" class="st9" d="M66.8,44.11c-1.6-1.11-3.6-1.69-5.92-1.69h-5.06v16.08h5.06c2.32,0,4.32-0.58,5.92-1.77
				c0.89-0.61,1.58-1.49,2.05-2.57c0.47-1.08,0.72-2.35,0.72-3.79c0-1.41-0.25-2.68-0.72-3.76C68.37,45.54,67.68,44.69,66.8,44.11z
				 M58.77,45.16h1.6c1.77,0,3.24,0.36,4.34,1.02c1.22,0.75,1.85,2.16,1.85,4.18c0,2.1-0.64,3.57-1.85,4.37l0,0
				c-1.05,0.69-2.52,1.05-4.32,1.05h-1.6V45.16H58.77z"/>
			<path id="XMLID_2634_" class="st9" d="M73.11,42.22c-0.5,0-0.91,0.17-1.25,0.5c-0.33,0.33-0.53,0.75-0.53,1.22
				c0,0.5,0.17,0.91,0.53,1.25c0.33,0.33,0.75,0.53,1.25,0.53s0.91-0.17,1.25-0.53c0.33-0.33,0.53-0.77,0.53-1.25
				c0-0.5-0.17-0.91-0.53-1.22C74.02,42.39,73.58,42.22,73.11,42.22z"/>
			<rect id="XMLID_2564_" x="71.64" y="47.18" class="st9" width="2.85" height="11.34"/>
			<path id="XMLID_2561_" class="st9" d="M84.86,48.12c-0.86-0.77-1.83-1.22-2.85-1.22c-1.58,0-2.88,0.55-3.9,1.6
				s-1.52,2.43-1.52,4.07c0,1.6,0.5,2.96,1.52,4.07c1.02,1.05,2.32,1.6,3.9,1.6c1.11,0,2.05-0.3,2.82-0.91v0.28
				c0,0.94-0.25,1.66-0.75,2.19c-0.5,0.5-1.19,0.75-2.05,0.75c-1.33,0-2.13-0.53-3.15-1.88l-1.94,1.85l0.06,0.08
				c0.42,0.58,1.05,1.16,1.91,1.72c0.86,0.55,1.91,0.83,3.18,0.83c1.69,0,3.07-0.53,4.07-1.55c1.02-1.02,1.52-2.41,1.52-4.12V47.18
				h-2.79v0.94H84.86z M84.12,54.81c-0.5,0.55-1.13,0.83-1.96,0.83c-0.83,0-1.47-0.28-1.94-0.83c-0.5-0.55-0.75-1.3-0.75-2.21
				c0-0.91,0.25-1.69,0.75-2.24s1.13-0.86,1.94-0.86c0.83,0,1.47,0.28,1.96,0.86c0.5,0.55,0.75,1.33,0.75,2.24
				C84.86,53.51,84.59,54.26,84.12,54.81z"/>
			<rect id="XMLID_2560_" x="90.09" y="47.18" class="st9" width="2.85" height="11.34"/>
			<path id="XMLID_2552_" class="st9" d="M91.56,42.22c-0.5,0-0.91,0.17-1.25,0.5c-0.33,0.33-0.53,0.75-0.53,1.22
				c0,0.5,0.17,0.91,0.53,1.25c0.33,0.33,0.75,0.53,1.25,0.53c0.5,0,0.91-0.17,1.25-0.53c0.33-0.33,0.53-0.77,0.53-1.25
				c0-0.5-0.17-0.91-0.53-1.22C92.47,42.39,92.03,42.22,91.56,42.22z"/>
			<path id="XMLID_2509_" class="st9" d="M99.2,44.13H96.4v3.07h-1.63v2.6h1.63v4.7c0,1.47,0.3,2.52,0.89,3.13
				c0.58,0.61,1.6,0.91,3.07,0.91c0.47,0,0.94-0.03,1.38-0.06h0.14v-2.6l-0.97,0.06c-0.69,0-1.13-0.11-1.36-0.36
				c-0.22-0.25-0.33-0.75-0.33-1.49v-4.32h2.66v-2.6h-2.66v-3.04H99.2z"/>
			<rect id="XMLID_2508_" x="115.22" y="42.42" class="st9" width="2.85" height="16.08"/>
			<path id="XMLID_2470_" class="st9" d="M146.87,54.45c-0.5,0.58-1.02,1.08-1.44,1.33l0,0c-0.39,0.25-0.89,0.39-1.47,0.39
				c-0.83,0-1.52-0.3-2.08-0.94c-0.55-0.64-0.83-1.44-0.83-2.41s0.28-1.77,0.8-2.38c0.55-0.64,1.22-0.94,2.05-0.94
				c0.91,0,1.88,0.58,2.71,1.55l1.88-1.8l0,0c-1.22-1.6-2.79-2.35-4.68-2.35c-1.58,0-2.93,0.58-4.04,1.69
				c-1.11,1.11-1.66,2.55-1.66,4.23s0.55,3.1,1.66,4.23c1.11,1.13,2.46,1.69,4.04,1.69c2.08,0,3.74-0.89,4.84-2.52L146.87,54.45z"/>
			<path id="XMLID_2460_" class="st9" d="M158.58,48.75c-0.42-0.55-0.97-1.02-1.63-1.36c-0.69-0.33-1.47-0.5-2.35-0.5
				c-1.6,0-2.91,0.58-3.87,1.74c-0.94,1.16-1.44,2.57-1.44,4.26c0,1.72,0.53,3.13,1.58,4.23c1.02,1.08,2.43,1.63,4.12,1.63
				c1.91,0,3.51-0.77,4.68-2.32l0.06-0.08l-1.85-1.8l0,0c-0.17,0.22-0.42,0.44-0.64,0.66c-0.28,0.28-0.55,0.47-0.83,0.61
				c-0.42,0.22-0.91,0.3-1.44,0.3c-0.8,0-1.44-0.22-1.94-0.69c-0.47-0.42-0.75-1-0.8-1.72h7.55l0.03-1.05c0-0.75-0.11-1.44-0.3-2.1
				C159.3,49.94,158.99,49.34,158.58,48.75z M152.35,51.44c0.14-0.55,0.39-1,0.75-1.36c0.39-0.39,0.89-0.58,1.49-0.58
				c0.69,0,1.22,0.19,1.58,0.58c0.33,0.36,0.53,0.8,0.58,1.33h-4.4V51.44z"/>
			<path id="XMLID_2456_" class="st9" d="M169.53,48.03L169.53,48.03c-0.86-0.75-2.05-1.11-3.54-1.11c-0.94,0-1.83,0.22-2.63,0.61
				c-0.75,0.39-1.47,1-1.94,1.83l0.03,0.03l1.83,1.74c0.75-1.19,1.58-1.6,2.68-1.6c0.61,0,1.08,0.17,1.47,0.47
				c0.39,0.3,0.55,0.72,0.55,1.22v0.55c-0.72-0.22-1.41-0.33-2.1-0.33c-1.41,0-2.57,0.33-3.43,1c-0.86,0.66-1.3,1.63-1.3,2.82
				c0,1.05,0.36,1.94,1.11,2.57c0.75,0.61,1.66,0.94,2.74,0.94c1.08,0,2.1-0.44,3.02-1.19v0.94h2.79v-7.3
				C170.86,49.86,170.42,48.78,169.53,48.03z M164.47,54.18c0.33-0.22,0.77-0.33,1.36-0.33c0.69,0,1.41,0.14,2.16,0.42v1.11
				c-0.61,0.58-1.44,0.86-2.46,0.86c-0.5,0-0.89-0.11-1.13-0.33c-0.25-0.22-0.39-0.47-0.39-0.83S164.17,54.4,164.47,54.18z"/>
			<path id="XMLID_2454_" class="st9" d="M181.82,48.26c-0.8-0.89-1.91-1.33-3.32-1.33c-1.13,0-2.05,0.33-2.74,0.97V47.2h-2.79
				v11.34h2.85v-6.28c0-0.86,0.19-1.55,0.61-2.02c0.42-0.5,0.94-0.72,1.69-0.72c0.64,0,1.13,0.22,1.49,0.64
				c0.36,0.44,0.55,1.02,0.55,1.77v6.56h2.85v-6.56C183.01,50.39,182.62,49.14,181.82,48.26z"/>
			<path id="XMLID_2450_" class="st9" d="M111.65,48.03L111.65,48.03c-0.86-0.75-2.05-1.11-3.54-1.11c-0.94,0-1.83,0.22-2.63,0.61
				c-0.75,0.39-1.47,1-1.94,1.83l0.03,0.03l1.83,1.74c0.75-1.19,1.58-1.6,2.68-1.6c0.61,0,1.08,0.17,1.47,0.47s0.55,0.72,0.55,1.22
				v0.55c-0.72-0.22-1.41-0.33-2.1-0.33c-1.41,0-2.57,0.33-3.43,1c-0.86,0.66-1.3,1.63-1.3,2.82c0,1.05,0.36,1.94,1.11,2.57
				c0.75,0.61,1.66,0.94,2.74,0.94s2.1-0.44,3.02-1.19v0.94h2.79v-7.3C112.95,49.86,112.51,48.78,111.65,48.03z M106.59,54.18
				c0.33-0.22,0.77-0.33,1.36-0.33c0.69,0,1.41,0.14,2.16,0.42v1.11c-0.61,0.58-1.44,0.86-2.46,0.86c-0.5,0-0.89-0.11-1.13-0.33
				c-0.25-0.22-0.39-0.47-0.39-0.83C106.12,54.7,106.25,54.4,106.59,54.18z"/>
			<path id="XMLID_2371_" class="st9" d="M128.42,58.74c-4.57,0-8.3-3.71-8.3-8.3s3.71-8.3,8.3-8.3c4.57,0,8.3,3.71,8.3,8.3
				S132.98,58.74,128.42,58.74z M128.42,45.1c-2.96,0-5.37,2.41-5.37,5.37c0,2.96,2.41,5.37,5.37,5.37c2.96,0,5.37-2.41,5.37-5.37
				C133.78,47.51,131.38,45.1,128.42,45.1z"/>
		</g>
	</g>
</g>
</svg>
