<?xml version="1.0" encoding="utf-8"?>
<!-- Generator: Adobe Illustrator 27.3.1, SVG Export Plug-In . SVG Version: 6.00 Build 0)  -->
<svg version="1.1" xmlns="http://www.w3.org/2000/svg" xmlns:xlink="http://www.w3.org/1999/xlink" x="0px" y="0px"
	 viewBox="0 0 200 100" style="enable-background:new 0 0 200 100;" xml:space="preserve">
<style type="text/css">
	.st0{fill:#080F27;}
	.st1{fill:#2A9B49;}
	.st2{fill:#ED1B25;}
	.st3{fill:#033572;}
	.st4{fill-rule:evenodd;clip-rule:evenodd;}
	.st5{fill:#FD393C;}
	.st6{fill:#FFFFFF;}
	.st7{fill:#FABB16;}
	.st8{fill:#5F5F5F;}
	.st9{fill:#0080FF;}
	.st10{fill-rule:evenodd;clip-rule:evenodd;fill:#0080FF;}
	.st11{fill:#E84E0F;}
	.st12{fill:#263238;}
	.st13{fill:#D4E157;}
	.st14{fill:url(#SVGID_1_);}
	.st15{fill:url(#SVGID_00000176002778936283065710000002583136619268272001_);}
	.st16{fill:url(#SVGID_00000146489605576333033130000003635070223151688593_);}
	.st17{fill:url(#SVGID_00000073679023144368284700000010400530021200544949_);}
	.st18{fill:url(#SVGID_00000033340768308402435030000004036524139386775952_);}
	.st19{fill:url(#SVGID_00000139269335739931161300000007617671547668725415_);}
	.st20{fill:url(#SVGID_00000051372626294578611210000002410437897929503878_);}
	.st21{fill:#E63351;}
	.st22{clip-path:url(#SVGID_00000141434718954396221950000009696968443278673083_);}
	.st23{clip-path:url(#SVGID_00000070825869418540413510000005756236139556693683_);}
	.st24{clip-path:url(#SVGID_00000052103616795827798840000007208693942440722087_);}
	.st25{clip-path:url(#SVGID_00000178202725749504464260000002451381851590056869_);}
	.st26{clip-path:url(#SVGID_00000099636425440646496310000001047340946282433421_);}
	.st27{clip-path:url(#SVGID_00000107555863976132835630000016701105950999422873_);}
	.st28{clip-path:url(#SVGID_00000106853883404530947300000002784725174966634630_);}
	.st29{clip-path:url(#SVGID_00000074427433025712075000000011472817095960668833_);}
	.st30{clip-path:url(#SVGID_00000092438039559462764540000002018915070968312251_);}
	.st31{clip-path:url(#SVGID_00000062172889341716835500000013433676043953103783_);}
	.st32{clip-path:url(#SVGID_00000119084703524784315780000009325475059068072887_);}
	.st33{clip-path:url(#SVGID_00000144317560956115217700000010838239061561745810_);}
	.st34{clip-path:url(#SVGID_00000035526518621186305160000012728057447668899238_);}
	.st35{clip-path:url(#SVGID_00000160886967810513650600000013983195752169282238_);}
	.st36{clip-path:url(#SVGID_00000140732557712951099430000010800323353163240352_);}
	.st37{clip-path:url(#SVGID_00000054958902036583809310000015839449696040089489_);}
	.st38{clip-path:url(#SVGID_00000105419397198314850960000003469195880343498902_);}
	.st39{clip-path:url(#SVGID_00000114788786834923607290000013533437801696713395_);}
	.st40{clip-path:url(#SVGID_00000001639112857506207080000015577843421364725153_);}
	.st41{clip-path:url(#SVGID_00000168084519184884530070000017337988289643947172_);}
	.st42{clip-path:url(#SVGID_00000085971720337598723210000008485841322322014374_);}
	.st43{clip-path:url(#SVGID_00000075159951423145527930000007781316822033683902_);}
	.st44{clip-path:url(#SVGID_00000011720681578479291630000003278946993609105066_);}
	.st45{clip-path:url(#SVGID_00000137842583888940169660000005528754099265965457_);}
	.st46{fill:#A03C56;}
	.st47{clip-path:url(#SVGID_00000010991500855096291560000007565500516273751964_);}
	.st48{clip-path:url(#SVGID_00000123417436254983572760000007437853915705708957_);}
	.st49{clip-path:url(#SVGID_00000065781024482108653420000009473367554784962199_);}
	.st50{clip-path:url(#SVGID_00000111885459978200665030000008165684989985411217_);}
	.st51{clip-path:url(#SVGID_00000032635211150169814830000003066526375059062206_);}
	.st52{clip-path:url(#SVGID_00000171687983164478325620000006533665307703700871_);}
	.st53{clip-path:url(#SVGID_00000063614652246281995830000015221943954042917800_);}
	.st54{clip-path:url(#SVGID_00000180335759951349433460000000230126039044851623_);}
	.st55{clip-path:url(#SVGID_00000073718572531033996660000014635680332191422879_);}
	.st56{clip-path:url(#SVGID_00000064317392089323778850000012925420570545301694_);}
	.st57{clip-path:url(#SVGID_00000062912410693959243410000007891129302705823408_);}
	.st58{clip-path:url(#SVGID_00000052100527926483007260000006292559491193450418_);}
	.st59{clip-path:url(#SVGID_00000170245610069741940850000003567628159767951029_);}
	.st60{clip-path:url(#SVGID_00000003797219419153593810000015384895464906905784_);}
	.st61{fill:none;}
	.st62{fill:#1388D6;}
	.st63{fill-rule:evenodd;clip-rule:evenodd;fill:#6EBE43;}
	.st64{fill-rule:evenodd;clip-rule:evenodd;fill:#1388D6;}
	.st65{fill:#62B536;}
	.st66{fill:#848688;}
	.st67{fill-rule:evenodd;clip-rule:evenodd;fill:url(#SVGID_00000098217373201024523180000005764246653495016859_);}
	.st68{fill-rule:evenodd;clip-rule:evenodd;fill:url(#SVGID_00000098219897491939535920000006521717170649938825_);}
	.st69{fill-rule:evenodd;clip-rule:evenodd;fill:#FFFFFF;}
	.st70{fill-rule:evenodd;clip-rule:evenodd;fill:url(#SVGID_00000123435959199640124280000001120412461137016199_);}
	.st71{fill-rule:evenodd;clip-rule:evenodd;fill:url(#SVGID_00000006686262575873160120000005178465184855205309_);}
	.st72{fill:url(#SVGID_00000029036925508854356360000018140497499415714732_);}
	.st73{fill:url(#SVGID_00000161593681312653747690000002089950361944822925_);}
	.st74{fill:url(#SVGID_00000128444016828776111740000009218128685512049571_);}
	.st75{fill:url(#SVGID_00000101076404108981248250000002248874592993430951_);}
	.st76{fill:url(#SVGID_00000050647617847327336870000003651262869915876782_);}
	.st77{fill:url(#SVGID_00000081605319560471707500000013148090236635850638_);}
	.st78{fill:url(#SVGID_00000168095126313095725710000015014987376179979676_);}
	.st79{clip-path:url(#SVGID_00000054945259054346566670000008939410455367635371_);}
	.st80{clip-path:url(#SVGID_00000069388225466772265430000012777295097280398754_);}
	.st81{clip-path:url(#SVGID_00000140698587216258154680000012634156707810858624_);}
	.st82{clip-path:url(#SVGID_00000153670335674597879270000009322602082268835741_);}
	.st83{clip-path:url(#SVGID_00000054262291041776872670000011083212373730692751_);}
	.st84{clip-path:url(#SVGID_00000068658787794289975100000011157147632922194573_);}
	.st85{clip-path:url(#SVGID_00000102504679760280567340000010912211348456924326_);}
	.st86{clip-path:url(#SVGID_00000065034235192471149410000009045134344937119650_);}
	.st87{clip-path:url(#SVGID_00000107563122908291103060000006098937941047725698_);}
	.st88{clip-path:url(#SVGID_00000177456080124379427470000006192833607549067454_);}
	.st89{clip-path:url(#SVGID_00000106864492205765096230000000533117839886084506_);}
	.st90{clip-path:url(#SVGID_00000143618039415894389440000009397049321289470092_);}
	.st91{clip-path:url(#SVGID_00000142865682047935174570000010601882213652087180_);}
	.st92{clip-path:url(#SVGID_00000098185511982870241420000009783453905488854160_);}
	.st93{clip-path:url(#SVGID_00000057109951295060938180000007386260802617764491_);}
	.st94{clip-path:url(#SVGID_00000163766611943019853060000010457430567888155576_);}
	.st95{clip-path:url(#SVGID_00000119085372333487157650000004470772791761875358_);}
	.st96{clip-path:url(#SVGID_00000006695442024289092450000000646041366762384053_);}
	.st97{clip-path:url(#SVGID_00000136372400807487010430000016356240788647082174_);}
	.st98{clip-path:url(#SVGID_00000129891961353794229470000016502782494343054521_);}
	.st99{clip-path:url(#SVGID_00000122692609509400363860000003081306331334650019_);}
	.st100{clip-path:url(#SVGID_00000122702631577496354590000003641257954869300136_);}
	.st101{clip-path:url(#SVGID_00000004522341683832359170000008378949953661213375_);}
	.st102{clip-path:url(#SVGID_00000063602317212077244020000007024958253933244331_);}
	.st103{clip-path:url(#SVGID_00000117638031173748856280000002650324021941619607_);}
	.st104{clip-path:url(#SVGID_00000052796176070991587400000003469515748165350324_);}
	.st105{clip-path:url(#SVGID_00000009549540456595754490000007018084532096572297_);}
	.st106{clip-path:url(#SVGID_00000041992506865189775320000016979067406023513005_);}
	.st107{clip-path:url(#SVGID_00000024001052599242856860000006469293085538478739_);}
	.st108{clip-path:url(#SVGID_00000083771213305752363300000000155492599929160092_);}
	.st109{clip-path:url(#SVGID_00000124146871774968007730000003299069401936290986_);}
	.st110{clip-path:url(#SVGID_00000036251886508593698480000013030025760369172370_);}
	.st111{clip-path:url(#SVGID_00000170270311352230643060000001552652841803273111_);}
	.st112{clip-path:url(#SVGID_00000169551856686220885410000007291649591251918774_);}
	.st113{clip-path:url(#SVGID_00000089545320022457888380000016393892697696116620_);}
	.st114{clip-path:url(#SVGID_00000072259214794566886900000005169173480361411507_);}
	.st115{clip-path:url(#SVGID_00000039094353528022047810000009584979539910301062_);}
	.st116{clip-path:url(#SVGID_00000107585543220518749960000017253072609521385873_);}
</style>
<g id="Background">
</g>
<g id="Logos">
	<g>
		<g>
			<path class="st12" d="M21.74,54.39c0-0.18,0.12-0.3,0.3-0.3h7.93c3.62,0,6.27,1.51,7.29,4.67c0.42,1.33,0.6,2.47,0.6,5.57
				c0,3.07-0.18,4.25-0.6,5.58c-1.02,3.16-3.68,4.67-7.29,4.67h-7.93c-0.18,0-0.3-0.12-0.3-0.3V54.39z M27.22,69.88h1.6
				c1.87,0,2.89-0.51,3.37-1.96c0.18-0.6,0.3-1.3,0.3-3.59c0-2.29-0.12-2.98-0.3-3.59c-0.48-1.45-1.51-1.96-3.37-1.96h-1.6
				c-0.12,0-0.18,0.06-0.18,0.18v10.73C27.04,69.81,27.1,69.88,27.22,69.88z"/>
			<path class="st12" d="M39.79,74.58c-0.18,0-0.3-0.12-0.3-0.3V60.2c0-0.18,0.12-0.3,0.3-0.3h4.46c0.18,0,0.3,0.12,0.3,0.3v1.3
				h0.03c0.69-1.3,2.08-1.96,3.8-1.96c0.81,0,1.57,0.21,2.02,0.57c0.18,0.09,0.21,0.18,0.15,0.39l-1.72,4.25
				c-0.12,0.15-0.24,0.12-0.42,0.03c-0.72-0.45-1.45-0.66-2.14-0.57c-1.18,0.09-1.72,0.99-1.72,2.56v7.5c0,0.18-0.12,0.3-0.3,0.3
				H39.79z"/>
			<path class="st12" d="M50.58,70.63c-0.3-0.87-0.48-1.84-0.48-3.37c0-1.57,0.18-2.56,0.45-3.41c0.9-2.74,3.28-4.31,6.57-4.31
				c3.49,0,5.79,1.57,6.63,4.25c0.3,0.9,0.48,2.02,0.48,4.58c0,0.18-0.12,0.3-0.33,0.3h-8.71c-0.12,0-0.18,0.06-0.18,0.18
				c0.03,0.21,0.06,0.42,0.12,0.6c0.33,1.02,1.42,1.6,2.83,1.6c1.27,0,2.35-0.42,3.28-1.17c0.18-0.15,0.3-0.15,0.45,0l2.14,2.2
				c0.15,0.12,0.12,0.33-0.03,0.45c-1.54,1.48-3.77,2.41-6.39,2.41C53.83,74.94,51.45,73.34,50.58,70.63z M59.17,65.6
				c0.12,0,0.18-0.06,0.18-0.18c0-0.39-0.03-0.66-0.12-0.9c-0.27-0.84-0.99-1.33-2.05-1.33c-1.02,0-1.78,0.48-2.05,1.33
				c-0.06,0.24-0.12,0.51-0.12,0.9c0,0.12,0.06,0.18,0.18,0.18H59.17z"/>
			<path class="st12" d="M74.05,74.58c-0.18,0-0.3-0.12-0.3-0.3v-0.84h-0.03c-0.78,0.9-2.02,1.51-3.95,1.51
				c-2.5,0-4.76-1.36-4.76-4.52c0-3.28,2.59-4.82,6.24-4.82h2.32c0.12,0,0.18-0.06,0.18-0.18v-0.39c0-1.09-0.57-1.54-2.83-1.54
				c-1.33,0-2.47,0.36-3.16,0.84c-0.15,0.09-0.3,0.09-0.39-0.09l-1.57-2.77c-0.09-0.21-0.06-0.36,0.09-0.48
				c1.33-0.9,3.28-1.45,5.7-1.45c5.12,0,6.93,1.72,6.93,5.48v9.25c0,0.18-0.12,0.3-0.3,0.3H74.05z M73.75,69.75v-0.9
				c0-0.12-0.06-0.18-0.18-0.18H71.8c-1.36,0-2.05,0.48-2.05,1.39c0,0.81,0.57,1.27,1.72,1.27C73.03,71.32,73.75,70.81,73.75,69.75z
				"/>
			<path class="st12" d="M104.49,70.69c-0.33-1.09-0.45-2.14-0.45-3.44c0-1.33,0.12-2.38,0.45-3.47c0.9-2.8,3.47-4.25,6.69-4.25
				c3.23,0,5.76,1.45,6.69,4.25c0.33,1.09,0.45,2.14,0.45,3.47c0,1.3-0.12,2.35-0.45,3.44c-0.93,2.8-3.47,4.25-6.69,4.25
				C107.96,74.94,105.4,73.49,104.49,70.69z M112.99,69.54c0.15-0.54,0.21-1.05,0.21-2.29c0-1.24-0.06-1.78-0.21-2.32
				c-0.3-0.84-0.93-1.24-1.81-1.24c-0.87,0-1.51,0.39-1.81,1.24c-0.15,0.54-0.21,1.08-0.21,2.32c0,1.24,0.06,1.75,0.21,2.29
				c0.3,0.84,0.93,1.24,1.81,1.24C112.06,70.78,112.69,70.39,112.99,69.54z"/>
			<path class="st12" d="M128.63,74.58c-0.18,0-0.3-0.12-0.3-0.3V65.9c0-1.29-0.57-2.14-1.78-2.14c-1.14,0-1.81,0.81-1.81,2.14v8.38
				c0,0.18-0.12,0.3-0.3,0.3h-4.46c-0.18,0-0.3-0.12-0.3-0.3V60.2c0-0.18,0.12-0.3,0.3-0.3h4.46c0.18,0,0.3,0.12,0.3,0.3v1.05h0.03
				c0.66-0.96,1.93-1.72,3.77-1.72c3.35,0,4.85,2.26,4.85,5.48v9.25c0,0.18-0.12,0.3-0.3,0.3H128.63z"/>
			<path class="st12" d="M144.73,74.58c-0.21,0-0.36-0.09-0.45-0.3l-2.86-5.66l-1.09,1.45v4.22c0,0.18-0.12,0.3-0.3,0.3h-4.43
				c-0.18,0-0.3-0.12-0.3-0.3V54.39c0-0.18,0.12-0.3,0.3-0.3h4.43c0.18,0,0.3,0.12,0.3,0.3v10.31l3.44-4.49
				c0.18-0.21,0.33-0.3,0.57-0.3h4.61c0.18,0,0.24,0.18,0.12,0.3l-4.31,5l4.91,9.07c0.09,0.15,0.03,0.3-0.15,0.3H144.73z"/>
			<path class="st12" d="M149.55,70.63c-0.3-0.87-0.48-1.84-0.48-3.37c0-1.57,0.18-2.56,0.45-3.41c0.9-2.74,3.28-4.31,6.57-4.31
				c3.49,0,5.79,1.57,6.63,4.25c0.3,0.9,0.48,2.02,0.48,4.58c0,0.18-0.12,0.3-0.33,0.3h-8.71c-0.12,0-0.18,0.06-0.18,0.18
				c0.03,0.21,0.06,0.42,0.12,0.6c0.33,1.02,1.42,1.6,2.83,1.6c1.27,0,2.35-0.42,3.28-1.17c0.18-0.15,0.3-0.15,0.45,0l2.14,2.2
				c0.15,0.12,0.12,0.33-0.03,0.45c-1.54,1.48-3.77,2.41-6.39,2.41C152.81,74.94,150.43,73.34,149.55,70.63z M158.14,65.6
				c0.12,0,0.18-0.06,0.18-0.18c0-0.39-0.03-0.66-0.12-0.9c-0.27-0.84-0.99-1.33-2.05-1.33c-1.02,0-1.78,0.48-2.05,1.33
				c-0.06,0.24-0.12,0.51-0.12,0.9c0,0.12,0.06,0.18,0.18,0.18H158.14z"/>
			<path class="st12" d="M165.4,80c-0.18,0-0.3-0.12-0.3-0.3v-3.56c0-0.18,0.12-0.3,0.3-0.3h0.75c0.96,0,1.51-0.3,1.81-1.24
				l0.33-0.93l-5.52-13.47c-0.06-0.15,0.03-0.3,0.21-0.3h4.73c0.18,0,0.3,0.12,0.36,0.3l2.53,7.35h0.06l2.35-7.35
				c0.06-0.18,0.18-0.3,0.39-0.3h4.61c0.21,0,0.27,0.15,0.21,0.3l-6.36,16.03c-1.14,2.92-2.53,3.77-5.36,3.77H165.4z"/>
		</g>
		<g>
			<path class="st13" d="M105.44,35.23c-3.27,0-5.57,2.71-5.68,5.68c-0.07,1.87-1.28,4.02-3.49,2.84
				c-4.95-2.62-9.42,2.98-10.02,3.31c-0.72,0.4-1.2-0.42-1.45-0.82c-0.6-0.95-2.24-2.11-4.09-0.89c-2.09,1.38-1.87,1.99-1.49,2.18
				c0.38,0.19-0.77,0.76-0.71,1.16c0.09,0.7,0.01,2.62,1.75,2.13c1.15-0.33,1.88,0.55,1.88,1.34c0,0.55-0.59,1.42-2.46,2.1
				c-1.71,0.62-3.06,0.82-4.81,2c-0.61,0.41-1.27,0.21-1.66,0.39c-0.77,0.34-1.61,1.4-1.2,1.93c0.13,0.16,1.41-1.18,2.14-0.86
				c0.21,0.09,0.12,0.45-0.19,0.78c-0.26,0.28-0.27,0.52-0.18,0.68c0.09,0.16,0.94-0.73,1.21-1.12c0.16-0.23,0.22-0.31,0.68-0.34
				c2.59-0.12,5.65-0.26,7.08-1.73c0.48-0.49,1.16-2.32,1.62-2.45c0.5-0.14,1.16,0.43,1.2,3.95c0.01,0.95,0.92,1.27,0.9,2.82
				c-0.39,0.27-0.71,0.59-0.95,0.93h-0.03V60.2c0-0.18-0.12-0.3-0.3-0.3h-4.46c-0.18,0-0.3,0.12-0.3,0.3v14.07
				c0,0.18,0.12,0.3,0.3,0.3h4.46c0.18,0,0.3-0.12,0.3-0.3V65.9c0-1.32,0.66-2.14,1.81-2.14c1.21,0,1.78,0.84,1.78,2.14v8.38
				c0,0.18,0.12,0.3,0.3,0.3h4.46c0.18,0,0.3-0.12,0.3-0.3V65.9c0-1.32,0.66-2.14,1.78-2.14c1.21,0,1.81,0.84,1.81,2.14v8.38
				c0,0.18,0.12,0.3,0.3,0.3h4.46c0.18,0,0.3-0.12,0.3-0.3v-9.25c0-0.61-0.06-1.17-0.17-1.69c0-0.04-0.01-0.08-0.02-0.12
				c-0.03-0.13-0.07-0.26-0.1-0.37c-0.07-0.24-0.15-0.47-0.25-0.68c-0.15-0.38-0.27-0.76-0.27-1.34c0-0.63-0.39-3.13-0.44-3.56
				c-0.05-0.43-0.2-0.71-0.95-0.85c-0.49-0.1-3.86-2.25-2.41-4.36c1.46-2.13,1.14-4.05,0.65-5.41c-0.27-0.75,0.71-0.91,1.89-2.57
				c0.65-0.92,0.88-1.97,0.95-3.14c0.13-2.13,1.57-3.79,3.79-3.79c2.91,0,3.86,2.69,3.79,3.79c-0.06,0.94-0.3,1.3-0.95,1.42
				c-0.64,0.12-1.42-0.6-1.42-1.44c0-0.37-0.32-0.69-0.73-0.69c-0.31,0-0.69,0.28-0.69,0.71c0,1.51,1.22,2.84,2.84,2.84
				c1.35,0,2.84-0.79,2.84-2.84C111.13,38.07,108.89,35.23,105.44,35.23z M88.28,56.19c-1.76-2.71,1.08-3.4,1.34-2.46
				c0.22,0.78-0.15,3.01,0.57,5.67c0.02,0.07,0.04,0.14,0.06,0.21c-0.3-0.05-0.63-0.07-0.97-0.07c-0.23,0-0.45,0.01-0.67,0.03
				C88.87,57.6,88.8,56.98,88.28,56.19z M100.15,59.38c0,0.24,0,0.46-0.01,0.65c-0.69-0.31-1.52-0.48-2.49-0.48
				c-2.05,0-3.49,0.72-4.49,1.8c-0.02-0.16-0.11-0.41-0.29-0.88c-0.42-1.12,0.15-3.49,0.22-4.24c0.08-0.79,0.08-1.47-0.53-1.8
				c-0.55-0.3,1.21-2.71,1.54-3.04c0.17-0.17,0.69-0.22,0.58,0.92c-0.16,1.66-1.01,3.12,0.78,4.11
				C97.27,57.39,100.15,57.85,100.15,59.38z"/>
			<path class="st13" d="M78.51,44.81c0,1.31-1.06,2.37-2.37,2.37c-1.31,0-2.37-1.06-2.37-2.37s1.06-2.37,2.37-2.37
				C77.45,42.44,78.51,43.5,78.51,44.81z"/>
			<path class="st13" d="M76.15,38.25c0,2.09-1.7,3.79-3.79,3.79c-2.09,0-3.79-1.7-3.79-3.79c0-2.09,1.7-3.79,3.79-3.79
				C74.45,34.46,76.15,36.16,76.15,38.25z"/>
			<path class="st13" d="M77.6,26.63c0,3.66-2.97,6.63-6.63,6.63c-3.66,0-6.63-2.97-6.63-6.63c0-3.66,2.97-6.63,6.63-6.63
				C74.63,20,77.6,22.97,77.6,26.63z"/>
		</g>
	</g>
</g>
</svg>
