<?xml version="1.0" encoding="utf-8"?>
<!-- Generator: Adobe Illustrator 27.3.1, SVG Export Plug-In . SVG Version: 6.00 Build 0)  -->
<svg version="1.1" xmlns="http://www.w3.org/2000/svg" xmlns:xlink="http://www.w3.org/1999/xlink" x="0px" y="0px"
	 viewBox="0 0 200 100" style="enable-background:new 0 0 200 100;" xml:space="preserve">
<style type="text/css">
	.st0{fill:#080F27;}
	.st1{fill:#2A9B49;}
	.st2{fill:#ED1B25;}
	.st3{fill:#033572;}
	.st4{fill-rule:evenodd;clip-rule:evenodd;}
	.st5{fill:#FD393C;}
	.st6{fill:#FFFFFF;}
	.st7{fill:#FABB16;}
	.st8{fill:#5F5F5F;}
	.st9{fill:#0080FF;}
	.st10{fill-rule:evenodd;clip-rule:evenodd;fill:#0080FF;}
	.st11{fill:#E84E0F;}
	.st12{fill:#263238;}
	.st13{fill:#D4E157;}
	.st14{fill:url(#SVGID_1_);}
	.st15{fill:url(#SVGID_00000176740360183116808470000015433487850243853441_);}
	.st16{fill:url(#SVGID_00000168825326079437973740000002604818070999101578_);}
	.st17{fill:url(#SVGID_00000014628343774091667330000006477933793101430685_);}
	.st18{fill:url(#SVGID_00000176737600759797468720000002324481575695237266_);}
	.st19{fill:url(#SVGID_00000003089323284705866020000007762750079149836697_);}
	.st20{fill:url(#SVGID_00000024698752102598999190000011219872821244530330_);}
	.st21{fill:#E63351;}
	.st22{clip-path:url(#SVGID_00000044170904124388729320000001699778106451750828_);}
	.st23{clip-path:url(#SVGID_00000028288484686496205530000002454832428078432659_);}
	.st24{clip-path:url(#SVGID_00000065760688124761529320000014277029806781340054_);}
	.st25{clip-path:url(#SVGID_00000050627847932414272690000000224193001808477369_);}
	.st26{clip-path:url(#SVGID_00000010293700496975232880000016335846657597125789_);}
	.st27{clip-path:url(#SVGID_00000081615507589634723290000014039106992855452851_);}
	.st28{clip-path:url(#SVGID_00000106148060271021506130000003888741035687823012_);}
	.st29{clip-path:url(#SVGID_00000061431334722707295060000017007965200587137431_);}
	.st30{clip-path:url(#SVGID_00000167364142598600440290000009866326548842669725_);}
	.st31{clip-path:url(#SVGID_00000173158222591102965660000018092150450875410846_);}
	.st32{clip-path:url(#SVGID_00000058560304579069162500000005325909671092772784_);}
	.st33{clip-path:url(#SVGID_00000009550819742423817040000011907104226741840264_);}
	.st34{clip-path:url(#SVGID_00000057114986927393139870000009702247417268964256_);}
	.st35{clip-path:url(#SVGID_00000011746008789436534570000000681508606518615689_);}
	.st36{clip-path:url(#SVGID_00000101069797417935315570000016862517366435004313_);}
	.st37{clip-path:url(#SVGID_00000085962615720642820250000009340094028469076872_);}
	.st38{clip-path:url(#SVGID_00000023274265853816199620000004854292061180007088_);}
	.st39{clip-path:url(#SVGID_00000026861413851081358480000017771962495720712364_);}
	.st40{clip-path:url(#SVGID_00000147177754061865063830000002519162978689997709_);}
	.st41{clip-path:url(#SVGID_00000023991700448202113270000006866117429402655674_);}
	.st42{clip-path:url(#SVGID_00000026868064621318645180000005644828394202067345_);}
	.st43{clip-path:url(#SVGID_00000071558281726398658710000002783337758879070373_);}
	.st44{clip-path:url(#SVGID_00000137093155448231394480000000725461613180046519_);}
	.st45{clip-path:url(#SVGID_00000008868853633175367820000015042715618526871428_);}
	.st46{fill:#A03C56;}
	.st47{clip-path:url(#SVGID_00000141432867846894595540000012786008078824560530_);}
	.st48{clip-path:url(#SVGID_00000183230760641491277430000014363149023681661090_);}
	.st49{clip-path:url(#SVGID_00000088832088712421212620000010773839030678823816_);}
	.st50{clip-path:url(#SVGID_00000178888296464585056130000017578766963857513380_);}
	.st51{clip-path:url(#SVGID_00000098209436108635287660000008426470492980144514_);}
	.st52{clip-path:url(#SVGID_00000152232907232749468560000000286862014822873490_);}
	.st53{clip-path:url(#SVGID_00000116954948879955867540000014793895665963480749_);}
	.st54{clip-path:url(#SVGID_00000155833955619063470350000010464168674844219814_);}
	.st55{clip-path:url(#SVGID_00000098209547382245511200000000560951094878880445_);}
	.st56{clip-path:url(#SVGID_00000008118256985190332350000009532584032362533311_);}
	.st57{clip-path:url(#SVGID_00000107559687126936085580000013402807994810569407_);}
	.st58{clip-path:url(#SVGID_00000044895256477925255780000013349293401666640527_);}
	.st59{clip-path:url(#SVGID_00000026155733643036693520000014777323347824023712_);}
	.st60{clip-path:url(#SVGID_00000093859828235208033740000004694627372234991770_);}
	.st61{fill:none;}
	.st62{fill:#1388D6;}
	.st63{fill-rule:evenodd;clip-rule:evenodd;fill:#6EBE43;}
	.st64{fill-rule:evenodd;clip-rule:evenodd;fill:#1388D6;}
	.st65{fill:#62B536;}
	.st66{fill:#848688;}
	.st67{fill-rule:evenodd;clip-rule:evenodd;fill:url(#SVGID_00000074402297370088623060000009802026823706321318_);}
	.st68{fill-rule:evenodd;clip-rule:evenodd;fill:url(#SVGID_00000112628016978311722810000015513828835290824588_);}
	.st69{fill-rule:evenodd;clip-rule:evenodd;fill:#FFFFFF;}
	.st70{fill-rule:evenodd;clip-rule:evenodd;fill:url(#SVGID_00000134219751244623554840000001868552909865744314_);}
	.st71{fill-rule:evenodd;clip-rule:evenodd;fill:url(#SVGID_00000080907150099804870920000000257556478433630345_);}
	.st72{fill:url(#SVGID_00000030456122123115170690000003223468997842663350_);}
	.st73{fill:url(#SVGID_00000075162537987987396000000008866071026758413193_);}
	.st74{fill:url(#SVGID_00000161598528461489865200000003352063659442082473_);}
	.st75{fill:url(#SVGID_00000098212255997084382880000006283087206522304174_);}
	.st76{fill:url(#SVGID_00000183934042127745464670000013888130327590215596_);}
	.st77{fill:url(#SVGID_00000136370340864585276940000003104492714941183391_);}
	.st78{fill:url(#SVGID_00000036210499941206725040000007739938557859665846_);}
	.st79{clip-path:url(#SVGID_00000021812048980788414920000006953730359704584114_);}
	.st80{clip-path:url(#SVGID_00000081637490677626388410000012964427495417272718_);}
	.st81{clip-path:url(#SVGID_00000079482775732637506770000017341470347323386028_);}
	.st82{clip-path:url(#SVGID_00000078040552017492353650000010414816177976338317_);}
	.st83{clip-path:url(#SVGID_00000019658586993739974450000005222137818198693308_);}
	.st84{clip-path:url(#SVGID_00000023263319887329227120000004347777006228506511_);}
	.st85{clip-path:url(#SVGID_00000023997198723493611300000017738686808322606220_);}
	.st86{clip-path:url(#SVGID_00000109006214658076070140000010097061827017781134_);}
	.st87{clip-path:url(#SVGID_00000180325059156083174080000003365548014700525199_);}
	.st88{clip-path:url(#SVGID_00000054232511620354159980000009030400160649048511_);}
	.st89{clip-path:url(#SVGID_00000045600846879349510230000005533769299528722847_);}
	.st90{clip-path:url(#SVGID_00000059303416761674095990000003709470345012359868_);}
	.st91{clip-path:url(#SVGID_00000142140008924133759360000012875910987631613328_);}
	.st92{clip-path:url(#SVGID_00000101067852253628776130000005744667944170624957_);}
	.st93{clip-path:url(#SVGID_00000102534286250354127230000006813814239018423181_);}
	.st94{clip-path:url(#SVGID_00000118390025939782910950000015452221395453993092_);}
	.st95{clip-path:url(#SVGID_00000070829606483092309440000004450826006598158259_);}
	.st96{clip-path:url(#SVGID_00000037650112031893602800000013373691788328793729_);}
	.st97{clip-path:url(#SVGID_00000172406109935619276540000015361433717812869543_);}
	.st98{clip-path:url(#SVGID_00000050625834127883842240000009180243944567248519_);}
	.st99{clip-path:url(#SVGID_00000044174438394175655360000004414507076164001422_);}
	.st100{clip-path:url(#SVGID_00000153706253175602309330000004656634503776955815_);}
	.st101{clip-path:url(#SVGID_00000034082727063437653380000008434915292928332200_);}
	.st102{clip-path:url(#SVGID_00000051356419850116673490000004021080063169780895_);}
	.st103{clip-path:url(#SVGID_00000125586709048088739840000008181510959558932899_);}
	.st104{clip-path:url(#SVGID_00000071543035175104364420000005015195644994268053_);}
	.st105{clip-path:url(#SVGID_00000008840493546165565930000005764440989657159596_);}
	.st106{clip-path:url(#SVGID_00000025434682907212566320000004655689579406228652_);}
	.st107{clip-path:url(#SVGID_00000148659821548027799780000001154022389564510396_);}
	.st108{clip-path:url(#SVGID_00000176740139415672483340000005326981096154277296_);}
	.st109{clip-path:url(#SVGID_00000106839680081326845260000013869069911475270305_);}
	.st110{clip-path:url(#SVGID_00000182526869431515454400000016295326776784383112_);}
	.st111{clip-path:url(#SVGID_00000029014797382370533000000007120163180556556713_);}
	.st112{clip-path:url(#SVGID_00000115512561218188901380000013980262829451243918_);}
	.st113{clip-path:url(#SVGID_00000183954180110007589650000009768254885444554653_);}
	.st114{clip-path:url(#SVGID_00000173163192934795737350000006609504315836544661_);}
	.st115{clip-path:url(#SVGID_00000018956007084553660030000003232764088164196766_);}
	.st116{clip-path:url(#SVGID_00000176005756770797615460000011370515985340954046_);}
</style>
<g id="Background">
</g>
<g id="Logos">
	<g>
		<polygon class="st3" points="30.9,38 41.49,38 34.87,48.92 36.61,48.92 43.14,38 53.74,38 47.2,48.92 54.57,48.92 51.59,53.81 
			44.22,53.81 50.01,61.67 39.42,61.67 33.71,53.81 31.89,53.81 37.6,61.67 27.09,61.67 21.38,53.81 		"/>
		<polygon points="67.23,57.94 70.46,57.94 70.46,51.57 76.5,51.57 76.5,57.94 79.72,57.94 79.72,43.13 76.5,43.13 76.5,48.84 
			70.46,48.84 70.46,43.13 67.23,43.13 		"/>
		<path class="st4" d="M87.59,53.81c0,0.66-0.08,2.4-2.4,2.4c-0.91,0-1.74-0.25-1.74-1.41c0-1.08,0.83-1.41,1.74-1.57
			c0.91-0.17,1.9-0.17,2.4-0.58V53.81L87.59,53.81z M83.78,50.5c0.08-1.16,0.83-1.57,1.9-1.57c1.08,0,1.9,0.17,1.9,1.41
			c0,1.24-1.66,1.16-3.48,1.41s-3.64,0.83-3.64,3.31c0,2.23,1.57,3.23,3.64,3.23c1.32,0,2.65-0.33,3.64-1.32
			c0,0.33,0.08,0.74,0.25,1.08h2.98c-0.25-0.41-0.41-1.41-0.41-2.4v-5.54c0-2.57-2.57-3.06-4.72-3.06c-2.4,0-4.88,0.83-5.05,3.64
			L83.78,50.5L83.78,50.5z"/>
		<path class="st4" d="M91.48,61.75h2.98v-5.13h0.08c0.74,1.08,1.9,1.57,3.23,1.57c3.14,0,4.72-2.65,4.72-5.54
			c0-3.06-1.49-5.79-4.88-5.79c-1.32,0-2.48,0.5-3.23,1.66h-0.08v-1.24h-2.81L91.48,61.75L91.48,61.75z M96.94,56.04
			c-1.9,0-2.57-1.66-2.57-3.39s0.58-3.48,2.57-3.48c1.9,0,2.57,1.74,2.57,3.48S98.84,56.04,96.94,56.04L96.94,56.04z"/>
		<path class="st4" d="M109.93,53.81c0,0.66-0.08,2.4-2.4,2.4c-0.91,0-1.74-0.25-1.74-1.41c0-1.08,0.83-1.41,1.74-1.57
			c0.91-0.17,1.9-0.17,2.4-0.58V53.81L109.93,53.81z M106.04,50.5c0.08-1.16,0.83-1.57,1.9-1.57c1.08,0,1.9,0.17,1.9,1.41
			c0,1.24-1.66,1.16-3.48,1.41s-3.64,0.83-3.64,3.31c0,2.23,1.57,3.23,3.64,3.23c1.32,0,2.65-0.33,3.64-1.32
			c0,0.33,0.08,0.74,0.25,1.08h2.98c-0.25-0.41-0.41-1.41-0.41-2.4v-5.54c0-2.57-2.57-3.06-4.72-3.06c-2.4,0-4.88,0.83-5.05,3.64
			L106.04,50.5L106.04,50.5z"/>
		<path class="st4" d="M124.58,47.27h-2.81v1.41h-0.08c-0.74-1.24-1.74-1.74-3.23-1.74c-2.98,0-4.63,2.57-4.63,5.3
			c0,2.98,1.41,5.38,4.63,5.38c1.24,0,2.57-0.58,3.23-1.66h0.08v1.41c0,1.57-0.74,2.65-2.4,2.65c-1.08,0-1.9-0.41-2.23-1.49h-2.98
			c0.17,2.4,2.57,3.48,4.72,3.48c4.97,0,5.54-2.98,5.54-4.8L124.58,47.27L124.58,47.27z M119.2,55.46c-1.74,0-2.4-1.66-2.4-3.23
			s0.74-3.06,2.4-3.06c1.9,0,2.48,1.57,2.48,3.31C121.68,54.06,120.94,55.46,119.2,55.46L119.2,55.46z"/>
		<polygon points="125.32,53.56 131.61,53.56 131.61,50.99 125.32,50.99 		"/>
		<polygon points="132.36,57.94 142.87,57.94 142.87,55.21 135.67,55.21 135.67,43.13 132.36,43.13 		"/>
		<polygon points="143.53,57.94 146.43,57.94 146.43,43.13 143.53,43.13 		"/>
		<path class="st4" d="M147.09,52.65c0,3.39,2.15,5.63,5.54,5.63c3.39,0,5.54-2.23,5.54-5.63s-2.15-5.63-5.54-5.63
			C149.24,46.94,147.09,49.17,147.09,52.65L147.09,52.65z M150.07,52.65c0-1.74,0.58-3.48,2.57-3.48s2.57,1.74,2.57,3.48
			s-0.58,3.48-2.57,3.48C150.65,56.04,150.07,54.3,150.07,52.65L150.07,52.65z"/>
		<path d="M168.52,47.27h-3.06l-2.32,7.28h-0.08l-2.4-7.28h-3.14l3.81,10.01c0.33,0.83,0,1.9-0.99,1.99c-0.58,0-1.16-0.08-1.74-0.08
			v2.4c0.58,0.08,1.24,0.08,1.74,0.08c2.07,0,3.06-0.74,3.64-2.4L168.52,47.27L168.52,47.27z"/>
		<path class="st4" d="M175.81,57.94h2.81V43.13h-2.98v5.38h-0.08l0,0c-0.66-1.08-1.9-1.57-3.23-1.57c-3.14,0-4.8,2.65-4.8,5.54
			c0,2.98,1.57,5.71,4.8,5.71c1.41,0,2.57-0.5,3.31-1.66h0.08L175.81,57.94L175.81,57.94z M175.81,52.57c0,1.74-0.58,3.48-2.57,3.48
			c-1.82,0-2.57-1.74-2.57-3.48c0-1.74,0.66-3.48,2.57-3.48C175.14,49.17,175.81,50.83,175.81,52.57L175.81,52.57z"/>
	</g>
</g>
</svg>
