<?xml version="1.0" encoding="utf-8"?>
<!-- Generator: Adobe Illustrator 27.3.1, SVG Export Plug-In . SVG Version: 6.00 Build 0)  -->
<svg version="1.1" xmlns="http://www.w3.org/2000/svg" xmlns:xlink="http://www.w3.org/1999/xlink" x="0px" y="0px"
	 viewBox="0 0 200 100" style="enable-background:new 0 0 200 100;" xml:space="preserve">
<style type="text/css">
	.st0{fill:#080F27;}
	.st1{fill:#2A9B49;}
	.st2{fill:#ED1B25;}
	.st3{fill:#033572;}
	.st4{fill-rule:evenodd;clip-rule:evenodd;}
	.st5{fill:#FD393C;}
	.st6{fill:#FFFFFF;}
	.st7{fill:#FABB16;}
	.st8{fill:#5F5F5F;}
	.st9{fill:#0080FF;}
	.st10{fill-rule:evenodd;clip-rule:evenodd;fill:#0080FF;}
	.st11{fill:#E84E0F;}
	.st12{fill:#263238;}
	.st13{fill:#D4E157;}
	.st14{fill:url(#SVGID_1_);}
	.st15{fill:url(#SVGID_00000162332409081891855160000013860840834632916641_);}
	.st16{fill:url(#SVGID_00000078012461353237984080000010482014389741277625_);}
	.st17{fill:url(#SVGID_00000064335360960645731200000015308918004856252844_);}
	.st18{fill:url(#SVGID_00000098198732350199737050000010336745338039670716_);}
	.st19{fill:url(#SVGID_00000140725675353838238120000000923300636186814380_);}
	.st20{fill:url(#SVGID_00000007418831348181705690000013561877849014875313_);}
	.st21{fill:#E63351;}
	.st22{clip-path:url(#SVGID_00000115480344149860339030000004065517264168833922_);}
	.st23{clip-path:url(#SVGID_00000166649500147642221940000012290788428975434150_);}
	.st24{clip-path:url(#SVGID_00000158719783572975298380000013746252797940394429_);}
	.st25{clip-path:url(#SVGID_00000107565733013422398830000018139981431658609539_);}
	.st26{clip-path:url(#SVGID_00000167387602407981040710000001543508614089139124_);}
	.st27{clip-path:url(#SVGID_00000107577006393005916810000008060837058096270778_);}
	.st28{clip-path:url(#SVGID_00000119087819921442194470000003800236819641186446_);}
	.st29{clip-path:url(#SVGID_00000119800287252942371110000005089903964096528277_);}
	.st30{clip-path:url(#SVGID_00000137841036984536972640000016831014991964851894_);}
	.st31{clip-path:url(#SVGID_00000147202712041639286990000001882290057655981495_);}
	.st32{clip-path:url(#SVGID_00000027579278775012709740000002689773414352102307_);}
	.st33{clip-path:url(#SVGID_00000008867813794263095530000001943006596654811795_);}
	.st34{clip-path:url(#SVGID_00000013155990643449126490000008562636497408710311_);}
	.st35{clip-path:url(#SVGID_00000011021556472400039960000009249567119110200493_);}
	.st36{clip-path:url(#SVGID_00000023991097054192942300000003583773679835296437_);}
	.st37{clip-path:url(#SVGID_00000065067497327863295180000013614201213809017765_);}
	.st38{clip-path:url(#SVGID_00000154395659631128553270000009768140612643383733_);}
	.st39{clip-path:url(#SVGID_00000066501845610189958220000010397710793355827598_);}
	.st40{clip-path:url(#SVGID_00000181799111017645311850000011986984907431574153_);}
	.st41{clip-path:url(#SVGID_00000173850798028911823370000012633018102741122749_);}
	.st42{clip-path:url(#SVGID_00000062873759916918500530000014742917432819362970_);}
	.st43{clip-path:url(#SVGID_00000016044720576300449340000004150951273942205372_);}
	.st44{clip-path:url(#SVGID_00000115494244081135914650000016471263134042012851_);}
	.st45{clip-path:url(#SVGID_00000039841877557621321410000010481031416809514669_);}
	.st46{fill:#A03C56;}
	.st47{clip-path:url(#SVGID_00000060746027965762548460000010694966027427518890_);}
	.st48{clip-path:url(#SVGID_00000162339190280104675190000009128095123603523976_);}
	.st49{clip-path:url(#SVGID_00000095328689237823466730000011453932335533526455_);}
	.st50{clip-path:url(#SVGID_00000033341296653988392750000017665850215432028605_);}
	.st51{clip-path:url(#SVGID_00000076599553148614963030000011970318986891573408_);}
	.st52{clip-path:url(#SVGID_00000087378360492686750020000003363512261127878567_);}
	.st53{clip-path:url(#SVGID_00000115501813226956273870000012603305142603680431_);}
	.st54{clip-path:url(#SVGID_00000035491129127163978110000001324950195484996004_);}
	.st55{clip-path:url(#SVGID_00000053536441470903524650000003858747548308220314_);}
	.st56{clip-path:url(#SVGID_00000107559899240915152540000005740867948705083832_);}
	.st57{clip-path:url(#SVGID_00000108278092266834689310000007713254391158278289_);}
	.st58{clip-path:url(#SVGID_00000109739856122586832290000011589688322942616473_);}
	.st59{clip-path:url(#SVGID_00000062912651407652643300000000212271588078979471_);}
	.st60{clip-path:url(#SVGID_00000067212618844841447860000006973654402544832412_);}
	.st61{fill:none;}
	.st62{fill:#1388D6;}
	.st63{fill-rule:evenodd;clip-rule:evenodd;fill:#6EBE43;}
	.st64{fill-rule:evenodd;clip-rule:evenodd;fill:#1388D6;}
	.st65{fill:#62B536;}
	.st66{fill:#848688;}
	.st67{fill-rule:evenodd;clip-rule:evenodd;fill:url(#SVGID_00000160191488721674314360000016588149529624770197_);}
	.st68{fill-rule:evenodd;clip-rule:evenodd;fill:url(#SVGID_00000099662142584544501030000011529599588919039374_);}
	.st69{fill-rule:evenodd;clip-rule:evenodd;fill:#FFFFFF;}
	.st70{fill-rule:evenodd;clip-rule:evenodd;fill:url(#SVGID_00000091705085624464429660000013823919073065820086_);}
	.st71{fill-rule:evenodd;clip-rule:evenodd;fill:url(#SVGID_00000116198635391169945220000015749136085267732135_);}
	.st72{fill:url(#SVGID_00000096757833900356097230000016523856637390981281_);}
	.st73{fill:url(#SVGID_00000175286686580140504460000015356319987128594589_);}
	.st74{fill:url(#SVGID_00000122693796032061535810000004565034351046474165_);}
	.st75{fill:url(#SVGID_00000058558499742332077360000011215864397345862582_);}
	.st76{fill:url(#SVGID_00000017492356845577212980000004347280920954640038_);}
	.st77{fill:url(#SVGID_00000165210143370924385510000004611083405166249106_);}
	.st78{fill:url(#SVGID_00000143594020973816400450000000168307989924680092_);}
	.st79{clip-path:url(#SVGID_00000013191656075798211060000015220774985513007543_);}
	.st80{clip-path:url(#SVGID_00000045596586648829374700000008959454847824597147_);}
	.st81{clip-path:url(#SVGID_00000157287883809993817400000017276017943018600633_);}
	.st82{clip-path:url(#SVGID_00000170261985649947221890000017300706185508009102_);}
	.st83{clip-path:url(#SVGID_00000073700851657023702360000007168339748207191203_);}
	.st84{clip-path:url(#SVGID_00000110440231753382810340000010826584607884145572_);}
	.st85{clip-path:url(#SVGID_00000004536252808418937730000016139830922892995760_);}
	.st86{clip-path:url(#SVGID_00000021822187934240830300000011771952898727538101_);}
	.st87{clip-path:url(#SVGID_00000137819853733985031020000012603202939842336431_);}
	.st88{clip-path:url(#SVGID_00000082346349948058829210000004503918573569824176_);}
	.st89{clip-path:url(#SVGID_00000052080829249494597050000011139026579354259333_);}
	.st90{clip-path:url(#SVGID_00000138572378151505657930000007156369563703295409_);}
	.st91{clip-path:url(#SVGID_00000087398703080033310630000016807428485779440002_);}
	.st92{clip-path:url(#SVGID_00000082329979391002989320000012980390018626810273_);}
	.st93{clip-path:url(#SVGID_00000134939977491812135550000002057932242984829316_);}
	.st94{clip-path:url(#SVGID_00000107571190423955977730000017825652127270386594_);}
	.st95{clip-path:url(#SVGID_00000107562757112042782840000000268605024059176329_);}
	.st96{clip-path:url(#SVGID_00000008149997560389909920000008120617605753673376_);}
	.st97{clip-path:url(#SVGID_00000004540336690763083170000003662149639862827415_);}
	.st98{clip-path:url(#SVGID_00000162321912078180077510000007532210676202728350_);}
	.st99{clip-path:url(#SVGID_00000166645364664227231130000009514576298339304115_);}
	.st100{clip-path:url(#SVGID_00000165931141747857771640000016525003795699354003_);}
	.st101{clip-path:url(#SVGID_00000142864156567653558950000017552366134969770628_);}
	.st102{clip-path:url(#SVGID_00000032645661607893157040000018414474829686592654_);}
	.st103{clip-path:url(#SVGID_00000023975401646501340180000008298534995594661038_);}
	.st104{clip-path:url(#SVGID_00000169524182406077712820000016802585751690042772_);}
	.st105{clip-path:url(#SVGID_00000020361141874898252810000002474310135037061816_);}
	.st106{clip-path:url(#SVGID_00000108289977267518912600000010415612971470357655_);}
	.st107{clip-path:url(#SVGID_00000026144040858297524780000014575097654430356413_);}
	.st108{clip-path:url(#SVGID_00000145765701121840148170000008614759930618924472_);}
	.st109{clip-path:url(#SVGID_00000152241055988977347260000002600472458223040396_);}
	.st110{clip-path:url(#SVGID_00000047739910770256724740000011165831907991751334_);}
	.st111{clip-path:url(#SVGID_00000038390235254182437930000013842481831355154606_);}
	.st112{clip-path:url(#SVGID_00000160903109419801664740000006913157016541823624_);}
	.st113{clip-path:url(#SVGID_00000165922813847447924420000004687967706607174320_);}
	.st114{clip-path:url(#SVGID_00000108311370231432416590000002914994682989118107_);}
	.st115{clip-path:url(#SVGID_00000050646696499979824960000011579324775448387722_);}
	.st116{clip-path:url(#SVGID_00000155869326880038128720000014321894124149253542_);}
</style>
<g id="Background">
</g>
<g id="Logos">
	<g>
		<g>
			<path class="st2" d="M36.11,35c-5.68,0-10.81,3.15-13.37,8.2l-0.26,0.51l1.42,0.71l0.26-0.51c2.27-4.54,6.87-7.35,11.95-7.35
				c7.41,0,13.42,6.02,13.42,13.42s-6.02,13.42-13.42,13.42c-1.31,0-2.58-0.17-3.8-0.54l-0.54-0.17l-0.45,1.5l0.54,0.17
				c1.36,0.4,2.81,0.62,4.26,0.62c8.26,0,14.99-6.73,14.99-14.99S44.37,35,36.11,35z"/>
			<path class="st2" d="M28.42,46.86c-0.6-0.2-1.19,0.03-1.56,0.51l-3.83,5.34c-0.68,0.96-0.68,2.24,0.03,3.18l4.03,5.34
				c0.26,0.37,0.68,0.57,1.11,0.57c0.17,0,0.31-0.03,0.45-0.09c0.6-0.2,0.96-0.74,0.94-1.36l-0.2-12.18
				C29.41,47.57,29.01,47.03,28.42,46.86z M28.33,60.29L28.33,60.29L28.33,60.29L28.33,60.29z M28.05,59.89l-3.75-4.94
				c-0.28-0.4-0.28-0.91,0-1.31l3.55-4.94L28.05,59.89z"/>
			<path class="st2" d="M20.47,54.95c-0.28-0.4-0.28-0.91,0-1.31l3.83-5.34c0.26-0.34,0.17-0.85-0.17-1.11
				c-0.34-0.26-0.85-0.17-1.11,0.17l-3.86,5.34c-0.68,0.96-0.68,2.24,0.03,3.18l4.03,5.36c0.14,0.2,0.4,0.31,0.62,0.31
				c0.17,0,0.34-0.06,0.48-0.17c0.34-0.26,0.43-0.77,0.14-1.11L20.47,54.95z"/>
		</g>
		<g>
			<path class="st2" d="M59.55,63.64v-19.5h2.16v19.5C61.71,63.64,59.55,63.64,59.55,63.64z"/>
			<path class="st2" d="M86.6,63.41v0.23h-2.38l-6.33-10.93h-7.63v10.93h-2.21V37.41h8.51c1.82,0,3.41,0.28,4.74,0.88
				c1.33,0.6,2.36,1.48,3.09,2.64c0.74,1.16,1.08,2.55,1.08,4.2c0,1.14-0.23,2.19-0.68,3.15c-0.45,0.96-1.08,1.79-1.9,2.47
				s-1.79,1.16-2.87,1.48L86.6,63.41z M77.07,50.84c1.33,0,2.44-0.26,3.38-0.79c0.94-0.51,1.65-1.22,2.1-2.07
				c0.48-0.85,0.71-1.82,0.71-2.84c0-1.19-0.26-2.24-0.77-3.12c-0.51-0.88-1.28-1.56-2.27-2.02c-0.99-0.48-2.21-0.71-3.63-0.71h-6.3
				v11.52L77.07,50.84L77.07,50.84z"/>
			<path class="st2" d="M91.99,54.02v0.43c0,1.42,0.28,2.72,0.85,3.92c0.57,1.19,1.36,2.13,2.36,2.81c0.99,0.68,2.16,1.02,3.46,1.02
				c1.16,0,2.19-0.23,3.09-0.65c0.88-0.43,1.67-1.11,2.38-2.02l1.36,1.02c-0.71,1.05-1.62,1.87-2.75,2.53
				c-1.14,0.62-2.53,0.94-4.14,0.94c-1.67,0-3.18-0.4-4.48-1.22c-1.33-0.82-2.36-1.96-3.12-3.41c-0.74-1.45-1.14-3.09-1.14-4.94
				v-0.77c0-1.96,0.37-3.66,1.14-5.17c0.77-1.5,1.79-2.67,3.07-3.49c1.28-0.82,2.67-1.22,4.14-1.22c1.62,0,3.01,0.37,4.17,1.14
				c1.16,0.77,2.04,1.82,2.64,3.15c0.6,1.33,0.91,2.89,0.91,4.63v1.31C105.93,54.02,91.99,54.02,91.99,54.02z M95.26,46.44
				c-0.88,0.54-1.59,1.31-2.13,2.3s-0.91,2.13-1.05,3.46h11.67v-0.23c-0.03-1.14-0.26-2.19-0.68-3.12
				c-0.43-0.96-1.05-1.73-1.87-2.33s-1.82-0.88-2.98-0.88C97.1,45.61,96.14,45.9,95.26,46.44z"/>
			<path class="st2" d="M133.86,44.14l-5.68,19.5h-1.56h-0.28l-5.02-15.47l-0.23-1.05l-0.26,1.08l-4.91,15.47h-1.5h-0.31l-5.65-19.5
				h2.21l4.14,15.01l0.31,1.65l0.43-1.76l4.68-14.93h1.56h0.31l4.6,14.79l0.51,2.04l0.4-1.87l4-14.96H133.86z"/>
			<path class="st2" d="M138.2,63.64v-19.5h2.16v19.5C140.36,63.64,138.2,63.64,138.2,63.64z"/>
			<path class="st2" d="M159.35,45.5c1.05,1.14,1.59,2.95,1.59,5.45v12.72h-2.16V50.95c0-1.93-0.4-3.29-1.16-4.09
				c-0.79-0.79-1.93-1.22-3.43-1.22c-1.42,0-2.61,0.45-3.6,1.33s-1.73,1.99-2.19,3.29v13.4h-2.16V44.14h2.07l0.09,3.29
				c0.71-1.14,1.59-2.04,2.7-2.7c1.11-0.65,2.33-0.96,3.66-0.96C156.73,43.8,158.3,44.37,159.35,45.5z"/>
			<path class="st2" d="M181.34,35.96v27.67h-2.02l-0.11-2.61c-0.65,0.94-1.5,1.67-2.53,2.19c-1.02,0.51-2.21,0.77-3.58,0.77
				c-1.5,0-2.81-0.43-3.95-1.25c-1.14-0.82-1.99-2.02-2.61-3.49c-0.62-1.5-0.91-3.21-0.91-5.17V53.7c0-2.02,0.31-3.75,0.91-5.25
				c0.6-1.5,1.48-2.64,2.61-3.46c1.14-0.82,2.47-1.22,4-1.22c1.33,0,2.53,0.26,3.52,0.79s1.84,1.31,2.5,2.27V35.96H181.34z
				 M177.03,61.2c0.94-0.62,1.65-1.48,2.16-2.55v-9.22c-0.48-1.11-1.16-2.02-2.07-2.72c-0.91-0.71-2.07-1.05-3.52-1.05
				c-1.28,0-2.36,0.34-3.21,1.05c-0.85,0.71-1.5,1.65-1.93,2.87c-0.43,1.22-0.62,2.58-0.62,4.14v0.37c0,1.56,0.2,2.92,0.62,4.14
				c0.43,1.22,1.05,2.16,1.9,2.87c0.85,0.68,1.9,1.05,3.18,1.05C174.93,62.13,176.09,61.82,177.03,61.2z"/>
		</g>
		<circle class="st2" cx="60.66" cy="38.55" r="1.48"/>
	</g>
</g>
</svg>
