<?xml version="1.0" encoding="utf-8"?>
<!-- Generator: Adobe Illustrator 27.3.1, SVG Export Plug-In . SVG Version: 6.00 Build 0)  -->
<svg version="1.1" xmlns="http://www.w3.org/2000/svg" xmlns:xlink="http://www.w3.org/1999/xlink" x="0px" y="0px"
	 viewBox="0 0 200 100" style="enable-background:new 0 0 200 100;" xml:space="preserve">
<style type="text/css">
	.st0{fill:#080F27;}
	.st1{fill:#2A9B49;}
	.st2{fill:#ED1B25;}
	.st3{fill:#033572;}
	.st4{fill-rule:evenodd;clip-rule:evenodd;}
	.st5{fill:#FD393C;}
	.st6{fill:#FFFFFF;}
	.st7{fill:#FABB16;}
	.st8{fill:#5F5F5F;}
	.st9{fill:#0080FF;}
	.st10{fill-rule:evenodd;clip-rule:evenodd;fill:#0080FF;}
	.st11{fill:#E84E0F;}
	.st12{fill:#263238;}
	.st13{fill:#D4E157;}
	.st14{fill:url(#SVGID_1_);}
	.st15{fill:url(#SVGID_00000050626432201243360030000007655761179847570347_);}
	.st16{fill:url(#SVGID_00000033364768081464249250000009140104250339891847_);}
	.st17{fill:url(#SVGID_00000071559467826151690130000002349812374610488961_);}
	.st18{fill:url(#SVGID_00000028308933032045672860000001101975194651233431_);}
	.st19{fill:url(#SVGID_00000129920545649388676050000018406619533828569745_);}
	.st20{fill:url(#SVGID_00000022542689310505164270000002976187100271507901_);}
	.st21{fill:#E63351;}
	.st22{clip-path:url(#SVGID_00000020373159605239139510000012464506337834425526_);}
	.st23{clip-path:url(#SVGID_00000157271484157527648970000009921838024311881898_);}
	.st24{clip-path:url(#SVGID_00000035517506396234987930000004439366288670481338_);}
	.st25{clip-path:url(#SVGID_00000080921176245890417270000003978468770850277262_);}
	.st26{clip-path:url(#SVGID_00000088815547172181186320000015178203857216042921_);}
	.st27{clip-path:url(#SVGID_00000117668666549228060960000004928389349721246353_);}
	.st28{clip-path:url(#SVGID_00000158712186598654611800000011632036277613325987_);}
	.st29{clip-path:url(#SVGID_00000140704260668733927380000006748382778111832715_);}
	.st30{clip-path:url(#SVGID_00000041285162097904249380000005083902660653618843_);}
	.st31{clip-path:url(#SVGID_00000152977048060870140850000000340393713996450981_);}
	.st32{clip-path:url(#SVGID_00000167364015227741259770000012088712225253042105_);}
	.st33{clip-path:url(#SVGID_00000013151922498897874420000016810018218025251754_);}
	.st34{clip-path:url(#SVGID_00000146482951758387705340000013677851503665772717_);}
	.st35{clip-path:url(#SVGID_00000165199699521569129100000011331610711290662035_);}
	.st36{clip-path:url(#SVGID_00000150087551817224844470000007544616075964881038_);}
	.st37{clip-path:url(#SVGID_00000140696384059156659530000007128089383076506545_);}
	.st38{clip-path:url(#SVGID_00000046301681590839533480000006505414090733846916_);}
	.st39{clip-path:url(#SVGID_00000145021168287555074720000000895957395851660220_);}
	.st40{clip-path:url(#SVGID_00000002382212713560765250000001892510545409572024_);}
	.st41{clip-path:url(#SVGID_00000017504108393764091880000002494699259358045332_);}
	.st42{clip-path:url(#SVGID_00000180334919051585690930000013958499335218986134_);}
	.st43{clip-path:url(#SVGID_00000119838735825378898790000017835566258441559688_);}
	.st44{clip-path:url(#SVGID_00000163074545936368433150000013203620043904309147_);}
	.st45{clip-path:url(#SVGID_00000101063354475432234180000005648630030346775212_);}
	.st46{fill:#A03C56;}
	.st47{clip-path:url(#SVGID_00000034786937444700089830000014873273017685984391_);}
	.st48{clip-path:url(#SVGID_00000086675665488686490930000004573034660243835297_);}
	.st49{clip-path:url(#SVGID_00000150092193792044011600000000349057708688270226_);}
	.st50{clip-path:url(#SVGID_00000105427974236715046380000008679936830612802176_);}
	.st51{clip-path:url(#SVGID_00000103240045219629294070000018107801702519050902_);}
	.st52{clip-path:url(#SVGID_00000111184627228348107030000013554025037299182469_);}
	.st53{clip-path:url(#SVGID_00000090269478056400961940000005924454433205017737_);}
	.st54{clip-path:url(#SVGID_00000011032219265523334190000001560722583830040231_);}
	.st55{clip-path:url(#SVGID_00000049183791812138363260000001719459388308134790_);}
	.st56{clip-path:url(#SVGID_00000114067748213070209470000003795831506626978996_);}
	.st57{clip-path:url(#SVGID_00000023250179794665995420000009651270546392718782_);}
	.st58{clip-path:url(#SVGID_00000117664393435864333280000009054584735487127716_);}
	.st59{clip-path:url(#SVGID_00000065778945035391703950000008123871826338871193_);}
	.st60{clip-path:url(#SVGID_00000000216552990235755190000011929431019442467001_);}
	.st61{fill:none;}
	.st62{fill:#1388D6;}
	.st63{fill-rule:evenodd;clip-rule:evenodd;fill:#6EBE43;}
	.st64{fill-rule:evenodd;clip-rule:evenodd;fill:#1388D6;}
	.st65{fill:#62B536;}
	.st66{fill:#848688;}
	.st67{fill-rule:evenodd;clip-rule:evenodd;fill:url(#SVGID_00000057133824934855184240000014605297666396818843_);}
	.st68{fill-rule:evenodd;clip-rule:evenodd;fill:url(#SVGID_00000181083376048749145630000001858393316492258694_);}
	.st69{fill-rule:evenodd;clip-rule:evenodd;fill:#FFFFFF;}
	.st70{fill-rule:evenodd;clip-rule:evenodd;fill:url(#SVGID_00000124853301495833701570000015651582155087583671_);}
	.st71{fill-rule:evenodd;clip-rule:evenodd;fill:url(#SVGID_00000102514464455725238740000008655250280420983959_);}
	.st72{fill:url(#SVGID_00000078733098046376688890000008026568806835819696_);}
	.st73{fill:url(#SVGID_00000027598409097462173090000002046296814765410179_);}
	.st74{fill:url(#SVGID_00000152954979311644604250000013393317653254111884_);}
	.st75{fill:url(#SVGID_00000140734256906941220550000016600855904699254660_);}
	.st76{fill:url(#SVGID_00000132065252842405014750000004899241760334643329_);}
	.st77{fill:url(#SVGID_00000076596737146639099850000003308456259006086541_);}
	.st78{fill:url(#SVGID_00000141452304805904871080000004134813367719133862_);}
	.st79{clip-path:url(#SVGID_00000083783115540820184460000001056806903715393174_);}
	.st80{clip-path:url(#SVGID_00000183954616357768068730000008016413034683908014_);}
	.st81{clip-path:url(#SVGID_00000075864505752943741070000015274203746792770483_);}
	.st82{clip-path:url(#SVGID_00000140693579849054162570000013298947687817879681_);}
	.st83{clip-path:url(#SVGID_00000072261694449805267910000012494628300484017063_);}
	.st84{clip-path:url(#SVGID_00000170244313703026934200000016261006124431143845_);}
	.st85{clip-path:url(#SVGID_00000173162869211855484290000003624599206610167452_);}
	.st86{clip-path:url(#SVGID_00000155856526556727027710000010033495833636433283_);}
	.st87{clip-path:url(#SVGID_00000035530369362859963160000010339646225286097840_);}
	.st88{clip-path:url(#SVGID_00000012454551950392188470000002976590572503105167_);}
	.st89{clip-path:url(#SVGID_00000146495056253547438490000003865542004735714231_);}
	.st90{clip-path:url(#SVGID_00000146483639426171559840000000777376854585640618_);}
	.st91{clip-path:url(#SVGID_00000094585533502757652090000004937157947114035343_);}
	.st92{clip-path:url(#SVGID_00000142862263856591719400000007408408315776734618_);}
	.st93{clip-path:url(#SVGID_00000140712378247759975290000009485707390425526657_);}
	.st94{clip-path:url(#SVGID_00000139975302020601510430000015426860635932056751_);}
	.st95{clip-path:url(#SVGID_00000092445811399675523430000014734857370552468653_);}
	.st96{clip-path:url(#SVGID_00000053534531297968384180000006143787114990469770_);}
	.st97{clip-path:url(#SVGID_00000108270724075851008560000002448853761165979556_);}
	.st98{clip-path:url(#SVGID_00000032636711496498064980000013439609498352297652_);}
	.st99{clip-path:url(#SVGID_00000078017065562922106460000003893319855375913088_);}
	.st100{clip-path:url(#SVGID_00000144320500054064449730000002350590208670461065_);}
	.st101{clip-path:url(#SVGID_00000092433051441891268100000011235009529728834193_);}
	.st102{clip-path:url(#SVGID_00000067925919430404930870000015677733685580249987_);}
	.st103{clip-path:url(#SVGID_00000108275033469618049220000017997140109966348690_);}
	.st104{clip-path:url(#SVGID_00000057114223061275431600000001287238550670927532_);}
	.st105{clip-path:url(#SVGID_00000121970319472385893400000014734820002823681205_);}
	.st106{clip-path:url(#SVGID_00000093875742765165830320000017759604672694969277_);}
	.st107{clip-path:url(#SVGID_00000017491823394955722250000009463416133147965830_);}
	.st108{clip-path:url(#SVGID_00000121278328027140717480000012565597483580949923_);}
	.st109{clip-path:url(#SVGID_00000028299432624349280420000011430607537193449634_);}
	.st110{clip-path:url(#SVGID_00000085245943092891303420000016658167948895458749_);}
	.st111{clip-path:url(#SVGID_00000112621572989731321970000015252561507238411686_);}
	.st112{clip-path:url(#SVGID_00000182505394928582905210000001835629264241333656_);}
	.st113{clip-path:url(#SVGID_00000059285874575420810930000014102123565052888986_);}
	.st114{clip-path:url(#SVGID_00000094600934053267431370000009561326657316812692_);}
	.st115{clip-path:url(#SVGID_00000095338977010200452180000008305419765250206652_);}
	.st116{clip-path:url(#SVGID_00000031184579884542208360000001505042229639949697_);}
</style>
<g id="Background">
</g>
<g id="Logos">
	<g>
		<path class="st1" d="M174.42,55.74c-1.45,0-2.62,1.18-2.62,2.63c0,1.45,1.18,2.62,2.63,2.62c1.45,0,2.62-1.18,2.62-2.63
			C177.05,56.91,175.87,55.74,174.42,55.74C174.42,55.74,174.42,55.74,174.42,55.74z"/>
		<path class="st1" d="M164.81,55.1v-8.71h4.8v-3.36h-4.8v-4.87h-2.92l-0.56,2.4c-0.4,1.64-0.88,2.52-2.6,2.8l-1.2,0.2v2.84h2.52
			v9.79c0,3.76,2.29,4.96,5,4.96c2.15,0,3.59-0.56,4.87-1.52v-3.16c-1.04,0.48-2.04,0.84-3,0.84
			C165.49,57.3,164.81,56.61,164.81,55.1z"/>
		<path class="st1" d="M149.78,46.15l-4.41-0.84c-2.17-0.44-3.43-1.08-3.43-2.92c0-2.16,1.6-3.48,4.42-3.48
			c2.48,0,4.31,1.04,5.11,3.04l0,0l0.02,0.07c0.04,0.11,0.09,0.23,0.12,0.34c0.51,1.21,1.46,1.16,1.46,1.16h3.2
			c-0.26-5.32-3.77-8.53-9.87-8.53c-5.6,0-9.15,3.04-9.15,7.75c0,4.16,2.59,6.32,6.32,7.04l4.57,0.88c2.52,0.52,3.96,1.24,3.96,3.16
			c0,2.12-1.9,3.36-4.87,3.36c-3.35,0-6.05-1.76-6.24-5.67l-4.39,0.2c0,6.07,4.45,9.43,10.62,9.43c5.41,0,9.48-2.68,9.48-7.63
			C156.71,49.43,154.5,47.07,149.78,46.15z"/>
		<rect x="103.56" y="35.48" class="st1" width="4.56" height="25.17"/>
		<path class="st1" d="M100.69,46c0.57-1.56,0.02-3.13,0-3.19l0,0c-1.1,0.94-2.63,1.05-3.89,0.91c-0.61-0.07-1.21-0.19-1.8-0.36
			c-0.78-0.29-1.6-0.47-2.43-0.53l0,0l-0.28-0.02h-0.28h-0.16h-0.28l-0.28,0.02l0,0c-4.84,0.35-8.48,4.56-8.13,9.4
			c0.17,2.36,1.29,4.55,3.09,6.08c-0.78,0.66-1.45,1.44-1.96,2.32c-0.6,1.04-0.99,2.2-1.12,3.4v0.42c0,0.3,0.24,0.54,0.54,0.54H87
			c0.29,0,0.52-0.22,0.54-0.51l0,0c0.27-2.21,2.15-3.86,4.37-3.86h0.02c2.22,0,4.09,1.66,4.36,3.86h0.01
			c0.02,0.29,0.26,0.51,0.54,0.51h3.28c0.3,0,0.54-0.24,0.54-0.54v-0.42c-0.13-1.2-0.51-2.36-1.12-3.41
			c-0.51-0.88-1.17-1.67-1.94-2.32c3.16-2.66,4.03-7.16,2.1-10.81c0.08-0.07,0.15-0.15,0.21-0.23
			C100.26,46.9,100.52,46.47,100.69,46z M92.78,55.74l-0.2,0.04h-0.07l-0.14,0.02h-0.08h-0.13h-0.09h-0.32h-0.09l-0.12,0.03h-0.08
			l-0.14-0.02h-0.07l-0.2-0.04c-2.29-0.48-3.76-2.74-3.28-5.03c0.35-1.64,1.63-2.93,3.28-3.28c0.57-0.12,1.16-0.12,1.73,0
			c2.29,0.48,3.77,2.72,3.29,5.02c-0.34,1.65-1.64,2.94-3.29,3.29L92.78,55.74z"/>
		<path class="st1" d="M81.25,46c0.57-1.56,0.02-3.13,0-3.19l0,0c-1.1,0.94-2.63,1.05-3.89,0.91c-0.61-0.07-1.21-0.19-1.8-0.36
			c-0.78-0.29-1.6-0.47-2.43-0.53l0,0l-0.28-0.02h-0.28h-0.16h-0.28l-0.28,0.02l0,0c-4.84,0.35-8.48,4.56-8.13,9.4
			c0.17,2.36,1.29,4.55,3.09,6.08c-0.78,0.66-1.45,1.44-1.96,2.32c-0.6,1.04-0.99,2.2-1.12,3.4v0.42c0,0.3,0.24,0.54,0.54,0.54h3.28
			c0.29,0,0.52-0.22,0.54-0.51h0.01c0.27-2.2,2.14-3.85,4.36-3.86h0.02c2.22,0,4.09,1.66,4.36,3.86h0.01
			C76.88,64.78,77.12,65,77.4,65h3.28c0.3,0,0.54-0.24,0.54-0.54v-0.42c-0.13-1.2-0.51-2.36-1.12-3.41
			c-0.51-0.88-1.17-1.67-1.94-2.32c3.16-2.66,4.03-7.16,2.1-10.81c0.08-0.07,0.15-0.15,0.21-0.23C80.82,46.9,81.08,46.47,81.25,46z
			 M73.34,55.74l-0.2,0.04h-0.07l-0.14,0.02h-0.08h-0.13h-0.09h-0.32h-0.09l-0.12,0.03h-0.08l-0.14-0.02h-0.07l-0.2-0.04
			c-2.29-0.48-3.76-2.74-3.28-5.03c0.35-1.64,1.63-2.93,3.28-3.28c0.57-0.12,1.16-0.12,1.73,0c2.29,0.48,3.77,2.72,3.29,5.02
			c-0.34,1.65-1.64,2.94-3.29,3.29L73.34,55.74z"/>
		<path class="st1" d="M56.88,52.46c0,3-1.44,4.91-3.79,4.91c-2.36,0-3.36-1.6-3.36-4.27V43.02h-4.8v11.03
			c0,3.92,1.6,7.07,6.27,7.07c2.68,0,4.75-1.32,5.67-3.36v2.88h4.8V43.02h-4.8L56.88,52.46z"/>
		<path class="st1" d="M37.11,51.5c0,3.68-1.44,5.43-4.48,5.43c-3.04,0-4.64-2.12-4.88-5.76l-4.8,0.2c0.16,6.35,3.84,9.75,9.67,9.75
			c5.64,0,9.47-2.96,9.47-9.31V35.48h-4.98V51.5z"/>
		<path class="st1" d="M128.13,50.83c0-0.11-0.01-0.23-0.03-0.33c0-0.04,0-0.07,0-0.11c-0.01-0.13-0.03-0.25-0.05-0.38l0,0
			c-0.02-0.1-0.03-0.2-0.05-0.3c-0.78-4.29-4.46-7.55-8.88-7.55h-0.18c-4.35,0.09-7.92,3.31-8.69,7.55
			c-0.1,0.57-0.16,1.14-0.16,1.72c0,0.5,0.04,0.99,0.12,1.49c0.69,4.35,4.32,7.68,8.74,7.78h0.18c3.58-0.02,6.81-2.15,8.23-5.44
			h-0.03l-3.41-1.13c-0.94,1.79-2.79,2.91-4.8,2.91c-2.31,0-4.25-1.74-4.84-4.12h13.75c0.03-0.17,0.05-0.33,0.06-0.5
			c0-0.03,0-0.06,0-0.08c0-0.11,0.02-0.23,0.03-0.34c0-0.04,0-0.08,0-0.12c0-0.14,0-0.29,0-0.44c0-0.15,0-0.31-0.01-0.46
			C128.13,50.91,128.13,50.87,128.13,50.83z M123.9,49.7h-9.57c0.65-2.25,2.54-3.89,4.78-3.89c2.4,0.02,4.5,1.59,5.2,3.89H123.9z"/>
	</g>
</g>
</svg>
