<?xml version="1.0" encoding="utf-8"?>
<!-- Generator: Adobe Illustrator 27.3.1, SVG Export Plug-In . SVG Version: 6.00 Build 0)  -->
<svg version="1.1" xmlns="http://www.w3.org/2000/svg" xmlns:xlink="http://www.w3.org/1999/xlink" x="0px" y="0px"
	 viewBox="0 0 200 100" style="enable-background:new 0 0 200 100;" xml:space="preserve">
<style type="text/css">
	.st0{fill:#080F27;}
	.st1{fill:#2A9B49;}
	.st2{fill:#ED1B25;}
	.st3{fill:#033572;}
	.st4{fill-rule:evenodd;clip-rule:evenodd;}
	.st5{fill:#FD393C;}
	.st6{fill:#FFFFFF;}
	.st7{fill:#FABB16;}
	.st8{fill:#5F5F5F;}
	.st9{fill:#0080FF;}
	.st10{fill-rule:evenodd;clip-rule:evenodd;fill:#0080FF;}
	.st11{fill:#E84E0F;}
	.st12{fill:#263238;}
	.st13{fill:#D4E157;}
	.st14{fill:url(#SVGID_1_);}
	.st15{fill:url(#SVGID_00000068638991955197874010000018409652793939676558_);}
	.st16{fill:url(#SVGID_00000118362652297873682220000001943932090836881837_);}
	.st17{fill:url(#SVGID_00000023279088206633371740000002481247909112053409_);}
	.st18{fill:url(#SVGID_00000110465996953589755570000016367822873157385132_);}
	.st19{fill:url(#SVGID_00000080918428782388709800000000313163535590677390_);}
	.st20{fill:url(#SVGID_00000085216829652061372190000002383359953494255259_);}
	.st21{fill:#E63351;}
	.st22{clip-path:url(#SVGID_00000125582055394033237820000008005508321834295993_);}
	.st23{clip-path:url(#SVGID_00000167355004416881854060000005148609504733034375_);}
	.st24{clip-path:url(#SVGID_00000107569933999824519020000004638770227517546162_);}
	.st25{clip-path:url(#SVGID_00000128446063693932082990000010374823695198645936_);}
	.st26{clip-path:url(#SVGID_00000075146606745393042180000015654975453327466644_);}
	.st27{clip-path:url(#SVGID_00000106115560585187009040000013098975822781264294_);}
	.st28{clip-path:url(#SVGID_00000011001967142523422850000018124359716460031129_);}
	.st29{clip-path:url(#SVGID_00000067204486313249522720000012368129203656267657_);}
	.st30{clip-path:url(#SVGID_00000070801488428537797520000012687515065121227695_);}
	.st31{clip-path:url(#SVGID_00000060734152385491484530000001930459468868090509_);}
	.st32{clip-path:url(#SVGID_00000049928052747929171460000010983928853209821862_);}
	.st33{clip-path:url(#SVGID_00000094588203934298496330000004298137411243218567_);}
	.st34{clip-path:url(#SVGID_00000150783805660505118330000010991437089701332353_);}
	.st35{clip-path:url(#SVGID_00000057848711302098118720000004811098904490419092_);}
	.st36{clip-path:url(#SVGID_00000178164555467190057540000016719939522523213704_);}
	.st37{clip-path:url(#SVGID_00000030489026456892966750000005279782035616194963_);}
	.st38{clip-path:url(#SVGID_00000157282776307842762200000018090738372223712904_);}
	.st39{clip-path:url(#SVGID_00000018219929432066807250000007991792720821452717_);}
	.st40{clip-path:url(#SVGID_00000142868523803377802390000008300198562275335324_);}
	.st41{clip-path:url(#SVGID_00000000183752850728901910000008453333548915962002_);}
	.st42{clip-path:url(#SVGID_00000008109730049293415070000013561536577338102163_);}
	.st43{clip-path:url(#SVGID_00000098940850302033858930000009278787764982606248_);}
	.st44{clip-path:url(#SVGID_00000063606567649484731160000000091169360782934459_);}
	.st45{clip-path:url(#SVGID_00000125592206398861703850000007520732969145932474_);}
	.st46{fill:#A03C56;}
	.st47{clip-path:url(#SVGID_00000148652161495110047770000007939341167948972473_);}
	.st48{clip-path:url(#SVGID_00000170969657769419674400000004918835193094917308_);}
	.st49{clip-path:url(#SVGID_00000061450927059387756270000003294876476411899776_);}
	.st50{clip-path:url(#SVGID_00000130615059302204945320000002290110812353891491_);}
	.st51{clip-path:url(#SVGID_00000083074261004645079260000014558098576947760013_);}
	.st52{clip-path:url(#SVGID_00000066506826618000670070000016491589107806626484_);}
	.st53{clip-path:url(#SVGID_00000181776304115241708610000003150687078032206762_);}
	.st54{clip-path:url(#SVGID_00000154404018762572567060000011065150285808208309_);}
	.st55{clip-path:url(#SVGID_00000147915538713716464250000016205427909611992708_);}
	.st56{clip-path:url(#SVGID_00000070083887988227977270000014238596901380325762_);}
	.st57{clip-path:url(#SVGID_00000142862664545172230890000003907882737049138064_);}
	.st58{clip-path:url(#SVGID_00000010312978067575553250000000864696703778252218_);}
	.st59{clip-path:url(#SVGID_00000127747070419397113290000014032044547801731992_);}
	.st60{clip-path:url(#SVGID_00000150813519114752035450000015787400768877138311_);}
	.st61{fill:none;}
	.st62{fill:#1388D6;}
	.st63{fill-rule:evenodd;clip-rule:evenodd;fill:#6EBE43;}
	.st64{fill-rule:evenodd;clip-rule:evenodd;fill:#1388D6;}
	.st65{fill:#62B536;}
	.st66{fill:#848688;}
	.st67{fill-rule:evenodd;clip-rule:evenodd;fill:url(#SVGID_00000046320114785749944040000012198859020321440925_);}
	.st68{fill-rule:evenodd;clip-rule:evenodd;fill:url(#SVGID_00000152252357369172208770000008462251400764095911_);}
	.st69{fill-rule:evenodd;clip-rule:evenodd;fill:#FFFFFF;}
	.st70{fill-rule:evenodd;clip-rule:evenodd;fill:url(#SVGID_00000172420949321812939660000007929467773809626810_);}
	.st71{fill-rule:evenodd;clip-rule:evenodd;fill:url(#SVGID_00000029745119907671760460000004920343635424745388_);}
	.st72{fill:url(#SVGID_00000005257967420093461490000017874261050712038018_);}
	.st73{fill:url(#SVGID_00000054983301238112412980000007091794742560926627_);}
	.st74{fill:url(#SVGID_00000145774838784719798230000016711618487765655685_);}
	.st75{fill:url(#SVGID_00000177462532319369768160000008124644734061062805_);}
	.st76{fill:url(#SVGID_00000140705735663132848130000001599095253877313163_);}
	.st77{fill:url(#SVGID_00000059279558377600113290000005759209743315793843_);}
	.st78{fill:url(#SVGID_00000054951274105450252260000017321193951091989643_);}
	.st79{clip-path:url(#SVGID_00000096025136365324708430000013489206575300779685_);}
	.st80{clip-path:url(#SVGID_00000079453065786608104530000005396109844950040449_);}
	.st81{clip-path:url(#SVGID_00000138554732157384859280000016473437413178150050_);}
	.st82{clip-path:url(#SVGID_00000075132871603992922480000000371653142357300864_);}
	.st83{clip-path:url(#SVGID_00000000218411337789191380000017347935653703856258_);}
	.st84{clip-path:url(#SVGID_00000057108191300948025590000013601011302402829954_);}
	.st85{clip-path:url(#SVGID_00000164510153166477300950000015379962593086772132_);}
	.st86{clip-path:url(#SVGID_00000111174226599399767380000016304385517355159688_);}
	.st87{clip-path:url(#SVGID_00000008861632361941226410000007828446490509770646_);}
	.st88{clip-path:url(#SVGID_00000141435071880965560920000003519394199714130344_);}
	.st89{clip-path:url(#SVGID_00000155845126110958230330000011873380426725342894_);}
	.st90{clip-path:url(#SVGID_00000057141269243904778880000017866642604338816398_);}
	.st91{clip-path:url(#SVGID_00000077303158014170427300000004123296656403720369_);}
	.st92{clip-path:url(#SVGID_00000011016656968050201050000000098711175594148250_);}
	.st93{clip-path:url(#SVGID_00000002378533828286658450000001910466269053273260_);}
	.st94{clip-path:url(#SVGID_00000043442406156503056800000005067845917777033912_);}
	.st95{clip-path:url(#SVGID_00000057838448273601902070000011100575198611049908_);}
	.st96{clip-path:url(#SVGID_00000059996044613930592520000015662320803711779202_);}
	.st97{clip-path:url(#SVGID_00000172415222843739492940000015114268254877663660_);}
	.st98{clip-path:url(#SVGID_00000002376405976165935920000016451042624434280610_);}
	.st99{clip-path:url(#SVGID_00000021798302437796925480000012626761376905450410_);}
	.st100{clip-path:url(#SVGID_00000146489734486085339820000002711907562964639677_);}
	.st101{clip-path:url(#SVGID_00000060731986774279845080000017963013755017136545_);}
	.st102{clip-path:url(#SVGID_00000016061541821234182650000017108018537781900190_);}
	.st103{clip-path:url(#SVGID_00000068640209195512172220000008118704568936563859_);}
	.st104{clip-path:url(#SVGID_00000054255802125472199930000010122303283715996826_);}
	.st105{clip-path:url(#SVGID_00000023257575433302512960000003972885495576375427_);}
	.st106{clip-path:url(#SVGID_00000055680791194594854570000000001629009355448487_);}
	.st107{clip-path:url(#SVGID_00000017511817401966408300000012558263022437151920_);}
	.st108{clip-path:url(#SVGID_00000073692652580857820350000012253256562169783701_);}
	.st109{clip-path:url(#SVGID_00000041273516068580677340000001509850293968073403_);}
	.st110{clip-path:url(#SVGID_00000014603836205248841460000001893709428044307890_);}
	.st111{clip-path:url(#SVGID_00000132796183285934858000000017003674116650556062_);}
	.st112{clip-path:url(#SVGID_00000034808298335400673890000005894655301862705032_);}
	.st113{clip-path:url(#SVGID_00000077288874274711170680000010303632326253378975_);}
	.st114{clip-path:url(#SVGID_00000153667901923210964540000014422086691560794285_);}
	.st115{clip-path:url(#SVGID_00000180330013358405544780000002396647144040582829_);}
	.st116{clip-path:url(#SVGID_00000011723250153276032500000012093708962715848835_);}
</style>
<g id="Background">
</g>
<g id="Logos">
	<g>
		<path d="M141.68,26h-24.32c-5.76,0-8.56,4.08-8.56,4.08S107.52,26,103.36,26h-6.72c-4.16,0-5.52,4.08-5.52,4.08S88.16,26,81.76,26
			c-7.68,0-10.64,6.24-11.52,6.24c-0.8,0-3.76-6.24-11.44-6.24c-8.4,0-12.32,5.92-12.32,11.52v25.36c0,4.56,4.72,11.12,12.4,11.12
			c3.04,0,4.4-1.76,4.4-1.76s1.6,1.6,3.92,1.6h6.16c3.04,0,4.48-1.84,4.48-1.84s2,2,4.32,2c6.16,0,9.12-4.4,9.12-4.4
			s0.8,4.24,5.36,4.24h6.72c3.84,0,5.44-4.24,5.44-4.24s2.4,4.24,8.56,4.24h24.24c5.92,0,11.92-5.52,11.92-11.44V37.52
			C153.52,31.36,147.76,26,141.68,26z M138.64,54.56c0,2.56-1.84,4.4-4.4,4.4h-9.28c-2.56,0-4.4-1.84-4.4-4.4v-9.28
			c0-2.56,1.84-4.4,4.4-4.4h9.28c2.56,0,4.4,1.84,4.4,4.4C138.64,45.28,138.64,54.56,138.64,54.56z"/>
		<path class="st6" d="M105.84,32v6.4c0,1.44-1.2,2.72-2.72,2.72h-6.24c-1.52,0-2.72-1.2-2.72-2.72V32c0-1.52,1.2-2.72,2.72-2.72
			h6.32C104.64,29.28,105.84,30.56,105.84,32z M150.32,37.52v25.36c0,3.52-4.72,7.68-8.64,7.68h-24.24c-4.48,0-8.4-4.32-8.4-7.68
			c0-8.24,0.08-16.88,0-25.36c0-4.08,4.64-8.24,8.4-8.24c8.08-0.08,16.16-0.08,24.16-0.08C145.84,29.28,150.32,33.2,150.32,37.52z
			 M138.64,45.28c0-2.56-1.84-4.4-4.4-4.4h-9.28c-2.56,0-4.4,1.84-4.4,4.4v9.28c0,2.56,1.84,4.4,4.4,4.4h9.28
			c2.56,0,4.4-1.84,4.4-4.4C138.64,54.56,138.64,45.28,138.64,45.28z M81.84,29.2c-6.88,0-8.4,7.04-11.52,7.04
			c-3.12,0-4.56-7.04-11.44-7.04c-5.2,0-9.12,4.64-9.12,8.32c0,9.84,0,16.4,0,25.36c0,4.48,5.28,7.92,8.24,7.92
			c3.12,0,3.28-2.64,3.28-2.64V43.12c0-0.88,0.72-1.6,1.6-1.6c0.88,0,1.6,0.72,1.6,1.6v25.36c0,1.36,1.36,2.16,2.72,2.16h5.84
			c1.44,0,3.12-0.64,3.12-2.08V43.12c0-0.88,0.72-1.6,1.6-1.6s1.6,0.72,1.6,1.6v24.96c0,0,0.16,2.64,3.28,2.64
			c2.96,0,8.24-3.44,8.24-7.92V37.52C90.88,33.28,86.72,29.2,81.84,29.2z M103.2,44.32h-6.24c-1.44,0-2.72,1.2-2.72,2.72V68
			c0,1.44,1.2,2.72,2.72,2.72h6.24c1.44,0,2.72-1.2,2.72-2.72V46.96C105.84,45.52,104.64,44.32,103.2,44.32z"/>
		<path d="M123.76,44.88v10.16c0,0.4,0.32,0.8,0.8,0.8h10.16c0.4,0,0.8-0.32,0.8-0.8V44.88c0-0.4-0.32-0.8-0.8-0.8h-10.16
			C124.08,44.08,123.76,44.4,123.76,44.88z M124.96,40.88h9.28c2.56,0,4.4,1.84,4.4,4.4v9.28c0,2.56-1.84,4.4-4.4,4.4h-9.28
			c-2.56,0-4.4-1.84-4.4-4.4v-9.28C120.56,42.72,122.4,40.88,124.96,40.88z"/>
	</g>
</g>
</svg>
