<?xml version="1.0" encoding="utf-8"?>
<!-- Generator: Adobe Illustrator 27.3.1, SVG Export Plug-In . SVG Version: 6.00 Build 0)  -->
<svg version="1.1" xmlns="http://www.w3.org/2000/svg" xmlns:xlink="http://www.w3.org/1999/xlink" x="0px" y="0px"
	 viewBox="0 0 200 100" style="enable-background:new 0 0 200 100;" xml:space="preserve">
<style type="text/css">
	.st0{fill:#080F27;}
	.st1{fill:#2A9B49;}
	.st2{fill:#ED1B25;}
	.st3{fill:#033572;}
	.st4{fill-rule:evenodd;clip-rule:evenodd;}
	.st5{fill:#FD393C;}
	.st6{fill:#FFFFFF;}
	.st7{fill:#FABB16;}
	.st8{fill:#5F5F5F;}
	.st9{fill:#0080FF;}
	.st10{fill-rule:evenodd;clip-rule:evenodd;fill:#0080FF;}
	.st11{fill:#E84E0F;}
	.st12{fill:#263238;}
	.st13{fill:#D4E157;}
	.st14{fill:url(#SVGID_1_);}
	.st15{fill:url(#SVGID_00000054983564308487588990000000650676471545077156_);}
	.st16{fill:url(#SVGID_00000137094557641247203080000000223110865615333797_);}
	.st17{fill:url(#SVGID_00000105413147878155574380000004959962094838562490_);}
	.st18{fill:url(#SVGID_00000141414927069761766890000014101041609164125314_);}
	.st19{fill:url(#SVGID_00000034793455659940085450000011595115243918282160_);}
	.st20{fill:url(#SVGID_00000112606499579257157310000000989354639416286113_);}
	.st21{fill:#E63351;}
	.st22{clip-path:url(#SVGID_00000129194835333772221340000012387619976344664730_);}
	.st23{clip-path:url(#SVGID_00000008855209739174990000000004197566792762826426_);}
	.st24{clip-path:url(#SVGID_00000047032178827862046940000017901420724901603518_);}
	.st25{clip-path:url(#SVGID_00000084517000368607094840000017974161016739562402_);}
	.st26{clip-path:url(#SVGID_00000179608471164995869700000009008022022405422517_);}
	.st27{clip-path:url(#SVGID_00000005954952244489515160000016196649015124530318_);}
	.st28{clip-path:url(#SVGID_00000058587419622223622360000014653376333815588784_);}
	.st29{clip-path:url(#SVGID_00000155863118867105697080000006215411366915747722_);}
	.st30{clip-path:url(#SVGID_00000151533960459195163840000010437865275394716820_);}
	.st31{clip-path:url(#SVGID_00000162340022743807764630000002282755554329523879_);}
	.st32{clip-path:url(#SVGID_00000038408742242127584670000005049738221016096435_);}
	.st33{clip-path:url(#SVGID_00000081623953976047931030000003486141298357821364_);}
	.st34{clip-path:url(#SVGID_00000074440392170344751300000001781632513603241389_);}
	.st35{clip-path:url(#SVGID_00000115500413890096007540000012800195686918460848_);}
	.st36{clip-path:url(#SVGID_00000019662133629132858880000003125749708924765362_);}
	.st37{clip-path:url(#SVGID_00000103240446541798920340000013896072410002948993_);}
	.st38{clip-path:url(#SVGID_00000093879679638996911960000002750217588884619651_);}
	.st39{clip-path:url(#SVGID_00000085237366651872599300000016573106713726731939_);}
	.st40{clip-path:url(#SVGID_00000142161856419628238730000010304745904554705323_);}
	.st41{clip-path:url(#SVGID_00000114031194291593578560000017628810841000782005_);}
	.st42{clip-path:url(#SVGID_00000077287843771604565310000002010082042443701393_);}
	.st43{clip-path:url(#SVGID_00000114060146725576909530000010047897606648012208_);}
	.st44{clip-path:url(#SVGID_00000137108860245982802520000010027781165651063188_);}
	.st45{clip-path:url(#SVGID_00000164477333849443582570000002120072642666335921_);}
	.st46{fill:#A03C56;}
	.st47{clip-path:url(#SVGID_00000013883435468207620840000000475546001021939344_);}
	.st48{clip-path:url(#SVGID_00000166670568711052228920000010718230282622888628_);}
	.st49{clip-path:url(#SVGID_00000133512316810698929070000011255611537952533659_);}
	.st50{clip-path:url(#SVGID_00000071530177758922913620000014719897247657100216_);}
	.st51{clip-path:url(#SVGID_00000102519800446696842760000010222207200756394394_);}
	.st52{clip-path:url(#SVGID_00000052092760958964315320000005672260885813813903_);}
	.st53{clip-path:url(#SVGID_00000098920139103908491320000000915943284807126410_);}
	.st54{clip-path:url(#SVGID_00000008864213457247006570000012765306004917778858_);}
	.st55{clip-path:url(#SVGID_00000070100536732925657600000005792404168979213184_);}
	.st56{clip-path:url(#SVGID_00000152239092145201879530000015925882893456613278_);}
	.st57{clip-path:url(#SVGID_00000031166880687690772200000016919268089226010011_);}
	.st58{clip-path:url(#SVGID_00000013912208403359604530000017010412814085381023_);}
	.st59{clip-path:url(#SVGID_00000090980501111194535930000012404596077277696428_);}
	.st60{clip-path:url(#SVGID_00000096765313071193383820000010205421385376689573_);}
	.st61{fill:none;}
	.st62{fill:#1388D6;}
	.st63{fill-rule:evenodd;clip-rule:evenodd;fill:#6EBE43;}
	.st64{fill-rule:evenodd;clip-rule:evenodd;fill:#1388D6;}
	.st65{fill:#62B536;}
	.st66{fill:#848688;}
	.st67{fill-rule:evenodd;clip-rule:evenodd;fill:url(#SVGID_00000008136112797447962340000009662964911865229463_);}
	.st68{fill-rule:evenodd;clip-rule:evenodd;fill:url(#SVGID_00000013894986337138915660000006882030649349811372_);}
	.st69{fill-rule:evenodd;clip-rule:evenodd;fill:#FFFFFF;}
	.st70{fill-rule:evenodd;clip-rule:evenodd;fill:url(#SVGID_00000181081605865205796380000013998903787341210289_);}
	.st71{fill-rule:evenodd;clip-rule:evenodd;fill:url(#SVGID_00000105410211566379945670000009282598870763752835_);}
	.st72{fill:url(#SVGID_00000105408778139072296880000007934973994241777323_);}
	.st73{fill:url(#SVGID_00000008864062395637798760000013319885398667498149_);}
	.st74{fill:url(#SVGID_00000114768260091983737800000006771033654027755909_);}
	.st75{fill:url(#SVGID_00000144314217980868167260000017022378763852054969_);}
	.st76{fill:url(#SVGID_00000106139566137030085450000017094974404430314172_);}
	.st77{fill:url(#SVGID_00000111911037006879786460000017594788772658687627_);}
	.st78{fill:url(#SVGID_00000177473474564365569270000007161202543168118401_);}
	.st79{clip-path:url(#SVGID_00000083071924611097568750000010023205869804469150_);}
	.st80{clip-path:url(#SVGID_00000066515357942683663970000010165452943713834663_);}
	.st81{clip-path:url(#SVGID_00000134945136744304035460000012559837226535673010_);}
	.st82{clip-path:url(#SVGID_00000135662517245612171040000009077762507692086916_);}
	.st83{clip-path:url(#SVGID_00000157281918622165057050000016148902386136196501_);}
	.st84{clip-path:url(#SVGID_00000145759542357832148030000013758305900450989483_);}
	.st85{clip-path:url(#SVGID_00000110428560335279845740000016435843913546410643_);}
	.st86{clip-path:url(#SVGID_00000124860775360507257770000017904068759373974922_);}
	.st87{clip-path:url(#SVGID_00000028292409079867722200000009484605223237607100_);}
	.st88{clip-path:url(#SVGID_00000066482108620040910560000001640980081486407301_);}
	.st89{clip-path:url(#SVGID_00000083051599890239656880000003149609829218131135_);}
	.st90{clip-path:url(#SVGID_00000122721904555330607600000010702001132225764282_);}
	.st91{clip-path:url(#SVGID_00000114793301012092492650000016781988058479022743_);}
	.st92{clip-path:url(#SVGID_00000081628149701336663920000012454737390351568534_);}
	.st93{clip-path:url(#SVGID_00000029045666243163836680000014923151595191981185_);}
	.st94{clip-path:url(#SVGID_00000111184555937755650810000008363599030739192477_);}
	.st95{clip-path:url(#SVGID_00000097496808589864384460000004079575391864217221_);}
	.st96{clip-path:url(#SVGID_00000160167531838264768030000016905767766847636138_);}
	.st97{clip-path:url(#SVGID_00000088119899032269981990000009636818640523641766_);}
	.st98{clip-path:url(#SVGID_00000136391905799400405610000007360451116080475302_);}
	.st99{clip-path:url(#SVGID_00000123429827858646438570000000511659694559753099_);}
	.st100{clip-path:url(#SVGID_00000078029513691697556390000012679041715388882848_);}
	.st101{clip-path:url(#SVGID_00000014633119726809100620000004391265594222872722_);}
	.st102{clip-path:url(#SVGID_00000176012817680265308050000000587749593382164646_);}
	.st103{clip-path:url(#SVGID_00000168106458242448226470000003416775964492136331_);}
	.st104{clip-path:url(#SVGID_00000153674439265795543570000012846359404579638177_);}
	.st105{clip-path:url(#SVGID_00000086681175439219799010000007222760559153884056_);}
	.st106{clip-path:url(#SVGID_00000000181791789452361390000010904127415253492115_);}
	.st107{clip-path:url(#SVGID_00000054256692479851618820000003284652260501922475_);}
	.st108{clip-path:url(#SVGID_00000145045687565900891140000003070101282141752489_);}
	.st109{clip-path:url(#SVGID_00000145031268874826643250000016924685623187062675_);}
	.st110{clip-path:url(#SVGID_00000115509213592569242190000005982481868906317469_);}
	.st111{clip-path:url(#SVGID_00000004538625080679112290000007831631469837039011_);}
	.st112{clip-path:url(#SVGID_00000116923221258639111990000006050829350257021860_);}
	.st113{clip-path:url(#SVGID_00000119804516034677986350000010783139092556917656_);}
	.st114{clip-path:url(#SVGID_00000170276675218414030850000000294613331102117517_);}
	.st115{clip-path:url(#SVGID_00000162354611638301305040000003674222053653421201_);}
	.st116{clip-path:url(#SVGID_00000060712609097717926640000011026577864830332321_);}
</style>
<g id="Background">
</g>
<g id="Logos">
	<g id="Layer_x0020_1">
		<g id="_66550480">
			<rect x="12.63" y="27" class="st61" width="174.75" height="46"/>
			<g>
				<path class="st62" d="M25.04,42.86c0.06-0.15,0.11-0.28,0.16-0.42c-0.12,0.26-0.19,0.41-0.19,0.4L25.04,42.86z"/>
				<path class="st62" d="M55.75,36.93l-2.29,9.69c0.68,0.46,1.13,1.25,1.13,2.13c0,1.44-1.16,2.57-2.57,2.57
					c-1.44,0-2.57-1.16-2.57-2.57c0-1.29,0.95-2.34,2.17-2.53l2.07-9.43h-2.37l-3.9,17c-1.87,8.11-3.83-21.39-12.37-23.24
					c-0.14-0.02-0.25-0.05-0.39-0.05c-2.56-0.2-5.91,2.64-9.45,11.93c1.12-2.34,7.08-14.04,11.87-6.12c1.48,2.46,2.48,6.2,3.39,9.3
					c1.75,5.95,3.96,13.83,4.67,15.4c1.28,2.85,5.76,3.28,8.13-5.06l5.42-18.98L55.75,36.93z"/>
			</g>
			<g>
				<path class="st62" d="M43.95,63.04c-1.48-2.46-2.48-6.2-3.39-9.3c-1.75-5.95-3.96-13.83-4.67-15.4
					c-1.28-2.85-5.76-3.28-8.13,5.06l-5.42,18.98l2.94,0.05l2.14-9.08c-0.66-0.47-1.1-1.24-1.1-2.1c0-1.44,1.16-2.57,2.57-2.57
					c1.44,0,2.57,1.16,2.57,2.57c0,1.3-0.96,2.35-2.2,2.54l-1.93,8.79h2.37l3.9-17c1.87-8.11,3.83,21.39,12.37,23.24
					c0.14,0.02,0.25,0.05,0.39,0.05c2.56,0.2,5.91-2.64,9.45-11.93C54.7,59.27,48.74,70.97,43.95,63.04z"/>
				<path class="st62" d="M55.98,56.5c-0.05,0.15-0.11,0.28-0.16,0.42c0.12-0.26,0.19-0.41,0.19-0.4L55.98,56.5z"/>
			</g>
			<path class="st63" d="M17.3,56.94c-1.29,0.13-2.31,1.21-2.31,2.55c0,1.41,1.14,2.57,2.57,2.57c1.41,0,2.57-1.14,2.57-2.57
				c0-0.73-0.31-1.39-0.8-1.86l4.19-13.82c3.3-12.8,9.98-14.76,9.98-14.76C24.48,28.38,20.49,45.29,17.3,56.94z M17.57,60.63
				c-0.64,0-1.14-0.52-1.14-1.14c0-0.64,0.52-1.14,1.14-1.14c0.64,0,1.14,0.52,1.14,1.14C18.71,60.13,18.18,60.63,17.57,60.63z"/>
			<path class="st63" d="M63.84,36.91c-1.41,0-2.57,1.14-2.57,2.57c0,0.61,0.22,1.17,0.58,1.61l-4.39,14.45
				c-3.3,12.8-9.98,14.76-9.98,14.76c9.13,0.68,13.11-16.6,16.32-28.26c0.01,0,0.03,0,0.04,0c1.41,0,2.57-1.14,2.57-2.57
				C66.42,38.07,65.28,36.91,63.84,36.91z M63.84,40.62c-0.64,0-1.14-0.52-1.14-1.14c0-0.64,0.52-1.14,1.14-1.14
				c0.64,0,1.14,0.52,1.14,1.14C64.98,40.12,64.46,40.62,63.84,40.62z"/>
			<path class="st64" d="M52.02,47.62c0.64,0,1.14,0.52,1.14,1.14c0,0.64-0.52,1.14-1.14,1.14c-0.64,0-1.14-0.52-1.14-1.14
				C50.88,48.12,51.4,47.62,52.02,47.62z"/>
			<path class="st64" d="M28.89,50.1c0.64,0,1.14,0.52,1.14,1.14c0,0.64-0.52,1.14-1.14,1.14c-0.64,0-1.14-0.52-1.14-1.14
				C27.75,50.6,28.28,50.1,28.89,50.1z"/>
			<path class="st62" d="M91.87,55.34h-3.33c0-0.96,0-2.6,0.02-4.94c0.02-2.32,0.02-4.12,0.02-5.4v-1.28h-8.29V45
				c0,1.25,0,3.08,0.02,5.42c0.02,2.35,0.02,3.99,0.02,4.92h-3.3v-3.9V40.47h10.91c0.66,0,1.28,0.16,1.89,0.5
				c0.62,0.32,1.09,0.77,1.48,1.37c0.39,0.57,0.57,1.21,0.57,1.85v11.16H91.87z M97.93,40.53h7.09c1.07,0,1.98,0.39,2.73,1.16
				c0.77,0.77,1.16,1.69,1.16,2.78v6.97c0,1.07-0.39,1.98-1.16,2.73c-0.77,0.77-1.69,1.16-2.73,1.16h-7.09
				c-1.07,0-1.98-0.39-2.73-1.16c-0.77-0.77-1.16-1.69-1.16-2.73v-6.97c0-1.09,0.39-2,1.16-2.78
				C95.97,40.92,96.88,40.53,97.93,40.53z M105.65,52.08v-8.29h-8.36v8.29H105.65z M122.69,29.78h3.26V55.3h-10.98
				c-1.07,0-1.98-0.39-2.73-1.16c-0.77-0.77-1.16-1.69-1.16-2.78v-6.97c0-0.71,0.18-1.37,0.52-1.96c0.36-0.59,0.82-1.07,1.41-1.41
				c0.59-0.36,1.25-0.52,1.96-0.52h7.72V29.78z M122.69,52.04v-8.29h-8.36v8.29H122.69z M142.99,40.37c0,1.96,0,4.42,0,7.34
				c-0.98,0.02-2.64,0.05-4.97,0.05c-2.32,0.02-4.12,0.02-5.38,0.02h-1.28v4.92h1.28c1,0,2.44,0,4.28-0.02
				c1.85-0.02,3.12-0.02,3.83-0.02v2.53h-8.93l-0.23-0.05c-0.66-0.07-1.25-0.3-1.78-0.66c-0.52-0.36-0.96-0.84-1.25-1.39
				c-0.3-0.57-0.46-1.18-0.46-1.85v-6.97c0-1.09,0.39-2,1.16-2.78c0.77-0.77,1.69-1.16,2.73-1.16h10.98V40.37z M140.26,42.83h-8.77
				v2.46h8.77V42.83z"/>
			<path class="st65" d="M149.3,46.98h11.62c0,0.48,0,1.21,0,2.21c0,1,0,1.75,0,2.26c0,1.07-0.39,1.98-1.16,2.73
				c-0.77,0.77-1.69,1.16-2.73,1.16h-10.98v-3.26c0.91,0,2,0,3.3,0c1.28,0,2.53,0,3.74,0c1.21,0,2.3,0,3.3,0h1.28v-2.73h-11.62
				v-4.99c0-1.07,0.39-1.98,1.16-2.73c0.77-0.77,1.69-1.16,2.73-1.16h7.09h3.94v3.3c-1.09-0.02-2.78-0.05-5.08-0.05
				c-2.3,0-4.08,0-5.29,0h-1.28v3.26H149.3z M167.03,40.56h7.09c1.07,0,1.98,0.39,2.73,1.16c0.77,0.77,1.16,1.69,1.16,2.78v6.97
				c0,1.07-0.39,1.98-1.16,2.73c-0.77,0.77-1.69,1.16-2.73,1.16h-7.09c-1.07,0-1.98-0.39-2.73-1.16c-0.77-0.77-1.16-1.69-1.16-2.73
				V44.5c0-1.09,0.39-2,1.16-2.78C165.07,40.94,165.98,40.56,167.03,40.56z M174.75,52.11v-8.29h-8.36v8.29H174.75z M183.43,29.85
				v25.52h-3.26V29.85H183.43z"/>
			<path class="st66" d="M76.97,68.47v-5.88h0.66v5.88H76.97z M78.97,68.47v-4.15h0.59v0.57c0.09-0.21,0.25-0.36,0.48-0.48
				c0.23-0.09,0.5-0.16,0.87-0.16c0.55,0,0.93,0.11,1.14,0.32c0.23,0.23,0.32,0.62,0.32,1.16v2.71h-0.62v-2.6
				c0-0.43-0.07-0.73-0.18-0.87c-0.14-0.14-0.36-0.21-0.75-0.21c-0.43,0-0.75,0.09-0.96,0.3c-0.21,0.21-0.3,0.5-0.3,0.93v2.42h-0.62
				L78.97,68.47z M83.62,68.47v-4.15h0.59v0.57c0.09-0.21,0.25-0.36,0.48-0.48c0.23-0.09,0.5-0.16,0.87-0.16
				c0.55,0,0.93,0.11,1.14,0.32c0.23,0.23,0.32,0.62,0.32,1.16v2.71H86.4v-2.6c0-0.43-0.07-0.73-0.18-0.87
				c-0.14-0.14-0.36-0.21-0.75-0.21c-0.43,0-0.75,0.09-0.96,0.3c-0.21,0.21-0.3,0.5-0.3,0.93v2.42H83.6L83.62,68.47z M91.09,66.76
				v-0.71c0-0.52-0.07-0.87-0.21-1c-0.14-0.14-0.41-0.21-0.84-0.21h-0.3c-0.43,0-0.71,0.07-0.82,0.21c-0.14,0.14-0.21,0.48-0.21,1
				v0.71c0,0.52,0.07,0.87,0.21,1s0.41,0.21,0.82,0.21h0.3c0.43,0,0.71-0.07,0.84-0.23c0.14-0.14,0.21-0.48,0.21-1V66.76z
				 M89.77,68.53c-0.62,0-1.05-0.11-1.3-0.36s-0.36-0.66-0.36-1.28v-0.98c0-0.62,0.11-1.03,0.36-1.28s0.68-0.36,1.3-0.36h0.3
				c0.62,0,1.05,0.11,1.3,0.36c0.25,0.25,0.36,0.66,0.36,1.28v0.98c0,0.62-0.11,1.03-0.36,1.28c-0.25,0.25-0.68,0.36-1.3,0.36H89.77
				z M92.25,64.32h0.62l1.23,3.58l1.23-3.58h0.59l-1.44,4.15h-0.8l-1.46-4.15H92.25z M99.36,67.42v-0.43c0-0.21-0.09-0.34-0.3-0.43
				c-0.21-0.09-0.52-0.14-0.96-0.14c-0.41,0-0.66,0.05-0.8,0.16c-0.14,0.09-0.21,0.3-0.21,0.59c0,0.32,0.07,0.55,0.21,0.66
				c0.14,0.11,0.43,0.16,0.87,0.16c0.39,0,0.68-0.05,0.89-0.14c0.21-0.09,0.3-0.23,0.3-0.41V67.42z M99.38,68.03
				c-0.09,0.18-0.25,0.3-0.46,0.39c-0.21,0.07-0.5,0.11-0.87,0.11c-0.64,0-1.09-0.09-1.3-0.27c-0.23-0.18-0.34-0.52-0.34-1.03
				c0-0.3,0.02-0.52,0.07-0.68c0.05-0.16,0.14-0.3,0.25-0.39c0.09-0.09,0.25-0.14,0.43-0.18c0.21-0.05,0.48-0.05,0.84-0.05
				c0.36,0,0.66,0.02,0.87,0.09c0.21,0.07,0.34,0.16,0.46,0.32v-0.71c0-0.34-0.07-0.57-0.21-0.66s-0.46-0.16-0.98-0.16
				c-0.39,0-0.64,0.05-0.77,0.11c-0.11,0.07-0.18,0.23-0.21,0.46h-0.62V65.3c0-0.36,0.11-0.62,0.34-0.75
				c0.23-0.16,0.64-0.23,1.18-0.23c0.43,0,0.77,0.02,1,0.05c0.23,0.05,0.39,0.09,0.5,0.18c0.11,0.09,0.21,0.21,0.25,0.34
				s0.07,0.39,0.07,0.71v2.92h-0.57l-0.02-0.43L99.38,68.03z M100.8,64.84v-0.52h0.5v-0.93h0.62v0.93h2.03v0.52h-2.03v2.28
				c0,0.32,0.05,0.55,0.16,0.66c0.11,0.11,0.32,0.18,0.62,0.18s0.5-0.05,0.59-0.16c0.11-0.11,0.16-0.34,0.16-0.66v-0.11h0.62v0.05
				c0,0.59-0.09,0.98-0.3,1.18c-0.21,0.21-0.59,0.3-1.21,0.3c-0.48,0-0.8-0.11-1-0.32c-0.18-0.21-0.27-0.59-0.27-1.16v-2.21h-0.5
				L100.8,64.84z M105.19,63.29v-0.68h0.62v0.68H105.19z M105.19,68.47v-4.15h0.62v4.15H105.19z M106.49,64.32h0.62l1.23,3.58
				l1.23-3.58h0.59l-1.44,4.15h-0.8l-1.46-4.15H106.49z M111.35,65.98h2.35v-0.16c0-0.39-0.07-0.66-0.21-0.8
				c-0.14-0.14-0.41-0.21-0.82-0.21h-0.3c-0.41,0-0.68,0.07-0.82,0.21s-0.21,0.41-0.21,0.8V65.98z M112.37,68.51
				c-0.62,0-1.05-0.11-1.3-0.36s-0.36-0.66-0.36-1.28v-0.98c0-0.62,0.11-1.03,0.36-1.28c0.25-0.25,0.68-0.36,1.3-0.36h0.3
				c0.62,0,1.05,0.11,1.3,0.36c0.25,0.25,0.36,0.66,0.36,1.28v0.64h-2.98c0,0.05,0,0.09,0,0.14c0,0.05,0,0.11,0,0.21
				c0,0.43,0.07,0.71,0.21,0.87c0.14,0.14,0.41,0.23,0.82,0.23h0.3c0.36,0,0.64-0.05,0.77-0.16c0.14-0.11,0.23-0.3,0.25-0.57h0.64
				c-0.02,0.46-0.18,0.77-0.43,0.98c-0.25,0.21-0.66,0.3-1.23,0.3H112.37z M122.35,66.48v-1.8c0-0.41-0.02-0.71-0.07-0.87
				s-0.14-0.3-0.25-0.41c-0.11-0.09-0.27-0.18-0.43-0.23s-0.46-0.07-0.89-0.07h-0.36c-0.41,0-0.71,0.02-0.87,0.07
				c-0.18,0.05-0.32,0.11-0.43,0.23c-0.11,0.09-0.21,0.23-0.25,0.41c-0.05,0.16-0.07,0.46-0.07,0.87v1.66
				c0,0.41,0.02,0.71,0.07,0.87c0.05,0.16,0.14,0.3,0.25,0.41c0.11,0.11,0.27,0.18,0.43,0.23c0.16,0.05,0.46,0.07,0.87,0.07h0.5
				c0.32,0,0.55,0,0.68-0.02c0.14-0.02,0.25-0.05,0.32-0.09l-1.12-1.09l0.41-0.41l1.12,1.09c0.02-0.11,0.02-0.25,0.05-0.39
				c0-0.16,0.02-0.32,0.02-0.5L122.35,66.48z M118.04,64.52c0-0.75,0.16-1.28,0.46-1.57c0.32-0.3,0.87-0.43,1.64-0.43h0.73
				c0.8,0,1.34,0.14,1.66,0.43c0.3,0.3,0.46,0.82,0.46,1.57v1.98c0,0.39-0.02,0.66-0.07,0.84s-0.11,0.34-0.23,0.46l0.36,0.36
				l-0.43,0.43l-0.36-0.39c-0.11,0.11-0.25,0.18-0.46,0.23c-0.21,0.05-0.5,0.07-0.91,0.07h-0.73c-0.8,0-1.34-0.14-1.64-0.43
				c-0.32-0.3-0.46-0.82-0.46-1.57v-1.98H118.04z M127.57,64.3v4.15h-0.59v-0.57c-0.09,0.21-0.25,0.36-0.48,0.48
				c-0.23,0.09-0.52,0.16-0.89,0.16c-0.55,0-0.91-0.11-1.14-0.32c-0.23-0.23-0.32-0.62-0.32-1.16V64.3h0.62v2.6
				c0,0.43,0.07,0.71,0.21,0.84c0.14,0.14,0.39,0.21,0.75,0.21c0.43,0,0.75-0.09,0.93-0.3c0.21-0.21,0.3-0.5,0.3-0.93V64.3H127.57z
				 M131.56,67.4v-0.43c0-0.21-0.09-0.34-0.3-0.43c-0.21-0.09-0.52-0.14-0.96-0.14c-0.41,0-0.66,0.05-0.8,0.16
				c-0.14,0.09-0.21,0.3-0.21,0.59c0,0.32,0.07,0.55,0.21,0.66c0.14,0.11,0.43,0.16,0.87,0.16c0.39,0,0.68-0.05,0.89-0.14
				c0.21-0.09,0.3-0.23,0.3-0.41V67.4z M131.58,68.01c-0.09,0.18-0.25,0.3-0.46,0.39c-0.21,0.07-0.5,0.11-0.87,0.11
				c-0.64,0-1.09-0.09-1.3-0.27c-0.23-0.18-0.34-0.52-0.34-1.03c0-0.3,0.02-0.52,0.07-0.68s0.14-0.3,0.25-0.39
				c0.09-0.09,0.25-0.14,0.43-0.18c0.21-0.05,0.48-0.05,0.84-0.05s0.66,0.02,0.87,0.09c0.21,0.07,0.34,0.16,0.46,0.32v-0.71
				c0-0.34-0.07-0.57-0.21-0.66s-0.46-0.16-0.98-0.16c-0.39,0-0.64,0.05-0.77,0.11c-0.11,0.07-0.18,0.23-0.21,0.46h-0.62v-0.09
				c0-0.36,0.11-0.62,0.34-0.75c0.23-0.16,0.64-0.23,1.18-0.23c0.43,0,0.77,0.02,1,0.05c0.23,0.05,0.39,0.09,0.5,0.18
				c0.11,0.09,0.21,0.21,0.25,0.34c0.05,0.14,0.07,0.39,0.07,0.71v2.92h-0.57l-0.02-0.43L131.58,68.01z M133.4,68.44v-5.88h0.62
				v5.88H133.4z M135.29,63.27v-0.68h0.62v0.68H135.29z M135.29,68.44V64.3h0.62v4.15H135.29z M136.77,64.82V64.3h0.5v-0.93h0.62
				v0.93h2.03v0.52h-2.03v2.28c0,0.32,0.05,0.55,0.16,0.66c0.11,0.11,0.32,0.18,0.62,0.18s0.5-0.05,0.59-0.16
				c0.11-0.11,0.16-0.34,0.16-0.66v-0.11h0.62v0.05c0,0.59-0.09,0.98-0.3,1.18c-0.21,0.21-0.59,0.3-1.21,0.3
				c-0.48,0-0.8-0.11-1-0.32c-0.18-0.21-0.27-0.59-0.27-1.16v-2.21h-0.5L136.77,64.82z M140.71,64.3h0.62l1.23,3.58l1.23-3.58h0.62
				l-1.57,4.51c-0.18,0.48-0.34,0.82-0.52,1s-0.41,0.25-0.71,0.25c-0.05,0-0.09,0-0.14,0c-0.05,0-0.11-0.02-0.18-0.02v-0.55
				c0.02,0,0.05,0,0.07,0s0.07,0,0.11,0c0.18,0,0.34-0.05,0.43-0.14c0.11-0.09,0.21-0.25,0.3-0.5l0.16-0.43h-0.18l-1.46-4.15V64.3z
				 M147.75,66.53h0.66v0.11c0,0.34,0.02,0.62,0.07,0.77c0.05,0.16,0.14,0.27,0.25,0.34c0.09,0.05,0.25,0.09,0.43,0.11
				c0.21,0.02,0.59,0.02,1.21,0.02c0.34,0,0.59-0.02,0.77-0.07s0.32-0.11,0.41-0.21c0.05-0.05,0.09-0.14,0.11-0.27
				c0.02-0.14,0.05-0.3,0.05-0.52c0-0.43-0.05-0.71-0.14-0.82c-0.09-0.11-0.25-0.18-0.52-0.21l-1.82-0.14
				c-0.55-0.05-0.91-0.18-1.12-0.41c-0.21-0.23-0.32-0.62-0.32-1.16c0-0.34,0.02-0.62,0.09-0.82c0.07-0.21,0.18-0.39,0.34-0.52
				c0.11-0.11,0.27-0.18,0.5-0.23c0.21-0.05,0.59-0.07,1.14-0.07h0.21c0.59,0,1.03,0.02,1.28,0.09c0.25,0.07,0.46,0.16,0.62,0.3
				c0.11,0.09,0.21,0.23,0.25,0.41s0.09,0.39,0.09,0.66c0,0.07,0,0.14,0,0.18s0,0.07,0,0.11h-0.66v-0.14c0-0.21-0.02-0.39-0.05-0.5
				s-0.07-0.21-0.11-0.25c-0.09-0.09-0.23-0.14-0.43-0.18c-0.21-0.02-0.62-0.05-1.18-0.05c-0.62,0-0.98,0.07-1.14,0.21
				c-0.16,0.14-0.23,0.41-0.23,0.82c0,0.34,0.05,0.57,0.16,0.71c0.09,0.14,0.3,0.21,0.59,0.23l1.85,0.16
				c0.48,0.05,0.82,0.18,1.03,0.41c0.21,0.23,0.3,0.59,0.3,1.12c0,0.39-0.02,0.68-0.07,0.87s-0.14,0.36-0.25,0.48
				c-0.14,0.16-0.34,0.27-0.57,0.34c-0.25,0.07-0.68,0.09-1.32,0.09h-0.3c-0.55,0-0.93-0.02-1.14-0.09
				c-0.23-0.05-0.41-0.16-0.57-0.3c-0.14-0.14-0.25-0.3-0.32-0.52c-0.07-0.21-0.11-0.5-0.11-0.82v-0.3L147.75,66.53z M156.41,66.73
				v-0.71c0-0.52-0.07-0.87-0.21-1s-0.41-0.21-0.84-0.21h-0.3c-0.43,0-0.71,0.07-0.82,0.21c-0.14,0.14-0.21,0.48-0.21,1v0.71
				c0,0.52,0.07,0.87,0.21,1s0.41,0.21,0.82,0.21h0.3c0.43,0,0.71-0.07,0.84-0.23c0.14-0.14,0.21-0.48,0.21-1V66.73z M155.09,68.51
				c-0.62,0-1.05-0.11-1.3-0.36s-0.36-0.66-0.36-1.28v-0.98c0-0.62,0.11-1.03,0.36-1.28c0.25-0.25,0.68-0.36,1.3-0.36h0.3
				c0.62,0,1.05,0.11,1.3,0.36c0.25,0.25,0.36,0.66,0.36,1.28v0.98c0,0.62-0.11,1.03-0.36,1.28c-0.25,0.25-0.68,0.36-1.3,0.36
				H155.09z M158.14,68.47v-5.88h0.62v5.88H158.14z M163.41,64.32v4.15h-0.59V67.9c-0.09,0.21-0.25,0.36-0.48,0.48
				c-0.23,0.09-0.52,0.16-0.89,0.16c-0.55,0-0.91-0.11-1.14-0.32c-0.23-0.23-0.32-0.62-0.32-1.16v-2.73h0.62v2.6
				c0,0.43,0.07,0.71,0.21,0.84s0.39,0.21,0.75,0.21c0.43,0,0.75-0.09,0.93-0.3c0.21-0.21,0.3-0.5,0.3-0.93v-2.42H163.41z
				 M164.27,64.84v-0.52h0.5v-0.93h0.62v0.93h2.03v0.52h-2.03v2.28c0,0.32,0.05,0.55,0.16,0.66c0.11,0.11,0.32,0.18,0.62,0.18
				s0.5-0.05,0.59-0.16c0.11-0.11,0.16-0.34,0.16-0.66v-0.11h0.62v0.05c0,0.59-0.09,0.98-0.3,1.18c-0.21,0.21-0.59,0.3-1.21,0.3
				c-0.48,0-0.8-0.11-1-0.32c-0.18-0.21-0.27-0.59-0.27-1.16v-2.21h-0.5L164.27,64.84z M168.67,63.29v-0.68h0.62v0.68H168.67z
				 M168.67,68.47v-4.15h0.62v4.15H168.67z M173.39,66.76v-0.71c0-0.52-0.07-0.87-0.21-1s-0.41-0.21-0.84-0.21h-0.3
				c-0.43,0-0.71,0.07-0.82,0.21c-0.14,0.14-0.21,0.48-0.21,1v0.71c0,0.52,0.07,0.87,0.21,1c0.14,0.14,0.41,0.21,0.82,0.21h0.3
				c0.43,0,0.71-0.07,0.84-0.23c0.14-0.14,0.21-0.48,0.21-1V66.76z M172.06,68.53c-0.62,0-1.05-0.11-1.3-0.36
				c-0.25-0.25-0.36-0.66-0.36-1.28v-0.98c0-0.62,0.11-1.03,0.36-1.28c0.25-0.25,0.68-0.36,1.3-0.36h0.3c0.62,0,1.05,0.11,1.3,0.36
				c0.25,0.25,0.36,0.66,0.36,1.28v0.98c0,0.62-0.11,1.03-0.36,1.28c-0.25,0.25-0.68,0.36-1.3,0.36H172.06z M175.12,68.49v-4.15
				h0.59v0.57c0.09-0.21,0.25-0.36,0.48-0.48c0.23-0.09,0.5-0.16,0.87-0.16c0.55,0,0.93,0.11,1.14,0.32
				c0.23,0.23,0.32,0.62,0.32,1.16v2.71h-0.62v-2.6c0-0.43-0.07-0.73-0.18-0.87c-0.14-0.14-0.36-0.21-0.75-0.21
				c-0.43,0-0.75,0.09-0.96,0.3c-0.21,0.21-0.3,0.5-0.3,0.93v2.42h-0.62L175.12,68.49z M179.61,67.26h0.62v0.09
				c0,0.25,0.07,0.43,0.23,0.52c0.16,0.09,0.48,0.14,0.96,0.14c0.52,0,0.87-0.05,0.98-0.14c0.11-0.09,0.18-0.3,0.18-0.57
				c0-0.27-0.05-0.46-0.16-0.55c-0.09-0.09-0.34-0.14-0.75-0.16c-0.16,0-0.34-0.02-0.62-0.02c-0.55-0.02-0.89-0.05-1-0.11
				c-0.16-0.09-0.27-0.21-0.34-0.36c-0.07-0.16-0.09-0.36-0.09-0.64c0-0.46,0.11-0.77,0.34-0.93c0.23-0.16,0.75-0.25,1.55-0.25
				c0.62,0,1.03,0.07,1.25,0.23c0.23,0.16,0.32,0.43,0.32,0.82h-0.62v-0.05c0-0.18-0.07-0.32-0.23-0.39s-0.48-0.11-0.96-0.11
				c-0.46,0-0.75,0.05-0.87,0.14c-0.14,0.09-0.18,0.25-0.18,0.52c0,0.16,0.02,0.27,0.05,0.34s0.07,0.11,0.14,0.16
				c0.11,0.07,0.39,0.11,0.82,0.11c0.11,0,0.18,0,0.25,0c0.34,0.02,0.62,0.02,0.82,0.05c0.21,0.02,0.34,0.05,0.43,0.09
				c0.18,0.09,0.32,0.21,0.39,0.36c0.07,0.16,0.11,0.39,0.11,0.68c0,0.3-0.05,0.55-0.11,0.68c-0.07,0.16-0.21,0.3-0.41,0.41
				c-0.09,0.07-0.23,0.09-0.43,0.11c-0.21,0.02-0.48,0.05-0.84,0.05c-0.73,0-1.23-0.09-1.46-0.25c-0.23-0.18-0.36-0.48-0.36-0.93
				v-0.11V67.26z"/>
			
				<linearGradient id="SVGID_1_" gradientUnits="userSpaceOnUse" x1="1025.4111" y1="-21967.5098" x2="1770.5778" y2="-21967.5098" gradientTransform="matrix(0.073 0 0 -0.073 0.9643 -1544.4502)">
				<stop  offset="0" style="stop-color:#FEFEFE"/>
				<stop  offset="1" style="stop-color:#00B0EF"/>
			</linearGradient>
			<rect x="75.8" y="58.24" style="fill-rule:evenodd;clip-rule:evenodd;fill:url(#SVGID_1_);" width="54.39" height="1.22"/>
			
				<linearGradient id="SVGID_00000110437222515850190220000008466797590571949994_" gradientUnits="userSpaceOnUse" x1="2520.3828" y1="-21967.5625" x2="1768.6827" y2="-21967.5625" gradientTransform="matrix(0.073 0 0 -0.073 0.9643 -1544.4502)">
				<stop  offset="0" style="stop-color:#FEFEFE"/>
				<stop  offset="1" style="stop-color:#00B0EF"/>
			</linearGradient>
			
				<polygon style="fill-rule:evenodd;clip-rule:evenodd;fill:url(#SVGID_00000110437222515850190220000008466797590571949994_);" points="
				184.91,59.47 130.05,59.47 130.05,58.24 184.91,58.24 			"/>
		</g>
	</g>
</g>
</svg>
