<?xml version="1.0" encoding="utf-8"?>
<!-- Generator: Adobe Illustrator 27.3.1, SVG Export Plug-In . SVG Version: 6.00 Build 0)  -->
<svg version="1.1" xmlns="http://www.w3.org/2000/svg" xmlns:xlink="http://www.w3.org/1999/xlink" x="0px" y="0px"
	 viewBox="0 0 200 100" style="enable-background:new 0 0 200 100;" xml:space="preserve">
<style type="text/css">
	.st0{fill:#080F27;}
	.st1{fill:#2A9B49;}
	.st2{fill:#ED1B25;}
	.st3{fill:#033572;}
	.st4{fill-rule:evenodd;clip-rule:evenodd;}
	.st5{fill:#FD393C;}
	.st6{fill:#FFFFFF;}
	.st7{fill:#FABB16;}
	.st8{fill:#5F5F5F;}
	.st9{fill:#0080FF;}
	.st10{fill-rule:evenodd;clip-rule:evenodd;fill:#0080FF;}
	.st11{fill:#E84E0F;}
	.st12{fill:#263238;}
	.st13{fill:#D4E157;}
	.st14{fill:url(#SVGID_1_);}
	.st15{fill:url(#SVGID_00000005235602930780900000000014915609800750943925_);}
	.st16{fill:url(#SVGID_00000002365543024215658460000016011261755969839252_);}
	.st17{fill:url(#SVGID_00000026874021870300150830000007962656351543548801_);}
	.st18{fill:url(#SVGID_00000071546683371349952550000006716153107646138509_);}
	.st19{fill:url(#SVGID_00000165219246717038608780000011614374478878039461_);}
	.st20{fill:url(#SVGID_00000016043663691455809590000001155564600212852101_);}
	.st21{fill:#E63351;}
	.st22{clip-path:url(#SVGID_00000005261831982871198540000017894168081429554111_);}
	.st23{clip-path:url(#SVGID_00000122698967665861386880000004220427966326463164_);}
	.st24{clip-path:url(#SVGID_00000104694246745849263550000016866205139404319416_);}
	.st25{clip-path:url(#SVGID_00000049183380621346077480000006864217494161818555_);}
	.st26{clip-path:url(#SVGID_00000176764326071179825120000014882974028532452503_);}
	.st27{clip-path:url(#SVGID_00000012453282576360261750000010671683977106275713_);}
	.st28{clip-path:url(#SVGID_00000050636466359478211960000006435220603346221502_);}
	.st29{clip-path:url(#SVGID_00000116956031142735015550000006942426918382953346_);}
	.st30{clip-path:url(#SVGID_00000152959032637433759890000006011551712552868999_);}
	.st31{clip-path:url(#SVGID_00000159433290857139220670000015787349578879078578_);}
	.st32{clip-path:url(#SVGID_00000169527824566909178550000004811687971951369395_);}
	.st33{clip-path:url(#SVGID_00000183957047401383205760000008695596941007769221_);}
	.st34{clip-path:url(#SVGID_00000163792478676270944100000008344784695106027917_);}
	.st35{clip-path:url(#SVGID_00000106139112336522563600000016574356493542980765_);}
	.st36{clip-path:url(#SVGID_00000024702163715037826270000015230247328006677172_);}
	.st37{clip-path:url(#SVGID_00000100352947707846685390000001993676394041568420_);}
	.st38{clip-path:url(#SVGID_00000030456152832726200660000016236772901753906876_);}
	.st39{clip-path:url(#SVGID_00000058582318517194152700000000585215306142010758_);}
	.st40{clip-path:url(#SVGID_00000082369606031174948810000000275828659472108169_);}
	.st41{clip-path:url(#SVGID_00000147208477879133295210000001152080993227460284_);}
	.st42{clip-path:url(#SVGID_00000082335301248798733460000010880817607030710719_);}
	.st43{clip-path:url(#SVGID_00000126304579910168119080000010206564121823082629_);}
	.st44{clip-path:url(#SVGID_00000090273643546104738260000010589888203758764195_);}
	.st45{clip-path:url(#SVGID_00000062876921696747851930000014571167775900717732_);}
	.st46{fill:#A03C56;}
	.st47{clip-path:url(#SVGID_00000028300892243310000860000012641015736451583166_);}
	.st48{clip-path:url(#SVGID_00000176748421945554457770000008968507260107158700_);}
	.st49{clip-path:url(#SVGID_00000038400171519637123310000000313452559109509791_);}
	.st50{clip-path:url(#SVGID_00000127034309604773567150000014534338655328302525_);}
	.st51{clip-path:url(#SVGID_00000116942225745047141700000015913498997141317520_);}
	.st52{clip-path:url(#SVGID_00000137815713379388980280000004183562224574776482_);}
	.st53{clip-path:url(#SVGID_00000102528769278691839110000000605844659240221333_);}
	.st54{clip-path:url(#SVGID_00000129893685234808983330000004161484887276491446_);}
	.st55{clip-path:url(#SVGID_00000016068385164106567010000002685567105735026087_);}
	.st56{clip-path:url(#SVGID_00000123422054170558311750000008993481412395287457_);}
	.st57{clip-path:url(#SVGID_00000159472425476586442030000008940981374152547000_);}
	.st58{clip-path:url(#SVGID_00000049192525461484910830000018240374866178590121_);}
	.st59{clip-path:url(#SVGID_00000027600188430549160070000002657579698448555450_);}
	.st60{clip-path:url(#SVGID_00000029747182972168379980000006736855511562948999_);}
	.st61{fill:none;}
	.st62{fill:#1388D6;}
	.st63{fill-rule:evenodd;clip-rule:evenodd;fill:#6EBE43;}
	.st64{fill-rule:evenodd;clip-rule:evenodd;fill:#1388D6;}
	.st65{fill:#62B536;}
	.st66{fill:#848688;}
	.st67{fill-rule:evenodd;clip-rule:evenodd;fill:url(#SVGID_00000052804600308555100830000008879540648351984298_);}
	.st68{fill-rule:evenodd;clip-rule:evenodd;fill:url(#SVGID_00000038381853632750335420000012602320764346086033_);}
	.st69{fill-rule:evenodd;clip-rule:evenodd;fill:#FFFFFF;}
	.st70{fill-rule:evenodd;clip-rule:evenodd;fill:url(#SVGID_00000097463452724551190780000017326931574521048467_);}
	.st71{fill-rule:evenodd;clip-rule:evenodd;fill:url(#SVGID_00000098931221986290652430000004579547809012524939_);}
	.st72{fill:url(#SVGID_00000087405137363983840350000003564949296186819983_);}
	.st73{fill:url(#SVGID_00000116214284093541042560000007200101679731346870_);}
	.st74{fill:url(#SVGID_00000006669523779452385430000013294326986177526930_);}
	.st75{fill:url(#SVGID_00000067215762935045249360000018160645619222696078_);}
	.st76{fill:url(#SVGID_00000018220444338032381720000008948029932262512513_);}
	.st77{fill:url(#SVGID_00000032612969553469641450000016932101139307209111_);}
	.st78{fill:url(#SVGID_00000088111615863294346520000012969218940988060606_);}
	.st79{clip-path:url(#SVGID_00000171680467404793026420000007764516232772214700_);}
	.st80{clip-path:url(#SVGID_00000096039078945868586750000008562930058028566442_);}
	.st81{clip-path:url(#SVGID_00000073683940041847926290000005259290437320278949_);}
	.st82{clip-path:url(#SVGID_00000130622798365157078650000001635711758886176157_);}
	.st83{clip-path:url(#SVGID_00000096035600371358905290000004670508198103651235_);}
	.st84{clip-path:url(#SVGID_00000084495667333468923320000007069478234444063643_);}
	.st85{clip-path:url(#SVGID_00000044151174901575710070000017625417269503486385_);}
	.st86{clip-path:url(#SVGID_00000041254968004119123040000017440513698085385899_);}
	.st87{clip-path:url(#SVGID_00000130615036755679070470000008582131906705408171_);}
	.st88{clip-path:url(#SVGID_00000093896111775360293950000009656762032934325892_);}
	.st89{clip-path:url(#SVGID_00000170275455074443230840000000287574703940851644_);}
	.st90{clip-path:url(#SVGID_00000035522419751138333360000013318911853851060396_);}
	.st91{clip-path:url(#SVGID_00000109740670986029516110000013248269192457049224_);}
	.st92{clip-path:url(#SVGID_00000002373700093714076460000001860240144158753699_);}
	.st93{clip-path:url(#SVGID_00000047769235983956413530000008630520617629895585_);}
	.st94{clip-path:url(#SVGID_00000106141395199395136700000003529568490710096793_);}
	.st95{clip-path:url(#SVGID_00000173148321579125433240000010309935312388637112_);}
	.st96{clip-path:url(#SVGID_00000025438956112709868540000007464541058948960136_);}
	.st97{clip-path:url(#SVGID_00000020397293295693008420000011202400402449449895_);}
	.st98{clip-path:url(#SVGID_00000036245391700741244510000014678503147213267135_);}
	.st99{clip-path:url(#SVGID_00000069355730928246946640000000314839173403602560_);}
	.st100{clip-path:url(#SVGID_00000145750116421216122050000004505755709675576493_);}
	.st101{clip-path:url(#SVGID_00000175306770188212841340000004253813442647126445_);}
	.st102{clip-path:url(#SVGID_00000098940151954661001000000010614928666886872469_);}
	.st103{clip-path:url(#SVGID_00000133487600314891911290000015801438383420180661_);}
	.st104{clip-path:url(#SVGID_00000000934223533811040160000009535928428780057474_);}
	.st105{clip-path:url(#SVGID_00000055691407037285131050000003940684516689498801_);}
	.st106{clip-path:url(#SVGID_00000076588749436421736030000002733578238817854880_);}
	.st107{clip-path:url(#SVGID_00000040557035136644558640000009175678777324486069_);}
	.st108{clip-path:url(#SVGID_00000119830037716789358310000010606835857929237433_);}
	.st109{clip-path:url(#SVGID_00000026878157108328475940000002666377879113536688_);}
	.st110{clip-path:url(#SVGID_00000140699231777336507610000000863720580272295334_);}
	.st111{clip-path:url(#SVGID_00000007395354135100166360000001042258105776880025_);}
	.st112{clip-path:url(#SVGID_00000001646604825332610370000004788488922499925403_);}
	.st113{clip-path:url(#SVGID_00000037667708278864478460000012844306541136920450_);}
	.st114{clip-path:url(#SVGID_00000029729270615175685350000013103589973784046507_);}
	.st115{clip-path:url(#SVGID_00000027566456393779219780000002490617547003380670_);}
	.st116{clip-path:url(#SVGID_00000124862889478983684110000002856842298506851458_);}
</style>
<g id="Background">
</g>
<g id="Logos">
	<g>
		<g transform="translate(0 14)">
			<path d="M23.34,28.78c3.58,0,6.5,3.1,6.5,7.17c0,4.09-2.92,7.22-6.5,7.22c-1.5,0.01-2.94-0.58-4.01-1.63V49h-3.53V29.1h3.37v1.44
				C20.24,29.45,21.7,28.78,23.34,28.78z M22.84,32.07c-1.94,0-3.5,1.74-3.5,3.88c0,2.17,1.56,3.93,3.5,3.93s3.5-1.69,3.5-3.93
				C26.34,33.73,24.78,32.07,22.84,32.07z"/>
		</g>
		<g transform="translate(39 14)">
			<path d="M-3.71,30.47c1.13-1.38,2.79-1.89,4.46-1.62v3.4c-1.42-0.16-2.6,0-3.41,0.85c-0.75,0.77-0.89,1.89-0.89,2.98v6.73h-3.54
				v-13.7h3.38V30.47z"/>
		</g>
		<g transform="translate(58 14)">
			<path id="svgcid--1thsgncfbxnb" d="M-11.25,28.78c3.87,0,7.03,3.13,7.03,7.25c0,4.12-3.16,7.2-7.03,7.2s-7-3.08-7-7.2
				C-18.25,31.91-15.12,28.78-11.25,28.78z M-11.25,32.01c-1.89,0-3.43,1.66-3.43,4.04c0,2.33,1.54,3.93,3.43,3.93
				s3.43-1.6,3.43-3.93C-7.82,33.67-9.36,32.01-11.25,32.01z"/>
		</g>
		<g transform="translate(90 3)">
			<path d="M-31.27,40.03v15.48c0,3.62-2.23,4.87-5.78,4.39v-3.13c1.44,0.13,2.15-0.27,2.15-1.66V40.03H-31.27z M-31.27,35.24v3.29
				h-3.62v-3.29H-31.27z"/>
		</g>
		<g transform="translate(108 14)">
			<path d="M-40.56,28.78c4.06,0,7.43,3.16,6.92,8.61h-10.4c0.45,1.68,1.79,2.73,3.45,2.73c1.18,0,2.33-0.51,2.91-1.61h3.77
				c-0.8,2.81-3.23,4.71-6.66,4.71c-3.88,0-7.06-3.21-7.06-7.2C-47.62,32.04-44.44,28.78-40.56,28.78z M-40.59,31.88
				c-1.6,0-2.89,1.02-3.39,2.62h6.84C-37.57,32.9-38.9,31.88-40.59,31.88z"/>
		</g>
		<g transform="translate(144 14)">
			<path d="M-61.73,28.78c3.28,0,5.76,1.87,6.56,4.98h-3.73c-0.48-0.94-1.56-1.74-2.83-1.74c-1.93,0-3.49,1.82-3.49,4.04
				c0,2.17,1.56,3.96,3.49,3.96c1.3,0,2.41-0.8,2.86-1.77h3.73c-0.79,3.13-3.28,4.98-6.58,4.98c-4.1,0-7.03-3.21-7.03-7.2
				C-68.76,32.04-65.83,28.78-61.73,28.78z"/>
		</g>
		<g transform="translate(181 6)">
			<path d="M-86.95,33.48v3.51h2.49v3.14h-2.49V45c0,1.93,0.88,2.65,2.65,2.55v3.22c-4.05,0.43-6.19-2.01-6.19-5.79v-11.5H-86.95z"
				/>
		</g>
		<g transform="translate(269 14)">
			<path d="M-135.19,28.78c2.06,0,3.85,1.15,4.82,2.54v-2.19h2.22v13.75h-2.22v-2.22c-0.98,1.42-2.76,2.56-4.82,2.56
				c-4.01,0-6.99-3.23-6.99-7.21C-142.17,32.04-139.2,28.78-135.19,28.78z M-135.19,30.94c-2.63,0-4.69,2.3-4.69,5.1
				c0,2.75,2.06,5.02,4.69,5.02c2.57,0,4.74-2.27,4.74-5.02C-130.45,33.24-132.61,30.94-135.19,30.94z"/>
		</g>
		<g transform="translate(374 14)">
			<path d="M-196.84,28.78c3.6,0,7.06,2.94,7.03,7.84h-11.71c0.3,2.86,2.51,4.55,4.81,4.55c1.97,0,3.38-0.94,4.14-2.54h2.43
				c-0.97,2.94-3.35,4.6-6.57,4.6c-4,0-7.14-3.16-7.14-7.2C-203.84,32.04-200.71,28.78-196.84,28.78z M-196.84,30.84
				c-1.92,0-3.95,1.39-4.54,3.74h9.03C-192.92,32.34-194.81,30.84-196.84,30.84z"/>
		</g>
		<g transform="translate(341 14)">
			<path d="M-177.62,28.78c3.05,0,5.44,1.82,6.36,4.6h-2.41c-0.77-1.5-2.17-2.51-3.95-2.51c-2.52,0-4.59,2.33-4.59,5.16
				c0,2.84,2.07,5.11,4.59,5.11c1.8,0,3.21-1.02,3.95-2.51h2.41c-0.9,2.78-3.32,4.6-6.36,4.6c-3.77,0-6.84-3.21-6.84-7.2
				C-184.46,32.04-181.38,28.78-177.62,28.78z"/>
		</g>
		<g transform="translate(309 14)">
			<path d="M-159.43,28.78c3.39,0,5.32,2.39,5.32,5.79v8.24h-2.26v-8.32c0-2.1-1.18-3.64-3.39-3.64c-2.1,0-3.63,1.54-3.63,3.59v8.37
				h-2.28V29.12h2.2v1.49C-162.52,29.47-161.1,28.78-159.43,28.78z"/>
		</g>
		<g transform="translate(237 14)">
			<path d="M-117.15,28.78c3.39,0,5.32,2.39,5.32,5.79v8.24h-2.26v-8.32c0-2.1-1.18-3.64-3.39-3.64c-2.1,0-3.63,1.54-3.63,3.59v8.37
				h-2.28V29.12h2.2v1.49C-120.24,29.47-118.81,28.78-117.15,28.78z"/>
		</g>
		<g transform="translate(203)">
			<path d="M-99.91,38.09c0.98-0.88,2.28-1.23,3.92-1.04v2.06c-1.06-0.08-1.82,0.11-2.37,0.61c-0.71,0.64-0.87,1.9-0.87,2.83v0.53
				h7.37v13.72h-2.28V45.26h-5.08v11.55h-2.28V45.26h-1.9v-2.17h1.9v-0.53C-101.51,40.55-100.97,39.03-99.91,38.09z"/>
		</g>
		<path class="st5" d="M108.67,41.13h2.06v-2.89h-2.06V41.13z"/>
	</g>
</g>
</svg>
