<?xml version="1.0" encoding="utf-8"?>
<!-- Generator: Adobe Illustrator 27.3.1, SVG Export Plug-In . SVG Version: 6.00 Build 0)  -->
<svg version="1.1" xmlns="http://www.w3.org/2000/svg" xmlns:xlink="http://www.w3.org/1999/xlink" x="0px" y="0px"
	 viewBox="0 0 200 100" style="enable-background:new 0 0 200 100;" xml:space="preserve">
<style type="text/css">
	.st0{fill:#080F27;}
	.st1{fill:#2A9B49;}
	.st2{fill:#ED1B25;}
	.st3{fill:#033572;}
	.st4{fill-rule:evenodd;clip-rule:evenodd;}
	.st5{fill:#FD393C;}
	.st6{fill:#FFFFFF;}
	.st7{fill:#FABB16;}
	.st8{fill:#5F5F5F;}
	.st9{fill:#0080FF;}
	.st10{fill-rule:evenodd;clip-rule:evenodd;fill:#0080FF;}
	.st11{fill:#E84E0F;}
	.st12{fill:#263238;}
	.st13{fill:#D4E157;}
	.st14{fill:url(#SVGID_1_);}
	.st15{fill:url(#SVGID_00000126283354874854056300000002674964787363982738_);}
	.st16{fill:url(#SVGID_00000017477930472497784410000005847089972445324952_);}
	.st17{fill:url(#SVGID_00000173845752416994335810000005037839389409576891_);}
	.st18{fill:url(#SVGID_00000137849037826299407960000001873747570819671701_);}
	.st19{fill:url(#SVGID_00000161597188745912462680000011975688269620912792_);}
	.st20{fill:url(#SVGID_00000098207129575605692210000000825329820985380509_);}
	.st21{fill:#E63351;}
	.st22{clip-path:url(#SVGID_00000145768801028559332930000003383010093819664799_);}
	.st23{clip-path:url(#SVGID_00000021112632664940221860000013974227156922717568_);}
	.st24{clip-path:url(#SVGID_00000038384614825213706280000004752339088008380850_);}
	.st25{clip-path:url(#SVGID_00000049189127399773759300000012830411495328339378_);}
	.st26{clip-path:url(#SVGID_00000015333892206638616260000013448155430491257512_);}
	.st27{clip-path:url(#SVGID_00000152236096435662940240000016494181118276950434_);}
	.st28{clip-path:url(#SVGID_00000152260896145523428270000006180835109747614127_);}
	.st29{clip-path:url(#SVGID_00000060738874461251966700000006368120604401414553_);}
	.st30{clip-path:url(#SVGID_00000150096651633928154830000016603498845204584346_);}
	.st31{clip-path:url(#SVGID_00000170974504012491064430000015058833702087118486_);}
	.st32{clip-path:url(#SVGID_00000060031091049933093080000005223159566346665662_);}
	.st33{clip-path:url(#SVGID_00000142149805823030871570000000743449075918601098_);}
	.st34{clip-path:url(#SVGID_00000023968846926344689490000012531955116778618002_);}
	.st35{clip-path:url(#SVGID_00000122689761642711941510000000771302625558064561_);}
	.st36{clip-path:url(#SVGID_00000126323605298388821390000001955179692337139647_);}
	.st37{clip-path:url(#SVGID_00000114066316586227066720000003705276484947226276_);}
	.st38{clip-path:url(#SVGID_00000112628511281461992730000010062383896081496479_);}
	.st39{clip-path:url(#SVGID_00000039856002190477232410000009414296041543061427_);}
	.st40{clip-path:url(#SVGID_00000091730081666004549800000008713340784934899615_);}
	.st41{clip-path:url(#SVGID_00000131324968702952157910000008516302649242282671_);}
	.st42{clip-path:url(#SVGID_00000022555335883745557280000004990072966049076103_);}
	.st43{clip-path:url(#SVGID_00000014631847184227283940000018413166193731875773_);}
	.st44{clip-path:url(#SVGID_00000083807177149649498180000016673162972081480865_);}
	.st45{clip-path:url(#SVGID_00000161624736895601686170000011587112901075216540_);}
	.st46{fill:#A03C56;}
	.st47{clip-path:url(#SVGID_00000063619389112815738050000011321628799089877894_);}
	.st48{clip-path:url(#SVGID_00000010302352051748672230000015723523269113237655_);}
	.st49{clip-path:url(#SVGID_00000005233660296209939340000015318887248193023934_);}
	.st50{clip-path:url(#SVGID_00000134232246981973109460000010723690190715130788_);}
	.st51{clip-path:url(#SVGID_00000060744501010405117440000010895217687061619858_);}
	.st52{clip-path:url(#SVGID_00000004511040424924327160000009418643620886472854_);}
	.st53{clip-path:url(#SVGID_00000111175783041685377170000014677942019899672744_);}
	.st54{clip-path:url(#SVGID_00000005249005280756023110000017435143462022272428_);}
	.st55{clip-path:url(#SVGID_00000108276923831777395860000015964089794778743221_);}
	.st56{clip-path:url(#SVGID_00000143615823512218201000000006652184008688798122_);}
	.st57{clip-path:url(#SVGID_00000159450611176501817040000017455834198008766617_);}
	.st58{clip-path:url(#SVGID_00000036211673463058092130000012746175899276031626_);}
	.st59{clip-path:url(#SVGID_00000003823454807370721110000002900026224253318534_);}
	.st60{clip-path:url(#SVGID_00000155858548614951815670000017097717212928706727_);}
	.st61{fill:none;}
	.st62{fill:#1388D6;}
	.st63{fill-rule:evenodd;clip-rule:evenodd;fill:#6EBE43;}
	.st64{fill-rule:evenodd;clip-rule:evenodd;fill:#1388D6;}
	.st65{fill:#62B536;}
	.st66{fill:#848688;}
	.st67{fill-rule:evenodd;clip-rule:evenodd;fill:url(#SVGID_00000047018345682310124890000006399324454603949243_);}
	.st68{fill-rule:evenodd;clip-rule:evenodd;fill:url(#SVGID_00000008129358019113212960000007782099365393791364_);}
	.st69{fill-rule:evenodd;clip-rule:evenodd;fill:#FFFFFF;}
	.st70{fill-rule:evenodd;clip-rule:evenodd;fill:url(#SVGID_00000013903621030410152930000016665095169182665103_);}
	.st71{fill-rule:evenodd;clip-rule:evenodd;fill:url(#SVGID_00000020395218783624728020000003503306437922795691_);}
	.st72{fill:url(#SVGID_00000021094580246506977430000010688559075830945180_);}
	.st73{fill:url(#SVGID_00000017514766714699972570000010177031885904381333_);}
	.st74{fill:url(#SVGID_00000170236564603240092630000003538779083231303557_);}
	.st75{fill:url(#SVGID_00000013891571512073509650000017177739389155401371_);}
	.st76{fill:url(#SVGID_00000075852129443988373620000011377737730711150748_);}
	.st77{fill:url(#SVGID_00000103254359114233930680000010058750118954965682_);}
	.st78{fill:url(#SVGID_00000167376824734054276180000017169604294393135265_);}
	.st79{clip-path:url(#SVGID_00000114040180823672938350000009099500674019832991_);}
	.st80{clip-path:url(#SVGID_00000130624036407596249510000000437782575431443865_);}
	.st81{clip-path:url(#SVGID_00000024702491875733797220000003804843553577934998_);}
	.st82{clip-path:url(#SVGID_00000059270832941498127330000014733042395658829450_);}
	.st83{clip-path:url(#SVGID_00000127023001290254373860000008583236318375793300_);}
	.st84{clip-path:url(#SVGID_00000132807483375051298830000012034835676561150084_);}
	.st85{clip-path:url(#SVGID_00000046338679076347040620000011893743099085769899_);}
	.st86{clip-path:url(#SVGID_00000000192101228288904090000017972197462653152405_);}
	.st87{clip-path:url(#SVGID_00000004524809532832678580000017744128837797687428_);}
	.st88{clip-path:url(#SVGID_00000163051335784885494790000011788557630874303642_);}
	.st89{clip-path:url(#SVGID_00000125565063022774007860000003854691357952993948_);}
	.st90{clip-path:url(#SVGID_00000016067012834600609040000004353597545161697461_);}
	.st91{clip-path:url(#SVGID_00000099625118921692199010000008493384647605603491_);}
	.st92{clip-path:url(#SVGID_00000158744305792186270110000012935552165055914626_);}
	.st93{clip-path:url(#SVGID_00000140000635664479768200000010987508213580102273_);}
	.st94{clip-path:url(#SVGID_00000148650146085307690250000008519830555374870168_);}
	.st95{clip-path:url(#SVGID_00000139991314732165519120000003048884606753113266_);}
	.st96{clip-path:url(#SVGID_00000057840664764936832230000002846891511639838617_);}
	.st97{clip-path:url(#SVGID_00000166648507040989505810000006922264234016426883_);}
	.st98{clip-path:url(#SVGID_00000013888706260581366490000013239338327939930763_);}
	.st99{clip-path:url(#SVGID_00000044141777644064954310000010010874555755942300_);}
	.st100{clip-path:url(#SVGID_00000075862872491240530750000004214360550162741946_);}
	.st101{clip-path:url(#SVGID_00000068656537570561609170000001734048346595645342_);}
	.st102{clip-path:url(#SVGID_00000008860829857042875480000004518436220666311075_);}
	.st103{clip-path:url(#SVGID_00000058555112109528646120000000611024766962828448_);}
	.st104{clip-path:url(#SVGID_00000131346163674885839070000014745737108323282072_);}
	.st105{clip-path:url(#SVGID_00000059300005171015034910000015862619520865188023_);}
	.st106{clip-path:url(#SVGID_00000003800687186984263100000002157780549858598815_);}
	.st107{clip-path:url(#SVGID_00000083793016356725072810000017877335178436589205_);}
	.st108{clip-path:url(#SVGID_00000033365901689300202550000004196280959339823014_);}
	.st109{clip-path:url(#SVGID_00000005245945573471189520000000919712463958578312_);}
	.st110{clip-path:url(#SVGID_00000111175740877923983800000004146594369970788499_);}
	.st111{clip-path:url(#SVGID_00000116215661738177661910000014703798552945989040_);}
	.st112{clip-path:url(#SVGID_00000120535474368768474690000016182837863503761331_);}
	.st113{clip-path:url(#SVGID_00000146465219346024304150000012702851669173890216_);}
	.st114{clip-path:url(#SVGID_00000150075759543799503880000016910808527802233002_);}
	.st115{clip-path:url(#SVGID_00000121255124651567024420000011774567422347880334_);}
	.st116{clip-path:url(#SVGID_00000183235432177255193110000015746163517270024617_);}
</style>
<g id="Background">
</g>
<g id="Logos">
	<g>
		<g>
			<path class="st11" d="M93.32,48.49c-2.21-0.3-3.19-0.9-3.17-1.95c0.03-1.49,2.06-2.03,3.43-2.03l0.1,0
				c1.22,0.02,2.51,0.37,3.19,0.85c0.17,0.14,0.37,0.22,0.57,0.22c0.32,0,0.6-0.18,0.71-0.47c0.12-0.29,0.05-0.6-0.18-0.88
				c-0.99-0.98-2.95-1.36-4.32-1.39l-0.11,0c-1.96,0-5.08,0.99-5.09,3.63c0,2.13,1.74,3.4,5.17,3.77c2.7,0.29,4.01,1.17,4.01,2.69
				c0,1.03-1.03,2.57-3.84,2.57c-2.13,0-3.45-0.74-3.98-1.44c-0.2-0.26-0.45-0.4-0.72-0.4c-0.29,0-0.55,0.16-0.69,0.43
				c-0.18,0.34-0.14,0.77,0.13,1.17c0.7,1.08,2.74,1.89,4.97,1.99c0.13,0.01,0.26,0.01,0.39,0.01c3.21,0,5.46-1.77,5.46-4.31
				C99.36,49.3,95.58,48.79,93.32,48.49z"/>
			<path class="st11" d="M155.5,54.15c-0.27,0-0.52,0.13-0.71,0.37c-0.97,1.22-1.95,1.22-2.47,1.22c-0.77,0-1.36-0.16-1.74-0.48
				c-0.37-0.31-0.55-0.68-0.55-1.13v-6.3h4.35c0.31,0,0.55-0.07,0.72-0.23c0.17-0.16,0.26-0.36,0.26-0.59c0-0.24-0.09-0.44-0.26-0.6
				c-0.17-0.15-0.41-0.23-0.72-0.23h-4.35v-2.22c0-0.32-0.07-0.56-0.23-0.73c-0.16-0.17-0.37-0.25-0.6-0.25
				c-0.23,0-0.44,0.09-0.59,0.26c-0.15,0.16-0.23,0.4-0.23,0.72v10.18c0,0.99,0.38,1.8,1.12,2.39c0.72,0.57,1.69,0.86,2.88,0.86
				c2.46,0,3.71-1.94,3.81-2.23c0.09-0.25,0.06-0.5-0.08-0.7C155.98,54.26,155.75,54.15,155.5,54.15z"/>
			<path class="st11" d="M117.79,46.1c-1.34,0-2.54,0.38-3.42,1.07v-0.11c0-0.56-0.41-0.85-0.81-0.85c-0.4,0-0.83,0.3-0.83,0.85
				v9.63c0,0.52,0.43,0.81,0.83,0.81c0.4,0,0.81-0.28,0.81-0.81v-6.94c0.46-1.2,1.82-2,3.4-2c1.43,0,2.51,0.89,2.51,2.08v6.86
				c0,0.42,0.37,0.75,0.85,0.75c0.46,0,0.79-0.32,0.79-0.75v-7.02C121.93,48.74,121.17,46.1,117.79,46.1z"/>
			<path class="st11" d="M110.11,46.48c-0.2,0-0.58,0.08-0.86,0.62c-0.22,0.43-1.73,3.51-2.83,5.76l-0.97,1.99
				c-0.9-1.82-3.69-7.45-3.93-7.93c-0.16-0.31-0.45-0.5-0.8-0.5c-0.3,0-0.58,0.15-0.73,0.37c-0.12,0.2-0.14,0.43-0.03,0.65
				c0.16,0.35,2.39,4.81,3.72,7.47l0.87,1.75l-0.19,0.39c-0.51,1.03-1.56,3.17-1.82,3.72c-0.13,0.27-0.13,0.55,0.01,0.78
				c0.14,0.22,0.38,0.35,0.65,0.35c0.35,0,0.66-0.21,0.85-0.57c0.39-0.76,6.62-13.35,6.8-13.8c0.09-0.23,0.06-0.49-0.08-0.7
				C110.62,46.61,110.37,46.48,110.11,46.48z"/>
			<path class="st11" d="M159.48,42.97c-1.18,0-2.14,0.96-2.14,2.14c0,0.87,0.52,1.63,1.32,1.97v9.74c0,0.44,0.36,0.77,0.83,0.77
				c0.47,0,0.81-0.32,0.81-0.77v-9.74c0.81-0.34,1.32-1.1,1.32-1.97C161.62,43.93,160.66,42.97,159.48,42.97z M159.48,44.18
				c0.51,0,0.92,0.41,0.92,0.92c0,0.5-0.41,0.91-0.92,0.91c-0.5,0-0.91-0.41-0.91-0.91C158.57,44.6,158.98,44.18,159.48,44.18z"/>
			<path class="st11" d="M129.6,46.1c-1.57,0-2.9,0.53-3.97,1.59c-1.07,1.06-1.61,2.35-1.61,3.83c0,1.62,0.57,3.02,1.71,4.15
				c1.13,1.14,2.56,1.72,4.25,1.72c1.44,0,2.92-0.43,3.96-1.15c0.69-0.48,0.63-0.95,0.57-1.13c-0.09-0.3-0.38-0.51-0.69-0.51
				c-0.12,0-0.23,0.03-0.33,0.09c-1.28,0.71-2.18,1.06-3.51,1.06c-1.16,0-2.15-0.35-2.94-1.05c-0.69-0.62-1.15-1.43-1.34-2.4h8.72
				c0.2,0,0.39-0.08,0.52-0.23c0.13-0.15,0.2-0.34,0.19-0.54C134.82,47.23,131.38,46.1,129.6,46.1z M127,48.65
				c0.72-0.6,1.6-0.91,2.6-0.91c1.01,0,1.88,0.31,2.61,0.91c0.62,0.52,1.04,1.19,1.26,1.98h-7.73
				C125.95,49.83,126.38,49.16,127,48.65z"/>
			<path class="st11" d="M168.12,46.1c-0.91,0-3.84,0.64-4.22,1.05c-0.21,0.21-0.27,0.58-0.15,0.89c0.12,0.3,0.39,0.48,0.72,0.48
				c0.09,0,0.3-0.06,0.73-0.18c0.76-0.22,2.03-0.58,2.87-0.58c1.91,0,2.58,0.87,2.58,1.61v1.15c-0.42-0.07-1.78-0.28-2.78-0.28
				c-3.69,0-5.35,1.91-5.35,3.81c0,1.98,1.65,3.36,4,3.36c1.44,0,2.83-0.47,4.12-1.4v0.68c0,0.44,0.35,0.75,0.82,0.75
				c0.47,0,0.83-0.32,0.83-0.75v-7.31C172.31,47.77,170.84,46.1,168.12,46.1z M170.65,52.15v1.7c-1.41,1.32-2.66,1.88-4.17,1.88
				c-1.43,0-2.32-0.66-2.32-1.72c0-1.26,1.6-2.17,3.82-2.17C169.24,51.86,170.35,52.08,170.65,52.15z"/>
			<path class="st11" d="M141.07,50.44c-1.73-0.2-2.57-0.64-2.56-1.33c0.01-0.87,1.5-1.38,2.86-1.36c0.99,0.02,2.06,0.27,2.6,0.62
				c0.8,0.6,1.94-0.31,1.15-1.16c-0.88-0.79-2.58-1.09-3.76-1.11c-2.14-0.03-4.46,0.87-4.49,2.95c-0.04,2.61,3.07,2.92,4.24,3.03
				c0.66,0.07,3.56,0.37,3.54,1.88c-0.01,0.91-1.18,1.81-3.39,1.78c-0.74-0.01-1.98-0.31-2.62-0.7c-1.19-0.74-2.26,0.38-1.21,1.22
				c1.25,0.9,2.85,1.1,3.84,1.12c2.92,0.05,4.98-1.35,5.02-3.39C146.32,51.39,143.52,50.73,141.07,50.44z"/>
		</g>
		<g>
			<g>
				<path class="st11" d="M51.69,26c-13.25,0-24,10.75-24,24c0,13.25,10.74,24,24,24c13.26,0,24-10.75,24-24
					C75.69,36.75,64.95,26,51.69,26z"/>
			</g>
			<g>
				<g>
					<g>
						<path class="st6" d="M45.8,45.54c-0.07,0-0.14-0.02-0.2-0.05c-1-0.54-1.63-1.37-1.83-2.39c-0.29-1.46,0.37-3.05,1.71-4.17
							c2.33-1.94,6.36-2.25,11.09-0.82c0.22,0.07,0.35,0.3,0.28,0.53c-0.07,0.22-0.3,0.35-0.53,0.28c-4.43-1.34-8.2-1.09-10.3,0.66
							c-1.1,0.92-1.64,2.2-1.42,3.35c0.15,0.77,0.64,1.39,1.4,1.81c0.21,0.11,0.28,0.37,0.17,0.57
							C46.09,45.46,45.95,45.54,45.8,45.54z"/>
					</g>
					<g>
						<path class="st6" d="M52.74,63.05c-2.16,0-4.61-0.48-7.28-1.42c-0.22-0.08-0.34-0.32-0.26-0.54c0.08-0.22,0.32-0.33,0.54-0.26
							c2.55,0.9,4.97,1.38,7,1.38h0c2.07,0,3.73-0.46,4.93-1.37c1.19-0.9,1.79-2.21,1.62-3.52c-0.14-1.07-0.75-1.96-1.76-2.56
							c-0.2-0.12-0.27-0.38-0.15-0.58c0.12-0.2,0.38-0.27,0.58-0.15c1.24,0.74,1.99,1.84,2.17,3.18c0.21,1.61-0.52,3.22-1.95,4.3
							C56.83,62.53,55,63.05,52.74,63.05L52.74,63.05L52.74,63.05z"/>
					</g>
				</g>
				<path class="st6" d="M59.88,36c-3.16-1.25-6.15-1.87-8.8-1.87c-3.03,0-5.64,0.81-7.58,2.43c-2.21,1.83-3.26,4.57-2.76,7.13
					c0.47,2.41,2.02,4.13,4.96,5.15c0.18,1.44,1.41,2.56,2.91,2.56c1.62,0,2.93-1.31,2.93-2.93c0-1.62-1.31-2.93-2.93-2.93
					c-1.01,0-1.9,0.51-2.42,1.28c-1.81-0.59-3.09-1.88-3.41-3.53c-0.36-1.82,0.43-3.79,2.06-5.14c3.04-2.53,8.25-2.61,14.3-0.22
					c0.53,0.21,1.13-0.05,1.34-0.58C60.67,36.81,60.41,36.21,59.88,36z M48.6,46.65c1.01,0,1.82,0.82,1.82,1.82
					c0,1-0.81,1.82-1.82,1.82c-1,0-1.82-0.81-1.82-1.82C46.78,47.47,47.59,46.65,48.6,46.65z"/>
				<path class="st6" d="M63.2,56.81c-0.35-2.66-2.05-4.86-4.98-6.07c-0.02-1.6-1.33-2.89-2.93-2.89c-1.62,0-2.93,1.31-2.93,2.93
					c0,1.62,1.31,2.93,2.93,2.93c0.9,0,1.7-0.4,2.24-1.04c2.09,0.85,3.37,2.47,3.63,4.4c0.26,1.98-0.62,3.94-2.35,5.24
					c-3.34,2.52-9.12,2.3-15.88-0.6c-0.52-0.23-1.13,0.02-1.36,0.54s0.02,1.13,0.54,1.36c4.36,1.87,7.85,2.53,10.59,2.53
					c3.68,0,6.02-1.18,7.35-2.18C62.37,62.21,63.55,59.53,63.2,56.81z M55.28,52.6c-1,0-1.82-0.82-1.82-1.82
					c0-1,0.81-1.82,1.82-1.82c1.01,0,1.82,0.81,1.82,1.82C57.1,51.79,56.29,52.6,55.28,52.6z"/>
				<path class="st6" d="M62.39,39.27c0.56-0.04,0.99-0.53,0.94-1.1c-0.04-0.54-0.49-0.95-1.02-0.95c-0.03,0-0.05,0-0.08,0
					c-0.56,0.04-0.98,0.53-0.94,1.1C61.34,38.89,61.83,39.31,62.39,39.27z"/>
				<path class="st6" d="M39.89,62.23c0.56-0.04,0.99-0.53,0.94-1.1c-0.04-0.54-0.49-0.95-1.02-0.95c-0.03,0-0.05,0-0.08,0
					c-0.56,0.04-0.98,0.53-0.94,1.1C38.83,61.85,39.32,62.27,39.89,62.23z"/>
			</g>
		</g>
	</g>
</g>
</svg>
