<?xml version="1.0" encoding="utf-8"?>
<!-- Generator: Adobe Illustrator 22.0.1, SVG Export Plug-In . SVG Version: 6.00 Build 0)  -->
<!DOCTYPE svg PUBLIC "-//W3C//DTD SVG 1.1//EN" "http://www.w3.org/Graphics/SVG/1.1/DTD/svg11.dtd">
<svg version="1.1" id="Ebene_1" xmlns="http://www.w3.org/2000/svg" xmlns:xlink="http://www.w3.org/1999/xlink" x="0px" y="0px"
	 viewBox="0 0 595.3 595.3" style="enable-background:new 0 0 595.3 595.3;" xml:space="preserve">
<style type="text/css">
	.st0{fill:#033572;}
	.st1{fill-rule:evenodd;clip-rule:evenodd;}
</style>
<g>
	<polygon class="st0" points="172.2,276.3 191.2,276.3 179.3,296 182.4,296 194.3,276.3 213.4,276.3 201.6,296 214.8,296 
		209.5,304.8 196.2,304.8 206.6,319 187.5,319 177.2,304.8 173.9,304.8 184.2,319 165.3,319 155,304.8 172.2,276.3 	"/>
	<polygon points="237.7,312.3 243.5,312.3 243.5,300.8 254.3,300.8 254.3,312.3 260.2,312.3 260.2,285.6 254.3,285.6 254.3,295.9 
		243.5,295.9 243.5,285.6 237.7,285.6 237.7,312.3 	"/>
	<path class="st1" d="M274.4,304.8c0,1.2-0.1,4.4-4.3,4.4c-1.7,0-3.2-0.5-3.2-2.5c0-1.9,1.5-2.5,3.1-2.8c1.6-0.3,3.5-0.3,4.4-1.1
		V304.8L274.4,304.8z M267.5,298.9c0.2-2.1,1.5-2.9,3.5-2.9c1.9,0,3.4,0.3,3.4,2.6c0,2.2-3,2.1-6.3,2.5c-3.3,0.4-6.6,1.5-6.6,5.9
		c0,4,2.9,5.8,6.6,5.8c2.4,0,4.8-0.6,6.5-2.4c0,0.6,0.2,1.3,0.4,1.9h5.4c-0.5-0.8-0.7-2.5-0.7-4.3v-10c0-4.6-4.6-5.5-8.5-5.5
		c-4.3,0-8.8,1.5-9.1,6.5H267.5L267.5,298.9z"/>
	<path class="st1" d="M281.4,319.1h5.3v-9.2h0.1c1.3,1.9,3.5,2.9,5.8,2.9c5.6,0,8.5-4.8,8.5-10c0-5.5-2.7-10.4-8.8-10.4
		c-2.4,0-4.5,0.9-5.8,3h-0.1V293h-5V319.1L281.4,319.1z M291.2,308.8c-3.4,0-4.6-3-4.6-6.1c0-3.1,1.1-6.2,4.6-6.2
		c3.4,0,4.6,3.2,4.6,6.2C295.8,305.9,294.7,308.8,291.2,308.8L291.2,308.8z"/>
	<path class="st1" d="M314.7,304.8c0,1.2-0.1,4.4-4.3,4.4c-1.7,0-3.2-0.5-3.2-2.5c0-1.9,1.5-2.5,3.1-2.8c1.6-0.3,3.5-0.3,4.4-1.1
		V304.8L314.7,304.8z M307.7,298.9c0.2-2.1,1.5-2.9,3.5-2.9c1.9,0,3.4,0.3,3.4,2.6c0,2.2-3,2.1-6.3,2.5c-3.3,0.4-6.6,1.5-6.6,5.9
		c0,4,2.9,5.8,6.6,5.8c2.4,0,4.8-0.6,6.5-2.4c0,0.6,0.2,1.3,0.4,1.9h5.4c-0.5-0.8-0.7-2.5-0.7-4.3v-10c0-4.6-4.6-5.5-8.5-5.5
		c-4.3,0-8.8,1.5-9.1,6.5H307.7L307.7,298.9z"/>
	<path class="st1" d="M341,293h-5v2.6h-0.1c-1.3-2.2-3.2-3.1-5.8-3.1c-5.4,0-8.3,4.6-8.3,9.6c0,5.3,2.5,9.7,8.3,9.7
		c2.3,0,4.6-1,5.8-3h0.1v2.5c0,2.8-1.3,4.8-4.3,4.8c-1.9,0-3.5-0.7-4-2.7h-5.3c0.3,4.4,4.7,6.2,8.5,6.2c8.9,0,10-5.4,10-8.6V293
		L341,293z M331.4,307.8c-3.2,0-4.3-3-4.3-5.8c0-2.9,1.3-5.5,4.3-5.5c3.4,0,4.5,2.8,4.5,5.9C335.9,305.2,334.5,307.8,331.4,307.8
		L331.4,307.8z"/>
	<polygon points="342.4,304.4 353.7,304.4 353.7,299.8 342.4,299.8 342.4,304.4 	"/>
	<polygon points="355.1,312.3 374,312.3 374,307.4 361,307.4 361,285.6 355.1,285.6 355.1,312.3 	"/>
	<polygon points="375.2,312.3 380.5,312.3 380.5,285.6 375.2,285.6 375.2,312.3 	"/>
	<path class="st1" d="M381.7,302.7c0,6.1,3.9,10.2,10,10.2c6.1,0,10-4,10-10.2c0-6.2-3.9-10.2-10-10.2
		C385.6,292.5,381.7,296.5,381.7,302.7L381.7,302.7z M387,302.7c0-3.1,1.1-6.2,4.7-6.2c3.6,0,4.7,3.1,4.7,6.2c0,3.1-1.1,6.2-4.7,6.2
		C388.1,308.8,387,305.7,387,302.7L387,302.7z"/>
	<path d="M420.3,293h-5.5l-4.2,13.2h-0.1l-4.4-13.2h-5.7l6.8,18.1c0.6,1.5,0,3.4-1.8,3.6c-1,0-2.1-0.1-3.1-0.2v4.4
		c1.1,0.1,2.2,0.2,3.2,0.2c3.7,0,5.5-1.3,6.6-4.4L420.3,293L420.3,293z"/>
	<path class="st1" d="M433.5,312.3h5v-26.7h-5.3v9.7h-0.1h0c-1.2-1.9-3.5-2.9-5.8-2.9c-5.7,0-8.6,4.8-8.6,10
		c0,5.3,2.8,10.3,8.7,10.3c2.5,0,4.6-0.9,5.9-3h0.1V312.3L433.5,312.3z M433.4,302.6c0,3.2-1,6.2-4.6,6.2c-3.3,0-4.7-3.2-4.7-6.2
		c0-3.2,1.2-6.2,4.7-6.2C432.3,296.5,433.4,299.5,433.4,302.6L433.4,302.6z"/>
</g>
</svg>
