<svg xmlns="http://www.w3.org/2000/svg" xmlns:xlink="http://www.w3.org/1999/xlink" viewBox="4337 302 55 42">
  <defs>
    <style>
      .cls-1 {
        fill: none;
      }

      .cls-2 {
        clip-path: url(#clip-path);
      }

      .cls-3 {
        fill: #5f5f5f;
      }

      .cls-4 {
        fill: #fabb16;
      }
    </style>
    <clipPath id="clip-path">
      <path id="path" class="cls-1" d="M0-2.459H55v-42H0Z" transform="translate(0 44.459)"/>
    </clipPath>
  </defs>
  <g id="group" transform="translate(4337 301.999)">
    <g id="group-2" data-name="group" class="cls-2" transform="translate(0 0)">
      <g id="group-3" data-name="group" transform="translate(43.976 0)">
        <path id="path-2" data-name="path" class="cls-3" d="M0,0V29.461l0,.414c-.024,2.041-.075,6.288,2.772,9.264C4.633,41.09,7.337,42.052,10.806,42h.209v-4.59h-.245c-2.26.041-3.915-.471-4.919-1.523-1.536-1.606-1.5-4.433-1.484-5.952l0-.471V0Z" transform="translate(0.01)"/>
      </g>
      <g id="group-4" data-name="group" transform="translate(0 0.071)">
        <path id="path-3" data-name="path" class="cls-3" d="M-.844,0V9.378H16.317a10.228,10.228,0,0,1,3.394.462,5.917,5.917,0,0,1,3.467,3.519,9.25,9.25,0,0,1,.481,3.234l0,12.858a11.819,11.819,0,0,1-.44,3.567,6.108,6.108,0,0,1-1.3,2.2,5.445,5.445,0,0,1-2.054,1.437,8.029,8.029,0,0,1-3.078.506L.022,37.19a10.224,10.224,0,0,1-3.392-.462,5.717,5.717,0,0,1-2.1-1.359,5.762,5.762,0,0,1-1.367-2.16,9.243,9.243,0,0,1-.482-3.233V9.388h-4.37V29.976a13.8,13.8,0,0,0,.765,4.859,10.424,10.424,0,0,0,2.442,3.857A10.143,10.143,0,0,0-4.8,41.065a14.114,14.114,0,0,0,4.828.714l16.765-.026a12,12,0,0,0,4.623-.8,9.861,9.861,0,0,0,3.673-2.566,10.831,10.831,0,0,0,2.256-3.863,16.186,16.186,0,0,0,.683-5.071l0-12.858a13.747,13.747,0,0,0-.764-4.859,10.37,10.37,0,0,0-2.442-3.858A10.1,10.1,0,0,0,21.145,5.5a14.109,14.109,0,0,0-4.827-.716H3.526V0Z" transform="translate(11.688)"/>
      </g>
    </g>
    <path id="path-4" data-name="path" class="cls-4" d="M.012-39.641H4.376V-44.38H.012Z" transform="translate(-0.001 44.455)"/>
  </g>
</svg>
