<?xml version="1.0" encoding="utf-8"?>
<!-- Generator: Adobe Illustrator 16.0.3, SVG Export Plug-In . SVG Version: 6.00 Build 0)  -->
<!DOCTYPE svg PUBLIC "-//W3C//DTD SVG 1.1//EN" "http://www.w3.org/Graphics/SVG/1.1/DTD/svg11.dtd">
<svg version="1.1" id="Layer_1" xmlns="http://www.w3.org/2000/svg" xmlns:xlink="http://www.w3.org/1999/xlink" x="0px" y="0px"
	 width="487.935px" height="161.957px" viewBox="0 0 487.935 161.957" enable-background="new 0 0 487.935 161.957"
	 xml:space="preserve">
<g>
	<g>
		<path fill="#E84E0F" d="M221.442,75.876c-7.463-0.999-10.764-3.027-10.699-6.576c0.09-5.022,6.966-6.846,11.568-6.846l0.327,0.003
			c4.132,0.074,8.466,1.233,10.76,2.869c0.575,0.476,1.241,0.727,1.931,0.727c1.065,0,2.008-0.622,2.407-1.587
			c0.394-0.967,0.181-2.012-0.622-2.971c-3.342-3.318-9.938-4.595-14.564-4.678l-0.363-0.003c-6.629,0-17.148,3.327-17.162,12.254
			c-0.014,7.18,5.861,11.456,17.455,12.709c9.117,0.984,13.547,3.954,13.539,9.079c-0.006,3.489-3.463,8.682-12.973,8.682
			c-7.17,0-11.633-2.506-13.416-4.849c-0.665-0.872-1.531-1.354-2.441-1.354c-0.962,0-1.859,0.551-2.343,1.439
			c-0.622,1.146-0.463,2.592,0.43,3.962c2.366,3.632,9.261,6.391,16.767,6.712c0.445,0.018,0.89,0.027,1.322,0.027
			c10.838,0,18.417-5.98,18.433-14.544C241.816,78.609,229.062,76.899,221.442,75.876z"/>
		<path fill="#E84E0F" d="M431.231,94.973c-0.918,0-1.771,0.44-2.406,1.239c-3.283,4.132-6.57,4.132-8.33,4.132
			c-2.609,0-4.582-0.548-5.867-1.628c-1.244-1.045-1.85-2.291-1.85-3.814V73.633h14.686c1.051,0,1.846-0.246,2.443-0.762
			c0.568-0.538,0.867-1.231,0.867-2.006c0-0.798-0.299-1.499-0.873-2.039c-0.578-0.521-1.373-0.775-2.438-0.775h-14.686v-7.492
			c0-1.082-0.248-1.882-0.762-2.448c-0.547-0.563-1.252-0.86-2.039-0.86c-0.775,0-1.484,0.31-1.992,0.863
			c-0.521,0.549-0.775,1.348-0.775,2.445v34.343c0,3.352,1.275,6.066,3.789,8.067c2.441,1.931,5.711,2.91,9.723,2.91
			c8.301,0,12.508-6.538,12.857-7.521c0.301-0.834,0.197-1.688-0.271-2.346C432.851,95.361,432.075,94.973,431.231,94.973z"/>
		<path fill="#E84E0F" d="M303.978,67.808c-4.514,0-8.57,1.279-11.523,3.615v-0.362c0-1.883-1.373-2.868-2.727-2.868
			c-1.358,0-2.801,1.005-2.801,2.868v32.477c0,1.771,1.442,2.727,2.801,2.727c1.354,0,2.727-0.936,2.727-2.727V80.126
			c1.539-4.044,6.144-6.756,11.484-6.756c4.834,0,8.483,3.019,8.483,7.023v23.144c0,1.424,1.259,2.538,2.865,2.538
			c1.548,0,2.669-1.067,2.669-2.538V79.851C317.956,76.727,315.39,67.808,303.978,67.808z"/>
		<path fill="#E84E0F" d="M278.077,69.107c-0.683,0-1.966,0.271-2.903,2.084c-0.741,1.466-5.836,11.843-9.552,19.419l-3.286,6.7
			c-3.05-6.15-12.459-25.152-13.245-26.764c-0.525-1.05-1.535-1.678-2.703-1.678c-1.014,0-1.973,0.497-2.449,1.264
			c-0.419,0.663-0.458,1.463-0.112,2.194c0.556,1.176,8.062,16.221,12.548,25.21l2.951,5.914l-0.645,1.311
			c-1.707,3.476-5.258,10.704-6.148,12.567c-0.451,0.908-0.438,1.869,0.039,2.642c0.475,0.738,1.297,1.179,2.205,1.179
			c1.174,0,2.242-0.716,2.859-1.914c1.309-2.58,22.334-45.055,22.94-46.563c0.312-0.787,0.208-1.651-0.284-2.372
			C279.788,69.554,278.96,69.107,278.077,69.107z"/>
		<path fill="#E84E0F" d="M444.669,57.25c-3.982,0-7.225,3.24-7.225,7.224c0,2.927,1.744,5.509,4.461,6.645v32.869
			c0,1.475,1.199,2.586,2.793,2.586c1.588,0,2.736-1.088,2.736-2.586V71.118c2.717-1.135,4.459-3.717,4.459-6.645
			C451.894,60.49,448.651,57.25,444.669,57.25z M444.669,61.351c1.711,0,3.1,1.396,3.1,3.108c0,1.701-1.389,3.087-3.1,3.087
			c-1.697,0-3.078-1.386-3.078-3.087C441.591,62.746,442.972,61.351,444.669,61.351z"/>
		<path fill="#E84E0F" d="M343.843,67.808c-5.285,0-9.789,1.8-13.391,5.351c-3.6,3.579-5.426,7.929-5.426,12.925
			c0,5.467,1.938,10.18,5.76,14.007c3.822,3.842,8.643,5.789,14.34,5.789c4.855,0,9.857-1.448,13.367-3.872
			c2.322-1.605,2.123-3.213,1.932-3.829c-0.313-1.009-1.268-1.712-2.318-1.712c-0.395,0-0.773,0.097-1.125,0.291
			c-4.334,2.379-7.361,3.587-11.855,3.587c-3.926,0-7.26-1.195-9.906-3.553c-2.344-2.094-3.869-4.814-4.533-8.097h29.439
			c0.67,0,1.314-0.28,1.771-0.773c0.451-0.49,0.684-1.154,0.637-1.822C361.44,71.63,349.831,67.808,343.843,67.808z M335.061,76.428
			c2.433-2.028,5.387-3.058,8.782-3.058c3.391,0,6.352,1.038,8.805,3.084c2.1,1.771,3.523,4.014,4.24,6.672H330.8
			C331.537,80.407,332.97,78.156,335.061,76.428z"/>
		<path fill="#E84E0F" d="M473.802,67.808c-3.082,0-12.959,2.171-14.248,3.529c-0.723,0.707-0.926,1.941-0.492,3
			c0.41,1.012,1.316,1.617,2.422,1.617c0.313,0,1.023-0.2,2.475-0.617c2.555-0.735,6.838-1.967,9.686-1.967
			c6.434,0,8.715,2.924,8.715,5.428v3.868c-1.406-0.236-5.992-0.954-9.365-0.954c-12.467,0-18.045,6.448-18.045,12.841
			c0,6.67,5.551,11.326,13.502,11.326c4.861,0,9.537-1.591,13.908-4.73v2.298c0,1.474,1.166,2.544,2.775,2.544
			c1.596,0,2.801-1.094,2.801-2.544V78.798C487.935,73.471,482.981,67.808,473.802,67.808z M482.358,88.239v5.748
			c-4.756,4.454-8.971,6.356-14.059,6.356c-4.83,0-7.828-2.221-7.828-5.791c0-4.235,5.414-7.31,12.873-7.31
			C477.585,87.243,481.337,88.011,482.358,88.239z"/>
		<path fill="#E84E0F" d="M382.55,82.468c-5.84-0.68-8.666-2.152-8.627-4.504c0.045-2.928,5.047-4.662,9.65-4.589
			c3.334,0.051,6.945,0.916,8.762,2.083c2.693,2.031,6.537-1.036,3.869-3.901c-2.975-2.665-8.705-3.684-12.701-3.747
			c-7.217-0.115-15.033,2.949-15.143,9.954c-0.139,8.801,10.359,9.847,14.314,10.238c2.229,0.22,12.01,1.247,11.932,6.349
			c-0.049,3.068-3.994,6.112-11.432,5.993c-2.512-0.04-6.682-1.036-8.842-2.362c-4-2.513-7.623,1.287-4.07,4.131
			c4.23,3.032,9.633,3.716,12.945,3.768c9.854,0.156,16.816-4.549,16.924-11.443C400.272,85.659,390.808,83.43,382.55,82.468z"/>
	</g>
	<g>
		<g>
			<path fill="#E84E0F" d="M80.977,0C36.254,0,0,36.256,0,80.98c0,44.722,36.254,80.977,80.977,80.977
				c44.724,0,80.974-36.255,80.974-80.977C161.95,36.256,125.7,0,80.977,0z"/>
		</g>
		<g>
			<g>
				<g>
					<path fill="#FFFFFF" d="M61.077,65.933c-0.231,0-0.466-0.056-0.681-0.173c-3.367-1.83-5.504-4.621-6.18-8.07
						c-0.962-4.916,1.248-10.303,5.764-14.061c7.854-6.539,21.465-7.586,37.41-2.769c0.756,0.228,1.183,1.025,0.954,1.779
						c-0.226,0.757-1.019,1.185-1.779,0.954c-14.962-4.515-27.677-3.661-34.757,2.23c-3.713,3.091-5.549,7.427-4.787,11.316
						c0.508,2.586,2.145,4.699,4.739,6.108c0.692,0.377,0.948,1.244,0.571,1.938C62.073,65.663,61.582,65.933,61.077,65.933z"/>
				</g>
				<g>
					<path fill="#FFFFFF" d="M84.514,125.006c-7.287,0-15.556-1.615-24.58-4.803c-0.742-0.264-1.133-1.079-0.871-1.823
						c0.263-0.741,1.078-1.13,1.822-0.871c8.596,3.036,16.766,4.641,23.629,4.641h0.008c6.985,0,12.585-1.556,16.638-4.621
						c4.004-3.024,6.049-7.459,5.477-11.86c-0.475-3.624-2.527-6.616-5.942-8.652c-0.678-0.403-0.897-1.28-0.493-1.959
						c0.401-0.676,1.277-0.899,1.958-0.493c4.19,2.501,6.721,6.213,7.31,10.736c0.708,5.433-1.752,10.855-6.587,14.508
						c-4.562,3.449-10.737,5.198-18.359,5.198H84.514z"/>
				</g>
			</g>
			<path fill="#FFFFFF" d="M108.589,33.756c-10.662-4.211-20.739-6.31-29.699-6.31c-10.238,0-19.018,2.736-25.565,8.184
				c-7.445,6.191-11.01,15.411-9.32,24.058c1.591,8.123,6.83,13.934,16.728,17.39c0.616,4.872,4.765,8.646,9.806,8.646
				c5.465,0,9.893-4.43,9.893-9.893c0-5.462-4.428-9.892-9.893-9.892c-3.4,0-6.399,1.717-8.18,4.329
				c-6.098-1.994-10.419-6.357-11.508-11.92c-1.201-6.146,1.454-12.795,6.936-17.354c10.252-8.534,27.842-8.808,48.242-0.751
				c1.791,0.71,3.816-0.17,4.528-1.961C111.261,36.489,110.38,34.465,108.589,33.756z M70.537,69.691
				c3.393,0,6.141,2.75,6.141,6.139c0,3.39-2.748,6.139-6.141,6.139c-3.39,0-6.137-2.749-6.137-6.139
				C64.4,72.441,67.147,69.691,70.537,69.691z"/>
			<path fill="#FFFFFF" d="M119.789,103.956c-1.169-8.972-6.904-16.387-16.816-20.49c-0.083-5.39-4.472-9.737-9.884-9.737
				c-5.465,0-9.893,4.43-9.893,9.893c0,5.462,4.428,9.892,9.893,9.892c3.027,0,5.728-1.361,7.543-3.499
				c7.053,2.867,11.385,8.318,12.236,14.842c0.87,6.675-2.09,13.283-7.917,17.688c-11.254,8.51-30.781,7.774-53.576-2.011
				c-1.766-0.763-3.822,0.056-4.581,1.826s0.056,3.823,1.83,4.582c14.716,6.318,26.482,8.535,35.736,8.535
				c12.411,0,20.317-3.979,24.8-7.365C117.011,122.176,120.983,113.144,119.789,103.956z M93.089,89.76
				c-3.39,0-6.137-2.75-6.137-6.139c0-3.39,2.747-6.139,6.137-6.139c3.393,0,6.141,2.749,6.141,6.139
				C99.229,87.01,96.481,89.76,93.089,89.76z"/>
			<path fill="#FFFFFF" d="M117.077,44.762c1.903-0.146,3.326-1.804,3.184-3.702c-0.137-1.814-1.651-3.194-3.438-3.194
				c-0.089,0-0.176,0.003-0.268,0.009c-1.902,0.145-3.322,1.799-3.177,3.705C113.521,43.479,115.175,44.904,117.077,44.762z"/>
			<path fill="#FFFFFF" d="M41.137,122.247c1.902-0.146,3.325-1.804,3.183-3.702c-0.136-1.814-1.651-3.194-3.437-3.194
				c-0.09,0-0.179,0.003-0.268,0.009c-1.902,0.145-3.322,1.799-3.181,3.704C37.577,120.964,39.234,122.389,41.137,122.247z"/>
		</g>
	</g>
</g>
</svg>
