<?xml version="1.0" encoding="utf-8"?>
<!-- Generator: Adobe Illustrator 27.0.0, SVG Export Plug-In . SVG Version: 6.00 Build 0)  -->
<svg version="1.1" id="Layer_1" xmlns="http://www.w3.org/2000/svg" xmlns:xlink="http://www.w3.org/1999/xlink" x="0px" y="0px"
	 viewBox="0 0 200 100" style="enable-background:new 0 0 200 100;" xml:space="preserve">
<style type="text/css">
	.st0{fill:#800000;}
	.st1{fill:#FFFFFF;filter:url(#Adobe_OpacityMaskFilter);}
	
		.st2{mask:url(#path-1-outside-1_1_9_00000133523024084302549810000016167469490712721557_);fill:none;stroke:#FFFFFF;stroke-linejoin:round;}
	.st3{fill:#FFFFFF;}
</style>
<path class="st0" d="M20,45.3v1c1.8,0.4,3.5,3.2,3.5,17.7c0,4.2,3.1,6.5,6,6.5c0.7,0,1.5-0.1,2.2-0.5c0.7-0.3,1.3-0.8,1.8-1.3
	c-0.4,0.1-0.8,0.1-1.2,0.1c-4.5,0-4.7-3.4-4.7-6.9c0-14.5-4-15.7-4-15.7c1.5-0.2,4-4.6,4-13.5c0-4.6,2.3-7.1,5.8-7.2
	c-0.8-0.7-1.8-1-2.8-1c-3,0-7.1,2.4-7.1,7.8C23.5,42.7,21.9,45.3,20,45.3L20,45.3z M53.4,51.8c-1.4,2.6-4.8,3.8-7.1,3.8
	c-6,0-8.8-5.8-8.8-12c0-5.1,2.4-9.9,7.8-9.9c1.2-0.1,2.3,0.3,3.3,1.1c0.9,0.7,1.6,1.8,1.8,2.9l0.6,0.5c0.6-0.4,1.2-0.9,1.6-1.5
	c0.4-0.6,0.7-1.3,0.8-2.1c-0.9-1.8-4.3-3.3-7.7-3.3c-7.6,0-12.6,5.8-12.6,14c0,7.3,4,12.9,11.5,12.9c4.9,0,9-2.2,9-5.7
	C53.6,52.3,53.5,52,53.4,51.8L53.4,51.8z M72.4,46.7v-0.9c0-1.9-0.3-8-7.1-8c-5,0-8.3,4.8-8.3,11.1c0.1,6.6,3.9,9.4,8.1,9.4
	c3.7,0,7.7-2.5,7.7-5.5c0-0.3-0.1-0.6-0.2-1c-0.7,1-1.6,1.9-2.7,2.5c-1.1,0.6-2.3,0.9-3.5,1c-3.4,0-5.8-2.4-5.8-6.6c0-0.6,0-1,0-1.6
	l9.5,0.1C70.9,47.3,71.7,47.1,72.4,46.7L72.4,46.7z M64.7,40c2.9,0,4.2,2.8,4.2,5.3l-8.5,0.2C61.2,42.4,62.2,40,64.7,40z M82.4,57.8
	c-0.4-1.4-0.4-7-0.4-8.4c0-2.7,0.9-8.7,4-8.7c0.4,0,0.8,0.1,1.1,0.4c0.3,0.2,0.6,0.6,0.7,1c0.2,0.1,0.5,0.1,0.7,0.1
	c0.5,0,1-0.2,1.4-0.6c0.4-0.4,0.6-0.8,0.6-1.4v-0.1c0-1.3-0.9-2.4-2.7-2.4c-3.6,0-6,4.8-6.1,5.1l0.2-1.7c0.1-0.4,0.1-0.7,0.1-1.1
	c0-1.3-0.3-2.2-1.9-2.2c-1.2,0-2.5,0.3-3.5,1v0.7c0.2,0,1.9,0.2,1.9,4.8c0,5.5-0.2,11.1-0.2,13.4L82.4,57.8L82.4,57.8z M98.3,35.1
	h-1.9c-1.9,3.3-3.6,3.3-3.8,3.3l-0.2,1.2c0.8,0.2,1.4,0.7,1.8,1.3c0.3,1,0.5,2,0.4,3c0,2.4-0.2,5.8-0.2,8c0,4,0.8,6.4,5.3,6.4
	c2.9,0,5.2-1.9,5.2-3.5c0-0.3-0.1-0.6-0.2-0.8c-0.2,0.4-2,1.1-3.7,1.1c-2.8,0-3.1-1.8-3.1-4.3l0.1-10c0.2,0,0.4,0,0.6,0
	c0.8,0,1.9,0.1,2.6,0.1c1.6,0,3-0.8,3-2.2c0-0.2,0-0.5-0.1-0.7c0,0-0.2,0.5-1.4,0.5h-4.8L98.3,35.1L98.3,35.1z"/>
<defs>
	<filter id="Adobe_OpacityMaskFilter" filterUnits="userSpaceOnUse" x="19.5" y="24" width="85.9" height="47.1">
		<feColorMatrix  type="matrix" values="1 0 0 0 0  0 1 0 0 0  0 0 1 0 0  0 0 0 1 0"/>
	</filter>
</defs>
<mask maskUnits="userSpaceOnUse" x="19.5" y="24" width="85.9" height="47.1" id="path-1-outside-1_1_9_00000133523024084302549810000016167469490712721557_">
	<rect x="19" y="23.5" class="st1" width="87" height="48"/>
	<path d="M20,45.3v1c1.8,0.4,3.5,3.2,3.5,17.7c0,4.2,3.1,6.5,6,6.5c0.7,0,1.5-0.1,2.2-0.5c0.7-0.3,1.3-0.8,1.8-1.3
		c-0.4,0.1-0.8,0.1-1.2,0.1c-4.5,0-4.7-3.4-4.7-6.9c0-14.5-4-15.7-4-15.7c1.5-0.2,4-4.6,4-13.5c0-4.6,2.3-7.1,5.8-7.2
		c-0.8-0.7-1.8-1-2.8-1c-3,0-7.1,2.4-7.1,7.8C23.5,42.7,21.9,45.3,20,45.3L20,45.3z M53.4,51.8c-1.4,2.6-4.8,3.8-7.1,3.8
		c-6,0-8.8-5.8-8.8-12c0-5.1,2.4-9.9,7.8-9.9c1.2-0.1,2.3,0.3,3.3,1.1c0.9,0.7,1.6,1.8,1.8,2.9l0.6,0.5c0.6-0.4,1.2-0.9,1.6-1.5
		c0.4-0.6,0.7-1.3,0.8-2.1c-0.9-1.8-4.3-3.3-7.7-3.3c-7.6,0-12.6,5.8-12.6,14c0,7.3,4,12.9,11.5,12.9c4.9,0,9-2.2,9-5.7
		C53.6,52.3,53.5,52,53.4,51.8L53.4,51.8z M72.4,46.7v-0.9c0-1.9-0.3-8-7.1-8c-5,0-8.3,4.8-8.3,11.1c0.1,6.6,3.9,9.4,8.1,9.4
		c3.7,0,7.7-2.5,7.7-5.5c0-0.3-0.1-0.6-0.2-1c-0.7,1-1.6,1.9-2.7,2.5c-1.1,0.6-2.3,0.9-3.5,1c-3.4,0-5.8-2.4-5.8-6.6
		c0-0.6,0-1,0-1.6l9.5,0.1C70.9,47.3,71.7,47.1,72.4,46.7L72.4,46.7z M64.7,40c2.9,0,4.2,2.8,4.2,5.3l-8.5,0.2
		C61.2,42.4,62.2,40,64.7,40z M82.4,57.8c-0.4-1.4-0.4-7-0.4-8.4c0-2.7,0.9-8.7,4-8.7c0.4,0,0.8,0.1,1.1,0.4c0.3,0.2,0.6,0.6,0.7,1
		c0.2,0.1,0.5,0.1,0.7,0.1c0.5,0,1-0.2,1.4-0.6c0.4-0.4,0.6-0.8,0.6-1.4v-0.1c0-1.3-0.9-2.4-2.7-2.4c-3.6,0-6,4.8-6.1,5.1l0.2-1.7
		c0.1-0.4,0.1-0.7,0.1-1.1c0-1.3-0.3-2.2-1.9-2.2c-1.2,0-2.5,0.3-3.5,1v0.7c0.2,0,1.9,0.2,1.9,4.8c0,5.5-0.2,11.1-0.2,13.4
		L82.4,57.8L82.4,57.8z M98.3,35.1h-1.9c-1.9,3.3-3.6,3.3-3.8,3.3l-0.2,1.2c0.8,0.2,1.4,0.7,1.8,1.3c0.3,1,0.5,2,0.4,3
		c0,2.4-0.2,5.8-0.2,8c0,4,0.8,6.4,5.3,6.4c2.9,0,5.2-1.9,5.2-3.5c0-0.3-0.1-0.6-0.2-0.8c-0.2,0.4-2,1.1-3.7,1.1
		c-2.8,0-3.1-1.8-3.1-4.3l0.1-10c0.2,0,0.4,0,0.6,0c0.8,0,1.9,0.1,2.6,0.1c1.6,0,3-0.8,3-2.2c0-0.2,0-0.5-0.1-0.7
		c0,0-0.2,0.5-1.4,0.5h-4.8L98.3,35.1L98.3,35.1z"/>
</mask>
<path class="st2" d="M20,45.3v1c1.8,0.4,3.5,3.2,3.5,17.7c0,4.2,3.1,6.5,6,6.5c0.7,0,1.5-0.1,2.2-0.5c0.7-0.3,1.3-0.8,1.8-1.3
	c-0.4,0.1-0.8,0.1-1.2,0.1c-4.5,0-4.7-3.4-4.7-6.9c0-14.5-4-15.7-4-15.7c1.5-0.2,4-4.6,4-13.5c0-4.6,2.3-7.1,5.8-7.2
	c-0.8-0.7-1.8-1-2.8-1c-3,0-7.1,2.4-7.1,7.8C23.5,42.7,21.9,45.3,20,45.3L20,45.3z M53.4,51.8c-1.4,2.6-4.8,3.8-7.1,3.8
	c-6,0-8.8-5.8-8.8-12c0-5.1,2.4-9.9,7.8-9.9c1.2-0.1,2.3,0.3,3.3,1.1c0.9,0.7,1.6,1.8,1.8,2.9l0.6,0.5c0.6-0.4,1.2-0.9,1.6-1.5
	c0.4-0.6,0.7-1.3,0.8-2.1c-0.9-1.8-4.3-3.3-7.7-3.3c-7.6,0-12.6,5.8-12.6,14c0,7.3,4,12.9,11.5,12.9c4.9,0,9-2.2,9-5.7
	C53.6,52.3,53.5,52,53.4,51.8L53.4,51.8z M72.4,46.7v-0.9c0-1.9-0.3-8-7.1-8c-5,0-8.3,4.8-8.3,11.1c0.1,6.6,3.9,9.4,8.1,9.4
	c3.7,0,7.7-2.5,7.7-5.5c0-0.3-0.1-0.6-0.2-1c-0.7,1-1.6,1.9-2.7,2.5c-1.1,0.6-2.3,0.9-3.5,1c-3.4,0-5.8-2.4-5.8-6.6c0-0.6,0-1,0-1.6
	l9.5,0.1C70.9,47.3,71.7,47.1,72.4,46.7L72.4,46.7z M64.7,40c2.9,0,4.2,2.8,4.2,5.3l-8.5,0.2C61.2,42.4,62.2,40,64.7,40z M82.4,57.8
	c-0.4-1.4-0.4-7-0.4-8.4c0-2.7,0.9-8.7,4-8.7c0.4,0,0.8,0.1,1.1,0.4c0.3,0.2,0.6,0.6,0.7,1c0.2,0.1,0.5,0.1,0.7,0.1
	c0.5,0,1-0.2,1.4-0.6c0.4-0.4,0.6-0.8,0.6-1.4v-0.1c0-1.3-0.9-2.4-2.7-2.4c-3.6,0-6,4.8-6.1,5.1l0.2-1.7c0.1-0.4,0.1-0.7,0.1-1.1
	c0-1.3-0.3-2.2-1.9-2.2c-1.2,0-2.5,0.3-3.5,1v0.7c0.2,0,1.9,0.2,1.9,4.8c0,5.5-0.2,11.1-0.2,13.4L82.4,57.8L82.4,57.8z M98.3,35.1
	h-1.9c-1.9,3.3-3.6,3.3-3.8,3.3l-0.2,1.2c0.8,0.2,1.4,0.7,1.8,1.3c0.3,1,0.5,2,0.4,3c0,2.4-0.2,5.8-0.2,8c0,4,0.8,6.4,5.3,6.4
	c2.9,0,5.2-1.9,5.2-3.5c0-0.3-0.1-0.6-0.2-0.8c-0.2,0.4-2,1.1-3.7,1.1c-2.8,0-3.1-1.8-3.1-4.3l0.1-10c0.2,0,0.4,0,0.6,0
	c0.8,0,1.9,0.1,2.6,0.1c1.6,0,3-0.8,3-2.2c0-0.2,0-0.5-0.1-0.7c0,0-0.2,0.5-1.4,0.5h-4.8L98.3,35.1L98.3,35.1z"/>
<path class="st3" d="M113.2,57.8c-0.2-1-0.2-2-0.2-3c0-9,0.2-13.6,0.2-13.6c0.1-1.8-0.1-3.3-2-3.3c-1.2,0-2.5,0.3-3.5,1v0.7
	c0,0,2,0.2,1.9,4.8l-0.3,13.3v0.2L113.2,57.8L113.2,57.8z M108.9,32.5c0,0.6,0.2,1.1,0.6,1.5c0.4,0.4,0.9,0.6,1.5,0.6
	c0.6,0,1.1-0.3,1.5-0.7c0.4-0.4,0.6-0.9,0.6-1.5c0-0.5-0.3-1.1-0.6-1.4c-0.4-0.4-0.9-0.6-1.5-0.6c-0.6,0-1.1,0.2-1.5,0.6
	C109.1,31.4,108.9,32,108.9,32.5L108.9,32.5z M120.9,55.7c0.7,1.7,3.6,2.6,6.4,2.6c6.2,0,9.4-5.6,9.4-10.9c0-6.7-3.7-9.6-7.4-9.6
	c-2.1,0.1-4,0.9-5.5,2.3c0.2-0.6,0.3-1.3,0.2-2c0.1-3.1,0.2-4.6,0.3-6.5c0.1-2.4-0.5-3.6-2.5-3.6c-1.2,0-2.3,0.4-3.2,1v0.7
	c1.2,0.2,1.8,1.3,1.8,3.5c0,0,0.1,5.2,0.1,13.2C120.5,51.9,120.2,54.2,120.9,55.7L120.9,55.7z M127.2,40.4c3.3,0,5.8,2.8,5.8,7.7
	c0,3-0.8,8.2-5.2,8.2c-2.8,0-3.4-1.3-3.6-4.4c-0.1-2.5-0.2-5.9-0.2-10.5v-0.1C124.9,40.7,126,40.4,127.2,40.4L127.2,40.4z
	 M146.4,57.8c-0.1-0.5-0.2-1.1-0.2-1.7c-0.2-4.4-0.3-16,0.1-21.7c0.3-4.3,0.3-6.4-2.4-6.4c-1.2,0-2.3,0.4-3.2,1v0.7
	c1.1,0.2,1.9,1.3,1.9,3.6c0,0,0.1,14.2,0,24v0.6L146.4,57.8z M166.8,46.7v-0.9c0-1.9-0.3-8-7.1-8c-5,0-8.3,4.8-8.3,11.1
	c0.1,6.6,3.9,9.4,8.1,9.4c3.8,0,7.7-2.5,7.7-5.5c0-0.3-0.1-0.6-0.2-1c-0.7,1-1.6,1.9-2.7,2.5c-1.1,0.6-2.3,0.9-3.5,1
	c-3.3,0-5.8-2.4-5.8-6.6c0-0.6,0-1,0-1.6l9.5,0.1C165.4,47.3,166.2,47.1,166.8,46.7L166.8,46.7z M159.1,40c2.9,0,4.2,2.8,4.2,5.3
	l-8.5,0.2C155.6,42.4,156.5,40,159.1,40z M180,45.4v1c-1.8,0.4-3.5,3.2-3.5,17.7c0,4.2-3.1,6.5-6,6.5c-0.7,0-1.5-0.1-2.2-0.5
	c-0.7-0.3-1.3-0.8-1.8-1.3c0.4,0.1,0.8,0.1,1.2,0.1c4.4,0,4.7-3.4,4.7-6.9c0-14.5,4-15.7,4-15.7c-1.5-0.2-4-4.6-4-13.5
	c0-4.6-2.3-7.1-5.8-7.2c0.8-0.7,1.8-1.1,2.8-1c3,0,7.1,2.4,7.1,7.8C176.6,42.7,178.1,45.3,180,45.4L180,45.4z M37.8,73.2
	c0-0.2-0.1-0.5,0-0.7c0-2.1,0-3.2,0-3.2c0-0.4,0-0.8-0.5-0.8c-0.3,0-0.6,0.1-0.8,0.2V69c0,0,0.5,0,0.4,1.1L37,73.2L37.8,73.2z
	 M36.8,67.4c0,0.1,0.1,0.3,0.1,0.4c0.1,0.1,0.2,0.1,0.3,0.1c0.1,0,0.3-0.1,0.4-0.1c0.1-0.1,0.1-0.2,0.1-0.4c0-0.1-0.1-0.3-0.1-0.4
	c-0.1-0.1-0.2-0.1-0.4-0.1c-0.1,0-0.3,0.1-0.4,0.1C36.9,67.1,36.8,67.2,36.8,67.4L36.8,67.4z M43.2,73.2c-0.1-1.2-0.1-2.4-0.1-3.5
	c0-0.3-0.1-0.6-0.3-0.8c-0.2-0.2-0.5-0.3-0.8-0.3c-0.4,0-0.7,0.1-1,0.3c-0.3,0.2-0.6,0.4-0.7,0.7l0.1-0.2c0-0.4,0-0.8-0.5-0.8
	c-0.3,0-0.6,0.1-0.8,0.2V69c0,0,0.5,0,0.5,1.1v3.1h0.9c0-0.2-0.1-0.5-0.1-0.7c0-1,0-2.2,0-2.6c0.2-0.2,0.4-0.3,0.6-0.4
	c0.2-0.1,0.5-0.2,0.7-0.2c0.6,0,0.8,0.4,0.7,1.3v2.6L43.2,73.2z M45.8,68h-0.4c-0.4,0.8-0.8,0.7-0.9,0.7l0,0.3
	c0.1,0,0.2,0.1,0.2,0.1c0.1,0.1,0.1,0.1,0.2,0.2c0.1,0.2,0.1,0.5,0.1,0.7c0,0.6-0.1,1.3-0.1,1.8c0,0.9,0.2,1.5,1.2,1.5
	c0.7,0,1.2-0.4,1.2-0.8c0,0,0-0.1,0-0.1c0,0,0-0.1,0-0.1c-0.2,0.2-0.5,0.3-0.8,0.2c-0.7,0-0.7-0.4-0.7-1v-2.3h0.8
	c0.4,0,0.7-0.2,0.7-0.5v-0.2c0,0,0,0.1-0.3,0.1h-1.1L45.8,68L45.8,68z M51.4,70.7v-0.2c0-0.2,0-0.5,0-0.7c-0.1-0.2-0.2-0.4-0.3-0.6
	c-0.2-0.2-0.4-0.3-0.6-0.4c-0.2-0.1-0.5-0.1-0.7-0.1c-1.1,0-1.9,1.1-1.9,2.6s0.9,2.2,1.9,2.2c0.9,0,1.8-0.6,1.8-1.3v-0.2
	c-0.2,0.2-0.4,0.4-0.6,0.6c-0.2,0.1-0.5,0.2-0.8,0.2c-0.8,0-1.3-0.6-1.3-1.6v-0.4h2.2C51.1,70.8,51.3,70.7,51.4,70.7L51.4,70.7z
	 M49.6,69.1c0.7,0,1,0.7,1,1.2h-2C48.8,69.6,49,69.1,49.6,69.1L49.6,69.1z M53.7,73.2c-0.1-0.6-0.1-1.3-0.1-1.9c0-0.6,0.2-2,0.9-2
	c0.1,0,0.2,0,0.3,0.1c0.1,0.1,0.1,0.1,0.2,0.2c0.1,0,0.1,0,0.2,0c0.1,0,0.1,0,0.2,0c0.1,0,0.1-0.1,0.2-0.1c0,0,0.1-0.1,0.1-0.2
	c0-0.1,0-0.1,0-0.2c0-0.1,0-0.2,0-0.2c0-0.1-0.1-0.1-0.1-0.2c-0.1-0.1-0.1-0.1-0.2-0.1s-0.2,0-0.2,0c-0.8,0-1.4,1.1-1.4,1.2l0-0.4
	v-0.2c0-0.3-0.1-0.5-0.5-0.5c-0.3,0-0.6,0.1-0.8,0.2V69c0.1,0,0.5,0,0.5,1.1v3.1L53.7,73.2z M60.2,73.2c-0.1-1.2-0.1-2.4-0.1-3.5
	c0-0.3-0.1-0.6-0.3-0.8c-0.2-0.2-0.5-0.3-0.8-0.3c-0.4,0-0.7,0.1-1,0.3c-0.3,0.2-0.6,0.4-0.7,0.7l0-0.2c0-0.4,0-0.8-0.5-0.8
	c-0.3,0-0.6,0.1-0.8,0.2V69c0,0,0.5,0,0.5,1.1v3.1h0.9c0-0.2-0.1-0.5-0.1-0.7v-2.6c0.2-0.2,0.4-0.3,0.6-0.4c0.2-0.1,0.5-0.2,0.7-0.2
	c0.6,0,0.8,0.4,0.8,1.3v2.2c0,0.1,0,0.3,0,0.4L60.2,73.2L60.2,73.2z M63.8,72.2c-0.1,0.2-0.3,0.3-0.4,0.4c-0.2,0.1-0.4,0.1-0.6,0.1
	c-0.1,0-0.2,0-0.3,0s-0.2-0.1-0.2-0.1c-0.1-0.1-0.1-0.1-0.2-0.2c0-0.1-0.1-0.2-0.1-0.2c0,0,0,0,0-0.1c0-0.9,1.7-0.9,1.7-0.9V72.2
	L63.8,72.2z M64.8,72.6c-0.1-0.3-0.1-0.7-0.1-1v-1.8c0-0.9-0.6-1.3-1.6-1.3c-0.7,0-1.5,0.3-1.5,0.8c0,0.1,0,0.1,0,0.2
	c0,0.1,0.1,0.1,0.1,0.1c0,0,0.1,0.1,0.1,0.1c0.1,0,0.1,0,0.2,0c0.1,0,0.2,0,0.3-0.1v-0.1c0-0.1,0-0.2,0.1-0.3c0-0.1,0.1-0.2,0.2-0.2
	c0.1-0.1,0.1-0.1,0.2-0.1c0.1,0,0.2,0,0.3,0c0.7,0,0.9,0.6,0.9,1.3v0.6c-0.2,0-0.5-0.1-0.7-0.1c-1,0-1.8,0.5-1.8,1.4
	c0,0.2,0,0.3,0.1,0.5c0.1,0.1,0.2,0.3,0.3,0.4c0.1,0.1,0.3,0.2,0.4,0.2c0.2,0.1,0.3,0.1,0.5,0.1c0.3,0,0.6-0.1,0.8-0.3
	c0.2-0.2,0.4-0.4,0.5-0.6c0,0.1,0.1,0.9,0.7,0.9c0.3,0,0.6-0.1,0.8-0.2v-0.2c-0.1,0-0.2,0-0.4,0C65,72.8,64.9,72.7,64.8,72.6
	L64.8,72.6z M67.3,68h-0.4c-0.4,0.8-0.8,0.7-0.9,0.7L66,69c0.1,0,0.2,0.1,0.2,0.1c0.1,0.1,0.1,0.1,0.2,0.2c0.1,0.2,0.1,0.5,0.1,0.7
	l0,1.8c0,0.9,0.2,1.5,1.2,1.5c0.7,0,1.2-0.4,1.2-0.8c0-0.1,0-0.1-0.1-0.2c-0.3,0.2-0.6,0.3-0.9,0.2c-0.6,0-0.7-0.4-0.7-1v-2.3H68
	c0.4,0,0.7-0.2,0.7-0.5c0-0.1,0-0.1,0-0.2c0,0,0,0.1-0.3,0.1h-1.1L67.3,68L67.3,68z M70.8,73.2c0-0.2,0-0.5,0-0.7c0-2.1,0-3.1,0-3.1
	c0-0.4,0-0.8-0.4-0.8c-0.3,0-0.6,0.1-0.8,0.2V69c0,0,0.5,0,0.4,1.1l-0.1,3.1L70.8,73.2z M69.8,67.3c0,0.1,0,0.2,0.1,0.3
	c0.1,0.1,0.1,0.2,0.2,0.2c0.1,0,0.2,0.1,0.3,0c0.1,0,0.2-0.1,0.3-0.1s0.1-0.2,0.1-0.3c0-0.1,0-0.2,0-0.3c0-0.1-0.1-0.2-0.2-0.2
	c-0.1-0.1-0.2-0.1-0.3-0.1c-0.1,0-0.1,0-0.2,0c-0.1,0-0.1,0.1-0.2,0.1c0,0-0.1,0.1-0.1,0.2C69.8,67.2,69.8,67.3,69.8,67.3L69.8,67.3
	z M72,71c0-0.3,0-0.6,0.1-0.9c0.1-0.3,0.3-0.6,0.5-0.8c0.2-0.2,0.5-0.4,0.8-0.5c0.3-0.1,0.6-0.2,0.9-0.2c1,0,1.9,0.7,1.9,2.3
	c0,0.3,0,0.6-0.1,0.9c-0.1,0.3-0.3,0.6-0.5,0.8c-0.2,0.2-0.5,0.4-0.7,0.5c-0.3,0.1-0.6,0.2-0.9,0.2C72,73.3,72,71.2,72,71L72,71z
	 M72.9,70.7c0,1.2,0.5,2.2,1.3,2.2c0.6,0,1.1-0.7,1.1-1.7c0-1.2-0.6-2.1-1.4-2.1C73.2,69,72.9,70,72.9,70.7L72.9,70.7z M81.2,73.2
	c-0.1-1.2-0.1-2.4-0.1-3.5c0-0.3-0.1-0.6-0.3-0.8c-0.2-0.2-0.5-0.3-0.8-0.3c-0.4,0-0.7,0.1-1,0.3c-0.3,0.2-0.6,0.4-0.7,0.7l0-0.2
	c0-0.4,0-0.8-0.5-0.8c-0.3,0-0.6,0.1-0.8,0.2V69c0,0,0.5,0,0.5,1.1v3.1h0.9c0-0.2-0.1-0.5-0.1-0.7v-2.6c0.2-0.2,0.4-0.3,0.6-0.4
	c0.2-0.1,0.5-0.2,0.7-0.2c0.6,0,0.7,0.4,0.7,1.3v2.2c0,0.1,0,0.3,0,0.4L81.2,73.2z M84.8,72.2c-0.1,0.2-0.3,0.3-0.4,0.4
	c-0.2,0.1-0.4,0.1-0.6,0.1c-0.1,0-0.2,0-0.3,0c-0.1,0-0.2-0.1-0.2-0.1c-0.1-0.1-0.1-0.1-0.2-0.2c0-0.1-0.1-0.2-0.1-0.2v0
	c0-0.9,1.7-0.9,1.7-0.9L84.8,72.2L84.8,72.2z M85.8,72.6c-0.1-0.3-0.1-0.7-0.1-1v-1.8c0-0.9-0.7-1.3-1.7-1.3c-0.7,0-1.5,0.3-1.5,0.8
	c0,0.1,0,0.1,0,0.2c0,0.1,0.1,0.1,0.1,0.1c0,0,0.1,0.1,0.1,0.1c0.1,0,0.1,0,0.2,0c0.1,0,0.2,0,0.3-0.1v-0.1c0-0.1,0-0.2,0.1-0.3
	c0-0.1,0.1-0.2,0.2-0.2c0.1-0.1,0.1-0.1,0.2-0.1c0.1,0,0.2,0,0.3,0c0.7,0,0.9,0.6,0.9,1.3v0.6c-0.2,0-0.5-0.1-0.7-0.1
	c-1,0-1.8,0.5-1.8,1.4c0,0.2,0,0.3,0.1,0.5c0.1,0.1,0.2,0.3,0.3,0.4c0.1,0.1,0.3,0.2,0.4,0.2c0.2,0.1,0.3,0.1,0.5,0.1
	c0.3,0,0.6-0.1,0.8-0.2c0.2-0.2,0.4-0.4,0.5-0.6c0,0.1,0.1,0.9,0.7,0.9c0.3,0,0.6-0.1,0.8-0.2v-0.2c-0.1,0-0.2,0-0.3-0.1
	C86,72.7,85.9,72.6,85.8,72.6L85.8,72.6z M88.3,73.2c0-0.1,0-0.3,0-0.4c-0.1-1-0.1-3.7,0-5c0.1-1,0.1-1.5-0.5-1.5
	c-0.3,0-0.5,0.1-0.8,0.2v0.2c0.3,0,0.4,0.3,0.4,0.8v5.7L88.3,73.2z M95.2,69.7c0,0,0.1,0.1,0.1,0.1c0.1,0,0.1,0,0.2,0
	c0.1,0,0.1,0,0.2,0c0.1,0,0.1,0,0.1-0.1s0.1-0.1,0.1-0.1c0-0.1,0-0.1,0-0.2c0-0.6-0.8-0.8-1.4-0.8c-1.3,0-2.2,1.1-2.2,2.6
	c0,1.5,0.9,2.2,1.9,2.2S96,72.7,96,72v-0.2c-0.2,0.2-0.4,0.4-0.6,0.6c-0.2,0.1-0.5,0.2-0.8,0.2c-0.9,0-1.4-0.9-1.4-1.8
	s0.4-1.8,1.2-1.8C94.9,69.1,95.1,69.3,95.2,69.7L95.2,69.7z M100.2,70.6v-0.2c0-0.2,0-0.5-0.1-0.7c-0.1-0.2-0.2-0.4-0.3-0.6
	c-0.2-0.2-0.3-0.3-0.6-0.4c-0.2-0.1-0.4-0.1-0.7-0.1c-1.2,0-1.9,1.1-1.9,2.6c0,1.5,0.9,2.2,1.9,2.2s1.8-0.6,1.8-1.3
	c0-0.1,0-0.1,0-0.2c-0.2,0.2-0.4,0.4-0.6,0.6c-0.2,0.1-0.5,0.2-0.8,0.2c-0.8,0-1.3-0.6-1.3-1.5v-0.4h2.2
	C99.9,70.7,100.1,70.7,100.2,70.6L100.2,70.6z M98.4,69.1c0.7,0,1,0.7,1,1.2h-2C97.6,69.7,97.8,69.1,98.4,69.1L98.4,69.1z
	 M102.5,73.2c-0.1-0.6-0.1-1.3-0.1-1.9c0-0.6,0.2-2,0.9-2c0.1,0,0.2,0,0.3,0.1s0.1,0.1,0.2,0.2c0.1,0,0.1,0,0.2,0c0.1,0,0.1,0,0.2,0
	c0.1,0,0.1-0.1,0.2-0.1c0,0,0.1-0.1,0.1-0.2c0-0.1,0-0.1,0-0.2c0-0.1,0-0.2,0-0.2c0-0.1-0.1-0.1-0.1-0.2c-0.1-0.1-0.1-0.1-0.2-0.1
	c-0.1,0-0.2,0-0.2,0c-0.8,0-1.4,1.1-1.4,1.2v-0.4c0-0.1,0-0.2,0-0.2c0-0.3-0.1-0.5-0.4-0.5c-0.3,0-0.6,0.1-0.8,0.2V69
	c0.1,0,0.5,0,0.5,1.1v3.1L102.5,73.2L102.5,73.2z M106.2,68h-0.5c-0.4,0.8-0.8,0.7-0.9,0.7v0.3c0.1,0,0.2,0.1,0.2,0.1
	c0.1,0.1,0.1,0.1,0.2,0.2c0.1,0.2,0.1,0.5,0.1,0.7l0,1.9c0,0.9,0.2,1.5,1.2,1.5c0.7,0,1.2-0.4,1.2-0.8c0-0.1,0-0.1-0.1-0.2
	c-0.2,0.2-0.5,0.3-0.8,0.2c-0.7,0-0.7-0.4-0.7-1v-2.3h0.8c0.4,0,0.7-0.2,0.7-0.5v-0.2c0,0-0.1,0.1-0.3,0.1h-1.1L106.2,68z
	 M109.6,73.3c0-0.2,0-0.5,0-0.7c0-2.1,0-3.2,0-3.2c0-0.4,0-0.8-0.5-0.8c-0.3,0-0.6,0.1-0.8,0.2V69c0,0,0.5,0,0.4,1.1l-0.1,3.1
	L109.6,73.3z M108.6,67.4c0,0.1,0.1,0.3,0.1,0.4c0.1,0.1,0.2,0.1,0.4,0.1c0.1,0,0.2,0,0.3-0.1c0.1-0.1,0.1-0.1,0.2-0.2s0-0.2,0-0.3
	c0-0.1-0.1-0.2-0.1-0.2c-0.1-0.1-0.2-0.1-0.3-0.1c-0.1,0-0.2,0-0.3,0c-0.1,0-0.2,0.1-0.2,0.2C108.6,67.2,108.5,67.3,108.6,67.4
	L108.6,67.4z M112,68.5v0.1c0,0.1,0,0.2,0,0.2h1c0.3,0,0.3-0.1,0.3-0.1v0.2c0,0.4-0.4,0.5-0.7,0.5h-0.6v0.6c0,1.1,0,2.2,0.2,3.3
	h-0.9v-0.1l0.1-2.4c0-0.5,0-0.9-0.1-1.4c-0.2-0.3-0.4-0.3-0.4-0.3v-0.3c0.1,0,0.3-0.1,0.3-0.2c0.1-0.1,0.1-0.2,0.1-0.4
	c0.1-1.5,0.9-1.9,1.5-1.9c0.4,0,0.9,0.2,0.9,0.6c0,0.1,0,0.1-0.1,0.2c0,0.1-0.1,0.1-0.2,0.1c-0.1,0-0.1,0.1-0.2,0.1
	c-0.1,0-0.1,0-0.2,0c0-0.1-0.1-0.2-0.2-0.3c-0.1-0.1-0.2-0.1-0.3-0.1c-0.5,0-0.7,0.4-0.6,0.9L112,68.5L112,68.5z M115.1,73.3
	c0-0.2-0.1-0.5-0.1-0.7c0-2.1,0.1-3.2,0.1-3.2c0-0.4,0-0.8-0.5-0.8c-0.3,0-0.6,0.1-0.8,0.2V69c0,0,0.5,0,0.5,1.1l-0.1,3.1
	L115.1,73.3z M114.1,67.4c0,0.1,0,0.2,0.1,0.3s0.1,0.1,0.2,0.2c0.1,0,0.2,0,0.3,0c0.1,0,0.2-0.1,0.3-0.1c0.1-0.1,0.1-0.2,0.1-0.3
	c0-0.1,0-0.2,0-0.3c0-0.1-0.1-0.2-0.2-0.2s-0.2-0.1-0.3-0.1c-0.1,0-0.1,0-0.2,0c-0.1,0-0.1,0.1-0.2,0.1c0,0-0.1,0.1-0.1,0.2
	C114.1,67.3,114.1,67.4,114.1,67.4L114.1,67.4z M119.1,69.8c0.1,0.1,0.1,0.1,0.2,0.1c0.1,0,0.2,0,0.3,0c0.1,0,0.2-0.1,0.2-0.1
	c0.1-0.1,0.1-0.1,0.1-0.2c0-0.6-0.8-0.8-1.4-0.8c-1.3,0-2.2,1.1-2.2,2.6c0,1.5,0.9,2.2,1.9,2.2s1.8-0.6,1.8-1.3v-0.2
	c-0.2,0.2-0.4,0.4-0.6,0.6c-0.2,0.1-0.5,0.2-0.8,0.2c-0.9,0-1.4-0.9-1.4-1.8c0-0.9,0.4-1.8,1.2-1.8
	C118.9,69.2,119.1,69.4,119.1,69.8L119.1,69.8z M123.1,72.3c-0.1,0.1-0.3,0.3-0.4,0.3c-0.2,0.1-0.4,0.1-0.6,0.1c-0.1,0-0.2,0-0.3,0
	s-0.2-0.1-0.2-0.1c-0.1-0.1-0.1-0.1-0.2-0.2c0-0.1-0.1-0.2,0-0.3c0-0.9,1.7-0.9,1.7-0.9L123.1,72.3L123.1,72.3z M124.1,72.7
	c-0.1-0.3-0.1-0.7-0.1-1v-1.8c0-0.9-0.7-1.3-1.7-1.3c-0.7,0-1.5,0.3-1.5,0.8c0,0.1,0,0.1,0,0.2c0,0.1,0.1,0.1,0.1,0.1
	c0,0,0.1,0.1,0.1,0.1s0.1,0,0.2,0c0.1,0,0.2,0,0.3-0.1v-0.1c0-0.1,0-0.2,0.1-0.3c0-0.1,0.1-0.2,0.2-0.2c0.1-0.1,0.1-0.1,0.2-0.1
	c0.1,0,0.2,0,0.3,0c0.7,0,0.9,0.6,0.9,1.3v0.6c-0.2,0-0.5-0.1-0.7-0.1c-1,0-1.8,0.5-1.8,1.4c0,0.2,0,0.3,0.1,0.5
	c0.1,0.1,0.2,0.3,0.3,0.4c0.1,0.1,0.3,0.2,0.4,0.2c0.2,0.1,0.3,0.1,0.5,0.1c0.3,0,0.6-0.1,0.8-0.2c0.2-0.2,0.4-0.4,0.5-0.6
	c0,0.1,0.1,0.9,0.7,0.9c0.3,0,0.6-0.1,0.8-0.2V73c-0.1,0-0.2,0-0.3-0.1C124.2,72.8,124.1,72.7,124.1,72.7L124.1,72.7z M126.6,68
	h-0.4c-0.4,0.8-0.8,0.7-0.9,0.7v0.3c0,0,0.2,0,0.4,0.3c0.1,0.2,0.1,0.5,0.1,0.7c0,0.6-0.1,1.4-0.1,1.9c0,0.9,0.2,1.5,1.2,1.5
	c0.7,0,1.2-0.4,1.2-0.8c0,0,0-0.1,0-0.1c0,0,0-0.1,0-0.1c-0.2,0.2-0.5,0.3-0.8,0.2c-0.7,0-0.7-0.4-0.7-1v-2.3h0.7
	c0.4,0,0.7-0.2,0.7-0.5v-0.2c0,0,0,0.1-0.3,0.1h-1.1L126.6,68L126.6,68z M130,73.3c-0.1-0.2-0.1-0.5-0.1-0.7c0-2.1,0.1-3.2,0.1-3.2
	c0-0.4,0-0.8-0.5-0.8c-0.3,0-0.6,0.1-0.8,0.2V69c0,0,0.5,0,0.4,1.1l-0.1,3.1L130,73.3z M129,67.4c0,0.1,0,0.2,0.1,0.3
	s0.1,0.1,0.2,0.2c0.1,0,0.2,0,0.3,0s0.2-0.1,0.3-0.1c0.1-0.1,0.1-0.2,0.1-0.3c0-0.1,0-0.2,0-0.3c0-0.1-0.1-0.2-0.2-0.2
	s-0.2-0.1-0.3-0.1c-0.1,0-0.1,0-0.2,0c-0.1,0-0.1,0.1-0.2,0.1c0,0-0.1,0.1-0.1,0.2C129,67.3,129,67.4,129,67.4L129,67.4z
	 M131.2,71.1c0-0.3,0-0.6,0.1-0.9c0.1-0.3,0.3-0.6,0.5-0.8c0.2-0.2,0.5-0.4,0.8-0.5c0.3-0.1,0.6-0.2,0.9-0.2c1,0,1.9,0.7,1.9,2.3
	c0,0.3,0,0.6-0.1,0.9c-0.1,0.3-0.3,0.6-0.5,0.8c-0.2,0.2-0.5,0.4-0.7,0.5c-0.3,0.1-0.6,0.2-0.9,0.2
	C131.3,73.4,131.2,71.2,131.2,71.1L131.2,71.1z M132.1,70.7c0,1.2,0.5,2.2,1.3,2.2c0.6,0,1.1-0.7,1.1-1.7c0-1.2-0.6-2.1-1.4-2.1
	S132.1,70,132.1,70.7L132.1,70.7z M140.5,73.3c-0.1-1.2-0.1-2.4-0.1-3.5c0-0.3-0.1-0.6-0.3-0.8c-0.2-0.2-0.5-0.3-0.8-0.3
	c-0.4,0-0.7,0.1-1,0.3c-0.3,0.2-0.6,0.4-0.7,0.7l0.1-0.2c0-0.4,0-0.8-0.5-0.8c-0.3,0-0.6,0.1-0.8,0.2V69c0,0,0.5,0,0.5,1.1v3.1h0.9
	c-0.1-0.2-0.1-0.5-0.1-0.7v-2.6c0.2-0.2,0.3-0.3,0.6-0.5c0.2-0.1,0.5-0.2,0.7-0.2c0.6,0,0.7,0.4,0.7,1.3v2.6L140.5,73.3z M145,72.8
	c0.2,0.4,0.8,0.6,1.5,0.6c0.3,0,0.6-0.1,0.9-0.2c0.3-0.1,0.5-0.3,0.7-0.6c0.2-0.2,0.4-0.5,0.4-0.8c0.1-0.3,0.1-0.6,0.1-0.9
	c0-1.5-0.8-2.2-1.7-2.2c-0.5,0-0.9,0.2-1.2,0.5c0-0.1,0-0.3,0.1-0.4l0.1-1.5c0-0.5-0.1-0.8-0.6-0.8c-0.3,0-0.5,0.1-0.7,0.2v0.2
	c0.3,0,0.4,0.3,0.4,0.8v3.1C144.8,71.4,144.9,72.1,145,72.8z M146.4,69.2c0.8,0,1.3,0.7,1.3,1.8c0,0.7-0.2,1.9-1.2,1.9
	c-0.6,0-0.8-0.3-0.8-1s0-1.3,0-2.4C146,69.3,146.2,69.2,146.4,69.2L146.4,69.2z M149.4,71.1c0-0.3,0-0.6,0.1-0.9
	c0.1-0.3,0.3-0.6,0.5-0.8c0.2-0.2,0.5-0.4,0.8-0.5c0.3-0.1,0.6-0.2,0.9-0.2c1,0,1.9,0.7,1.9,2.3c0,0.3,0,0.6-0.1,0.9
	c-0.1,0.3-0.3,0.6-0.5,0.8c-0.2,0.2-0.5,0.4-0.7,0.5c-0.3,0.1-0.6,0.2-0.9,0.2C149.5,73.4,149.4,71.2,149.4,71.1L149.4,71.1z
	 M150.4,70.7c0,1.2,0.5,2.2,1.3,2.2c0.7,0,1.1-0.7,1.1-1.7c0-1.2-0.6-2.1-1.4-2.1C150.6,69.1,150.4,70,150.4,70.7L150.4,70.7z
	 M159,73c-0.4,0-0.7-0.1-0.7-0.9v-2.6c0-1.2,0.1-1.7,0.1-2.3s-0.1-0.8-0.6-0.8c-0.3,0-0.5,0.1-0.7,0.2v0.2c0.3,0,0.4,0.3,0.4,0.8
	v1.2c-0.3-0.1-0.5-0.1-0.8-0.1c-0.3,0-0.6,0.1-0.9,0.3c-0.3,0.1-0.5,0.3-0.7,0.6c-0.2,0.2-0.4,0.5-0.4,0.8c-0.1,0.3-0.1,0.6-0.1,0.9
	c0,1.6,0.8,2.2,1.7,2.2c0.5,0,1-0.3,1.4-0.6c0,0.2,0.1,0.3,0.2,0.5c0.1,0.1,0.3,0.2,0.5,0.2c0.3,0,0.6-0.1,0.8-0.2L159,73L159,73z
	 M156.7,72.8c-0.8,0-1.3-0.6-1.3-1.7c0-0.7,0.2-1.9,1.2-1.9c0.3,0,0.6,0,0.9,0.1v3.2C157.3,72.6,157,72.7,156.7,72.8L156.7,72.8z
	 M160.6,69.2c-0.1-0.4-0.2-0.6-0.7-0.6c-0.3,0-0.5,0.1-0.8,0.2V69c0,0,0.6,0.1,0.9,1.2l0.8,2.6c0,0.1,0.1,0.2,0.2,0.3
	c0.1,0.1,0.2,0.1,0.3,0.2l-0.1,0.2l-0.4,1c-0.1,0.2-0.2,0.3-0.4,0.4c-0.2,0.1-0.4,0.1-0.6,0.1c-0.3,0-0.6-0.1-0.7-0.2v0.2
	c0,0.1,0,0.2,0,0.3c0,0.1,0.1,0.2,0.2,0.3c0.1,0.1,0.2,0.1,0.3,0.2c0.1,0,0.2,0,0.3,0c0.9,0,1.1-0.6,1.4-1.5l1.9-4.5
	c0.1-0.2,0.2-0.5,0.2-0.8c0,0,0-0.1,0-0.1c0,0,0-0.1-0.1-0.1c0,0-0.1-0.1-0.1-0.1c0,0-0.1,0-0.1,0c-0.2,0-0.5,0.1-0.7,0.2V69
	c0.1,0,0.1,0.1,0.1,0.2s0,0.1,0,0.2c0,0.2-0.1,0.4-0.1,0.6l-0.7,1.9c-0.1,0.2-0.1,0.4-0.2,0.6c-0.1-0.2-0.2-0.4-0.2-0.6
	C161.1,71,160.8,70.1,160.6,69.2L160.6,69.2z M169,54.5c0.3,0,0.7,0.1,1,0.2c0.3,0.2,0.6,0.4,0.7,0.7c0.2,0.3,0.3,0.6,0.3,1
	c0,0.4-0.1,0.7-0.3,1c-0.2,0.3-0.4,0.6-0.7,0.7c-0.3,0.2-0.6,0.3-1,0.3c-0.4,0-0.7-0.1-1-0.3c-0.3-0.2-0.6-0.4-0.7-0.7
	c-0.2-0.3-0.3-0.6-0.3-1c0-0.4,0.1-0.7,0.3-1c0.2-0.3,0.4-0.5,0.7-0.7C168.3,54.6,168.7,54.5,169,54.5L169,54.5z M169,54.8
	c-0.3,0-0.5,0.1-0.8,0.2c-0.3,0.1-0.5,0.3-0.6,0.6c-0.1,0.2-0.2,0.5-0.2,0.8c0,0.3,0.1,0.6,0.2,0.8c0.1,0.3,0.3,0.5,0.6,0.6
	c0.2,0.1,0.5,0.2,0.8,0.2c0.3,0,0.6-0.1,0.8-0.2c0.2-0.1,0.5-0.3,0.6-0.6c0.1-0.2,0.2-0.5,0.2-0.8c0-0.3-0.1-0.6-0.2-0.8
	c-0.1-0.3-0.4-0.5-0.6-0.6C169.5,54.9,169.3,54.8,169,54.8z M168.1,57.5v-2.1h0.7c0.2,0,0.4,0,0.5,0.1c0.1,0,0.2,0.1,0.3,0.2
	c0.1,0.1,0.1,0.2,0.1,0.3c0,0.1,0,0.1,0,0.2c0,0.1-0.1,0.1-0.1,0.2c-0.1,0.1-0.3,0.2-0.4,0.2c0.1,0,0.1,0.1,0.2,0.1
	c0.1,0.1,0.2,0.3,0.3,0.4l0.2,0.4h-0.4l-0.2-0.3c-0.1-0.2-0.2-0.4-0.4-0.5c-0.1,0-0.2-0.1-0.3-0.1h-0.2v0.9H168.1z M168.5,56.3h0.4
	c0.1,0,0.3,0,0.4-0.1c0.1-0.1,0.1-0.1,0.1-0.2c0-0.1,0-0.1,0-0.2c0,0-0.1-0.1-0.1-0.1c-0.1,0-0.2-0.1-0.3-0.1h-0.4L168.5,56.3
	L168.5,56.3z"/>
</svg>
