<svg viewBox="0 0 162 53" fill="none" xmlns="http://www.w3.org/2000/svg">
<mask id="path-1-outside-1_1_9" maskUnits="userSpaceOnUse" x="0" y="0.0100098" width="87" height="48" fill="black">
<rect fill="white" y="0.0100098" width="87" height="48"/>
<path d="M1 21.85V22.85C2.75 23.23 4.45999 26.04 4.45999 40.59C4.45999 44.83 7.52999 47.12 10.46 47.12C11.2038 47.1313 11.9408 46.9765 12.6172 46.6668C13.2937 46.3572 13.8925 45.9005 14.37 45.33C13.9855 45.3837 13.5981 45.4137 13.21 45.42C8.75999 45.42 8.53 42.01 8.53 38.48C8.53 23.96 4.53 22.74 4.53 22.74C6.01 22.54 8.53 18.12 8.53 9.24002C8.53 4.69002 10.87 2.11001 14.37 2.06001C13.5968 1.38542 12.6061 1.01257 11.58 1.01001C8.57999 1.01001 4.47998 3.45002 4.47998 8.83002C4.47998 19.19 2.88001 21.83 1.04001 21.83L1 21.85ZM34.38 28.3C32.96 30.91 29.59 32.13 27.32 32.13C21.32 32.13 18.47 26.32 18.47 20.13C18.47 15.01 20.85 10.2 26.29 10.2C27.473 10.1439 28.6364 10.5181 29.5648 11.2534C30.4932 11.9888 31.1238 13.0356 31.34 14.2L31.97 14.71C32.618 14.3286 33.1755 13.8109 33.6037 13.1927C34.0319 12.5746 34.3206 11.8708 34.45 11.13C33.59 9.35002 30.16 7.85002 26.77 7.85002C19.18 7.85002 14.13 13.66 14.13 21.85C14.13 29.17 18.13 34.77 25.58 34.77C30.52 34.77 34.58 32.52 34.58 29.09C34.5793 28.8057 34.525 28.5242 34.42 28.26L34.38 28.3ZM53.38 23.22V22.31C53.38 20.37 53.05 14.31 46.24 14.31C41.24 14.31 37.95 19.09 37.95 25.43C38.07 32.06 41.85 34.83 46.04 34.83C49.78 34.83 53.73 32.34 53.73 29.3C53.7203 28.9767 53.6631 28.6566 53.56 28.35C52.8873 29.3775 51.9775 30.2282 50.9071 30.8304C49.8368 31.4325 48.6374 31.7685 47.41 31.81C44.06 31.81 41.62 29.42 41.62 25.16C41.62 24.6 41.62 24.16 41.62 23.58L51.13 23.69C51.9212 23.752 52.7141 23.5927 53.42 23.23L53.38 23.22ZM45.71 16.53C48.64 16.53 49.94 19.33 49.94 21.86L41.49 22.02C42.2 18.92 43.15 16.53 45.71 16.53ZM63.4 34.31C63.01 32.94 63.01 27.31 63.01 25.95C63.01 23.28 63.91 17.27 67.01 17.27C67.4181 17.2697 67.8155 17.4009 68.1433 17.644C68.4711 17.8871 68.7118 18.2294 68.83 18.62C69.0711 18.6845 69.3207 18.7115 69.57 18.7C70.0869 18.7004 70.5838 18.5007 70.9567 18.1428C71.3295 17.7849 71.5493 17.2965 71.57 16.78V16.69C71.57 15.37 70.63 14.32 68.85 14.32C65.22 14.32 62.85 19.17 62.74 19.45L62.92 17.71C63.0064 17.3597 63.0534 17.0008 63.06 16.64C63.06 15.34 62.73 14.4 61.16 14.4C59.9153 14.3911 58.694 14.738 57.64 15.4V16.11C57.87 16.11 59.57 16.27 59.57 20.88C59.57 26.35 59.41 31.96 59.41 34.32H63.35L63.4 34.31ZM79.34 11.64H77.41C75.56 14.94 73.78 14.91 73.62 14.91L73.43 16.1C74.1865 16.2899 74.8393 16.7669 75.25 17.43C75.5968 18.3898 75.7332 19.4129 75.65 20.43C75.65 22.87 75.4 26.24 75.4 28.43C75.4 32.43 76.22 34.82 80.68 34.82C83.57 34.82 85.89 32.93 85.89 31.35C85.9003 31.0594 85.82 30.7728 85.66 30.53C85.46 30.95 83.66 31.63 82 31.63C79.19 31.63 78.86 29.82 78.86 27.29L78.91 17.29C79.0962 17.2718 79.2838 17.2718 79.47 17.29C80.22 17.29 81.4 17.37 82.11 17.37C83.73 17.37 85.11 16.61 85.11 15.22C85.1116 14.9711 85.0847 14.7228 85.03 14.48C85.03 14.48 84.83 14.96 83.64 14.96H78.84L79.3 11.69L79.34 11.64Z"/>
</mask>
<path d="M1 21.85V22.85C2.75 23.23 4.45999 26.04 4.45999 40.59C4.45999 44.83 7.52999 47.12 10.46 47.12C11.2038 47.1313 11.9408 46.9765 12.6172 46.6668C13.2937 46.3572 13.8925 45.9005 14.37 45.33C13.9855 45.3837 13.5981 45.4137 13.21 45.42C8.75999 45.42 8.53 42.01 8.53 38.48C8.53 23.96 4.53 22.74 4.53 22.74C6.01 22.54 8.53 18.12 8.53 9.24002C8.53 4.69002 10.87 2.11001 14.37 2.06001C13.5968 1.38542 12.6061 1.01257 11.58 1.01001C8.57999 1.01001 4.47998 3.45002 4.47998 8.83002C4.47998 19.19 2.88001 21.83 1.04001 21.83L1 21.85ZM34.38 28.3C32.96 30.91 29.59 32.13 27.32 32.13C21.32 32.13 18.47 26.32 18.47 20.13C18.47 15.01 20.85 10.2 26.29 10.2C27.473 10.1439 28.6364 10.5181 29.5648 11.2534C30.4932 11.9888 31.1238 13.0356 31.34 14.2L31.97 14.71C32.618 14.3286 33.1755 13.8109 33.6037 13.1927C34.0319 12.5746 34.3206 11.8708 34.45 11.13C33.59 9.35002 30.16 7.85002 26.77 7.85002C19.18 7.85002 14.13 13.66 14.13 21.85C14.13 29.17 18.13 34.77 25.58 34.77C30.52 34.77 34.58 32.52 34.58 29.09C34.5793 28.8057 34.525 28.5242 34.42 28.26L34.38 28.3ZM53.38 23.22V22.31C53.38 20.37 53.05 14.31 46.24 14.31C41.24 14.31 37.95 19.09 37.95 25.43C38.07 32.06 41.85 34.83 46.04 34.83C49.78 34.83 53.73 32.34 53.73 29.3C53.7203 28.9767 53.6631 28.6566 53.56 28.35C52.8873 29.3775 51.9775 30.2282 50.9071 30.8304C49.8368 31.4325 48.6374 31.7685 47.41 31.81C44.06 31.81 41.62 29.42 41.62 25.16C41.62 24.6 41.62 24.16 41.62 23.58L51.13 23.69C51.9212 23.752 52.7141 23.5927 53.42 23.23L53.38 23.22ZM45.71 16.53C48.64 16.53 49.94 19.33 49.94 21.86L41.49 22.02C42.2 18.92 43.15 16.53 45.71 16.53ZM63.4 34.31C63.01 32.94 63.01 27.31 63.01 25.95C63.01 23.28 63.91 17.27 67.01 17.27C67.4181 17.2697 67.8155 17.4009 68.1433 17.644C68.4711 17.8871 68.7118 18.2294 68.83 18.62C69.0711 18.6845 69.3207 18.7115 69.57 18.7C70.0869 18.7004 70.5838 18.5007 70.9567 18.1428C71.3295 17.7849 71.5493 17.2965 71.57 16.78V16.69C71.57 15.37 70.63 14.32 68.85 14.32C65.22 14.32 62.85 19.17 62.74 19.45L62.92 17.71C63.0064 17.3597 63.0534 17.0008 63.06 16.64C63.06 15.34 62.73 14.4 61.16 14.4C59.9153 14.3911 58.694 14.738 57.64 15.4V16.11C57.87 16.11 59.57 16.27 59.57 20.88C59.57 26.35 59.41 31.96 59.41 34.32H63.35L63.4 34.31ZM79.34 11.64H77.41C75.56 14.94 73.78 14.91 73.62 14.91L73.43 16.1C74.1865 16.2899 74.8393 16.7669 75.25 17.43C75.5968 18.3898 75.7332 19.4129 75.65 20.43C75.65 22.87 75.4 26.24 75.4 28.43C75.4 32.43 76.22 34.82 80.68 34.82C83.57 34.82 85.89 32.93 85.89 31.35C85.9003 31.0594 85.82 30.7728 85.66 30.53C85.46 30.95 83.66 31.63 82 31.63C79.19 31.63 78.86 29.82 78.86 27.29L78.91 17.29C79.0962 17.2718 79.2838 17.2718 79.47 17.29C80.22 17.29 81.4 17.37 82.11 17.37C83.73 17.37 85.11 16.61 85.11 15.22C85.1116 14.9711 85.0847 14.7228 85.03 14.48C85.03 14.48 84.83 14.96 83.64 14.96H78.84L79.3 11.69L79.34 11.64Z" fill="#800000"/>
<path d="M1 21.85V22.85C2.75 23.23 4.45999 26.04 4.45999 40.59C4.45999 44.83 7.52999 47.12 10.46 47.12C11.2038 47.1313 11.9408 46.9765 12.6172 46.6668C13.2937 46.3572 13.8925 45.9005 14.37 45.33C13.9855 45.3837 13.5981 45.4137 13.21 45.42C8.75999 45.42 8.53 42.01 8.53 38.48C8.53 23.96 4.53 22.74 4.53 22.74C6.01 22.54 8.53 18.12 8.53 9.24002C8.53 4.69002 10.87 2.11001 14.37 2.06001C13.5968 1.38542 12.6061 1.01257 11.58 1.01001C8.57999 1.01001 4.47998 3.45002 4.47998 8.83002C4.47998 19.19 2.88001 21.83 1.04001 21.83L1 21.85ZM34.38 28.3C32.96 30.91 29.59 32.13 27.32 32.13C21.32 32.13 18.47 26.32 18.47 20.13C18.47 15.01 20.85 10.2 26.29 10.2C27.473 10.1439 28.6364 10.5181 29.5648 11.2534C30.4932 11.9888 31.1238 13.0356 31.34 14.2L31.97 14.71C32.618 14.3286 33.1755 13.8109 33.6037 13.1927C34.0319 12.5746 34.3206 11.8708 34.45 11.13C33.59 9.35002 30.16 7.85002 26.77 7.85002C19.18 7.85002 14.13 13.66 14.13 21.85C14.13 29.17 18.13 34.77 25.58 34.77C30.52 34.77 34.58 32.52 34.58 29.09C34.5793 28.8057 34.525 28.5242 34.42 28.26L34.38 28.3ZM53.38 23.22V22.31C53.38 20.37 53.05 14.31 46.24 14.31C41.24 14.31 37.95 19.09 37.95 25.43C38.07 32.06 41.85 34.83 46.04 34.83C49.78 34.83 53.73 32.34 53.73 29.3C53.7203 28.9767 53.6631 28.6566 53.56 28.35C52.8873 29.3775 51.9775 30.2282 50.9071 30.8304C49.8368 31.4325 48.6374 31.7685 47.41 31.81C44.06 31.81 41.62 29.42 41.62 25.16C41.62 24.6 41.62 24.16 41.62 23.58L51.13 23.69C51.9212 23.752 52.7141 23.5927 53.42 23.23L53.38 23.22ZM45.71 16.53C48.64 16.53 49.94 19.33 49.94 21.86L41.49 22.02C42.2 18.92 43.15 16.53 45.71 16.53ZM63.4 34.31C63.01 32.94 63.01 27.31 63.01 25.95C63.01 23.28 63.91 17.27 67.01 17.27C67.4181 17.2697 67.8155 17.4009 68.1433 17.644C68.4711 17.8871 68.7118 18.2294 68.83 18.62C69.0711 18.6845 69.3207 18.7115 69.57 18.7C70.0869 18.7004 70.5838 18.5007 70.9567 18.1428C71.3295 17.7849 71.5493 17.2965 71.57 16.78V16.69C71.57 15.37 70.63 14.32 68.85 14.32C65.22 14.32 62.85 19.17 62.74 19.45L62.92 17.71C63.0064 17.3597 63.0534 17.0008 63.06 16.64C63.06 15.34 62.73 14.4 61.16 14.4C59.9153 14.3911 58.694 14.738 57.64 15.4V16.11C57.87 16.11 59.57 16.27 59.57 20.88C59.57 26.35 59.41 31.96 59.41 34.32H63.35L63.4 34.31ZM79.34 11.64H77.41C75.56 14.94 73.78 14.91 73.62 14.91L73.43 16.1C74.1865 16.2899 74.8393 16.7669 75.25 17.43C75.5968 18.3898 75.7332 19.4129 75.65 20.43C75.65 22.87 75.4 26.24 75.4 28.43C75.4 32.43 76.22 34.82 80.68 34.82C83.57 34.82 85.89 32.93 85.89 31.35C85.9003 31.0594 85.82 30.7728 85.66 30.53C85.46 30.95 83.66 31.63 82 31.63C79.19 31.63 78.86 29.82 78.86 27.29L78.91 17.29C79.0962 17.2718 79.2838 17.2718 79.47 17.29C80.22 17.29 81.4 17.37 82.11 17.37C83.73 17.37 85.11 16.61 85.11 15.22C85.1116 14.9711 85.0847 14.7228 85.03 14.48C85.03 14.48 84.83 14.96 83.64 14.96H78.84L79.3 11.69L79.34 11.64Z" stroke="white" stroke-linejoin="round" mask="url(#path-1-outside-1_1_9)"/>
<path d="M94.15 34.29C93.9776 33.3165 93.9005 32.3285 93.92 31.34C93.92 22.34 94.15 17.69 94.15 17.69C94.27 15.88 94.07 14.38 92.15 14.38C90.9118 14.3727 89.6974 14.7196 88.65 15.38V16.09C88.65 16.09 90.7 16.25 90.54 20.86L90.22 34.16V34.32H94.15V34.29ZM89.86 9.02001C89.8702 9.57737 90.0954 10.1092 90.4887 10.5043C90.8819 10.8994 91.4127 11.1272 91.97 11.14C92.5257 11.1149 93.0513 10.8802 93.441 10.4831C93.8306 10.0861 94.0554 9.55613 94.07 9.00001C94.0448 8.45584 93.814 7.94153 93.4242 7.561C93.0344 7.18047 92.5146 6.96209 91.97 6.95001C91.4163 6.94985 90.8845 7.16633 90.4883 7.55316C90.0922 7.93998 89.8631 8.46647 89.85 9.02001H89.86ZM101.86 32.21C102.6 33.86 105.41 34.81 108.24 34.81C114.45 34.81 117.6 29.24 117.6 23.92C117.6 17.18 113.92 14.3 110.22 14.3C108.168 14.3522 106.21 15.1689 104.73 16.59C104.918 15.9406 105.002 15.2657 104.98 14.59C105.04 11.47 105.21 9.97001 105.24 8.09001C105.29 5.68001 104.78 4.49002 102.77 4.49002C101.616 4.50031 100.489 4.8479 99.53 5.49002V6.20001C100.69 6.37001 101.38 7.54001 101.38 9.75001C101.38 9.75001 101.46 15 101.46 22.96C101.46 28.41 101.18 30.7 101.86 32.2V32.21ZM108.15 16.9C111.5 16.9 113.94 19.74 113.94 24.59C113.94 27.59 113.11 32.84 108.69 32.84C105.94 32.84 105.26 31.57 105.11 28.42C105 25.94 104.95 22.55 104.95 17.96V17.89C105.881 17.2205 107.003 16.8697 108.15 16.89V16.9ZM127.35 34.29C127.239 33.745 127.159 33.1941 127.11 32.64C126.92 28.27 126.79 16.64 127.16 10.9C127.44 6.64 127.47 4.51 124.78 4.51C123.629 4.51991 122.506 4.86762 121.55 5.51V6.22001C122.7 6.39001 123.41 7.56001 123.41 9.77001C123.41 9.77001 123.49 23.94 123.41 33.77V34.34L127.35 34.29ZM147.83 23.22V22.31C147.83 20.37 147.52 14.31 140.7 14.31C135.7 14.31 132.4 19.09 132.4 25.43C132.53 32.06 136.31 34.83 140.49 34.83C144.25 34.83 148.19 32.34 148.19 29.3C148.181 28.9774 148.127 28.6577 148.03 28.35C147.356 29.3783 146.444 30.2294 145.372 30.8315C144.3 31.4337 143.099 31.7693 141.87 31.81C138.52 31.81 136.08 29.42 136.08 25.16C136.08 24.6 136.08 24.16 136.08 23.58L145.6 23.69C146.388 23.7549 147.179 23.5954 147.88 23.23L147.83 23.22ZM140.15 16.53C143.07 16.53 144.38 19.33 144.38 21.86L135.93 22.02C136.64 18.94 137.54 16.53 140.15 16.53ZM161.04 21.87V22.87C159.29 23.25 157.58 26.06 157.58 40.61C157.58 44.85 154.49 47.14 151.58 47.14C150.836 47.1513 150.099 46.9965 149.423 46.6868C148.746 46.3772 148.148 45.9205 147.67 45.35C148.054 45.4037 148.442 45.4337 148.83 45.44C153.28 45.44 153.51 42.03 153.51 38.5C153.51 23.98 157.51 22.76 157.51 22.76C156.03 22.56 153.51 18.14 153.51 9.26C153.51 4.71 151.17 2.13001 147.67 2.08001C148.448 1.40089 149.447 1.02774 150.48 1.03001C153.48 1.03001 157.57 3.47002 157.57 8.85002C157.55 19.18 159.15 21.85 161 21.85L161.04 21.87ZM18.84 49.72C18.7981 49.4959 18.7814 49.2678 18.79 49.04C18.79 46.97 18.84 45.89 18.84 45.89C18.84 45.46 18.84 45.12 18.39 45.12C18.1005 45.1181 17.8163 45.1978 17.57 45.35V45.53C17.57 45.53 18.06 45.53 18.01 46.64L17.95 49.71L18.84 49.72ZM17.84 43.88C17.84 44.0109 17.8913 44.1366 17.9829 44.2301C18.0745 44.3236 18.1991 44.3774 18.33 44.38C18.4618 44.3775 18.5875 44.3239 18.6807 44.2307C18.7739 44.1375 18.8274 44.0118 18.83 43.88C18.83 43.7474 18.7773 43.6202 18.6835 43.5265C18.5898 43.4327 18.4626 43.38 18.33 43.38C18.1974 43.38 18.0702 43.4327 17.9764 43.5265C17.8827 43.6202 17.83 43.7474 17.83 43.88H17.84ZM24.25 49.72C24.1572 48.5458 24.1304 47.3672 24.17 46.19C24.1648 45.9008 24.0469 45.6251 23.8415 45.4215C23.636 45.2179 23.3592 45.1026 23.07 45.1C22.7175 45.1047 22.3719 45.199 22.0658 45.3739C21.7596 45.5488 21.503 45.7987 21.32 46.1L21.37 45.85C21.37 45.42 21.37 45.08 20.91 45.08C20.6176 45.0799 20.3306 45.1594 20.08 45.31V45.47C20.08 45.47 20.56 45.47 20.54 46.58V49.65H21.44C21.4001 49.4255 21.38 49.198 21.38 48.97C21.38 47.97 21.38 46.75 21.38 46.37C21.5401 46.1834 21.7377 46.0327 21.96 45.9276C22.1823 45.8225 22.4242 45.7654 22.67 45.76C23.27 45.76 23.43 46.15 23.41 47.03V49.65L24.25 49.72ZM26.78 44.49H26.33C25.9 45.25 25.49 45.23 25.46 45.23L25.41 45.51C25.4969 45.5317 25.5783 45.5714 25.649 45.6265C25.7196 45.6816 25.7779 45.7509 25.82 45.83C25.9086 46.0486 25.9429 46.2853 25.92 46.52C25.92 47.1 25.86 47.87 25.86 48.37C25.86 49.29 26.05 49.85 27.08 49.85C27.74 49.85 28.28 49.41 28.28 49.03C28.2833 48.9998 28.2806 48.9692 28.272 48.94C28.2635 48.9108 28.2491 48.8836 28.23 48.86C27.9833 49.0298 27.6893 49.1173 27.39 49.11C26.73 49.11 26.66 48.68 26.66 48.11V45.8H27.41C27.79 45.8 28.12 45.64 28.12 45.31V45.14C28.12 45.14 28.12 45.24 27.79 45.24H26.68L26.8 44.5L26.78 44.49ZM32.42 47.16V46.95C32.4554 46.716 32.4388 46.477 32.3714 46.2501C32.3039 46.0232 32.1872 45.814 32.0297 45.6373C31.8721 45.4607 31.6775 45.3209 31.4598 45.2281C31.2421 45.1352 31.0065 45.0915 30.77 45.1C29.62 45.1 28.86 46.21 28.86 47.68C28.86 49.15 29.77 49.84 30.72 49.84C31.67 49.84 32.5 49.28 32.5 48.57V48.35C32.3434 48.587 32.1333 48.7838 31.8867 48.9245C31.64 49.0652 31.3636 49.1459 31.08 49.16C30.31 49.16 29.75 48.6 29.75 47.61V47.25H31.94C32.1252 47.2722 32.3124 47.2299 32.47 47.13L32.42 47.16ZM30.64 45.61C31.32 45.61 31.64 46.27 31.64 46.85H29.64C29.8 46.14 30.02 45.58 30.64 45.58V45.61ZM34.73 49.72C34.663 49.079 34.6363 48.4344 34.65 47.79C34.65 47.18 34.85 45.79 35.57 45.79C35.6634 45.7861 35.7554 45.8135 35.8315 45.8679C35.9076 45.9222 35.9634 46.0004 35.99 46.09C36.0425 46.1036 36.0975 46.1036 36.15 46.09C36.2133 46.0943 36.2768 46.0852 36.3363 46.0632C36.3958 46.0413 36.45 46.007 36.4953 45.9626C36.5407 45.9182 36.5761 45.8647 36.5993 45.8057C36.6225 45.7467 36.633 45.6834 36.63 45.62C36.6309 45.5405 36.6144 45.4618 36.5819 45.3893C36.5494 45.3167 36.5016 45.2521 36.4417 45.1998C36.3819 45.1476 36.3114 45.1089 36.2351 45.0865C36.1588 45.0641 36.0786 45.0584 36 45.07C35.16 45.07 34.62 46.19 34.58 46.26L34.63 45.86V45.62C34.63 45.32 34.54 45.09 34.18 45.09C33.8905 45.0881 33.6063 45.1678 33.36 45.32V45.53C33.42 45.53 33.82 45.53 33.82 46.64V49.74L34.73 49.72ZM41.25 49.72C41.1471 48.5463 41.1204 47.3672 41.17 46.19C41.1648 45.9025 41.0484 45.6283 40.8451 45.4249C40.6418 45.2216 40.3675 45.1052 40.08 45.1C39.7274 45.1047 39.3819 45.199 39.0758 45.3739C38.7697 45.5488 38.513 45.7987 38.33 46.1L38.38 45.85C38.38 45.42 38.38 45.08 37.9 45.08C37.6142 45.0825 37.3344 45.1619 37.09 45.31V45.53C37.09 45.53 37.59 45.53 37.55 46.64V49.71H38.46C38.416 49.4859 38.3926 49.2583 38.39 49.03V46.43C38.5455 46.2406 38.7408 46.0878 38.962 45.9824C39.1832 45.877 39.4249 45.8215 39.67 45.82C40.25 45.82 40.42 46.21 40.42 47.09V49.28C40.3973 49.4225 40.3973 49.5676 40.42 49.71H41.29L41.25 49.72ZM44.83 48.72C44.7154 48.8734 44.5631 48.9945 44.3879 49.0716C44.2127 49.1487 44.0205 49.1791 43.83 49.16C43.7438 49.1668 43.6571 49.1563 43.575 49.1292C43.4929 49.1021 43.417 49.0589 43.3518 49.0021C43.2866 48.9453 43.2335 48.876 43.1954 48.7984C43.1573 48.7208 43.1351 48.6363 43.13 48.55C43.1253 48.5303 43.1253 48.5097 43.13 48.49C43.13 47.6 44.82 47.58 44.83 47.58V48.73V48.72ZM45.83 49.1C45.7329 48.7759 45.689 48.4382 45.7 48.1V46.33C45.7 45.41 45.05 45.03 44.05 45.03C43.36 45.03 42.6 45.33 42.6 45.87C42.597 45.9268 42.6061 45.9836 42.6268 46.0366C42.6475 46.0896 42.6792 46.1376 42.7199 46.1773C42.7606 46.2171 42.8094 46.2477 42.8628 46.2671C42.9163 46.2865 42.9733 46.2944 43.03 46.29C43.1468 46.286 43.2606 46.2516 43.36 46.19V46.1C43.3613 46.0112 43.3802 45.9234 43.4157 45.842C43.4512 45.7605 43.5026 45.687 43.5668 45.6255C43.631 45.5641 43.7068 45.5161 43.7898 45.4842C43.8727 45.4524 43.9612 45.4374 44.05 45.44C44.79 45.44 44.91 46.05 44.91 46.76V47.32C44.683 47.2704 44.4521 47.2403 44.22 47.23C43.22 47.23 42.39 47.72 42.39 48.6C42.385 48.7619 42.4145 48.9231 42.4767 49.0727C42.5388 49.2223 42.6321 49.357 42.7504 49.4677C42.8687 49.5784 43.0092 49.6626 43.1626 49.7147C43.316 49.7669 43.4787 49.7857 43.64 49.77C43.9211 49.7647 44.1947 49.6777 44.4272 49.5196C44.6598 49.3616 44.8414 49.1394 44.95 48.88C44.95 49.02 45.03 49.77 45.64 49.77C45.9259 49.7562 46.2056 49.6812 46.46 49.55V49.39C46.3385 49.4046 46.2154 49.3884 46.1018 49.343C45.9882 49.2976 45.8879 49.2243 45.81 49.13L45.83 49.1ZM48.34 44.46H47.9C47.47 45.22 47.07 45.2 47.02 45.2L46.97 45.48C47.0598 45.5009 47.1444 45.5401 47.2184 45.5951C47.2924 45.6502 47.3542 45.72 47.4 45.8C47.4744 46.0219 47.5017 46.257 47.48 46.49L47.43 48.34C47.43 49.26 47.63 49.82 48.66 49.82C49.32 49.82 49.86 49.38 49.86 49C49.8586 48.9399 49.8414 48.8813 49.81 48.83C49.5569 49.002 49.2558 49.0895 48.95 49.08C48.31 49.08 48.24 48.65 48.24 48.08V45.77H48.99C49.36 45.77 49.69 45.61 49.69 45.28C49.7003 45.2238 49.7003 45.1662 49.69 45.11C49.69 45.11 49.69 45.21 49.38 45.21H48.27L48.37 44.47L48.34 44.46ZM51.76 49.69C51.7348 49.464 51.7348 49.236 51.76 49.01C51.76 46.94 51.76 45.86 51.76 45.86C51.76 45.43 51.76 45.09 51.31 45.09C51.0205 45.0881 50.7363 45.1678 50.49 45.32V45.53C50.49 45.53 50.98 45.53 50.93 46.64L50.87 49.71L51.76 49.69ZM50.76 43.85C50.756 43.9501 50.7822 44.049 50.8351 44.1341C50.888 44.2191 50.9652 44.2863 51.0567 44.3269C51.1483 44.3675 51.2499 44.3798 51.3484 44.362C51.447 44.3442 51.538 44.2972 51.6095 44.2271C51.681 44.157 51.7299 44.0671 51.7497 43.9689C51.7695 43.8707 51.7594 43.7689 51.7207 43.6765C51.6819 43.5842 51.6164 43.5056 51.5324 43.4509C51.4485 43.3963 51.3501 43.3681 51.25 43.37C51.1848 43.37 51.1203 43.383 51.0602 43.4082C51 43.4335 50.9456 43.4705 50.8999 43.517C50.8543 43.5636 50.8184 43.6188 50.7944 43.6794C50.7703 43.74 50.7586 43.8048 50.76 43.87V43.85ZM52.98 47.53C52.9582 47.2173 53.0005 46.9034 53.1044 46.6077C53.2083 46.3119 53.3715 46.0405 53.5841 45.8101C53.7967 45.5797 54.0541 45.3953 54.3406 45.268C54.6271 45.1407 54.9365 45.0733 55.25 45.07C56.25 45.07 57.18 45.8 57.18 47.35C57.1975 47.6606 57.1529 47.9716 57.0487 48.2648C56.9446 48.5579 56.7831 48.8274 56.5736 49.0574C56.3641 49.2874 56.1108 49.4733 55.8286 49.6042C55.5464 49.7352 55.2409 49.8085 54.93 49.82C53.03 49.82 52.98 47.68 52.98 47.51V47.53ZM53.88 47.15C53.88 48.39 54.42 49.36 55.18 49.36C55.77 49.36 56.27 48.67 56.27 47.65C56.27 46.44 55.66 45.53 54.92 45.53C54.18 45.53 53.87 46.53 53.87 47.18L53.88 47.15ZM62.22 49.69C62.1193 48.5162 62.0893 47.3374 62.13 46.16C62.1249 45.8725 62.0084 45.5983 61.8051 45.3949C61.6017 45.1916 61.3275 45.0751 61.04 45.07C60.6875 45.0747 60.3419 45.169 60.0358 45.3439C59.7296 45.5188 59.473 45.7687 59.29 46.07L59.34 45.82C59.34 45.39 59.34 45.05 58.86 45.05C58.5742 45.0525 58.2944 45.1319 58.05 45.28V45.53C58.05 45.53 58.55 45.53 58.51 46.64V49.71H59.42C59.3708 49.4867 59.3474 49.2586 59.35 49.03V46.43C59.5066 46.2393 59.7035 46.0858 59.9266 45.9803C60.1496 45.8748 60.3933 45.8201 60.64 45.82C61.22 45.82 61.38 46.21 61.38 47.09V49.28C61.3628 49.4228 61.3628 49.5672 61.38 49.71L62.22 49.69ZM65.79 48.69C65.6748 48.8426 65.5223 48.9632 65.3473 49.0402C65.1722 49.1172 64.9804 49.1482 64.79 49.13C64.7033 49.1368 64.616 49.1264 64.5334 49.0994C64.4507 49.0724 64.3741 49.0293 64.3081 48.9727C64.2422 48.916 64.188 48.8468 64.1489 48.7691C64.1097 48.6914 64.0863 48.6068 64.08 48.52V48.53C64.08 47.64 65.77 47.62 65.78 47.62V48.77L65.79 48.69ZM66.79 49.07C66.6929 48.7459 66.649 48.4082 66.66 48.07V46.3C66.66 45.38 66 45 65.01 45C64.31 45 63.55 45.3 63.55 45.84C63.5485 45.8964 63.5588 45.9525 63.58 46.0048C63.6012 46.0571 63.633 46.1044 63.6734 46.1438C63.7137 46.1832 63.7618 46.2139 63.8146 46.2339C63.8673 46.2539 63.9236 46.2628 63.98 46.26C64.0971 46.2575 64.2112 46.2229 64.31 46.16V46.07C64.3113 45.9812 64.3302 45.8934 64.3657 45.812C64.4012 45.7305 64.4526 45.657 64.5168 45.5955C64.581 45.5341 64.6568 45.4861 64.7397 45.4542C64.8227 45.4224 64.9112 45.4074 65 45.41C65.74 45.41 65.86 46.02 65.86 46.73V47.29C65.633 47.2404 65.4021 47.2103 65.17 47.2C64.17 47.2 63.34 47.69 63.34 48.57C63.335 48.7319 63.3645 48.8931 63.4267 49.0427C63.4888 49.1923 63.5821 49.327 63.7004 49.4377C63.8187 49.5484 63.9592 49.6326 64.1126 49.6847C64.266 49.7369 64.4287 49.7557 64.59 49.74C64.87 49.7353 65.1425 49.6484 65.3736 49.4902C65.6047 49.332 65.7843 49.1094 65.89 48.85C65.89 48.99 65.98 49.74 66.59 49.74C66.8759 49.7262 67.1556 49.6512 67.41 49.52V49.36C67.2889 49.3599 67.1698 49.3297 67.0633 49.2721C66.9568 49.2145 66.8663 49.1313 66.8 49.03L66.79 49.07ZM69.35 49.66C69.3202 49.5354 69.3035 49.4081 69.3 49.28C69.25 48.28 69.22 45.59 69.3 44.28C69.37 43.28 69.38 42.79 68.76 42.79C68.4933 42.7942 68.2332 42.8739 68.01 43.02V43.19C68.28 43.19 68.44 43.5 68.44 44.01V49.67L69.35 49.66ZM76.15 46.15C76.1856 46.1919 76.2302 46.2253 76.2803 46.2477C76.3305 46.2702 76.385 46.2812 76.44 46.28C76.4978 46.2841 76.5559 46.2767 76.6108 46.2583C76.6658 46.2399 76.7165 46.2108 76.7602 46.1727C76.8039 46.1346 76.8396 46.0882 76.8653 46.0363C76.891 45.9843 76.9062 45.9278 76.91 45.87C76.91 45.27 76.16 45.04 75.49 45.04C74.2 45.04 73.34 46.11 73.34 47.62C73.34 49.13 74.25 49.78 75.22 49.78C76.19 49.78 76.99 49.22 76.99 48.51V48.29C76.8358 48.5292 76.6263 48.7278 76.3791 48.8688C76.1319 49.0098 75.8544 49.0891 75.57 49.1C74.64 49.1 74.2 48.19 74.2 47.32C74.2 46.45 74.63 45.55 75.35 45.55C75.91 45.55 76.13 45.82 76.18 46.15H76.15ZM81.23 47.1V46.89C81.2618 46.6566 81.2427 46.419 81.1739 46.1936C81.1051 45.9683 80.9883 45.7605 80.8314 45.5847C80.6746 45.4088 80.4815 45.2691 80.2655 45.1751C80.0494 45.081 79.8156 45.035 79.58 45.04C78.42 45.04 77.67 46.15 77.67 47.62C77.67 49.09 78.56 49.78 79.53 49.78C80.5 49.78 81.31 49.22 81.31 48.51C81.3055 48.4344 81.2886 48.3601 81.26 48.29C81.1058 48.5292 80.8963 48.7278 80.6491 48.8688C80.4019 49.0098 80.1244 49.0891 79.84 49.1C79.07 49.1 78.51 48.54 78.51 47.55V47.19H80.7C80.885 47.2083 81.0709 47.1662 81.23 47.07V47.1ZM79.45 45.55C80.11 45.55 80.45 46.21 80.45 46.79H78.45C78.6 46.17 78.8 45.61 79.41 45.61L79.45 45.55ZM83.54 49.66C83.4564 49.0203 83.4229 48.375 83.44 47.73C83.44 47.12 83.66 45.73 84.36 45.73C84.4547 45.7256 84.5482 45.7526 84.626 45.8069C84.7038 45.8612 84.7614 45.9396 84.79 46.03C84.8459 46.0428 84.9041 46.0428 84.96 46.03C85.0216 46.0314 85.0829 46.0202 85.14 45.9969C85.1972 45.9737 85.2489 45.939 85.2921 45.8949C85.3352 45.8508 85.3688 45.7983 85.3908 45.7407C85.4128 45.6831 85.4227 45.6216 85.42 45.56C85.4208 45.4805 85.4044 45.4018 85.3719 45.3293C85.3394 45.2567 85.2916 45.1921 85.2318 45.1398C85.1719 45.0876 85.1014 45.0489 85.0251 45.0265C84.9489 45.0041 84.8686 44.9984 84.79 45.01C83.97 45.01 83.41 46.13 83.39 46.2V45.8C83.4077 45.721 83.4077 45.639 83.39 45.56C83.39 45.26 83.32 45.03 82.96 45.03C82.6676 45.0299 82.3807 45.1094 82.13 45.26V45.53C82.2 45.53 82.58 45.53 82.58 46.64V49.74H83.5L83.54 49.66ZM87.15 44.53H86.7C86.27 45.29 85.86 45.27 85.83 45.27V45.55C85.9169 45.5717 85.9983 45.6114 86.069 45.6665C86.1396 45.7216 86.1979 45.7909 86.24 45.87C86.3286 46.0886 86.3629 46.3253 86.34 46.56L86.29 48.41C86.29 49.33 86.47 49.89 87.51 49.89C88.17 49.89 88.72 49.45 88.72 49.07C88.7098 49.0088 88.6859 48.9506 88.65 48.9C88.4034 49.0698 88.1094 49.1573 87.81 49.15C87.15 49.15 87.08 48.72 87.08 48.15V45.84H87.83C88.21 45.84 88.54 45.68 88.54 45.35V45.18C88.54 45.18 88.49 45.28 88.21 45.28H87.1L87.15 44.53ZM90.56 49.76C90.5398 49.5338 90.5398 49.3062 90.56 49.08C90.56 47.01 90.56 45.93 90.56 45.93C90.56 45.5 90.56 45.16 90.1 45.16C89.8142 45.1625 89.5344 45.2419 89.29 45.39V45.53C89.29 45.53 89.77 45.53 89.74 46.64L89.66 49.71L90.56 49.76ZM89.56 43.92C89.5626 44.0518 89.616 44.1775 89.7093 44.2707C89.8025 44.364 89.9282 44.4174 90.06 44.42C90.1564 44.4161 90.2495 44.3837 90.3275 44.3271C90.4056 44.2705 90.4653 44.1921 90.499 44.1017C90.5327 44.0113 90.539 43.913 90.5171 43.819C90.4951 43.7251 90.446 43.6397 90.3757 43.5736C90.3055 43.5075 90.2173 43.4636 90.1222 43.4474C90.0271 43.4312 89.9293 43.4434 89.8412 43.4825C89.753 43.5217 89.6783 43.5859 89.6265 43.6673C89.5747 43.7487 89.5481 43.8436 89.55 43.94L89.56 43.92ZM93.03 44.98V45.08C93.03 45.14 93.03 45.24 93.03 45.27H94.03C94.32 45.27 94.36 45.17 94.36 45.17V45.34C94.36 45.77 93.97 45.83 93.67 45.83H93.06V46.41C93.0265 47.5289 93.0767 48.6486 93.21 49.76H92.27V49.65L92.32 47.27C92.3525 46.8093 92.3085 46.3464 92.19 45.9C91.99 45.6 91.81 45.57 91.81 45.57V45.31C91.9436 45.2871 92.0652 45.219 92.1544 45.117C92.2437 45.015 92.295 44.8854 92.3 44.75C92.44 43.28 93.24 42.88 93.84 42.88C94.25 42.88 94.73 43.05 94.73 43.47C94.7233 43.5417 94.6991 43.6107 94.6595 43.6708C94.6199 43.731 94.5662 43.7806 94.503 43.8151C94.4398 43.8497 94.3691 43.8682 94.2971 43.869C94.2251 43.8699 94.154 43.8531 94.09 43.82C94.0713 43.714 94.016 43.618 93.9338 43.5485C93.8516 43.4791 93.7476 43.4407 93.64 43.44C93.16 43.44 92.98 43.8 93 44.35V44.98H93.03ZM96.13 49.76C96.0801 49.537 96.0599 49.3083 96.07 49.08C96.07 47.01 96.13 45.93 96.13 45.93C96.13 45.5 96.13 45.16 95.67 45.16C95.3776 45.1599 95.0906 45.2394 94.84 45.39V45.53C94.84 45.53 95.34 45.53 95.29 46.64L95.22 49.71L96.13 49.76ZM95.13 43.92C95.128 44.0177 95.1553 44.1138 95.2084 44.1959C95.2615 44.278 95.3379 44.3424 95.4278 44.3807C95.5178 44.419 95.6171 44.4296 95.7131 44.411C95.809 44.3924 95.8972 44.3455 95.9664 44.2764C96.0355 44.2073 96.0824 44.1191 96.101 44.0231C96.1195 43.9271 96.109 43.8278 96.0707 43.7378C96.0324 43.6479 95.968 43.5715 95.8859 43.5184C95.8038 43.4653 95.7077 43.438 95.61 43.44C95.5448 43.44 95.4802 43.453 95.4201 43.4782C95.36 43.5035 95.3056 43.5405 95.2599 43.587C95.2143 43.6336 95.1784 43.6888 95.1544 43.7494C95.1304 43.81 95.1187 43.8748 95.12 43.94L95.13 43.92ZM100.13 46.25C100.192 46.3107 100.269 46.3527 100.354 46.3713C100.438 46.3899 100.526 46.3842 100.608 46.355C100.689 46.3257 100.761 46.2741 100.814 46.206C100.868 46.1379 100.901 46.0561 100.91 45.97C100.91 45.37 100.16 45.14 99.49 45.14C98.2 45.14 97.34 46.21 97.34 47.72C97.34 49.23 98.25 49.88 99.22 49.88C100.19 49.88 100.99 49.32 100.99 48.61V48.39C100.836 48.6292 100.626 48.8278 100.379 48.9688C100.132 49.1098 99.8544 49.1891 99.57 49.2C98.64 49.2 98.2 48.29 98.2 47.42C98.2 46.55 98.63 45.65 99.35 45.65C99.9 45.65 100.13 45.92 100.18 46.25H100.13ZM104.07 48.79C103.951 48.9379 103.797 49.055 103.623 49.1316C103.449 49.2081 103.26 49.2419 103.07 49.23C102.98 49.2356 102.889 49.2223 102.804 49.1909C102.719 49.1595 102.642 49.1107 102.577 49.0476C102.512 48.9845 102.461 48.9086 102.427 48.8246C102.393 48.7406 102.377 48.6505 102.38 48.56C102.38 47.67 104.08 47.65 104.08 47.65V48.8L104.07 48.79ZM105.07 49.17C104.973 48.8459 104.929 48.5082 104.94 48.17V46.4C104.94 45.48 104.29 45.1 103.29 45.1C102.59 45.1 101.83 45.4 101.83 45.94C101.83 45.996 101.841 46.0515 101.863 46.1031C101.885 46.1547 101.916 46.2014 101.957 46.2406C101.997 46.2797 102.044 46.3105 102.096 46.331C102.148 46.3515 102.204 46.3613 102.26 46.36C102.377 46.3575 102.491 46.3229 102.59 46.26V46.17C102.591 46.0812 102.61 45.9935 102.646 45.912C102.681 45.8305 102.733 45.757 102.797 45.6955C102.861 45.6341 102.937 45.5861 103.02 45.5542C103.103 45.5224 103.191 45.5073 103.28 45.51C104.02 45.51 104.14 46.12 104.14 46.83V47.39C103.909 47.3422 103.675 47.3122 103.44 47.3C102.44 47.3 101.6 47.79 101.6 48.67C101.595 48.8319 101.625 48.9931 101.687 49.1427C101.749 49.2923 101.842 49.427 101.96 49.5377C102.079 49.6484 102.219 49.7326 102.373 49.7848C102.526 49.8369 102.689 49.8557 102.85 49.84C103.13 49.8353 103.403 49.7484 103.634 49.5902C103.865 49.432 104.044 49.2094 104.15 48.95C104.15 49.09 104.24 49.84 104.85 49.84C105.142 49.824 105.428 49.7492 105.69 49.62V49.46C105.569 49.4599 105.45 49.4297 105.343 49.3721C105.237 49.3145 105.146 49.2313 105.08 49.13L105.07 49.17ZM107.58 44.53H107.15C106.73 45.29 106.33 45.27 106.28 45.27V45.55C106.28 45.55 106.47 45.55 106.69 45.87C106.773 46.0899 106.807 46.3255 106.79 46.56C106.79 47.14 106.72 47.91 106.72 48.41C106.72 49.33 106.92 49.89 107.94 49.89C108.6 49.89 109.15 49.45 109.15 49.07C109.153 49.0398 109.151 49.0092 109.142 48.98C109.133 48.9508 109.119 48.9236 109.1 48.9C108.853 49.0698 108.559 49.1573 108.26 49.15C107.6 49.15 107.53 48.72 107.53 48.15V45.84H108.27C108.65 45.84 108.98 45.68 108.98 45.35V45.18C108.98 45.18 108.98 45.28 108.65 45.28H107.54L107.64 44.54L107.58 44.53ZM111.01 49.76C110.96 49.537 110.94 49.3083 110.95 49.08C110.95 47.01 111.01 45.93 111.01 45.93C111.01 45.5 111.01 45.16 110.55 45.16C110.258 45.1599 109.971 45.2394 109.72 45.39V45.53C109.72 45.53 110.22 45.53 110.17 46.64L110.1 49.71L111.01 49.76ZM110.01 43.92C110.008 44.0177 110.035 44.1138 110.088 44.1959C110.141 44.278 110.218 44.3424 110.308 44.3807C110.398 44.419 110.497 44.4296 110.593 44.411C110.689 44.3924 110.777 44.3455 110.846 44.2764C110.916 44.2073 110.962 44.1191 110.981 44.0231C111 43.9271 110.989 43.8278 110.951 43.7378C110.912 43.6479 110.848 43.5715 110.766 43.5184C110.684 43.4653 110.588 43.438 110.49 43.44C110.425 43.44 110.36 43.453 110.3 43.4782C110.24 43.5035 110.186 43.5405 110.14 43.587C110.094 43.6336 110.058 43.6888 110.034 43.7494C110.01 43.81 109.999 43.8748 110 43.94L110.01 43.92ZM112.22 47.6C112.198 47.2881 112.24 46.9751 112.344 46.68C112.447 46.3849 112.609 46.1139 112.821 45.8837C113.032 45.6535 113.288 45.4688 113.574 45.3409C113.859 45.2131 114.167 45.1447 114.48 45.14C115.48 45.14 116.41 45.87 116.41 47.42C116.428 47.7298 116.383 48.04 116.28 48.3325C116.176 48.6251 116.016 48.8941 115.807 49.1239C115.599 49.3538 115.347 49.5399 115.065 49.6714C114.784 49.8029 114.48 49.8772 114.17 49.89C112.27 49.89 112.22 47.75 112.22 47.58V47.6ZM113.13 47.22C113.13 48.46 113.67 49.43 114.42 49.43C115.01 49.43 115.51 48.74 115.51 47.72C115.51 46.51 114.9 45.6 114.15 45.6C113.4 45.6 113.15 46.53 113.15 47.22H113.13ZM121.46 49.76C121.362 48.5861 121.328 47.4076 121.36 46.23C121.355 45.9425 121.238 45.6683 121.035 45.4649C120.832 45.2616 120.557 45.1451 120.27 45.14C119.919 45.1445 119.575 45.2388 119.27 45.4138C118.965 45.5888 118.711 45.8388 118.53 46.14L118.58 45.89C118.58 45.46 118.58 45.12 118.11 45.12C117.82 45.1181 117.536 45.1978 117.29 45.35V45.53C117.29 45.53 117.78 45.53 117.77 46.64V49.71H118.69C118.632 49.4881 118.605 49.2593 118.61 49.03V46.43C118.762 46.2393 118.955 46.0853 119.175 45.9797C119.395 45.8741 119.636 45.8195 119.88 45.82C120.46 45.82 120.62 46.21 120.62 47.09V49.71L121.46 49.76ZM126 49.28C126.17 49.66 126.83 49.88 127.49 49.88C127.798 49.8627 128.099 49.7831 128.375 49.6461C128.651 49.5091 128.897 49.3175 129.097 49.0829C129.297 48.8482 129.447 48.5755 129.539 48.281C129.631 47.9866 129.662 47.6767 129.63 47.37C129.63 45.82 128.81 45.14 127.93 45.14C127.461 45.1529 127.015 45.3421 126.68 45.67C126.711 45.5219 126.727 45.3712 126.73 45.22L126.79 43.71C126.79 43.16 126.68 42.88 126.21 42.88C125.946 42.8809 125.688 42.961 125.47 43.11V43.28C125.74 43.28 125.9 43.59 125.9 44.1V47.15C125.826 47.861 125.859 48.5791 126 49.28ZM127.45 45.75C128.23 45.75 128.79 46.41 128.79 47.52C128.79 48.23 128.61 49.43 127.58 49.43C126.94 49.43 126.79 49.13 126.76 48.43C126.73 47.73 126.76 47.08 126.76 46.02C126.957 45.8435 127.206 45.7349 127.47 45.71L127.45 45.75ZM130.45 47.6C130.427 47.2886 130.467 46.9758 130.57 46.6807C130.672 46.3857 130.833 46.1146 131.044 45.8842C131.255 45.6538 131.51 45.469 131.795 45.341C132.08 45.213 132.388 45.1446 132.7 45.14C133.7 45.14 134.63 45.87 134.63 47.42C134.647 47.7298 134.603 48.04 134.5 48.3325C134.396 48.6251 134.236 48.8941 134.027 49.1239C133.819 49.3538 133.567 49.5399 133.285 49.6714C133.004 49.8029 132.7 49.8772 132.39 49.89C130.49 49.89 130.44 47.75 130.44 47.58L130.45 47.6ZM131.35 47.22C131.35 48.46 131.89 49.43 132.63 49.43C133.37 49.43 133.72 48.74 133.72 47.72C133.72 46.51 133.11 45.6 132.37 45.6C131.63 45.6 131.37 46.53 131.37 47.22H131.35ZM140.04 49.5C139.65 49.5 139.35 49.38 139.3 48.61V46C139.3 44.81 139.36 44.28 139.36 43.71C139.36 43.14 139.25 42.88 138.78 42.88C138.516 42.8809 138.258 42.961 138.04 43.11V43.28C138.31 43.28 138.47 43.59 138.47 44.1V45.26C138.212 45.1904 137.947 45.1502 137.68 45.14C137.367 45.1624 137.061 45.2476 136.782 45.3905C136.502 45.5335 136.254 45.7312 136.053 45.9719C135.851 46.2126 135.7 46.4915 135.609 46.7918C135.517 47.0921 135.487 47.4078 135.52 47.72C135.52 49.27 136.36 49.88 137.22 49.88C137.732 49.8421 138.212 49.6179 138.57 49.25C138.58 49.4242 138.658 49.5875 138.787 49.7051C138.916 49.8228 139.086 49.8855 139.26 49.88C139.548 49.8585 139.829 49.7839 140.09 49.66V49.5H140.04ZM137.67 49.28C136.89 49.28 136.35 48.69 136.35 47.57C136.35 46.86 136.51 45.65 137.55 45.65C137.857 45.6501 138.163 45.6905 138.46 45.77V48.99C138.252 49.1457 138 49.233 137.74 49.24L137.67 49.28ZM141.58 45.75C141.49 45.37 141.36 45.16 140.93 45.16C140.66 45.166 140.398 45.2455 140.17 45.39V45.53C140.17 45.53 140.72 45.67 141.03 46.69L141.86 49.25C141.902 49.3653 141.969 49.4695 142.058 49.5544C142.146 49.6394 142.253 49.7029 142.37 49.74L142.25 49.94L141.84 50.94C141.76 51.1154 141.625 51.26 141.455 51.3519C141.286 51.4439 141.091 51.4783 140.9 51.45C140.64 51.45 140.31 51.36 140.24 51.2V51.4C140.229 51.5029 140.241 51.6069 140.276 51.7046C140.31 51.8022 140.365 51.891 140.438 51.9647C140.511 52.0383 140.599 52.0949 140.696 52.1304C140.793 52.1659 140.897 52.1794 141 52.17C141.87 52.17 142.1 51.53 142.45 50.69L144.31 46.23C144.436 45.983 144.517 45.7155 144.55 45.44C144.555 45.3972 144.55 45.3538 144.536 45.3131C144.521 45.2725 144.498 45.2358 144.467 45.2057C144.436 45.1757 144.398 45.1533 144.357 45.1401C144.316 45.127 144.273 45.1236 144.23 45.13C143.99 45.1299 143.758 45.2109 143.57 45.36V45.53C143.627 45.5676 143.673 45.62 143.703 45.6816C143.733 45.7432 143.746 45.8118 143.74 45.88C143.726 46.0787 143.682 46.2742 143.61 46.46L142.88 48.36C142.809 48.5601 142.749 48.7637 142.7 48.97C142.604 48.7754 142.521 48.575 142.45 48.37C142.112 47.5067 141.821 46.6253 141.58 45.73V45.75ZM149.99 30.97C150.339 30.9645 150.684 31.0507 150.99 31.22C151.299 31.3792 151.551 31.6309 151.71 31.94C151.891 32.2419 151.984 32.5881 151.98 32.94C151.979 33.2913 151.886 33.6362 151.71 33.94C151.551 34.2435 151.303 34.4913 151 34.65C150.695 34.8228 150.35 34.9124 150 34.91C149.65 34.9124 149.305 34.8228 149 34.65C148.696 34.4913 148.449 34.2435 148.29 33.94C148.114 33.6362 148.021 33.2913 148.02 32.94C148.023 32.5891 148.116 32.2447 148.29 31.94C148.459 31.6431 148.708 31.4003 149.01 31.24C149.316 31.0707 149.661 30.9845 150.01 30.99L149.99 30.97ZM149.99 31.3C149.714 31.2974 149.442 31.3663 149.2 31.5C148.937 31.6329 148.723 31.8467 148.59 32.11C148.449 32.3532 148.373 32.6288 148.37 32.91C148.374 33.1942 148.45 33.4726 148.59 33.72C148.728 33.9706 148.932 34.1782 149.18 34.32C149.429 34.4545 149.707 34.5265 149.99 34.53C150.273 34.529 150.552 34.4568 150.8 34.32C151.048 34.1782 151.252 33.9706 151.39 33.72C151.535 33.4746 151.611 33.1948 151.61 32.91C151.61 32.622 151.534 32.3391 151.39 32.09C151.25 31.8369 151.038 31.6314 150.78 31.5C150.539 31.365 150.266 31.296 149.99 31.3ZM149.13 33.99V31.89H149.86C150.04 31.8791 150.219 31.9028 150.39 31.96C150.498 31.9925 150.591 32.0637 150.65 32.16C150.717 32.2493 150.752 32.3584 150.75 32.47C150.75 32.5446 150.735 32.6185 150.705 32.6872C150.676 32.7559 150.634 32.818 150.58 32.87C150.468 32.9813 150.318 33.0457 150.16 33.05C150.221 33.0733 150.276 33.1111 150.32 33.16C150.44 33.2884 150.55 33.4254 150.65 33.57L150.9 33.99H150.49L150.3 33.66C150.205 33.4769 150.083 33.3084 149.94 33.16C149.862 33.113 149.771 33.0919 149.68 33.1H149.48V33.99H149.13ZM149.46 32.82H149.89C150.031 32.8295 150.171 32.7946 150.29 32.72C150.352 32.6595 150.388 32.5769 150.39 32.49C150.403 32.4341 150.403 32.3759 150.39 32.32C150.348 32.2757 150.297 32.2415 150.24 32.22C150.135 32.1803 150.022 32.1633 149.91 32.17H149.53V32.82H149.46Z" fill="white"/>
</svg>
