<?xml version="1.0" encoding="utf-8"?>
<!-- Generator: Adobe Illustrator 27.3.1, SVG Export Plug-In . SVG Version: 6.00 Build 0)  -->
<svg version="1.1" xmlns="http://www.w3.org/2000/svg" xmlns:xlink="http://www.w3.org/1999/xlink" x="0px" y="0px"
	 viewBox="0 0 200 100" style="enable-background:new 0 0 200 100;" xml:space="preserve">
<style type="text/css">
	.st0{display:none;}
	.st1{display:inline;}
	.st2{fill:#080F27;}
	.st3{fill:#2A9B49;}
	.st4{fill:#ED1B25;}
	.st5{fill:#033572;}
	.st6{fill-rule:evenodd;clip-rule:evenodd;}
	.st7{fill:#FD393C;}
	.st8{fill:#FFFFFF;}
	.st9{fill:#FABB16;}
	.st10{fill:#5F5F5F;}
	.st11{fill:#0080FF;}
	.st12{fill-rule:evenodd;clip-rule:evenodd;fill:#0080FF;}
	.st13{fill:#E84E0F;}
	.st14{fill:#263238;}
	.st15{fill:#D4E157;}
	.st16{fill:url(#SVGID_1_);}
	.st17{fill:url(#SVGID_00000085969226033485485390000012587147662986531470_);}
	.st18{fill:url(#SVGID_00000078730305593523447500000005811058759056004744_);}
	.st19{fill:url(#SVGID_00000162321775110657496000000001989791825258161554_);}
	.st20{fill:url(#SVGID_00000020397908663017734000000006859778993735623055_);}
	.st21{fill:url(#SVGID_00000003827694203936907140000015184360279141692063_);}
	.st22{fill:url(#SVGID_00000134226523659225612480000015847989164642503848_);}
	.st23{fill:#E63351;}
	.st24{clip-path:url(#SVGID_00000067225249484775411970000016538384855524690096_);}
	.st25{clip-path:url(#SVGID_00000076579085678345829110000010866038406933664959_);}
	.st26{clip-path:url(#SVGID_00000012472494125147267120000003108892664392759460_);}
	.st27{clip-path:url(#SVGID_00000060747017228843628320000006436515943410391983_);}
	.st28{clip-path:url(#SVGID_00000026157670849092416960000018093929074972862111_);}
	.st29{clip-path:url(#SVGID_00000178884091901358322990000004366132484303877252_);}
	.st30{clip-path:url(#SVGID_00000024695269869408282440000006568123070595275660_);}
	.st31{clip-path:url(#SVGID_00000073700109933077928050000010518639333321492900_);}
	.st32{clip-path:url(#SVGID_00000104684817772599860600000015199417344922790826_);}
	.st33{clip-path:url(#SVGID_00000072986722720075813240000008362532918487879842_);}
	.st34{clip-path:url(#SVGID_00000077316106838502182980000002071154685080109216_);}
	.st35{clip-path:url(#SVGID_00000080173059548180465840000012081512460771068344_);}
	.st36{clip-path:url(#SVGID_00000138561955259565009120000002635132691382937217_);}
	.st37{clip-path:url(#SVGID_00000122687782518831192720000007651462146398722180_);}
	.st38{clip-path:url(#SVGID_00000081638174753460925900000016225683127165523623_);}
	.st39{clip-path:url(#SVGID_00000074418659279950637560000004240791864426688174_);}
	.st40{clip-path:url(#SVGID_00000033356808494804592830000011444521398505090199_);}
	.st41{clip-path:url(#SVGID_00000151522013292474047250000014263522643420993669_);}
	.st42{clip-path:url(#SVGID_00000145041164487148163170000000515473141262659739_);}
	.st43{clip-path:url(#SVGID_00000071560731723226113360000004872323122567062416_);}
	.st44{clip-path:url(#SVGID_00000023283041470298653830000007599667448851071876_);}
	.st45{clip-path:url(#SVGID_00000011031615418391674360000008548458474038073739_);}
	.st46{clip-path:url(#SVGID_00000116931837800348437470000015913241372103709076_);}
	.st47{clip-path:url(#SVGID_00000165224978811785308410000016920940050991960990_);}
	.st48{fill:#A03C56;}
	.st49{clip-path:url(#SVGID_00000163776832768204373500000013999358906652257414_);}
	.st50{clip-path:url(#SVGID_00000036212980681151399160000005080910885201008301_);}
	.st51{clip-path:url(#SVGID_00000020359356107582259490000006588380360228352648_);}
	.st52{clip-path:url(#SVGID_00000031186709578964998170000006970287820692721294_);}
	.st53{clip-path:url(#SVGID_00000061454103173082517700000016757063814512563610_);}
	.st54{clip-path:url(#SVGID_00000026875838674192894610000000203209389627917749_);}
	.st55{clip-path:url(#SVGID_00000183235018712565131990000009030828552498505405_);}
	.st56{clip-path:url(#SVGID_00000150099689609920905580000011351720434976093858_);}
	.st57{clip-path:url(#SVGID_00000051352273046299672850000001968500988874392988_);}
	.st58{clip-path:url(#SVGID_00000150103164118102778380000008024217635116395168_);}
	.st59{clip-path:url(#SVGID_00000016786639804114007970000011758013199699446430_);}
	.st60{clip-path:url(#SVGID_00000066483687540835062500000012663923175429134493_);}
	.st61{clip-path:url(#SVGID_00000085972846149212639020000006921106401462014908_);}
	.st62{clip-path:url(#SVGID_00000181786128457265958460000014714232580806106523_);}
	.st63{fill:none;}
	.st64{fill:#1388D6;}
	.st65{fill-rule:evenodd;clip-rule:evenodd;fill:#6EBE43;}
	.st66{fill-rule:evenodd;clip-rule:evenodd;fill:#1388D6;}
	.st67{fill:#62B536;}
	.st68{fill:#848688;}
	.st69{fill-rule:evenodd;clip-rule:evenodd;fill:url(#SVGID_00000137106604397310193810000015481398301019626371_);}
	.st70{fill-rule:evenodd;clip-rule:evenodd;fill:url(#SVGID_00000109729463992629543150000001450670607281765257_);}
	.st71{fill-rule:evenodd;clip-rule:evenodd;fill:#FFFFFF;}
	.st72{fill-rule:evenodd;clip-rule:evenodd;fill:url(#SVGID_00000133489912847883414050000014926046551062323609_);}
	.st73{fill-rule:evenodd;clip-rule:evenodd;fill:url(#SVGID_00000057141263813448532500000010152424839378599849_);}
	.st74{fill:url(#SVGID_00000165921440376546601080000009133011900082524841_);}
	.st75{fill:url(#SVGID_00000126310369837958563040000016021120789093114015_);}
	.st76{fill:url(#SVGID_00000132770658773884186830000006058160882186097032_);}
	.st77{fill:url(#SVGID_00000060737459114731916640000001254564495178556841_);}
	.st78{fill:url(#SVGID_00000088812833655669617140000014099853192745168026_);}
	.st79{fill:url(#SVGID_00000011740674738601397800000017691874436011634063_);}
	.st80{fill:url(#SVGID_00000103951548516521998510000010682836887194319774_);}
	.st81{clip-path:url(#SVGID_00000017512729398459409210000013001959672512417158_);}
	.st82{clip-path:url(#SVGID_00000025429877617449581080000006505552444825587105_);}
	.st83{clip-path:url(#SVGID_00000118356547147961586810000016670646097248550290_);}
	.st84{clip-path:url(#SVGID_00000015334287251995408670000005238393404256580263_);}
	.st85{clip-path:url(#SVGID_00000173140720086939722020000012972816588536382629_);}
	.st86{clip-path:url(#SVGID_00000114068971418598929440000015053463100151654579_);}
	.st87{clip-path:url(#SVGID_00000132046498240299847650000003829191400720271748_);}
	.st88{clip-path:url(#SVGID_00000036222369877234194610000006660848422167749265_);}
	.st89{clip-path:url(#SVGID_00000083069469551417377560000008732613950084848800_);}
	.st90{clip-path:url(#SVGID_00000155867485407741473640000004020491151350685853_);}
	.st91{clip-path:url(#SVGID_00000018210225484633558580000009146154993426278823_);}
	.st92{clip-path:url(#SVGID_00000132071592390783585700000013192715087888799903_);}
	.st93{clip-path:url(#SVGID_00000132797871238670210730000000645613921751276678_);}
	.st94{clip-path:url(#SVGID_00000179645809587836414110000012115861464414077629_);}
	.st95{clip-path:url(#SVGID_00000015354098959680940840000010618723721866021818_);}
	.st96{clip-path:url(#SVGID_00000051346604282657109300000004499774117110645902_);}
	.st97{clip-path:url(#SVGID_00000076589623979921592070000016850063637803594122_);}
	.st98{clip-path:url(#SVGID_00000139999156375983966930000006286982445499415687_);}
	.st99{clip-path:url(#SVGID_00000150796938709269816470000001872004006013238420_);}
	.st100{clip-path:url(#SVGID_00000165954985465580587010000000642714319092447104_);}
	.st101{clip-path:url(#SVGID_00000127030135702648184660000001023394106403471765_);}
	.st102{clip-path:url(#SVGID_00000092422178447458297590000017644598130283329687_);}
	.st103{clip-path:url(#SVGID_00000125571017824795353230000008347881059884163722_);}
	.st104{clip-path:url(#SVGID_00000065784727518721563960000011197676262825416590_);}
	.st105{clip-path:url(#SVGID_00000078759721747863022230000007437927541548136353_);}
	.st106{clip-path:url(#SVGID_00000126307699604043629280000013247074378181813920_);}
	.st107{clip-path:url(#SVGID_00000106860866754473776190000001468778517428065162_);}
	.st108{clip-path:url(#SVGID_00000058550851167270419160000001406266931395416467_);}
	.st109{clip-path:url(#SVGID_00000181795392425951538070000004336644497384996283_);}
	.st110{clip-path:url(#SVGID_00000165925829177563936470000011279086940904441221_);}
	.st111{clip-path:url(#SVGID_00000056386940991095426400000007316119830620808071_);}
	.st112{clip-path:url(#SVGID_00000078740385750903434850000013814079952688405150_);}
	.st113{clip-path:url(#SVGID_00000169556743714576415920000005782623094017673639_);}
	.st114{clip-path:url(#SVGID_00000051376189042396096000000000993553456623414176_);}
	.st115{clip-path:url(#SVGID_00000142878622571195930180000001873926171230383533_);}
	.st116{clip-path:url(#SVGID_00000102511583118649521660000010031451094273199288_);}
	.st117{clip-path:url(#SVGID_00000096043671454084305610000014129221924837756842_);}
	.st118{clip-path:url(#SVGID_00000183931081796779266880000014850008199808652942_);}
</style>
<g id="Background" class="st0">
	<rect class="st1" width="200" height="100"/>
</g>
<g id="Logos">
	<g>
		<path class="st8" d="M57,54.83H44.61c0.06,1.34,0.41,2.31,1.02,2.9c0.62,0.59,1.41,0.88,2.37,0.88c0.81,0,1.48-0.2,2.02-0.61
			c0.52-0.39,0.89-0.94,1.06-1.57h5.8c-0.22,1.24-0.75,2.4-1.54,3.38c-0.81,1-1.84,1.81-3.01,2.34c-1.28,0.58-2.66,0.87-4.07,0.85
			c-1.75,0-3.3-0.37-4.66-1.1c-1.35-0.73-2.46-1.84-3.19-3.19c-0.77-1.39-1.15-3.01-1.15-4.87c0-1.88,0.38-3.51,1.14-4.88
			c0.73-1.35,1.84-2.45,3.19-3.17c1.37-0.74,2.92-1.1,4.68-1.1c1.77,0,3.33,0.36,4.67,1.09c1.31,0.7,2.4,1.76,3.12,3.06
			c0.74,1.31,1.1,2.82,1.1,4.53C57.16,53.86,57.1,54.35,57,54.83z M50.68,49.89c-0.66-0.59-1.53-0.91-2.42-0.88
			c-1,0-1.84,0.3-2.5,0.9c-0.66,0.6-1.04,1.47-1.12,2.63h6.98C51.64,51.36,51.33,50.47,50.68,49.89z"/>
		<path class="st8" d="M75.11,45.79c1.16,0.74,2.08,1.79,2.75,3.17c0.67,1.38,1.01,3,1.01,4.88c0,1.86-0.34,3.48-1.01,4.87
			c-0.67,1.39-1.59,2.45-2.75,3.19c-1.18,0.74-2.56,1.13-3.95,1.1c-1.37,0-2.54-0.31-3.52-0.93c-0.96-0.6-1.71-1.48-2.15-2.53v3.23
			h-5.47V39.08h5.47v9.06c0.43-1.05,1.18-1.93,2.15-2.53c0.98-0.62,2.16-0.93,3.52-0.93C72.55,44.66,73.92,45.05,75.11,45.79z
			 M66.56,50.66c-0.74,0.78-1.11,1.84-1.11,3.19c0,1.32,0.37,2.38,1.11,3.17c0.74,0.79,1.68,1.18,2.83,1.18
			c1.17,0,2.12-0.38,2.83-1.15c0.71-0.77,1.07-1.84,1.07-3.2c0-1.37-0.36-2.43-1.07-3.2c-0.72-0.77-1.66-1.15-2.83-1.15
			C68.24,49.49,67.3,49.88,66.56,50.66L66.56,50.66z"/>
		<path class="st8" d="M89.84,45.68c1.06-0.64,2.27-0.97,3.51-0.96v5.86h-1.57c-1.45,0-2.58,0.31-3.38,0.93
			c-0.8,0.62-1.2,1.67-1.2,3.14v8.13h-5.47V44.91h5.47v3.36C87.85,47.21,88.76,46.32,89.84,45.68z"/>
		<path class="st8" d="M96.03,37.82c0.6-0.54,1.39-0.82,2.37-0.82c0.98,0,1.77,0.27,2.37,0.82c0.59,0.52,0.92,1.28,0.9,2.06
			c0.02,0.78-0.31,1.52-0.9,2.03c-0.6,0.54-1.39,0.82-2.37,0.82c-0.98,0-1.77-0.27-2.37-0.82c-0.58-0.51-0.91-1.26-0.9-2.03
			C95.12,39.09,95.44,38.34,96.03,37.82z M101.12,44.91v17.87h-5.47V44.91H101.12z"/>
		<path class="st8" d="M118.76,46.59c1.56,1.27,2.54,3.02,2.95,5.24h-5.8c-0.13-0.7-0.51-1.34-1.06-1.79
			c-0.53-0.43-1.21-0.64-2.02-0.64c-0.93-0.02-1.8,0.4-2.37,1.14c-0.62,0.76-0.93,1.86-0.93,3.31c0,1.45,0.31,2.56,0.93,3.31
			c0.57,0.73,1.44,1.15,2.37,1.14c0.81,0,1.48-0.21,2.02-0.64c0.55-0.46,0.93-1.09,1.06-1.79h5.8c-0.41,2.22-1.39,3.97-2.95,5.24
			c-1.56,1.27-3.49,1.91-5.8,1.91c-1.75,0-3.3-0.37-4.66-1.1c-1.35-0.73-2.46-1.84-3.19-3.19c-0.77-1.39-1.15-3.01-1.15-4.87
			c0-1.88,0.38-3.51,1.14-4.88c0.73-1.35,1.84-2.45,3.19-3.17c1.37-0.74,2.92-1.1,4.68-1.1C115.27,44.68,117.21,45.32,118.76,46.59z
			"/>
		<path class="st8" d="M135.38,62.78l-5.35-7.59v7.59h-5.47V39.08h5.47v13l5.35-7.17h6.44l-7.2,8.93l7.36,8.93L135.38,62.78z"/>
		<path class="st8" d="M160.77,54.83h-12.39c0.06,1.34,0.41,2.31,1.02,2.9c0.62,0.59,1.41,0.88,2.37,0.88c0.81,0,1.48-0.2,2.02-0.61
			c0.52-0.39,0.89-0.94,1.06-1.57h5.8c-0.22,1.24-0.75,2.4-1.54,3.38c-0.81,1-1.84,1.81-3.01,2.34c-1.28,0.58-2.66,0.87-4.07,0.85
			c-1.75,0-3.3-0.37-4.66-1.1c-1.35-0.73-2.46-1.84-3.19-3.19c-0.77-1.39-1.15-3.01-1.15-4.87c0-1.88,0.38-3.51,1.14-4.88
			c0.73-1.35,1.84-2.45,3.19-3.17c1.37-0.74,2.92-1.1,4.68-1.1c1.77,0,3.33,0.36,4.67,1.09c1.31,0.7,2.4,1.76,3.12,3.06
			c0.74,1.31,1.1,2.82,1.1,4.53C160.93,53.86,160.87,54.35,160.77,54.83z M154.45,49.89c-0.66-0.59-1.53-0.91-2.42-0.88
			c-1,0-1.84,0.3-2.5,0.9c-0.66,0.6-1.04,1.47-1.12,2.63h6.98C155.41,51.36,155.1,50.47,154.45,49.89z"/>
		<path class="st8" d="M36.39,48.34c0,0,0,0.4,0,0.5c0.01,1.92-1.54,3.48-3.46,3.49c-0.01,0-0.02,0-0.02,0
			c-1.04,0-1.96-0.36-2.68-1.28c-0.71-0.9-1.58-1.57-3.22-1.57c-1.75,0-3.94,1.13-3.94,4.31c0,3.05,1.98,4.41,3.94,4.41
			c1.89,0,2.66-1.02,3.17-1.6c0.88-1.01,1.78-1.31,2.87-1.31c1.32,0,3.33,1.15,3.35,3.49c0.02,2.7,0.01,4,0.01,4h-5.5l0.01-3.23
			c0,0-1.17,3.58-6.04,3.45c-3.68-0.1-7.35-3.09-7.36-9.16c0-5.89,3.43-9.03,7.37-9.16c3.53-0.11,5.28,1.7,6.03,3.45l-0.01-9.07h5.5
			L36.39,48.34z"/>
		<path class="st8" d="M182.47,48.34c0,0,0,0.4,0,0.5c0.01,1.92-1.54,3.48-3.46,3.49c-0.01,0-0.02,0-0.02,0
			c-1.04,0-1.96-0.36-2.68-1.28c-0.71-0.9-1.58-1.57-3.22-1.57c-1.75,0-3.94,1.13-3.94,4.31c0,3.05,1.98,4.41,3.94,4.41
			c1.89,0,2.66-1.02,3.17-1.6c0.88-1.01,1.78-1.31,2.87-1.31c1.32,0,3.33,1.15,3.35,3.49c0.02,2.7,0.01,4,0.01,4h-5.5l0.01-3.23
			c0,0-1.17,3.58-6.04,3.45c-3.68-0.1-7.35-3.09-7.36-9.16c0-5.89,3.43-9.03,7.37-9.16c3.53-0.11,5.28,1.7,6.03,3.45l-0.01-9.07h5.5
			L182.47,48.34z"/>
	</g>
</g>
</svg>
