<?xml version="1.0" encoding="utf-8"?>
<!-- Generator: Adobe Illustrator 27.3.1, SVG Export Plug-In . SVG Version: 6.00 Build 0)  -->
<svg version="1.1" xmlns="http://www.w3.org/2000/svg" xmlns:xlink="http://www.w3.org/1999/xlink" x="0px" y="0px"
	 viewBox="0 0 200 100" style="enable-background:new 0 0 200 100;" xml:space="preserve">
<style type="text/css">
	.st0{display:none;}
	.st1{display:inline;}
	.st2{fill:#080F27;}
	.st3{fill:#2A9B49;}
	.st4{fill:#ED1B25;}
	.st5{fill:#033572;}
	.st6{fill-rule:evenodd;clip-rule:evenodd;}
	.st7{fill:#FD393C;}
	.st8{fill:#FFFFFF;}
	.st9{fill:#FABB16;}
	.st10{fill:#5F5F5F;}
	.st11{fill:#0080FF;}
	.st12{fill-rule:evenodd;clip-rule:evenodd;fill:#0080FF;}
	.st13{fill:#E84E0F;}
	.st14{fill:#263238;}
	.st15{fill:#D4E157;}
	.st16{fill:url(#SVGID_1_);}
	.st17{fill:url(#SVGID_00000023253883902277185130000007839468158877136307_);}
	.st18{fill:url(#SVGID_00000074411315383603481900000008180031314725097351_);}
	.st19{fill:url(#SVGID_00000183961036283800344140000014330469936784484542_);}
	.st20{fill:url(#SVGID_00000029034712118403050520000011733015734580134831_);}
	.st21{fill:url(#SVGID_00000130618095210342383930000009579095964636643229_);}
	.st22{fill:url(#SVGID_00000098193270900250211560000006068771208828268200_);}
	.st23{fill:#E63351;}
	.st24{clip-path:url(#SVGID_00000019675102494838004040000005649099141024323495_);}
	.st25{clip-path:url(#SVGID_00000138567085757290795590000017597384716939668366_);}
	.st26{clip-path:url(#SVGID_00000145053755639142699730000013278468534184055204_);}
	.st27{clip-path:url(#SVGID_00000110471505230018725880000016119698911420917891_);}
	.st28{clip-path:url(#SVGID_00000173861657927562953120000005882922468476868782_);}
	.st29{clip-path:url(#SVGID_00000140704611281391332800000011125450176702770566_);}
	.st30{clip-path:url(#SVGID_00000016064565602491408070000015100259051458869640_);}
	.st31{clip-path:url(#SVGID_00000029044262057827003760000006881237099792419202_);}
	.st32{clip-path:url(#SVGID_00000059308717714335323110000008424168513259284670_);}
	.st33{clip-path:url(#SVGID_00000052790451646314559560000011003912639205669033_);}
	.st34{clip-path:url(#SVGID_00000125587613973261738490000009784567568984008890_);}
	.st35{clip-path:url(#SVGID_00000034065300485951904210000011790284541877145501_);}
	.st36{clip-path:url(#SVGID_00000102523749426579487880000015367837386102835587_);}
	.st37{clip-path:url(#SVGID_00000167395474184631273340000013998867285712113034_);}
	.st38{clip-path:url(#SVGID_00000160173106362829350910000015692429143844676231_);}
	.st39{clip-path:url(#SVGID_00000035524292373120314720000002434168556445890727_);}
	.st40{clip-path:url(#SVGID_00000142151601904083507510000006509986591378166680_);}
	.st41{clip-path:url(#SVGID_00000036930937691778621270000005308706390279337641_);}
	.st42{clip-path:url(#SVGID_00000072963138560465979450000016859525014732331679_);}
	.st43{clip-path:url(#SVGID_00000084499931656183788220000008637693604501319326_);}
	.st44{clip-path:url(#SVGID_00000181775967774463945370000017099136507548707988_);}
	.st45{clip-path:url(#SVGID_00000158013594825597627540000011142784217716050320_);}
	.st46{clip-path:url(#SVGID_00000117642169429057383580000005595413135238936496_);}
	.st47{clip-path:url(#SVGID_00000037668001501368552250000011933651594435889558_);}
	.st48{fill:#A03C56;}
	.st49{clip-path:url(#SVGID_00000118388392514945485990000016912255351796583822_);}
	.st50{clip-path:url(#SVGID_00000005240206116433206300000010143112422351464859_);}
	.st51{clip-path:url(#SVGID_00000005964624152518878040000014379757217946881190_);}
	.st52{clip-path:url(#SVGID_00000161621859752919472180000007183065753394173578_);}
	.st53{clip-path:url(#SVGID_00000044136973711009891510000017058616434689531808_);}
	.st54{clip-path:url(#SVGID_00000049196792887014375380000009847041851366060433_);}
	.st55{clip-path:url(#SVGID_00000039847453943450058170000002293070530775771541_);}
	.st56{clip-path:url(#SVGID_00000154403118712159963080000008879580307965218452_);}
	.st57{clip-path:url(#SVGID_00000045577523963437252890000001023650132617898167_);}
	.st58{clip-path:url(#SVGID_00000044880021112996564940000005777205636492003207_);}
	.st59{clip-path:url(#SVGID_00000102526180630020724670000007577902546855365252_);}
	.st60{clip-path:url(#SVGID_00000139982630475273336330000003863879764528520086_);}
	.st61{clip-path:url(#SVGID_00000131340677125650365620000011378034742557589936_);}
	.st62{clip-path:url(#SVGID_00000042734841087188699040000000731011523022839962_);}
	.st63{fill:none;}
	.st64{fill:#1388D6;}
	.st65{fill-rule:evenodd;clip-rule:evenodd;fill:#6EBE43;}
	.st66{fill-rule:evenodd;clip-rule:evenodd;fill:#1388D6;}
	.st67{fill:#62B536;}
	.st68{fill:#848688;}
	.st69{fill-rule:evenodd;clip-rule:evenodd;fill:url(#SVGID_00000146485114846441795660000012000619876348671931_);}
	.st70{fill-rule:evenodd;clip-rule:evenodd;fill:url(#SVGID_00000171678322966424332300000008073994114287659700_);}
	.st71{fill-rule:evenodd;clip-rule:evenodd;fill:#FFFFFF;}
	.st72{fill-rule:evenodd;clip-rule:evenodd;fill:url(#SVGID_00000085226015382054053030000007659689771132195775_);}
	.st73{fill-rule:evenodd;clip-rule:evenodd;fill:url(#SVGID_00000160186393503409884560000017819322921649620654_);}
	.st74{fill:url(#SVGID_00000044155685618234006180000008395645419976632965_);}
	.st75{fill:url(#SVGID_00000084512739637555624520000001385585742150264709_);}
	.st76{fill:url(#SVGID_00000133505651510524056290000015713407694375179177_);}
	.st77{fill:url(#SVGID_00000070082980845952352890000010596031546276193706_);}
	.st78{fill:url(#SVGID_00000099646428945862994310000011037920413411906494_);}
	.st79{fill:url(#SVGID_00000066509388796273446600000011709678571007036289_);}
	.st80{fill:url(#SVGID_00000154394814980627450380000006385935333498526881_);}
	.st81{clip-path:url(#SVGID_00000012470295521122376400000012794017238976086186_);}
	.st82{clip-path:url(#SVGID_00000023271725684823659650000008882772836596307080_);}
	.st83{clip-path:url(#SVGID_00000096757356861519093930000000578357762260455847_);}
	.st84{clip-path:url(#SVGID_00000026147085234999678430000012697429841589862538_);}
	.st85{clip-path:url(#SVGID_00000018951655048121076670000005108738589767737018_);}
	.st86{clip-path:url(#SVGID_00000065032795060134026180000014889680914063185556_);}
	.st87{clip-path:url(#SVGID_00000043430386980700858440000017258361439051248777_);}
	.st88{clip-path:url(#SVGID_00000018939758358865933910000013135051101127047094_);}
	.st89{clip-path:url(#SVGID_00000133518476494957470920000008206475022401606571_);}
	.st90{clip-path:url(#SVGID_00000170240151306178345420000008179372713009919131_);}
	.st91{clip-path:url(#SVGID_00000026129761405906750700000001754481379863750845_);}
	.st92{clip-path:url(#SVGID_00000109726569228729244510000013538049339282855044_);}
	.st93{clip-path:url(#SVGID_00000002362210622732899500000005711776902388317349_);}
	.st94{clip-path:url(#SVGID_00000018197445107422791390000011588047971609844608_);}
	.st95{clip-path:url(#SVGID_00000129905658915891335710000016735116580115669901_);}
	.st96{clip-path:url(#SVGID_00000028320034296169768820000007298247350804112826_);}
	.st97{clip-path:url(#SVGID_00000051343439264714241880000013616427587072179592_);}
	.st98{clip-path:url(#SVGID_00000162326315743812335950000009993760192342683822_);}
	.st99{clip-path:url(#SVGID_00000009570561192647925510000011135485673806261907_);}
	.st100{clip-path:url(#SVGID_00000052103600265823933680000001090077888276525705_);}
	.st101{clip-path:url(#SVGID_00000133486743219322134300000009607176955833459868_);}
	.st102{clip-path:url(#SVGID_00000019643500003980511610000010512399807415786371_);}
	.st103{clip-path:url(#SVGID_00000141441521724911503100000001778894819006525856_);}
	.st104{clip-path:url(#SVGID_00000030464627215107250690000001830142213567250875_);}
	.st105{clip-path:url(#SVGID_00000021110995935212442990000015822827540529760923_);}
	.st106{clip-path:url(#SVGID_00000063607359604530735970000012680352346552744101_);}
	.st107{clip-path:url(#SVGID_00000130644480115838242870000008267694408203479473_);}
	.st108{clip-path:url(#SVGID_00000003797008483288968930000015827689223907785380_);}
	.st109{clip-path:url(#SVGID_00000120523788041906942350000017638111814198429113_);}
	.st110{clip-path:url(#SVGID_00000020360333305245463900000006739085143317522868_);}
	.st111{clip-path:url(#SVGID_00000031199897843009772010000009593845501357942426_);}
	.st112{clip-path:url(#SVGID_00000093888416030817990120000005615545477808552637_);}
	.st113{clip-path:url(#SVGID_00000049191833485755427730000001768429940153256578_);}
	.st114{clip-path:url(#SVGID_00000158026431630441055340000010127040028707150468_);}
	.st115{clip-path:url(#SVGID_00000031891306980973869230000006322777658720829859_);}
	.st116{clip-path:url(#SVGID_00000093176650941561051160000006066173575453971590_);}
	.st117{clip-path:url(#SVGID_00000078040131735929106410000004437519803863264905_);}
	.st118{clip-path:url(#SVGID_00000165918000148858891130000008380876559131743662_);}
</style>
<g id="Background" class="st0">
	<rect class="st1" width="200" height="100"/>
</g>
<g id="Logos">
	<g id="XMLID_00000031187512824116049480000001471720055332499646_">
		<g id="XMLID_00000007411489324625946060000011780911906244776851_">
			<g id="XMLID_00000119820318918007719570000000299712985514241409_">
				<g>
					<g id="XMLID_00000065075559212733099340000007497887187353543080_">
						<g id="XMLID_00000080166087380024681810000011223357529981467823_">
							<path id="XMLID_00000110469445420496534110000010296550425263347107_" class="st11" d="M30.99,64v-5.42
								c5.76,0,10.18-5.7,8-11.73c-0.83-2.24-2.6-4.04-4.84-4.84c-6.03-2.19-11.73,2.24-11.73,8l0,0h-5.42
								c0-9.16,8.85-16.3,18.46-13.31c4.21,1.3,7.53,4.65,8.83,8.83C47.26,55.15,40.15,64,30.99,64z"/>
						</g>
						<polygon id="XMLID_00000139293747732195588190000005006596018068767111_" class="st12" points="30.99,58.58 25.6,58.58 
							25.6,53.18 25.6,53.18 30.99,53.18 30.99,53.18 						"/>
						<polygon id="XMLID_00000148630475223249559220000001441126782720833190_" class="st12" points="25.6,62.73 21.45,62.73 
							21.45,62.73 21.45,58.58 25.6,58.58 						"/>
						<polygon id="XMLID_00000132086736481044896120000009171516627435040180_" class="st12" points="21.45,58.58 17.96,58.58 
							17.96,58.58 17.96,55.12 17.96,55.12 21.45,55.12 21.45,55.12 						"/>
					</g>
				</g>
			</g>
		</g>
		<g id="XMLID_00000134209823357959376720000008140559830206698384_">
			<path id="XMLID_00000042707253396063065010000011222524741879937671_" class="st11" d="M66.8,44.11c-1.6-1.11-3.6-1.69-5.92-1.69
				h-5.06v16.08h5.06c2.32,0,4.32-0.58,5.92-1.77c0.89-0.61,1.58-1.49,2.05-2.57c0.47-1.08,0.72-2.35,0.72-3.79
				c0-1.41-0.25-2.68-0.72-3.76C68.37,45.54,67.68,44.69,66.8,44.11z M58.77,45.16h1.6c1.77,0,3.24,0.36,4.34,1.02
				c1.22,0.75,1.85,2.16,1.85,4.18c0,2.1-0.64,3.57-1.85,4.37l0,0c-1.05,0.69-2.52,1.05-4.32,1.05h-1.6V45.16H58.77z"/>
			<path id="XMLID_00000005262466268846522320000009178994923350093740_" class="st11" d="M73.11,42.22c-0.5,0-0.91,0.17-1.25,0.5
				c-0.33,0.33-0.53,0.75-0.53,1.22c0,0.5,0.17,0.91,0.53,1.25c0.33,0.33,0.75,0.53,1.25,0.53s0.91-0.17,1.25-0.53
				c0.33-0.33,0.53-0.77,0.53-1.25c0-0.5-0.17-0.91-0.53-1.22C74.02,42.39,73.58,42.22,73.11,42.22z"/>
			
				<rect id="XMLID_00000007391851225233075010000011067637856471751562_" x="71.64" y="47.18" class="st11" width="2.85" height="11.34"/>
			<path id="XMLID_00000041974753036401071250000010444988153195667113_" class="st11" d="M84.86,48.12
				c-0.86-0.77-1.83-1.22-2.85-1.22c-1.58,0-2.88,0.55-3.9,1.6s-1.52,2.43-1.52,4.07c0,1.6,0.5,2.96,1.52,4.07
				c1.02,1.05,2.32,1.6,3.9,1.6c1.11,0,2.05-0.3,2.82-0.91v0.28c0,0.94-0.25,1.66-0.75,2.19c-0.5,0.5-1.19,0.75-2.05,0.75
				c-1.33,0-2.13-0.53-3.15-1.88l-1.94,1.85l0.06,0.08c0.42,0.58,1.05,1.16,1.91,1.72c0.86,0.55,1.91,0.83,3.18,0.83
				c1.69,0,3.07-0.53,4.07-1.55c1.02-1.02,1.52-2.41,1.52-4.12V47.18h-2.79v0.94H84.86z M84.12,54.81c-0.5,0.55-1.13,0.83-1.96,0.83
				c-0.83,0-1.47-0.28-1.94-0.83c-0.5-0.55-0.75-1.3-0.75-2.21c0-0.91,0.25-1.69,0.75-2.24s1.13-0.86,1.94-0.86
				c0.83,0,1.47,0.28,1.96,0.86c0.5,0.55,0.75,1.33,0.75,2.24C84.86,53.51,84.59,54.26,84.12,54.81z"/>
			
				<rect id="XMLID_00000100361127605597889450000006490023170354543762_" x="90.09" y="47.18" class="st11" width="2.85" height="11.34"/>
			<path id="XMLID_00000137109716674788421630000016068097688058653626_" class="st11" d="M91.56,42.22c-0.5,0-0.91,0.17-1.25,0.5
				c-0.33,0.33-0.53,0.75-0.53,1.22c0,0.5,0.17,0.91,0.53,1.25c0.33,0.33,0.75,0.53,1.25,0.53c0.5,0,0.91-0.17,1.25-0.53
				c0.33-0.33,0.53-0.77,0.53-1.25c0-0.5-0.17-0.91-0.53-1.22C92.47,42.39,92.03,42.22,91.56,42.22z"/>
			<path id="XMLID_00000130612287906374614740000015415496883977129636_" class="st11" d="M99.2,44.13H96.4v3.07h-1.63v2.6h1.63v4.7
				c0,1.47,0.3,2.52,0.89,3.13c0.58,0.61,1.6,0.91,3.07,0.91c0.47,0,0.94-0.03,1.38-0.06h0.14v-2.6l-0.97,0.06
				c-0.69,0-1.13-0.11-1.36-0.36c-0.22-0.25-0.33-0.75-0.33-1.49v-4.32h2.66v-2.6h-2.66v-3.04H99.2z"/>
			
				<rect id="XMLID_00000057106181422519877550000006791792577697162154_" x="115.22" y="42.42" class="st11" width="2.85" height="16.08"/>
			<path id="XMLID_00000017489647803989015850000004876132746040779941_" class="st11" d="M146.87,54.45
				c-0.5,0.58-1.02,1.08-1.44,1.33l0,0c-0.39,0.25-0.89,0.39-1.47,0.39c-0.83,0-1.52-0.3-2.08-0.94c-0.55-0.64-0.83-1.44-0.83-2.41
				s0.28-1.77,0.8-2.38c0.55-0.64,1.22-0.94,2.05-0.94c0.91,0,1.88,0.58,2.71,1.55l1.88-1.8l0,0c-1.22-1.6-2.79-2.35-4.68-2.35
				c-1.58,0-2.93,0.58-4.04,1.69c-1.11,1.11-1.66,2.55-1.66,4.23s0.55,3.1,1.66,4.23c1.11,1.13,2.46,1.69,4.04,1.69
				c2.08,0,3.74-0.89,4.84-2.52L146.87,54.45z"/>
			<path id="XMLID_00000018958068857500748940000016101698583581254074_" class="st11" d="M158.58,48.75
				c-0.42-0.55-0.97-1.02-1.63-1.36c-0.69-0.33-1.47-0.5-2.35-0.5c-1.6,0-2.91,0.58-3.87,1.74c-0.94,1.16-1.44,2.57-1.44,4.26
				c0,1.72,0.53,3.13,1.58,4.23c1.02,1.08,2.43,1.63,4.12,1.63c1.91,0,3.51-0.77,4.68-2.32l0.06-0.08l-1.85-1.8l0,0
				c-0.17,0.22-0.42,0.44-0.64,0.66c-0.28,0.28-0.55,0.47-0.83,0.61c-0.42,0.22-0.91,0.3-1.44,0.3c-0.8,0-1.44-0.22-1.94-0.69
				c-0.47-0.42-0.75-1-0.8-1.72h7.55l0.03-1.05c0-0.75-0.11-1.44-0.3-2.1C159.3,49.94,158.99,49.34,158.58,48.75z M152.35,51.44
				c0.14-0.55,0.39-1,0.75-1.36c0.39-0.39,0.89-0.58,1.49-0.58c0.69,0,1.22,0.19,1.58,0.58c0.33,0.36,0.53,0.8,0.58,1.33h-4.4V51.44
				z"/>
			<path id="XMLID_00000000186120059695700950000002417693149232249768_" class="st11" d="M169.53,48.03L169.53,48.03
				c-0.86-0.75-2.05-1.11-3.54-1.11c-0.94,0-1.83,0.22-2.63,0.61c-0.75,0.39-1.47,1-1.94,1.83l0.03,0.03l1.83,1.74
				c0.75-1.19,1.58-1.6,2.68-1.6c0.61,0,1.08,0.17,1.47,0.47c0.39,0.3,0.55,0.72,0.55,1.22v0.55c-0.72-0.22-1.41-0.33-2.1-0.33
				c-1.41,0-2.57,0.33-3.43,1c-0.86,0.66-1.3,1.63-1.3,2.82c0,1.05,0.36,1.94,1.11,2.57c0.75,0.61,1.66,0.94,2.74,0.94
				c1.08,0,2.1-0.44,3.02-1.19v0.94h2.79v-7.3C170.86,49.86,170.42,48.78,169.53,48.03z M164.47,54.18
				c0.33-0.22,0.77-0.33,1.36-0.33c0.69,0,1.41,0.14,2.16,0.42v1.11c-0.61,0.58-1.44,0.86-2.46,0.86c-0.5,0-0.89-0.11-1.13-0.33
				c-0.25-0.22-0.39-0.47-0.39-0.83S164.17,54.4,164.47,54.18z"/>
			<path id="XMLID_00000100372660290606596310000006508665571311846563_" class="st11" d="M181.82,48.26
				c-0.8-0.89-1.91-1.33-3.32-1.33c-1.13,0-2.05,0.33-2.74,0.97V47.2h-2.79v11.34h2.85v-6.28c0-0.86,0.19-1.55,0.61-2.02
				c0.42-0.5,0.94-0.72,1.69-0.72c0.64,0,1.13,0.22,1.49,0.64c0.36,0.44,0.55,1.02,0.55,1.77v6.56h2.85v-6.56
				C183.01,50.39,182.62,49.14,181.82,48.26z"/>
			<path id="XMLID_00000122714174266778494900000005362662576603370919_" class="st11" d="M111.65,48.03L111.65,48.03
				c-0.86-0.75-2.05-1.11-3.54-1.11c-0.94,0-1.83,0.22-2.63,0.61c-0.75,0.39-1.47,1-1.94,1.83l0.03,0.03l1.83,1.74
				c0.75-1.19,1.58-1.6,2.68-1.6c0.61,0,1.08,0.17,1.47,0.47s0.55,0.72,0.55,1.22v0.55c-0.72-0.22-1.41-0.33-2.1-0.33
				c-1.41,0-2.57,0.33-3.43,1c-0.86,0.66-1.3,1.63-1.3,2.82c0,1.05,0.36,1.94,1.11,2.57c0.75,0.61,1.66,0.94,2.74,0.94
				s2.1-0.44,3.02-1.19v0.94h2.79v-7.3C112.95,49.86,112.51,48.78,111.65,48.03z M106.59,54.18c0.33-0.22,0.77-0.33,1.36-0.33
				c0.69,0,1.41,0.14,2.16,0.42v1.11c-0.61,0.58-1.44,0.86-2.46,0.86c-0.5,0-0.89-0.11-1.13-0.33c-0.25-0.22-0.39-0.47-0.39-0.83
				C106.12,54.7,106.25,54.4,106.59,54.18z"/>
			<path id="XMLID_00000107564820413305176620000015022865180271185794_" class="st11" d="M128.42,58.74c-4.57,0-8.3-3.71-8.3-8.3
				s3.71-8.3,8.3-8.3c4.57,0,8.3,3.71,8.3,8.3S132.98,58.74,128.42,58.74z M128.42,45.1c-2.96,0-5.37,2.41-5.37,5.37
				c0,2.96,2.41,5.37,5.37,5.37c2.96,0,5.37-2.41,5.37-5.37C133.78,47.51,131.38,45.1,128.42,45.1z"/>
		</g>
	</g>
</g>
</svg>
