<?xml version="1.0" encoding="utf-8"?>
<!-- Generator: Adobe Illustrator 27.3.1, SVG Export Plug-In . SVG Version: 6.00 Build 0)  -->
<svg version="1.1" xmlns="http://www.w3.org/2000/svg" xmlns:xlink="http://www.w3.org/1999/xlink" x="0px" y="0px"
	 viewBox="0 0 200 100" style="enable-background:new 0 0 200 100;" xml:space="preserve">
<style type="text/css">
	.st0{display:none;}
	.st1{display:inline;}
	.st2{fill:#080F27;}
	.st3{fill:#2A9B49;}
	.st4{fill:#ED1B25;}
	.st5{fill:#033572;}
	.st6{fill-rule:evenodd;clip-rule:evenodd;}
	.st7{fill:#FD393C;}
	.st8{fill:#FFFFFF;}
	.st9{fill:#FABB16;}
	.st10{fill:#5F5F5F;}
	.st11{fill:#0080FF;}
	.st12{fill-rule:evenodd;clip-rule:evenodd;fill:#0080FF;}
	.st13{fill:#E84E0F;}
	.st14{fill:#263238;}
	.st15{fill:#D4E157;}
	.st16{fill:url(#SVGID_1_);}
	.st17{fill:url(#SVGID_00000042003337153737374250000013207759481690619058_);}
	.st18{fill:url(#SVGID_00000029034919286262084660000000320175516446274198_);}
	.st19{fill:url(#SVGID_00000139291910183117835070000002960502133382105217_);}
	.st20{fill:url(#SVGID_00000051381981945063384570000004273777655150453638_);}
	.st21{fill:url(#SVGID_00000151527592955474366710000001358430159805224894_);}
	.st22{fill:url(#SVGID_00000139268002832443236360000015676645154376327346_);}
	.st23{fill:#E63351;}
	.st24{clip-path:url(#SVGID_00000059291026379280017430000012422527600294749080_);}
	.st25{clip-path:url(#SVGID_00000064347644300023982820000000628701521236825256_);}
	.st26{clip-path:url(#SVGID_00000054946984692516573430000003941745722484183178_);}
	.st27{clip-path:url(#SVGID_00000001658145461796463610000006672384867754383537_);}
	.st28{clip-path:url(#SVGID_00000018209212590733628170000015800178779671681157_);}
	.st29{clip-path:url(#SVGID_00000150060870720708042320000004986670057701245063_);}
	.st30{clip-path:url(#SVGID_00000067210466634155353380000008289501409009660600_);}
	.st31{clip-path:url(#SVGID_00000062910692516827813230000002800381910266642587_);}
	.st32{clip-path:url(#SVGID_00000090987419691793766250000007237362643227105438_);}
	.st33{clip-path:url(#SVGID_00000067915023025198959580000001131586631005336711_);}
	.st34{clip-path:url(#SVGID_00000011027257887964957170000013657434021746779557_);}
	.st35{clip-path:url(#SVGID_00000179613659684087448490000004864651894622737846_);}
	.st36{clip-path:url(#SVGID_00000085247520127809173840000011913385870625810867_);}
	.st37{clip-path:url(#SVGID_00000101791509743444579220000017776189517373251973_);}
	.st38{clip-path:url(#SVGID_00000073713959985702098190000002406041786144657599_);}
	.st39{clip-path:url(#SVGID_00000086678137953043863820000001648649066752035773_);}
	.st40{clip-path:url(#SVGID_00000147180219470410549230000001221269512632605354_);}
	.st41{clip-path:url(#SVGID_00000039839568398346222690000017221147513811341226_);}
	.st42{clip-path:url(#SVGID_00000034783944677803884670000008379674051064861347_);}
	.st43{clip-path:url(#SVGID_00000036248003763041870460000004683698294805655201_);}
	.st44{clip-path:url(#SVGID_00000168095581345542485330000005497850841693857423_);}
	.st45{clip-path:url(#SVGID_00000153678018956520921450000016745588738327437209_);}
	.st46{clip-path:url(#SVGID_00000049933847020512236120000011472717192576429723_);}
	.st47{clip-path:url(#SVGID_00000139282337603931465630000016800701119502461375_);}
	.st48{fill:#A03C56;}
	.st49{clip-path:url(#SVGID_00000175317431435105534240000004979206148521522094_);}
	.st50{clip-path:url(#SVGID_00000060028961142743965060000011848592918755347353_);}
	.st51{clip-path:url(#SVGID_00000107576762585789764320000011730401546391568304_);}
	.st52{clip-path:url(#SVGID_00000018944776476484332830000001559088760331055518_);}
	.st53{clip-path:url(#SVGID_00000124883035991089689650000018172971991152606340_);}
	.st54{clip-path:url(#SVGID_00000013173287659057304050000006721387759243928991_);}
	.st55{clip-path:url(#SVGID_00000016034871181514795070000016932018497803851660_);}
	.st56{clip-path:url(#SVGID_00000046319701416855495890000012878217003374619543_);}
	.st57{clip-path:url(#SVGID_00000026126932083079088360000004905431148958178200_);}
	.st58{clip-path:url(#SVGID_00000149380597604500251860000009742679688575698560_);}
	.st59{clip-path:url(#SVGID_00000011752594235729235880000011510525919875144358_);}
	.st60{clip-path:url(#SVGID_00000015325908153953259430000014802995563753774481_);}
	.st61{clip-path:url(#SVGID_00000182500910551245994930000001162055700581247657_);}
	.st62{clip-path:url(#SVGID_00000172422453474321748010000015261384501006627000_);}
	.st63{fill:none;}
	.st64{fill:#1388D6;}
	.st65{fill-rule:evenodd;clip-rule:evenodd;fill:#6EBE43;}
	.st66{fill-rule:evenodd;clip-rule:evenodd;fill:#1388D6;}
	.st67{fill:#62B536;}
	.st68{fill:#848688;}
	.st69{fill-rule:evenodd;clip-rule:evenodd;fill:url(#SVGID_00000044888794766526207310000000137466493453199490_);}
	.st70{fill-rule:evenodd;clip-rule:evenodd;fill:url(#SVGID_00000163793931891692967430000013255999859757450895_);}
	.st71{fill-rule:evenodd;clip-rule:evenodd;fill:#FFFFFF;}
	.st72{fill-rule:evenodd;clip-rule:evenodd;fill:url(#SVGID_00000088121528037317010180000013364929338251288505_);}
	.st73{fill-rule:evenodd;clip-rule:evenodd;fill:url(#SVGID_00000050636109584420871230000003205798574575143091_);}
	.st74{fill:url(#SVGID_00000039097716912118095150000005166775949019110273_);}
	.st75{fill:url(#SVGID_00000062170638199683199080000003700236440144512150_);}
	.st76{fill:url(#SVGID_00000150819436376316208930000006058386333255121284_);}
	.st77{fill:url(#SVGID_00000013915290907960398090000010817093234529220030_);}
	.st78{fill:url(#SVGID_00000114776725889711074760000004428128150444655515_);}
	.st79{fill:url(#SVGID_00000141433424372719680640000001634132751971101828_);}
	.st80{fill:url(#SVGID_00000047024571576405398250000000443018577410058166_);}
	.st81{clip-path:url(#SVGID_00000069395358977336705460000006729894232523274113_);}
	.st82{clip-path:url(#SVGID_00000065055696635607433950000017101716268177265024_);}
	.st83{clip-path:url(#SVGID_00000032648356190775395720000007015784595059005842_);}
	.st84{clip-path:url(#SVGID_00000134208122551701431060000010153294750294810531_);}
	.st85{clip-path:url(#SVGID_00000026848086070163639640000011216349241661781170_);}
	.st86{clip-path:url(#SVGID_00000091016064312916810670000001045901862871986056_);}
	.st87{clip-path:url(#SVGID_00000027604550471920488690000017470153663270170499_);}
	.st88{clip-path:url(#SVGID_00000074414605645075931130000007742658612217288343_);}
	.st89{clip-path:url(#SVGID_00000135679525554684243930000008928114833463082902_);}
	.st90{clip-path:url(#SVGID_00000024704841938907803500000014468783059766246281_);}
	.st91{clip-path:url(#SVGID_00000014620304406196544780000010473761237066049936_);}
	.st92{clip-path:url(#SVGID_00000031929015799917693140000005810504772106191781_);}
	.st93{clip-path:url(#SVGID_00000129166653877477363630000014891759575302853024_);}
	.st94{clip-path:url(#SVGID_00000093877960698565231800000006175755237336958595_);}
	.st95{clip-path:url(#SVGID_00000083084013871412964970000005789930531974761907_);}
	.st96{clip-path:url(#SVGID_00000110440646268186413840000009860287421595623578_);}
	.st97{clip-path:url(#SVGID_00000152976444015108672960000014863096312271277989_);}
	.st98{clip-path:url(#SVGID_00000043459705851991408370000015218829613209136789_);}
	.st99{clip-path:url(#SVGID_00000114036810591113736470000017456462535771850640_);}
	.st100{clip-path:url(#SVGID_00000070811996159635976440000016045772189553311914_);}
	.st101{clip-path:url(#SVGID_00000018953583521071069680000006943432941592056242_);}
	.st102{clip-path:url(#SVGID_00000176753789782167889490000010730158308681567660_);}
	.st103{clip-path:url(#SVGID_00000088822617182097433400000002900278716536288908_);}
	.st104{clip-path:url(#SVGID_00000122714142781705074270000012594510309528323715_);}
	.st105{clip-path:url(#SVGID_00000042707163035481879690000013785861698773912711_);}
	.st106{clip-path:url(#SVGID_00000147915057999593544360000006963062533289051794_);}
	.st107{clip-path:url(#SVGID_00000051354854796928284130000002021785693975922340_);}
	.st108{clip-path:url(#SVGID_00000173860512065676597140000004442852455611435438_);}
	.st109{clip-path:url(#SVGID_00000090973187154607774230000004928090786461764016_);}
	.st110{clip-path:url(#SVGID_00000106118290848774433060000004529555377829671054_);}
	.st111{clip-path:url(#SVGID_00000113352744819990982090000004716394462033359502_);}
	.st112{clip-path:url(#SVGID_00000062895947987164212110000014276744860951475375_);}
	.st113{clip-path:url(#SVGID_00000035500373669130532720000009944968471206047392_);}
	.st114{clip-path:url(#SVGID_00000088092898600237353090000008426362808362997423_);}
	.st115{clip-path:url(#SVGID_00000069393441081086655610000012001712228599637910_);}
	.st116{clip-path:url(#SVGID_00000008117805684377870760000002948777691332492697_);}
	.st117{clip-path:url(#SVGID_00000088817979661865045450000008352649812702820278_);}
	.st118{clip-path:url(#SVGID_00000137837416425207340590000007602638070064615565_);}
</style>
<g id="Background" class="st0">
	<rect class="st1" width="200" height="100"/>
</g>
<g id="Logos">
	<g>
		<g>
			<path class="st8" d="M21.74,54.39c0-0.18,0.12-0.3,0.3-0.3h7.93c3.62,0,6.27,1.51,7.29,4.67c0.42,1.33,0.6,2.47,0.6,5.57
				c0,3.07-0.18,4.25-0.6,5.58c-1.02,3.16-3.68,4.67-7.29,4.67h-7.93c-0.18,0-0.3-0.12-0.3-0.3V54.39z M27.22,69.88h1.6
				c1.87,0,2.89-0.51,3.37-1.96c0.18-0.6,0.3-1.3,0.3-3.59c0-2.29-0.12-2.98-0.3-3.59c-0.48-1.45-1.51-1.96-3.37-1.96h-1.6
				c-0.12,0-0.18,0.06-0.18,0.18v10.73C27.04,69.81,27.1,69.88,27.22,69.88z"/>
			<path class="st8" d="M39.79,74.58c-0.18,0-0.3-0.12-0.3-0.3V60.2c0-0.18,0.12-0.3,0.3-0.3h4.46c0.18,0,0.3,0.12,0.3,0.3v1.3h0.03
				c0.69-1.3,2.08-1.96,3.8-1.96c0.81,0,1.57,0.21,2.02,0.57c0.18,0.09,0.21,0.18,0.15,0.39l-1.72,4.25
				c-0.12,0.15-0.24,0.12-0.42,0.03c-0.72-0.45-1.45-0.66-2.14-0.57c-1.18,0.09-1.72,0.99-1.72,2.56v7.5c0,0.18-0.12,0.3-0.3,0.3
				H39.79z"/>
			<path class="st8" d="M50.58,70.63c-0.3-0.87-0.48-1.84-0.48-3.37c0-1.57,0.18-2.56,0.45-3.41c0.9-2.74,3.28-4.31,6.57-4.31
				c3.49,0,5.79,1.57,6.63,4.25c0.3,0.9,0.48,2.02,0.48,4.58c0,0.18-0.12,0.3-0.33,0.3h-8.71c-0.12,0-0.18,0.06-0.18,0.18
				c0.03,0.21,0.06,0.42,0.12,0.6c0.33,1.02,1.42,1.6,2.83,1.6c1.27,0,2.35-0.42,3.28-1.17c0.18-0.15,0.3-0.15,0.45,0l2.14,2.2
				c0.15,0.12,0.12,0.33-0.03,0.45c-1.54,1.48-3.77,2.41-6.39,2.41C53.83,74.94,51.45,73.34,50.58,70.63z M59.17,65.6
				c0.12,0,0.18-0.06,0.18-0.18c0-0.39-0.03-0.66-0.12-0.9c-0.27-0.84-0.99-1.33-2.05-1.33c-1.02,0-1.78,0.48-2.05,1.33
				c-0.06,0.24-0.12,0.51-0.12,0.9c0,0.12,0.06,0.18,0.18,0.18H59.17z"/>
			<path class="st8" d="M74.05,74.58c-0.18,0-0.3-0.12-0.3-0.3v-0.84h-0.03c-0.78,0.9-2.02,1.51-3.95,1.51
				c-2.5,0-4.76-1.36-4.76-4.52c0-3.28,2.59-4.82,6.24-4.82h2.32c0.12,0,0.18-0.06,0.18-0.18v-0.39c0-1.09-0.57-1.54-2.83-1.54
				c-1.33,0-2.47,0.36-3.16,0.84c-0.15,0.09-0.3,0.09-0.39-0.09l-1.57-2.77c-0.09-0.21-0.06-0.36,0.09-0.48
				c1.33-0.9,3.28-1.45,5.7-1.45c5.12,0,6.93,1.72,6.93,5.48v9.25c0,0.18-0.12,0.3-0.3,0.3H74.05z M73.75,69.75v-0.9
				c0-0.12-0.06-0.18-0.18-0.18H71.8c-1.36,0-2.05,0.48-2.05,1.39c0,0.81,0.57,1.27,1.72,1.27C73.03,71.32,73.75,70.81,73.75,69.75z
				"/>
			<path class="st8" d="M104.49,70.69c-0.33-1.09-0.45-2.14-0.45-3.44c0-1.33,0.12-2.38,0.45-3.47c0.9-2.8,3.47-4.25,6.69-4.25
				c3.23,0,5.76,1.45,6.69,4.25c0.33,1.09,0.45,2.14,0.45,3.47c0,1.3-0.12,2.35-0.45,3.44c-0.93,2.8-3.47,4.25-6.69,4.25
				C107.96,74.94,105.4,73.49,104.49,70.69z M112.99,69.54c0.15-0.54,0.21-1.05,0.21-2.29c0-1.24-0.06-1.78-0.21-2.32
				c-0.3-0.84-0.93-1.24-1.81-1.24c-0.87,0-1.51,0.39-1.81,1.24c-0.15,0.54-0.21,1.08-0.21,2.32c0,1.24,0.06,1.75,0.21,2.29
				c0.3,0.84,0.93,1.24,1.81,1.24C112.06,70.78,112.69,70.39,112.99,69.54z"/>
			<path class="st8" d="M128.63,74.58c-0.18,0-0.3-0.12-0.3-0.3V65.9c0-1.29-0.57-2.14-1.78-2.14c-1.14,0-1.81,0.81-1.81,2.14v8.38
				c0,0.18-0.12,0.3-0.3,0.3h-4.46c-0.18,0-0.3-0.12-0.3-0.3V60.2c0-0.18,0.12-0.3,0.3-0.3h4.46c0.18,0,0.3,0.12,0.3,0.3v1.05h0.03
				c0.66-0.96,1.93-1.72,3.77-1.72c3.35,0,4.85,2.26,4.85,5.48v9.25c0,0.18-0.12,0.3-0.3,0.3H128.63z"/>
			<path class="st8" d="M144.73,74.58c-0.21,0-0.36-0.09-0.45-0.3l-2.86-5.66l-1.09,1.45v4.22c0,0.18-0.12,0.3-0.3,0.3h-4.43
				c-0.18,0-0.3-0.12-0.3-0.3V54.39c0-0.18,0.12-0.3,0.3-0.3h4.43c0.18,0,0.3,0.12,0.3,0.3v10.31l3.44-4.49
				c0.18-0.21,0.33-0.3,0.57-0.3h4.61c0.18,0,0.24,0.18,0.12,0.3l-4.31,5l4.91,9.07c0.09,0.15,0.03,0.3-0.15,0.3H144.73z"/>
			<path class="st8" d="M149.55,70.63c-0.3-0.87-0.48-1.84-0.48-3.37c0-1.57,0.18-2.56,0.45-3.41c0.9-2.74,3.28-4.31,6.57-4.31
				c3.49,0,5.79,1.57,6.63,4.25c0.3,0.9,0.48,2.02,0.48,4.58c0,0.18-0.12,0.3-0.33,0.3h-8.71c-0.12,0-0.18,0.06-0.18,0.18
				c0.03,0.21,0.06,0.42,0.12,0.6c0.33,1.02,1.42,1.6,2.83,1.6c1.27,0,2.35-0.42,3.28-1.17c0.18-0.15,0.3-0.15,0.45,0l2.14,2.2
				c0.15,0.12,0.12,0.33-0.03,0.45c-1.54,1.48-3.77,2.41-6.39,2.41C152.81,74.94,150.43,73.34,149.55,70.63z M158.14,65.6
				c0.12,0,0.18-0.06,0.18-0.18c0-0.39-0.03-0.66-0.12-0.9c-0.27-0.84-0.99-1.33-2.05-1.33c-1.02,0-1.78,0.48-2.05,1.33
				c-0.06,0.24-0.12,0.51-0.12,0.9c0,0.12,0.06,0.18,0.18,0.18H158.14z"/>
			<path class="st8" d="M165.4,80c-0.18,0-0.3-0.12-0.3-0.3v-3.56c0-0.18,0.12-0.3,0.3-0.3h0.75c0.96,0,1.51-0.3,1.81-1.24
				l0.33-0.93l-5.52-13.47c-0.06-0.15,0.03-0.3,0.21-0.3h4.73c0.18,0,0.3,0.12,0.36,0.3l2.53,7.35h0.06l2.35-7.35
				c0.06-0.18,0.18-0.3,0.39-0.3h4.61c0.21,0,0.27,0.15,0.21,0.3l-6.36,16.03c-1.14,2.92-2.53,3.77-5.36,3.77H165.4z"/>
		</g>
		<g>
			<path class="st15" d="M105.44,35.23c-3.27,0-5.57,2.71-5.68,5.68c-0.07,1.87-1.28,4.02-3.49,2.84
				c-4.95-2.62-9.42,2.98-10.02,3.31c-0.72,0.4-1.2-0.42-1.45-0.82c-0.6-0.95-2.24-2.11-4.09-0.89c-2.09,1.38-1.87,1.99-1.49,2.18
				c0.38,0.19-0.77,0.76-0.71,1.16c0.09,0.7,0.01,2.62,1.75,2.13c1.15-0.33,1.88,0.55,1.88,1.34c0,0.55-0.59,1.42-2.46,2.1
				c-1.71,0.62-3.06,0.82-4.81,2c-0.61,0.41-1.27,0.21-1.66,0.39c-0.77,0.34-1.61,1.4-1.2,1.93c0.13,0.16,1.41-1.18,2.14-0.86
				c0.21,0.09,0.12,0.45-0.19,0.78c-0.26,0.28-0.27,0.52-0.18,0.68c0.09,0.16,0.94-0.73,1.21-1.12c0.16-0.23,0.22-0.31,0.68-0.34
				c2.59-0.12,5.65-0.26,7.08-1.73c0.48-0.49,1.16-2.32,1.62-2.45c0.5-0.14,1.16,0.43,1.2,3.95c0.01,0.95,0.92,1.27,0.9,2.82
				c-0.39,0.27-0.71,0.59-0.95,0.93h-0.03V60.2c0-0.18-0.12-0.3-0.3-0.3h-4.46c-0.18,0-0.3,0.12-0.3,0.3v14.07
				c0,0.18,0.12,0.3,0.3,0.3h4.46c0.18,0,0.3-0.12,0.3-0.3V65.9c0-1.32,0.66-2.14,1.81-2.14c1.21,0,1.78,0.84,1.78,2.14v8.38
				c0,0.18,0.12,0.3,0.3,0.3h4.46c0.18,0,0.3-0.12,0.3-0.3V65.9c0-1.32,0.66-2.14,1.78-2.14c1.21,0,1.81,0.84,1.81,2.14v8.38
				c0,0.18,0.12,0.3,0.3,0.3h4.46c0.18,0,0.3-0.12,0.3-0.3v-9.25c0-0.61-0.06-1.17-0.17-1.69c0-0.04-0.01-0.08-0.02-0.12
				c-0.03-0.13-0.07-0.26-0.1-0.37c-0.07-0.24-0.15-0.47-0.25-0.68c-0.15-0.38-0.27-0.76-0.27-1.34c0-0.63-0.39-3.13-0.44-3.56
				c-0.05-0.43-0.2-0.71-0.95-0.85c-0.49-0.1-3.86-2.25-2.41-4.36c1.46-2.13,1.14-4.05,0.65-5.41c-0.27-0.75,0.71-0.91,1.89-2.57
				c0.65-0.92,0.88-1.97,0.95-3.14c0.13-2.13,1.57-3.79,3.79-3.79c2.91,0,3.86,2.69,3.79,3.79c-0.06,0.94-0.3,1.3-0.95,1.42
				c-0.64,0.12-1.42-0.6-1.42-1.44c0-0.37-0.32-0.69-0.73-0.69c-0.31,0-0.69,0.28-0.69,0.71c0,1.51,1.22,2.84,2.84,2.84
				c1.35,0,2.84-0.79,2.84-2.84C111.13,38.07,108.89,35.23,105.44,35.23z M88.28,56.19c-1.76-2.71,1.08-3.4,1.34-2.46
				c0.22,0.78-0.15,3.01,0.57,5.67c0.02,0.07,0.04,0.14,0.06,0.21c-0.3-0.05-0.63-0.07-0.97-0.07c-0.23,0-0.45,0.01-0.67,0.03
				C88.87,57.6,88.8,56.98,88.28,56.19z M100.15,59.38c0,0.24,0,0.46-0.01,0.65c-0.69-0.31-1.52-0.48-2.49-0.48
				c-2.05,0-3.49,0.72-4.49,1.8c-0.02-0.16-0.11-0.41-0.29-0.88c-0.42-1.12,0.15-3.49,0.22-4.24c0.08-0.79,0.08-1.47-0.53-1.8
				c-0.55-0.3,1.21-2.71,1.54-3.04c0.17-0.17,0.69-0.22,0.58,0.92c-0.16,1.66-1.01,3.12,0.78,4.11
				C97.27,57.39,100.15,57.85,100.15,59.38z"/>
			<path class="st15" d="M78.51,44.81c0,1.31-1.06,2.37-2.37,2.37c-1.31,0-2.37-1.06-2.37-2.37s1.06-2.37,2.37-2.37
				C77.45,42.44,78.51,43.5,78.51,44.81z"/>
			<path class="st15" d="M76.15,38.25c0,2.09-1.7,3.79-3.79,3.79c-2.09,0-3.79-1.7-3.79-3.79c0-2.09,1.7-3.79,3.79-3.79
				C74.45,34.46,76.15,36.16,76.15,38.25z"/>
			<path class="st15" d="M77.6,26.63c0,3.66-2.97,6.63-6.63,6.63c-3.66,0-6.63-2.97-6.63-6.63c0-3.66,2.97-6.63,6.63-6.63
				C74.63,20,77.6,22.97,77.6,26.63z"/>
		</g>
	</g>
</g>
</svg>
