<?xml version="1.0" encoding="utf-8"?>
<!-- Generator: Adobe Illustrator 27.3.1, SVG Export Plug-In . SVG Version: 6.00 Build 0)  -->
<svg version="1.1" xmlns="http://www.w3.org/2000/svg" xmlns:xlink="http://www.w3.org/1999/xlink" x="0px" y="0px"
	 viewBox="0 0 200 100" style="enable-background:new 0 0 200 100;" xml:space="preserve">
<style type="text/css">
	.st0{display:none;}
	.st1{display:inline;}
	.st2{fill:#080F27;}
	.st3{fill:#2A9B49;}
	.st4{fill:#ED1B25;}
	.st5{fill:#033572;}
	.st6{fill-rule:evenodd;clip-rule:evenodd;}
	.st7{fill:#FD393C;}
	.st8{fill:#FFFFFF;}
	.st9{fill:#FABB16;}
	.st10{fill:#5F5F5F;}
	.st11{fill:#0080FF;}
	.st12{fill-rule:evenodd;clip-rule:evenodd;fill:#0080FF;}
	.st13{fill:#E84E0F;}
	.st14{fill:#263238;}
	.st15{fill:#D4E157;}
	.st16{fill:url(#SVGID_1_);}
	.st17{fill:url(#SVGID_00000121988748417522687410000006504242344857106573_);}
	.st18{fill:url(#SVGID_00000144304569644123668900000010395758289626389657_);}
	.st19{fill:url(#SVGID_00000101822900594606446080000004211662086819331754_);}
	.st20{fill:url(#SVGID_00000136380849122652416250000008547726440286575746_);}
	.st21{fill:url(#SVGID_00000155856790345410514160000012314356538763574684_);}
	.st22{fill:url(#SVGID_00000136400147725117721620000000856306349984790447_);}
	.st23{fill:#E63351;}
	.st24{clip-path:url(#SVGID_00000167368749469991971010000005316476430128778889_);}
	.st25{clip-path:url(#SVGID_00000160191495729244129350000011704611180648159659_);}
	.st26{clip-path:url(#SVGID_00000012461858976421805270000004242888500637475222_);}
	.st27{clip-path:url(#SVGID_00000036235216379697757860000012341437108015516321_);}
	.st28{clip-path:url(#SVGID_00000040544703180735882910000002346090160895808898_);}
	.st29{clip-path:url(#SVGID_00000098198013821222295920000013741303592933626032_);}
	.st30{clip-path:url(#SVGID_00000108295837338767753010000017439299759321561759_);}
	.st31{clip-path:url(#SVGID_00000077313488662216303400000018410981929913113728_);}
	.st32{clip-path:url(#SVGID_00000068660669194392856040000011122108633723013016_);}
	.st33{clip-path:url(#SVGID_00000076583836367672143740000003916200416533371520_);}
	.st34{clip-path:url(#SVGID_00000151525649773140109690000013514045830254532274_);}
	.st35{clip-path:url(#SVGID_00000059292405143300605700000005473448224087672730_);}
	.st36{clip-path:url(#SVGID_00000055676612200134537910000002818093759113422010_);}
	.st37{clip-path:url(#SVGID_00000118359956153297141140000003758748703275186834_);}
	.st38{clip-path:url(#SVGID_00000160164657196812113300000001395172022324763039_);}
	.st39{clip-path:url(#SVGID_00000089556285177722998140000007889474906523737751_);}
	.st40{clip-path:url(#SVGID_00000051352639127198545610000003656420652353035704_);}
	.st41{clip-path:url(#SVGID_00000138533506212714053380000000042472569562423213_);}
	.st42{clip-path:url(#SVGID_00000001655834763710475200000010465203550537948573_);}
	.st43{clip-path:url(#SVGID_00000132774747783770054910000005838883352508612748_);}
	.st44{clip-path:url(#SVGID_00000155867513503967483010000005284796914348278414_);}
	.st45{clip-path:url(#SVGID_00000131353916631180100970000011482786794317384862_);}
	.st46{clip-path:url(#SVGID_00000050646746827737705550000002071424138100149178_);}
	.st47{clip-path:url(#SVGID_00000051370174625975941020000014744770915246239933_);}
	.st48{fill:#A03C56;}
	.st49{clip-path:url(#SVGID_00000083062569810663035650000017081711759829714851_);}
	.st50{clip-path:url(#SVGID_00000019678292407475656010000007035761603981578384_);}
	.st51{clip-path:url(#SVGID_00000121991591100974339550000014247219809921572245_);}
	.st52{clip-path:url(#SVGID_00000181064287412131386140000004273399760408420275_);}
	.st53{clip-path:url(#SVGID_00000088845558607401894970000013846128069026255541_);}
	.st54{clip-path:url(#SVGID_00000127757285930819920880000016086564629400619934_);}
	.st55{clip-path:url(#SVGID_00000115484952158782926210000003255417390042450360_);}
	.st56{clip-path:url(#SVGID_00000156552447047921822590000012661914059399597966_);}
	.st57{clip-path:url(#SVGID_00000016776588304855915830000015968656430717790852_);}
	.st58{clip-path:url(#SVGID_00000121995622971003800870000003117272160753918389_);}
	.st59{clip-path:url(#SVGID_00000023976073296713070260000003664901872040120726_);}
	.st60{clip-path:url(#SVGID_00000013878442934133628370000014376601555338344620_);}
	.st61{clip-path:url(#SVGID_00000102513052230042636370000012728650311008268954_);}
	.st62{clip-path:url(#SVGID_00000150782555415774487450000005084164272248470179_);}
	.st63{fill:none;}
	.st64{fill:#1388D6;}
	.st65{fill-rule:evenodd;clip-rule:evenodd;fill:#6EBE43;}
	.st66{fill-rule:evenodd;clip-rule:evenodd;fill:#1388D6;}
	.st67{fill:#62B536;}
	.st68{fill:#848688;}
	.st69{fill-rule:evenodd;clip-rule:evenodd;fill:url(#SVGID_00000060730214383615391750000004197698205330739122_);}
	.st70{fill-rule:evenodd;clip-rule:evenodd;fill:url(#SVGID_00000021114575139954732120000003893049103463923076_);}
	.st71{fill-rule:evenodd;clip-rule:evenodd;fill:#FFFFFF;}
	.st72{fill-rule:evenodd;clip-rule:evenodd;fill:url(#SVGID_00000047030402402969636130000017259864936950744747_);}
	.st73{fill-rule:evenodd;clip-rule:evenodd;fill:url(#SVGID_00000176729834960868460510000000168476819046946714_);}
	.st74{fill:url(#SVGID_00000047043111678757246280000011277006606308993179_);}
	.st75{fill:url(#SVGID_00000001637658970024714920000015491534195166545835_);}
	.st76{fill:url(#SVGID_00000065075389699080182330000008517991813288089517_);}
	.st77{fill:url(#SVGID_00000030448403352831635270000004063650820405386658_);}
	.st78{fill:url(#SVGID_00000008115498206532965400000010357715042586167733_);}
	.st79{fill:url(#SVGID_00000088812429747589177300000005177094407337951626_);}
	.st80{fill:url(#SVGID_00000167362137852020291170000010224551272454341547_);}
	.st81{clip-path:url(#SVGID_00000174603574144159654690000009260897774350016938_);}
	.st82{clip-path:url(#SVGID_00000083793778057227635880000013582316519398266043_);}
	.st83{clip-path:url(#SVGID_00000039833728065697213930000016586155472087573911_);}
	.st84{clip-path:url(#SVGID_00000037683152003582061960000017080210485352357530_);}
	.st85{clip-path:url(#SVGID_00000021829293162526222440000009460717569617598395_);}
	.st86{clip-path:url(#SVGID_00000015341968635541566520000003629563743879490974_);}
	.st87{clip-path:url(#SVGID_00000099635480731506396260000002447037918518254746_);}
	.st88{clip-path:url(#SVGID_00000134225491755346240420000013529809120391137183_);}
	.st89{clip-path:url(#SVGID_00000124880493146555705980000012713433409966876605_);}
	.st90{clip-path:url(#SVGID_00000158023946097808980660000000003036451214911933_);}
	.st91{clip-path:url(#SVGID_00000111152495685583711370000014398302467097792692_);}
	.st92{clip-path:url(#SVGID_00000114779618317668606840000000892586429508962195_);}
	.st93{clip-path:url(#SVGID_00000154402467986828768170000016330645005736990866_);}
	.st94{clip-path:url(#SVGID_00000004528735538727855400000003122333315621466502_);}
	.st95{clip-path:url(#SVGID_00000003102563252593160770000009666065889425870493_);}
	.st96{clip-path:url(#SVGID_00000176003162536393291670000004769625217522525618_);}
	.st97{clip-path:url(#SVGID_00000039132075260363121490000010275675388076000664_);}
	.st98{clip-path:url(#SVGID_00000183931880976962388030000017068269766574862256_);}
	.st99{clip-path:url(#SVGID_00000155138323817196133030000017360089728866849926_);}
	.st100{clip-path:url(#SVGID_00000084530244748898802910000017913519974660395912_);}
	.st101{clip-path:url(#SVGID_00000029011783239139889300000015328064703034337686_);}
	.st102{clip-path:url(#SVGID_00000117649083813693304130000007610836562279446962_);}
	.st103{clip-path:url(#SVGID_00000142884151042961593050000006917692071408030650_);}
	.st104{clip-path:url(#SVGID_00000027584564668488405140000002748960258773875844_);}
	.st105{clip-path:url(#SVGID_00000130633562500680838850000006812191273723028105_);}
	.st106{clip-path:url(#SVGID_00000004540195301878826600000015196710158897224847_);}
	.st107{clip-path:url(#SVGID_00000141438957186887162940000017013971184466982074_);}
	.st108{clip-path:url(#SVGID_00000152959267440814792970000000275019366389016718_);}
	.st109{clip-path:url(#SVGID_00000088111148763738219720000000953360684393946500_);}
	.st110{clip-path:url(#SVGID_00000080183496624892038660000011633906714484468893_);}
	.st111{clip-path:url(#SVGID_00000025442807374925823670000016014601100808140705_);}
	.st112{clip-path:url(#SVGID_00000098185074666820621550000010148632341522584246_);}
	.st113{clip-path:url(#SVGID_00000166669985841027369930000015345800257495114154_);}
	.st114{clip-path:url(#SVGID_00000163773309349056815780000016080741240568897685_);}
	.st115{clip-path:url(#SVGID_00000180345029526639961870000002844737828440166037_);}
	.st116{clip-path:url(#SVGID_00000178894384712347907520000015772344102706266008_);}
	.st117{clip-path:url(#SVGID_00000036221145860109298660000010245742771685774244_);}
	.st118{clip-path:url(#SVGID_00000114065959920904314020000003723223016039052690_);}
</style>
<g id="Background" class="st0">
	<rect class="st1" width="200" height="100"/>
</g>
<g id="Logos">
	<g>
		<polygon class="st5" points="30.9,38 41.49,38 34.87,48.92 36.61,48.92 43.14,38 53.74,38 47.2,48.92 54.57,48.92 51.59,53.81 
			44.22,53.81 50.01,61.67 39.42,61.67 33.71,53.81 31.89,53.81 37.6,61.67 27.09,61.67 21.38,53.81 		"/>
		<polygon class="st8" points="67.23,57.94 70.46,57.94 70.46,51.57 76.5,51.57 76.5,57.94 79.72,57.94 79.72,43.13 76.5,43.13 
			76.5,48.84 70.46,48.84 70.46,43.13 67.23,43.13 		"/>
		<path class="st71" d="M87.59,53.81c0,0.66-0.08,2.4-2.4,2.4c-0.91,0-1.74-0.25-1.74-1.41c0-1.08,0.83-1.41,1.74-1.57
			c0.91-0.17,1.9-0.17,2.4-0.58V53.81L87.59,53.81z M83.78,50.5c0.08-1.16,0.83-1.57,1.9-1.57c1.08,0,1.9,0.17,1.9,1.41
			c0,1.24-1.66,1.16-3.48,1.41s-3.64,0.83-3.64,3.31c0,2.23,1.57,3.23,3.64,3.23c1.32,0,2.65-0.33,3.64-1.32
			c0,0.33,0.08,0.74,0.25,1.08h2.98c-0.25-0.41-0.41-1.41-0.41-2.4v-5.54c0-2.57-2.57-3.06-4.72-3.06c-2.4,0-4.88,0.83-5.05,3.64
			L83.78,50.5L83.78,50.5z"/>
		<path class="st71" d="M91.48,61.75h2.98v-5.13h0.08c0.74,1.08,1.9,1.57,3.23,1.57c3.14,0,4.72-2.65,4.72-5.54
			c0-3.06-1.49-5.79-4.88-5.79c-1.32,0-2.48,0.5-3.23,1.66h-0.08v-1.24h-2.81L91.48,61.75L91.48,61.75z M96.94,56.04
			c-1.9,0-2.57-1.66-2.57-3.39s0.58-3.48,2.57-3.48c1.9,0,2.57,1.74,2.57,3.48S98.84,56.04,96.94,56.04L96.94,56.04z"/>
		<path class="st71" d="M109.93,53.81c0,0.66-0.08,2.4-2.4,2.4c-0.91,0-1.74-0.25-1.74-1.41c0-1.08,0.83-1.41,1.74-1.57
			c0.91-0.17,1.9-0.17,2.4-0.58V53.81L109.93,53.81z M106.04,50.5c0.08-1.16,0.83-1.57,1.9-1.57c1.08,0,1.9,0.17,1.9,1.41
			c0,1.24-1.66,1.16-3.48,1.41s-3.64,0.83-3.64,3.31c0,2.23,1.57,3.23,3.64,3.23c1.32,0,2.65-0.33,3.64-1.32
			c0,0.33,0.08,0.74,0.25,1.08h2.98c-0.25-0.41-0.41-1.41-0.41-2.4v-5.54c0-2.57-2.57-3.06-4.72-3.06c-2.4,0-4.88,0.83-5.05,3.64
			L106.04,50.5L106.04,50.5z"/>
		<path class="st71" d="M124.58,47.27h-2.81v1.41h-0.08c-0.74-1.24-1.74-1.74-3.23-1.74c-2.98,0-4.63,2.57-4.63,5.3
			c0,2.98,1.41,5.38,4.63,5.38c1.24,0,2.57-0.58,3.23-1.66h0.08v1.41c0,1.57-0.74,2.65-2.4,2.65c-1.08,0-1.9-0.41-2.23-1.49h-2.98
			c0.17,2.4,2.57,3.48,4.72,3.48c4.97,0,5.54-2.98,5.54-4.8L124.58,47.27L124.58,47.27z M119.2,55.46c-1.74,0-2.4-1.66-2.4-3.23
			s0.74-3.06,2.4-3.06c1.9,0,2.48,1.57,2.48,3.31C121.68,54.06,120.94,55.46,119.2,55.46L119.2,55.46z"/>
		<polygon class="st8" points="125.32,53.56 131.61,53.56 131.61,50.99 125.32,50.99 		"/>
		<polygon class="st8" points="132.36,57.94 142.87,57.94 142.87,55.21 135.67,55.21 135.67,43.13 132.36,43.13 		"/>
		<polygon class="st8" points="143.53,57.94 146.43,57.94 146.43,43.13 143.53,43.13 		"/>
		<path class="st71" d="M147.09,52.65c0,3.39,2.15,5.63,5.54,5.63c3.39,0,5.54-2.23,5.54-5.63s-2.15-5.63-5.54-5.63
			C149.24,46.94,147.09,49.17,147.09,52.65L147.09,52.65z M150.07,52.65c0-1.74,0.58-3.48,2.57-3.48s2.57,1.74,2.57,3.48
			s-0.58,3.48-2.57,3.48C150.65,56.04,150.07,54.3,150.07,52.65L150.07,52.65z"/>
		<path class="st8" d="M168.52,47.27h-3.06l-2.32,7.28h-0.08l-2.4-7.28h-3.14l3.81,10.01c0.33,0.83,0,1.9-0.99,1.99
			c-0.58,0-1.16-0.08-1.74-0.08v2.4c0.58,0.08,1.24,0.08,1.74,0.08c2.07,0,3.06-0.74,3.64-2.4L168.52,47.27L168.52,47.27z"/>
		<path class="st71" d="M175.81,57.94h2.81V43.13h-2.98v5.38h-0.08l0,0c-0.66-1.08-1.9-1.57-3.23-1.57c-3.14,0-4.8,2.65-4.8,5.54
			c0,2.98,1.57,5.71,4.8,5.71c1.41,0,2.57-0.5,3.31-1.66h0.08L175.81,57.94L175.81,57.94z M175.81,52.57c0,1.74-0.58,3.48-2.57,3.48
			c-1.82,0-2.57-1.74-2.57-3.48c0-1.74,0.66-3.48,2.57-3.48C175.14,49.17,175.81,50.83,175.81,52.57L175.81,52.57z"/>
	</g>
</g>
</svg>
