<?xml version="1.0" encoding="utf-8"?>
<!-- Generator: Adobe Illustrator 27.3.1, SVG Export Plug-In . SVG Version: 6.00 Build 0)  -->
<svg version="1.1" xmlns="http://www.w3.org/2000/svg" xmlns:xlink="http://www.w3.org/1999/xlink" x="0px" y="0px"
	 viewBox="0 0 200 100" style="enable-background:new 0 0 200 100;" xml:space="preserve">
<style type="text/css">
	.st0{display:none;}
	.st1{display:inline;}
	.st2{fill:#080F27;}
	.st3{fill:#2A9B49;}
	.st4{fill:#ED1B25;}
	.st5{fill:#033572;}
	.st6{fill-rule:evenodd;clip-rule:evenodd;}
	.st7{fill:#FD393C;}
	.st8{fill:#FFFFFF;}
	.st9{fill:#FABB16;}
	.st10{fill:#5F5F5F;}
	.st11{fill:#0080FF;}
	.st12{fill-rule:evenodd;clip-rule:evenodd;fill:#0080FF;}
	.st13{fill:#E84E0F;}
	.st14{fill:#263238;}
	.st15{fill:#D4E157;}
	.st16{fill:url(#SVGID_1_);}
	.st17{fill:url(#SVGID_00000150797934331666824020000002861638540035138964_);}
	.st18{fill:url(#SVGID_00000126323637995482457310000015024781060499369915_);}
	.st19{fill:url(#SVGID_00000086662744453327790080000004519834517588185473_);}
	.st20{fill:url(#SVGID_00000065053444935409955270000009706518713423939239_);}
	.st21{fill:url(#SVGID_00000101816397860111283940000007656724504468999814_);}
	.st22{fill:url(#SVGID_00000040564758643978117850000008065742829912092596_);}
	.st23{fill:#E63351;}
	.st24{clip-path:url(#SVGID_00000083772123451370263130000001469906075855542410_);}
	.st25{clip-path:url(#SVGID_00000101800123386814277090000009085683125397576891_);}
	.st26{clip-path:url(#SVGID_00000151534952027219020000000006042819112389060506_);}
	.st27{clip-path:url(#SVGID_00000021808875306568357690000015983610812811103166_);}
	.st28{clip-path:url(#SVGID_00000077322839433963875930000015703129357869365899_);}
	.st29{clip-path:url(#SVGID_00000020399665855007080840000011097808131646510493_);}
	.st30{clip-path:url(#SVGID_00000095313475931897599310000004122877596531915954_);}
	.st31{clip-path:url(#SVGID_00000146478143520512629100000010381646661168351375_);}
	.st32{clip-path:url(#SVGID_00000094587908073917735970000001747768967347701383_);}
	.st33{clip-path:url(#SVGID_00000065756476653108847060000015892473251307311244_);}
	.st34{clip-path:url(#SVGID_00000075879655068706979230000005934242615946530208_);}
	.st35{clip-path:url(#SVGID_00000121977661695977001630000012436931027402438031_);}
	.st36{clip-path:url(#SVGID_00000011711124597106090400000000989661602815891129_);}
	.st37{clip-path:url(#SVGID_00000176721419589006727440000003367863516517114504_);}
	.st38{clip-path:url(#SVGID_00000178911914240008906020000008979845016517598140_);}
	.st39{clip-path:url(#SVGID_00000173160311834325373660000013234009125576118715_);}
	.st40{clip-path:url(#SVGID_00000091726186688795557380000015953283186272914856_);}
	.st41{clip-path:url(#SVGID_00000183222565575145934470000007494212482327402631_);}
	.st42{clip-path:url(#SVGID_00000170246269748725229530000016861408647306616254_);}
	.st43{clip-path:url(#SVGID_00000064313194373590588660000015971617312881608890_);}
	.st44{clip-path:url(#SVGID_00000132068757687680763330000012625308372184260023_);}
	.st45{clip-path:url(#SVGID_00000002344074393275022300000002674244957805049255_);}
	.st46{clip-path:url(#SVGID_00000098211367820054986760000008455345894137908388_);}
	.st47{clip-path:url(#SVGID_00000054239356566819024300000015330336709932815271_);}
	.st48{fill:#A03C56;}
	.st49{clip-path:url(#SVGID_00000009551152783429210910000002457831437370035864_);}
	.st50{clip-path:url(#SVGID_00000135658301089922681780000011054998157104158647_);}
	.st51{clip-path:url(#SVGID_00000057842723758814441620000014267367002724153532_);}
	.st52{clip-path:url(#SVGID_00000178196283052625094520000013731416830158048392_);}
	.st53{clip-path:url(#SVGID_00000038386618638530671900000011363513750706103171_);}
	.st54{clip-path:url(#SVGID_00000052091637032401402230000004954941834656350644_);}
	.st55{clip-path:url(#SVGID_00000065074914130383867820000018229135708741395644_);}
	.st56{clip-path:url(#SVGID_00000098182382416592640370000005751197724320472502_);}
	.st57{clip-path:url(#SVGID_00000023979361475843132330000015442364053183820441_);}
	.st58{clip-path:url(#SVGID_00000103259787031263298500000008478130116790015366_);}
	.st59{clip-path:url(#SVGID_00000026852033646936730420000016890696761825204376_);}
	.st60{clip-path:url(#SVGID_00000064312647444629790770000000910426586026106012_);}
	.st61{clip-path:url(#SVGID_00000174599332204439364550000003713220867348393871_);}
	.st62{clip-path:url(#SVGID_00000085250266406642170640000015880763559616113306_);}
	.st63{fill:none;}
	.st64{fill:#1388D6;}
	.st65{fill-rule:evenodd;clip-rule:evenodd;fill:#6EBE43;}
	.st66{fill-rule:evenodd;clip-rule:evenodd;fill:#1388D6;}
	.st67{fill:#62B536;}
	.st68{fill:#848688;}
	.st69{fill-rule:evenodd;clip-rule:evenodd;fill:url(#SVGID_00000049922097151693221350000015683352500938284947_);}
	.st70{fill-rule:evenodd;clip-rule:evenodd;fill:url(#SVGID_00000027581723454260692020000016372199251759848344_);}
	.st71{fill-rule:evenodd;clip-rule:evenodd;fill:#FFFFFF;}
	.st72{fill-rule:evenodd;clip-rule:evenodd;fill:url(#SVGID_00000064331566808661658600000002464014855822522796_);}
	.st73{fill-rule:evenodd;clip-rule:evenodd;fill:url(#SVGID_00000040564552292239672150000000054641620235581864_);}
	.st74{fill:url(#SVGID_00000097473132383946967400000000990930917419253668_);}
	.st75{fill:url(#SVGID_00000150790629781518372370000005400041755738759604_);}
	.st76{fill:url(#SVGID_00000090292062592584923680000001836878073880150166_);}
	.st77{fill:url(#SVGID_00000165227160678537712260000014929353596771439550_);}
	.st78{fill:url(#SVGID_00000029032892228013272500000009017790158152062592_);}
	.st79{fill:url(#SVGID_00000065044784201973209080000011695486457969449661_);}
	.st80{fill:url(#SVGID_00000131368812908843799360000004216357852386280837_);}
	.st81{clip-path:url(#SVGID_00000058559976029236122320000014888843333235318144_);}
	.st82{clip-path:url(#SVGID_00000069369264783833466280000014679830493009340046_);}
	.st83{clip-path:url(#SVGID_00000021089323551991087480000007466055247534426796_);}
	.st84{clip-path:url(#SVGID_00000093882055370864166040000004193740779932938172_);}
	.st85{clip-path:url(#SVGID_00000038410229440937338190000000932873297105485702_);}
	.st86{clip-path:url(#SVGID_00000176002239659647227300000001504893080304390531_);}
	.st87{clip-path:url(#SVGID_00000029724863734601002560000011869544062233491865_);}
	.st88{clip-path:url(#SVGID_00000131330287024048979820000011106898796785822649_);}
	.st89{clip-path:url(#SVGID_00000170971669143630741070000001727090500927358618_);}
	.st90{clip-path:url(#SVGID_00000121977307414385861390000017953726407853262737_);}
	.st91{clip-path:url(#SVGID_00000147907947158250495970000014529259701691917186_);}
	.st92{clip-path:url(#SVGID_00000046313373844619232520000002621294798098891688_);}
	.st93{clip-path:url(#SVGID_00000116953779226047500350000016608859516236275384_);}
	.st94{clip-path:url(#SVGID_00000095338109020794667630000007816948251215343289_);}
	.st95{clip-path:url(#SVGID_00000086692192173651828080000003565279180558352310_);}
	.st96{clip-path:url(#SVGID_00000127003668340166840830000000456043966546546857_);}
	.st97{clip-path:url(#SVGID_00000126289706277514323550000010165591921953549192_);}
	.st98{clip-path:url(#SVGID_00000083063480605921303310000018310231024608639151_);}
	.st99{clip-path:url(#SVGID_00000180349507396516779340000003744214148818373527_);}
	.st100{clip-path:url(#SVGID_00000044175479232114037070000001725414603991177400_);}
	.st101{clip-path:url(#SVGID_00000090260258593638911310000002597349567680668580_);}
	.st102{clip-path:url(#SVGID_00000065062518393919401610000000305087439697685438_);}
	.st103{clip-path:url(#SVGID_00000012446610626381226650000009831847772527836293_);}
	.st104{clip-path:url(#SVGID_00000173118968798620082840000005371802718754826645_);}
	.st105{clip-path:url(#SVGID_00000106139578395754081040000006203379498100990621_);}
	.st106{clip-path:url(#SVGID_00000106857170441690484560000006715316261900912273_);}
	.st107{clip-path:url(#SVGID_00000148634207909176872300000005234378345461612944_);}
	.st108{clip-path:url(#SVGID_00000161611371045296039560000005585815201076138112_);}
	.st109{clip-path:url(#SVGID_00000106842113426114598730000002178503096484850332_);}
	.st110{clip-path:url(#SVGID_00000047750378679122624440000014321019574450149561_);}
	.st111{clip-path:url(#SVGID_00000058550833011598133780000015009590971926697381_);}
	.st112{clip-path:url(#SVGID_00000097468709369210891270000016234921938674050463_);}
	.st113{clip-path:url(#SVGID_00000013163266376784747870000017995757592703386780_);}
	.st114{clip-path:url(#SVGID_00000097482062335011741490000015772846582701634478_);}
	.st115{clip-path:url(#SVGID_00000081626496438037469380000005624503557782442124_);}
	.st116{clip-path:url(#SVGID_00000032624651257618158330000007878575964707996348_);}
	.st117{clip-path:url(#SVGID_00000118397870711425565710000007294998772478481285_);}
	.st118{clip-path:url(#SVGID_00000168108173335972292810000000022067587214799548_);}
</style>
<g id="Background" class="st0">
	<rect class="st1" width="200" height="100"/>
</g>
<g id="Logos">
	<g>
		<g>
			<path class="st4" d="M36.11,35c-5.68,0-10.81,3.15-13.37,8.2l-0.26,0.51l1.42,0.71l0.26-0.51c2.27-4.54,6.87-7.35,11.95-7.35
				c7.41,0,13.42,6.02,13.42,13.42s-6.02,13.42-13.42,13.42c-1.31,0-2.58-0.17-3.8-0.54l-0.54-0.17l-0.45,1.5l0.54,0.17
				c1.36,0.4,2.81,0.62,4.26,0.62c8.26,0,14.99-6.73,14.99-14.99S44.37,35,36.11,35z"/>
			<path class="st4" d="M28.42,46.86c-0.6-0.2-1.19,0.03-1.56,0.51l-3.83,5.34c-0.68,0.96-0.68,2.24,0.03,3.18l4.03,5.34
				c0.26,0.37,0.68,0.57,1.11,0.57c0.17,0,0.31-0.03,0.45-0.09c0.6-0.2,0.96-0.74,0.94-1.36l-0.2-12.18
				C29.41,47.57,29.01,47.03,28.42,46.86z M28.33,60.29L28.33,60.29L28.33,60.29L28.33,60.29z M28.05,59.89l-3.75-4.94
				c-0.28-0.4-0.28-0.91,0-1.31l3.55-4.94L28.05,59.89z"/>
			<path class="st4" d="M20.47,54.95c-0.28-0.4-0.28-0.91,0-1.31l3.83-5.34c0.26-0.34,0.17-0.85-0.17-1.11
				c-0.34-0.26-0.85-0.17-1.11,0.17l-3.86,5.34c-0.68,0.96-0.68,2.24,0.03,3.18l4.03,5.36c0.14,0.2,0.4,0.31,0.62,0.31
				c0.17,0,0.34-0.06,0.48-0.17c0.34-0.26,0.43-0.77,0.14-1.11L20.47,54.95z"/>
		</g>
		<g>
			<path class="st4" d="M59.55,63.64v-19.5h2.16v19.5C61.71,63.64,59.55,63.64,59.55,63.64z"/>
			<path class="st4" d="M86.6,63.41v0.23h-2.38l-6.33-10.93h-7.63v10.93h-2.21V37.41h8.51c1.82,0,3.41,0.28,4.74,0.88
				c1.33,0.6,2.36,1.48,3.09,2.64c0.74,1.16,1.08,2.55,1.08,4.2c0,1.14-0.23,2.19-0.68,3.15c-0.45,0.96-1.08,1.79-1.9,2.47
				s-1.79,1.16-2.87,1.48L86.6,63.41z M77.07,50.84c1.33,0,2.44-0.26,3.38-0.79c0.94-0.51,1.65-1.22,2.1-2.07
				c0.48-0.85,0.71-1.82,0.71-2.84c0-1.19-0.26-2.24-0.77-3.12c-0.51-0.88-1.28-1.56-2.27-2.02c-0.99-0.48-2.21-0.71-3.63-0.71h-6.3
				v11.52L77.07,50.84L77.07,50.84z"/>
			<path class="st4" d="M91.99,54.02v0.43c0,1.42,0.28,2.72,0.85,3.92c0.57,1.19,1.36,2.13,2.36,2.81c0.99,0.68,2.16,1.02,3.46,1.02
				c1.16,0,2.19-0.23,3.09-0.65c0.88-0.43,1.67-1.11,2.38-2.02l1.36,1.02c-0.71,1.05-1.62,1.87-2.75,2.53
				c-1.14,0.62-2.53,0.94-4.14,0.94c-1.67,0-3.18-0.4-4.48-1.22c-1.33-0.82-2.36-1.96-3.12-3.41c-0.74-1.45-1.14-3.09-1.14-4.94
				v-0.77c0-1.96,0.37-3.66,1.14-5.17c0.77-1.5,1.79-2.67,3.07-3.49c1.28-0.82,2.67-1.22,4.14-1.22c1.62,0,3.01,0.37,4.17,1.14
				c1.16,0.77,2.04,1.82,2.64,3.15c0.6,1.33,0.91,2.89,0.91,4.63v1.31C105.93,54.02,91.99,54.02,91.99,54.02z M95.26,46.44
				c-0.88,0.54-1.59,1.31-2.13,2.3s-0.91,2.13-1.05,3.46h11.67v-0.23c-0.03-1.14-0.26-2.19-0.68-3.12
				c-0.43-0.96-1.05-1.73-1.87-2.33s-1.82-0.88-2.98-0.88C97.1,45.61,96.14,45.9,95.26,46.44z"/>
			<path class="st4" d="M133.86,44.14l-5.68,19.5h-1.56h-0.28l-5.02-15.47l-0.23-1.05l-0.26,1.08l-4.91,15.47h-1.5h-0.31l-5.65-19.5
				h2.21l4.14,15.01l0.31,1.65l0.43-1.76l4.68-14.93h1.56h0.31l4.6,14.79l0.51,2.04l0.4-1.87l4-14.96H133.86z"/>
			<path class="st4" d="M138.2,63.64v-19.5h2.16v19.5C140.36,63.64,138.2,63.64,138.2,63.64z"/>
			<path class="st4" d="M159.35,45.5c1.05,1.14,1.59,2.95,1.59,5.45v12.72h-2.16V50.95c0-1.93-0.4-3.29-1.16-4.09
				c-0.79-0.79-1.93-1.22-3.43-1.22c-1.42,0-2.61,0.45-3.6,1.33s-1.73,1.99-2.19,3.29v13.4h-2.16V44.14h2.07l0.09,3.29
				c0.71-1.14,1.59-2.04,2.7-2.7c1.11-0.65,2.33-0.96,3.66-0.96C156.73,43.8,158.3,44.37,159.35,45.5z"/>
			<path class="st4" d="M181.34,35.96v27.67h-2.02l-0.11-2.61c-0.65,0.94-1.5,1.67-2.53,2.19c-1.02,0.51-2.21,0.77-3.58,0.77
				c-1.5,0-2.81-0.43-3.95-1.25c-1.14-0.82-1.99-2.02-2.61-3.49c-0.62-1.5-0.91-3.21-0.91-5.17V53.7c0-2.02,0.31-3.75,0.91-5.25
				c0.6-1.5,1.48-2.64,2.61-3.46c1.14-0.82,2.47-1.22,4-1.22c1.33,0,2.53,0.26,3.52,0.79s1.84,1.31,2.5,2.27V35.96H181.34z
				 M177.03,61.2c0.94-0.62,1.65-1.48,2.16-2.55v-9.22c-0.48-1.11-1.16-2.02-2.07-2.72c-0.91-0.71-2.07-1.05-3.52-1.05
				c-1.28,0-2.36,0.34-3.21,1.05c-0.85,0.71-1.5,1.65-1.93,2.87c-0.43,1.22-0.62,2.58-0.62,4.14v0.37c0,1.56,0.2,2.92,0.62,4.14
				c0.43,1.22,1.05,2.16,1.9,2.87c0.85,0.68,1.9,1.05,3.18,1.05C174.93,62.13,176.09,61.82,177.03,61.2z"/>
		</g>
		<circle class="st4" cx="60.66" cy="38.55" r="1.48"/>
	</g>
</g>
</svg>
