<?xml version="1.0" encoding="utf-8"?>
<!-- Generator: Adobe Illustrator 27.3.1, SVG Export Plug-In . SVG Version: 6.00 Build 0)  -->
<svg version="1.1" xmlns="http://www.w3.org/2000/svg" xmlns:xlink="http://www.w3.org/1999/xlink" x="0px" y="0px"
	 viewBox="0 0 200 100" style="enable-background:new 0 0 200 100;" xml:space="preserve">
<style type="text/css">
	.st0{display:none;}
	.st1{display:inline;}
	.st2{fill:#080F27;}
	.st3{fill:#2A9B49;}
	.st4{fill:#ED1B25;}
	.st5{fill:#033572;}
	.st6{fill-rule:evenodd;clip-rule:evenodd;}
	.st7{fill:#FD393C;}
	.st8{fill:#FFFFFF;}
	.st9{fill:#FABB16;}
	.st10{fill:#5F5F5F;}
	.st11{fill:#0080FF;}
	.st12{fill-rule:evenodd;clip-rule:evenodd;fill:#0080FF;}
	.st13{fill:#E84E0F;}
	.st14{fill:#263238;}
	.st15{fill:#D4E157;}
	.st16{fill:url(#SVGID_1_);}
	.st17{fill:url(#SVGID_00000136385138503695614540000001409961235511820989_);}
	.st18{fill:url(#SVGID_00000074441824695098223470000016445755423371757959_);}
	.st19{fill:url(#SVGID_00000036239547850623180650000001686699131977098428_);}
	.st20{fill:url(#SVGID_00000149361911703205022080000012385231860318726561_);}
	.st21{fill:url(#SVGID_00000170238491370213006040000010779296501504802995_);}
	.st22{fill:url(#SVGID_00000136399322086256958040000015743453070502906027_);}
	.st23{fill:#E63351;}
	.st24{clip-path:url(#SVGID_00000126303542907585502620000013781955191376673169_);}
	.st25{clip-path:url(#SVGID_00000168092107329309631690000016957111834930826394_);}
	.st26{clip-path:url(#SVGID_00000156547408708948916670000007726932242693298358_);}
	.st27{clip-path:url(#SVGID_00000153684460746959895690000015849216202750596272_);}
	.st28{clip-path:url(#SVGID_00000078755387670365011190000000488981781681350297_);}
	.st29{clip-path:url(#SVGID_00000080165736215427200490000002543871838018980013_);}
	.st30{clip-path:url(#SVGID_00000072965239823880439380000007616354472099188131_);}
	.st31{clip-path:url(#SVGID_00000036929906140760588230000001277714047063314578_);}
	.st32{clip-path:url(#SVGID_00000107571820162625183840000003967543422909638574_);}
	.st33{clip-path:url(#SVGID_00000074408675584289090630000013697831141386603442_);}
	.st34{clip-path:url(#SVGID_00000071522955315010529320000017450118230560220325_);}
	.st35{clip-path:url(#SVGID_00000045588046712868951860000009287712993654690204_);}
	.st36{clip-path:url(#SVGID_00000108295237300475901580000011136902863643824262_);}
	.st37{clip-path:url(#SVGID_00000182516354528896869060000010548487010648231833_);}
	.st38{clip-path:url(#SVGID_00000054243750325106949510000003400268564663300500_);}
	.st39{clip-path:url(#SVGID_00000149380372052824588320000012797786526008927657_);}
	.st40{clip-path:url(#SVGID_00000106862475096124019290000018038457555103727499_);}
	.st41{clip-path:url(#SVGID_00000082363993034121992190000017141858817520584368_);}
	.st42{clip-path:url(#SVGID_00000061455686394206679930000016530012732540979887_);}
	.st43{clip-path:url(#SVGID_00000021828941890058025950000005692348338101701506_);}
	.st44{clip-path:url(#SVGID_00000002383542237793352300000004152697511252023459_);}
	.st45{clip-path:url(#SVGID_00000183230562239197750340000015136258448701127604_);}
	.st46{clip-path:url(#SVGID_00000119079105085524042510000015946706587812804748_);}
	.st47{clip-path:url(#SVGID_00000053516505440744668260000013879735189067643308_);}
	.st48{fill:#A03C56;}
	.st49{clip-path:url(#SVGID_00000047055306288308758240000005424493178269611449_);}
	.st50{clip-path:url(#SVGID_00000086658771943178573670000007573363664344840123_);}
	.st51{clip-path:url(#SVGID_00000157267962203944579290000010148574398713082509_);}
	.st52{clip-path:url(#SVGID_00000079473295285962325710000005566879629562006173_);}
	.st53{clip-path:url(#SVGID_00000137820618125189186500000010131846647551713443_);}
	.st54{clip-path:url(#SVGID_00000180367864819376827160000001341820221726686848_);}
	.st55{clip-path:url(#SVGID_00000000945316461708129440000006226213285350275989_);}
	.st56{clip-path:url(#SVGID_00000060744159548890626210000016050247785845954970_);}
	.st57{clip-path:url(#SVGID_00000106148501311662534810000007326880716827625138_);}
	.st58{clip-path:url(#SVGID_00000140737408931282744870000018287217780466000307_);}
	.st59{clip-path:url(#SVGID_00000009556385944611341150000011662541428468460213_);}
	.st60{clip-path:url(#SVGID_00000041996406822495237770000011651297197139650991_);}
	.st61{clip-path:url(#SVGID_00000136385406808521904160000006767868772707068094_);}
	.st62{clip-path:url(#SVGID_00000129165324795436519470000017283442999758262454_);}
	.st63{fill:none;}
	.st64{fill:#1388D6;}
	.st65{fill-rule:evenodd;clip-rule:evenodd;fill:#6EBE43;}
	.st66{fill-rule:evenodd;clip-rule:evenodd;fill:#1388D6;}
	.st67{fill:#62B536;}
	.st68{fill:#848688;}
	.st69{fill-rule:evenodd;clip-rule:evenodd;fill:url(#SVGID_00000094592794183354464750000003016429262912892817_);}
	.st70{fill-rule:evenodd;clip-rule:evenodd;fill:url(#SVGID_00000131351950819751432520000012668348054697868707_);}
	.st71{fill-rule:evenodd;clip-rule:evenodd;fill:#FFFFFF;}
	.st72{fill-rule:evenodd;clip-rule:evenodd;fill:url(#SVGID_00000151538546005298769080000004507959660627937925_);}
	.st73{fill-rule:evenodd;clip-rule:evenodd;fill:url(#SVGID_00000143590253787739058940000010988259731748809387_);}
	.st74{fill:url(#SVGID_00000008837819276393564540000001504178655006384314_);}
	.st75{fill:url(#SVGID_00000111886258450043231660000010670937571544553388_);}
	.st76{fill:url(#SVGID_00000183221680929331572440000016872852675318060476_);}
	.st77{fill:url(#SVGID_00000023998689770394683340000002012903801983838652_);}
	.st78{fill:url(#SVGID_00000150074351635764959660000017352997920937108356_);}
	.st79{fill:url(#SVGID_00000119799833533095065090000015579457251897916035_);}
	.st80{fill:url(#SVGID_00000150071281848557849270000011276869078182433418_);}
	.st81{clip-path:url(#SVGID_00000137817802325758401360000010885117111451494016_);}
	.st82{clip-path:url(#SVGID_00000023969775644023184620000005564566100617419965_);}
	.st83{clip-path:url(#SVGID_00000017479025552839667410000005277037076861183918_);}
	.st84{clip-path:url(#SVGID_00000163057434087117713140000010321668600014661808_);}
	.st85{clip-path:url(#SVGID_00000092449106181390208200000009017071111944969383_);}
	.st86{clip-path:url(#SVGID_00000009561986889609816480000010458193942496965504_);}
	.st87{clip-path:url(#SVGID_00000167378179524480038970000007697277265513271682_);}
	.st88{clip-path:url(#SVGID_00000100365711502468968570000001785124168618388912_);}
	.st89{clip-path:url(#SVGID_00000125590136169067685830000015511451066653250984_);}
	.st90{clip-path:url(#SVGID_00000101811182574938571630000011898580559961793190_);}
	.st91{clip-path:url(#SVGID_00000151527369851216402400000015104742464604966552_);}
	.st92{clip-path:url(#SVGID_00000179614316403719764030000017728646545229923205_);}
	.st93{clip-path:url(#SVGID_00000160152442695645872480000003085933818775037871_);}
	.st94{clip-path:url(#SVGID_00000063592587581089038330000013238805115168625828_);}
	.st95{clip-path:url(#SVGID_00000065782403097126240650000009602765401861528254_);}
	.st96{clip-path:url(#SVGID_00000093888936845574729690000014138930455523345302_);}
	.st97{clip-path:url(#SVGID_00000104674337363724154590000003641219793992445083_);}
	.st98{clip-path:url(#SVGID_00000101060833993615592840000016058643978778156196_);}
	.st99{clip-path:url(#SVGID_00000125577295644723760670000003876715291662570124_);}
	.st100{clip-path:url(#SVGID_00000105424512796393123790000006308586287966276766_);}
	.st101{clip-path:url(#SVGID_00000096746851586613483510000004704677265076765626_);}
	.st102{clip-path:url(#SVGID_00000091702624642712021470000014735766147144486058_);}
	.st103{clip-path:url(#SVGID_00000150815679460508871960000015535069883349864071_);}
	.st104{clip-path:url(#SVGID_00000000935386609095843370000002993436322441998219_);}
	.st105{clip-path:url(#SVGID_00000038403282876338807650000003153646273832089002_);}
	.st106{clip-path:url(#SVGID_00000176755278501674073270000012160554344379683207_);}
	.st107{clip-path:url(#SVGID_00000078005343862558499830000003592115678517821347_);}
	.st108{clip-path:url(#SVGID_00000059293781202864141290000003900936853140949413_);}
	.st109{clip-path:url(#SVGID_00000121962701704518173230000001864413319343284409_);}
	.st110{clip-path:url(#SVGID_00000148644001586293023050000015496051056992283571_);}
	.st111{clip-path:url(#SVGID_00000036244896477295850140000010750637592627024054_);}
	.st112{clip-path:url(#SVGID_00000054234432198840852500000011119164118272804779_);}
	.st113{clip-path:url(#SVGID_00000077319313449319084680000018036727070446999486_);}
	.st114{clip-path:url(#SVGID_00000131369475948655855670000004380778348933496255_);}
	.st115{clip-path:url(#SVGID_00000108270345006393128630000006496299190972733878_);}
	.st116{clip-path:url(#SVGID_00000148629153304594489920000016007293416888509057_);}
	.st117{clip-path:url(#SVGID_00000014596133400178816160000016811973601604588676_);}
	.st118{clip-path:url(#SVGID_00000172431657109135084780000013166132420877308073_);}
</style>
<g id="Background" class="st0">
	<rect class="st1" width="200" height="100"/>
</g>
<g id="Logos">
	<g>
		<path class="st3" d="M174.42,55.74c-1.45,0-2.62,1.18-2.62,2.63c0,1.45,1.18,2.62,2.63,2.62c1.45,0,2.62-1.18,2.62-2.63
			C177.05,56.91,175.87,55.74,174.42,55.74C174.42,55.74,174.42,55.74,174.42,55.74z"/>
		<path class="st3" d="M164.81,55.1v-8.71h4.8v-3.36h-4.8v-4.87h-2.92l-0.56,2.4c-0.4,1.64-0.88,2.52-2.6,2.8l-1.2,0.2v2.84h2.52
			v9.79c0,3.76,2.29,4.96,5,4.96c2.15,0,3.59-0.56,4.87-1.52v-3.16c-1.04,0.48-2.04,0.84-3,0.84
			C165.49,57.3,164.81,56.61,164.81,55.1z"/>
		<path class="st3" d="M149.78,46.15l-4.41-0.84c-2.17-0.44-3.43-1.08-3.43-2.92c0-2.16,1.6-3.48,4.42-3.48
			c2.48,0,4.31,1.04,5.11,3.04l0,0l0.02,0.07c0.04,0.11,0.09,0.23,0.12,0.34c0.51,1.21,1.46,1.16,1.46,1.16h3.2
			c-0.26-5.32-3.77-8.53-9.87-8.53c-5.6,0-9.15,3.04-9.15,7.75c0,4.16,2.59,6.32,6.32,7.04l4.57,0.88c2.52,0.52,3.96,1.24,3.96,3.16
			c0,2.12-1.9,3.36-4.87,3.36c-3.35,0-6.05-1.76-6.24-5.67l-4.39,0.2c0,6.07,4.45,9.43,10.62,9.43c5.41,0,9.48-2.68,9.48-7.63
			C156.71,49.43,154.5,47.07,149.78,46.15z"/>
		<rect x="103.56" y="35.48" class="st3" width="4.56" height="25.17"/>
		<path class="st3" d="M100.69,46c0.57-1.56,0.02-3.13,0-3.19l0,0c-1.1,0.94-2.63,1.05-3.89,0.91c-0.61-0.07-1.21-0.19-1.8-0.36
			c-0.78-0.29-1.6-0.47-2.43-0.53l0,0l-0.28-0.02h-0.28h-0.16h-0.28l-0.28,0.02l0,0c-4.84,0.35-8.48,4.56-8.13,9.4
			c0.17,2.36,1.29,4.55,3.09,6.08c-0.78,0.66-1.45,1.44-1.96,2.32c-0.6,1.04-0.99,2.2-1.12,3.4v0.42c0,0.3,0.24,0.54,0.54,0.54H87
			c0.29,0,0.52-0.22,0.54-0.51l0,0c0.27-2.21,2.15-3.86,4.37-3.86h0.02c2.22,0,4.09,1.66,4.36,3.86h0.01
			c0.02,0.29,0.26,0.51,0.54,0.51h3.28c0.3,0,0.54-0.24,0.54-0.54v-0.42c-0.13-1.2-0.51-2.36-1.12-3.41
			c-0.51-0.88-1.17-1.67-1.94-2.32c3.16-2.66,4.03-7.16,2.1-10.81c0.08-0.07,0.15-0.15,0.21-0.23
			C100.26,46.9,100.52,46.47,100.69,46z M92.78,55.74l-0.2,0.04h-0.07l-0.14,0.02h-0.08h-0.13h-0.09h-0.32h-0.09l-0.12,0.03h-0.08
			l-0.14-0.02h-0.07l-0.2-0.04c-2.29-0.48-3.76-2.74-3.28-5.03c0.35-1.64,1.63-2.93,3.28-3.28c0.57-0.12,1.16-0.12,1.73,0
			c2.29,0.48,3.77,2.72,3.29,5.02c-0.34,1.65-1.64,2.94-3.29,3.29L92.78,55.74z"/>
		<path class="st3" d="M81.25,46c0.57-1.56,0.02-3.13,0-3.19l0,0c-1.1,0.94-2.63,1.05-3.89,0.91c-0.61-0.07-1.21-0.19-1.8-0.36
			c-0.78-0.29-1.6-0.47-2.43-0.53l0,0l-0.28-0.02h-0.28h-0.16h-0.28l-0.28,0.02l0,0c-4.84,0.35-8.48,4.56-8.13,9.4
			c0.17,2.36,1.29,4.55,3.09,6.08c-0.78,0.66-1.45,1.44-1.96,2.32c-0.6,1.04-0.99,2.2-1.12,3.4v0.42c0,0.3,0.24,0.54,0.54,0.54h3.28
			c0.29,0,0.52-0.22,0.54-0.51h0.01c0.27-2.2,2.14-3.85,4.36-3.86h0.02c2.22,0,4.09,1.66,4.36,3.86h0.01
			C76.88,64.78,77.12,65,77.4,65h3.28c0.3,0,0.54-0.24,0.54-0.54v-0.42c-0.13-1.2-0.51-2.36-1.12-3.41
			c-0.51-0.88-1.17-1.67-1.94-2.32c3.16-2.66,4.03-7.16,2.1-10.81c0.08-0.07,0.15-0.15,0.21-0.23C80.82,46.9,81.08,46.47,81.25,46z
			 M73.34,55.74l-0.2,0.04h-0.07l-0.14,0.02h-0.08h-0.13h-0.09h-0.32h-0.09l-0.12,0.03h-0.08l-0.14-0.02h-0.07l-0.2-0.04
			c-2.29-0.48-3.76-2.74-3.28-5.03c0.35-1.64,1.63-2.93,3.28-3.28c0.57-0.12,1.16-0.12,1.73,0c2.29,0.48,3.77,2.72,3.29,5.02
			c-0.34,1.65-1.64,2.94-3.29,3.29L73.34,55.74z"/>
		<path class="st3" d="M56.88,52.46c0,3-1.44,4.91-3.79,4.91c-2.36,0-3.36-1.6-3.36-4.27V43.02h-4.8v11.03
			c0,3.92,1.6,7.07,6.27,7.07c2.68,0,4.75-1.32,5.67-3.36v2.88h4.8V43.02h-4.8L56.88,52.46z"/>
		<path class="st3" d="M37.11,51.5c0,3.68-1.44,5.43-4.48,5.43c-3.04,0-4.64-2.12-4.88-5.76l-4.8,0.2c0.16,6.35,3.84,9.75,9.67,9.75
			c5.64,0,9.47-2.96,9.47-9.31V35.48h-4.98V51.5z"/>
		<path class="st3" d="M128.13,50.83c0-0.11-0.01-0.23-0.03-0.33c0-0.04,0-0.07,0-0.11c-0.01-0.13-0.03-0.25-0.05-0.38l0,0
			c-0.02-0.1-0.03-0.2-0.05-0.3c-0.78-4.29-4.46-7.55-8.88-7.55h-0.18c-4.35,0.09-7.92,3.31-8.69,7.55
			c-0.1,0.57-0.16,1.14-0.16,1.72c0,0.5,0.04,0.99,0.12,1.49c0.69,4.35,4.32,7.68,8.74,7.78h0.18c3.58-0.02,6.81-2.15,8.23-5.44
			h-0.03l-3.41-1.13c-0.94,1.79-2.79,2.91-4.8,2.91c-2.31,0-4.25-1.74-4.84-4.12h13.75c0.03-0.17,0.05-0.33,0.06-0.5
			c0-0.03,0-0.06,0-0.08c0-0.11,0.02-0.23,0.03-0.34c0-0.04,0-0.08,0-0.12c0-0.14,0-0.29,0-0.44c0-0.15,0-0.31-0.01-0.46
			C128.13,50.91,128.13,50.87,128.13,50.83z M123.9,49.7h-9.57c0.65-2.25,2.54-3.89,4.78-3.89c2.4,0.02,4.5,1.59,5.2,3.89H123.9z"/>
	</g>
</g>
</svg>
