<?xml version="1.0" encoding="utf-8"?>
<!-- Generator: Adobe Illustrator 27.3.1, SVG Export Plug-In . SVG Version: 6.00 Build 0)  -->
<svg version="1.1" xmlns="http://www.w3.org/2000/svg" xmlns:xlink="http://www.w3.org/1999/xlink" x="0px" y="0px"
	 viewBox="0 0 200 100" style="enable-background:new 0 0 200 100;" xml:space="preserve">
<style type="text/css">
	.st0{display:none;}
	.st1{display:inline;}
	.st2{fill:#080F27;}
	.st3{fill:#2A9B49;}
	.st4{fill:#ED1B25;}
	.st5{fill:#033572;}
	.st6{fill-rule:evenodd;clip-rule:evenodd;}
	.st7{fill:#FD393C;}
	.st8{fill:#FFFFFF;}
	.st9{fill:#FABB16;}
	.st10{fill:#5F5F5F;}
	.st11{fill:#0080FF;}
	.st12{fill-rule:evenodd;clip-rule:evenodd;fill:#0080FF;}
	.st13{fill:#E84E0F;}
	.st14{fill:#263238;}
	.st15{fill:#D4E157;}
	.st16{fill:url(#SVGID_1_);}
	.st17{fill:url(#SVGID_00000038381238998288482930000011418503253001153179_);}
	.st18{fill:url(#SVGID_00000016049251636674086990000000037925550336626086_);}
	.st19{fill:url(#SVGID_00000109748110352403394420000000561192828313722300_);}
	.st20{fill:url(#SVGID_00000139292177288977380550000004326331140441714591_);}
	.st21{fill:url(#SVGID_00000104680398062523026310000008638441519716069292_);}
	.st22{fill:url(#SVGID_00000137114468449026267010000011369450388006910090_);}
	.st23{fill:#E63351;}
	.st24{clip-path:url(#SVGID_00000162340009099341822680000002784295087747463589_);}
	.st25{clip-path:url(#SVGID_00000003808047764860949910000016986859992994180743_);}
	.st26{clip-path:url(#SVGID_00000161604249648720700590000001804771478147678625_);}
	.st27{clip-path:url(#SVGID_00000097487049366534490760000001248332383346363305_);}
	.st28{clip-path:url(#SVGID_00000100382913134465374730000017477288846816612491_);}
	.st29{clip-path:url(#SVGID_00000013177231856070595270000017050806390516524729_);}
	.st30{clip-path:url(#SVGID_00000173133017470697311350000001026488550624257949_);}
	.st31{clip-path:url(#SVGID_00000065046759442780243420000012905956297923071911_);}
	.st32{clip-path:url(#SVGID_00000063618395844694246020000007701762857728485802_);}
	.st33{clip-path:url(#SVGID_00000125593969301586167190000009906522972982491321_);}
	.st34{clip-path:url(#SVGID_00000147904126302623560520000007154535741376990641_);}
	.st35{clip-path:url(#SVGID_00000139291448383275121820000011651848528844945308_);}
	.st36{clip-path:url(#SVGID_00000042695644104161649150000004464747192830243483_);}
	.st37{clip-path:url(#SVGID_00000165212335432861318320000011082566783849941924_);}
	.st38{clip-path:url(#SVGID_00000103254101132287043240000001728598447081191847_);}
	.st39{clip-path:url(#SVGID_00000082369494225814954020000002610219451186714257_);}
	.st40{clip-path:url(#SVGID_00000021096444851916145300000005432579762828840890_);}
	.st41{clip-path:url(#SVGID_00000047755772138380422430000016906742934437308085_);}
	.st42{clip-path:url(#SVGID_00000079472223610550440240000007863995499691151031_);}
	.st43{clip-path:url(#SVGID_00000156564841595619193480000005222991641664041651_);}
	.st44{clip-path:url(#SVGID_00000026137391018485606580000009654911491959157412_);}
	.st45{clip-path:url(#SVGID_00000009585216423398370430000013394819992265932222_);}
	.st46{clip-path:url(#SVGID_00000142136699272660553830000011268333548026698640_);}
	.st47{clip-path:url(#SVGID_00000080207661613602759300000015569278115897589934_);}
	.st48{fill:#A03C56;}
	.st49{clip-path:url(#SVGID_00000040562338451688315040000011280235577604647318_);}
	.st50{clip-path:url(#SVGID_00000158728914584009749990000009940844225353583550_);}
	.st51{clip-path:url(#SVGID_00000154389538905674766760000003454601310422778534_);}
	.st52{clip-path:url(#SVGID_00000121272191749640391160000002531057391004937600_);}
	.st53{clip-path:url(#SVGID_00000065054850092100131380000004227958559225812138_);}
	.st54{clip-path:url(#SVGID_00000082334929225324634210000004301825874293854080_);}
	.st55{clip-path:url(#SVGID_00000177476835482389359990000006659555323104832393_);}
	.st56{clip-path:url(#SVGID_00000072961535730790735720000011512132247361577395_);}
	.st57{clip-path:url(#SVGID_00000105407274967784463610000007701701380275988661_);}
	.st58{clip-path:url(#SVGID_00000088134576942031261880000014398704796237464719_);}
	.st59{clip-path:url(#SVGID_00000014601588085799476740000018151064876848767125_);}
	.st60{clip-path:url(#SVGID_00000092420636333637527820000015960442218214299553_);}
	.st61{clip-path:url(#SVGID_00000025435325955280940210000000479859867225768834_);}
	.st62{clip-path:url(#SVGID_00000094586373451850350530000009659262916426591630_);}
	.st63{fill:none;}
	.st64{fill:#1388D6;}
	.st65{fill-rule:evenodd;clip-rule:evenodd;fill:#6EBE43;}
	.st66{fill-rule:evenodd;clip-rule:evenodd;fill:#1388D6;}
	.st67{fill:#62B536;}
	.st68{fill:#848688;}
	.st69{fill-rule:evenodd;clip-rule:evenodd;fill:url(#SVGID_00000024699076574279014730000017674737867788867751_);}
	.st70{fill-rule:evenodd;clip-rule:evenodd;fill:url(#SVGID_00000117663489895370601550000016294437535233102510_);}
	.st71{fill-rule:evenodd;clip-rule:evenodd;fill:#FFFFFF;}
	.st72{fill-rule:evenodd;clip-rule:evenodd;fill:url(#SVGID_00000012474380432810573820000004316309964513542816_);}
	.st73{fill-rule:evenodd;clip-rule:evenodd;fill:url(#SVGID_00000116941618440360807930000012014602501443974321_);}
	.st74{fill:url(#SVGID_00000182514114086254146030000014056423458223762086_);}
	.st75{fill:url(#SVGID_00000144305942967266354220000005684285258553928588_);}
	.st76{fill:url(#SVGID_00000070112902936286994400000016556985203806942855_);}
	.st77{fill:url(#SVGID_00000062894241413768735540000010897695378980294317_);}
	.st78{fill:url(#SVGID_00000074432690957766150860000002421008513875433885_);}
	.st79{fill:url(#SVGID_00000088093913117659441800000010790033838515161789_);}
	.st80{fill:url(#SVGID_00000079475583880783250320000014987598464295439761_);}
	.st81{clip-path:url(#SVGID_00000164513282500260235910000003302925782268638897_);}
	.st82{clip-path:url(#SVGID_00000181772157575275394920000017651444172594035079_);}
	.st83{clip-path:url(#SVGID_00000084529809799763450390000009432637417132157589_);}
	.st84{clip-path:url(#SVGID_00000119082589894102938920000014854055594397675449_);}
	.st85{clip-path:url(#SVGID_00000126291097236848254360000013850194817790884229_);}
	.st86{clip-path:url(#SVGID_00000108267279448895662460000012385329661927675069_);}
	.st87{clip-path:url(#SVGID_00000060734808395102216980000007223282913680895624_);}
	.st88{clip-path:url(#SVGID_00000054230961888629349520000013976188896968909989_);}
	.st89{clip-path:url(#SVGID_00000011003383221425533750000005093214412965745280_);}
	.st90{clip-path:url(#SVGID_00000039092759143620620210000003287898917660980128_);}
	.st91{clip-path:url(#SVGID_00000056418186082704962860000017935288634229361285_);}
	.st92{clip-path:url(#SVGID_00000041980484825952268240000012242089125931463323_);}
	.st93{clip-path:url(#SVGID_00000145744387253582407260000012849234001756214664_);}
	.st94{clip-path:url(#SVGID_00000039104454244143885400000004877660349616148383_);}
	.st95{clip-path:url(#SVGID_00000070839083733398838080000006509753052368086949_);}
	.st96{clip-path:url(#SVGID_00000171715882321085325400000007169859438160407438_);}
	.st97{clip-path:url(#SVGID_00000162322094682518378050000002925224390552137380_);}
	.st98{clip-path:url(#SVGID_00000151542448621806597320000014781962860827883194_);}
	.st99{clip-path:url(#SVGID_00000176747526970687862260000001815119440839703988_);}
	.st100{clip-path:url(#SVGID_00000168837910384159889830000006872036914840746626_);}
	.st101{clip-path:url(#SVGID_00000132090520202507555120000007508075369101372544_);}
	.st102{clip-path:url(#SVGID_00000009587902684092900340000006700560070342190984_);}
	.st103{clip-path:url(#SVGID_00000146472311428099866340000007761068656073994399_);}
	.st104{clip-path:url(#SVGID_00000077301179155128195970000003756754043243658636_);}
	.st105{clip-path:url(#SVGID_00000169531725416856024830000010026934503753006219_);}
	.st106{clip-path:url(#SVGID_00000048474921222155173710000015997443216479475841_);}
	.st107{clip-path:url(#SVGID_00000119822210573798971830000007791854557819190435_);}
	.st108{clip-path:url(#SVGID_00000106133306383576998800000014683859059006575796_);}
	.st109{clip-path:url(#SVGID_00000002374255424965569490000004172092256487500689_);}
	.st110{clip-path:url(#SVGID_00000168836224525693490940000008097600331495428285_);}
	.st111{clip-path:url(#SVGID_00000028314286525722066370000002881207982395565456_);}
	.st112{clip-path:url(#SVGID_00000103970428196266921980000016932451280510239879_);}
	.st113{clip-path:url(#SVGID_00000061435168020267575700000005690873526760223109_);}
	.st114{clip-path:url(#SVGID_00000054970037650814470610000018082732331383661199_);}
	.st115{clip-path:url(#SVGID_00000052800767787819402550000001289578183942278588_);}
	.st116{clip-path:url(#SVGID_00000071559546535762838140000005901944218096114358_);}
	.st117{clip-path:url(#SVGID_00000119084379689028429100000004390121571184644765_);}
	.st118{clip-path:url(#SVGID_00000082344871648777433180000004649666605523578254_);}
</style>
<g id="Background" class="st0">
	<rect class="st1" width="200" height="100"/>
</g>
<g id="Logos">
	<g>
		<path class="st8" d="M141.68,26h-24.32c-5.76,0-8.56,4.08-8.56,4.08S107.52,26,103.36,26h-6.72c-4.16,0-5.52,4.08-5.52,4.08
			S88.16,26,81.76,26c-7.68,0-10.64,6.24-11.52,6.24c-0.8,0-3.76-6.24-11.44-6.24c-8.4,0-12.32,5.92-12.32,11.52v25.36
			c0,4.56,4.72,11.12,12.4,11.12c3.04,0,4.4-1.76,4.4-1.76s1.6,1.6,3.92,1.6h6.16c3.04,0,4.48-1.84,4.48-1.84s2,2,4.32,2
			c6.16,0,9.12-4.4,9.12-4.4s0.8,4.24,5.36,4.24h6.72c3.84,0,5.44-4.24,5.44-4.24s2.4,4.24,8.56,4.24h24.24
			c5.92,0,11.92-5.52,11.92-11.44V37.52C153.52,31.36,147.76,26,141.68,26z M138.64,54.56c0,2.56-1.84,4.4-4.4,4.4h-9.28
			c-2.56,0-4.4-1.84-4.4-4.4v-9.28c0-2.56,1.84-4.4,4.4-4.4h9.28c2.56,0,4.4,1.84,4.4,4.4C138.64,45.28,138.64,54.56,138.64,54.56z"
			/>
		<path d="M105.84,32v6.4c0,1.44-1.2,2.72-2.72,2.72h-6.24c-1.52,0-2.72-1.2-2.72-2.72V32c0-1.52,1.2-2.72,2.72-2.72h6.32
			C104.64,29.28,105.84,30.56,105.84,32z M150.32,37.52v25.36c0,3.52-4.72,7.68-8.64,7.68h-24.24c-4.48,0-8.4-4.32-8.4-7.68
			c0-8.24,0.08-16.88,0-25.36c0-4.08,4.64-8.24,8.4-8.24c8.08-0.08,16.16-0.08,24.16-0.08C145.84,29.28,150.32,33.2,150.32,37.52z
			 M138.64,45.28c0-2.56-1.84-4.4-4.4-4.4h-9.28c-2.56,0-4.4,1.84-4.4,4.4v9.28c0,2.56,1.84,4.4,4.4,4.4h9.28
			c2.56,0,4.4-1.84,4.4-4.4C138.64,54.56,138.64,45.28,138.64,45.28z M81.84,29.2c-6.88,0-8.4,7.04-11.52,7.04
			c-3.12,0-4.56-7.04-11.44-7.04c-5.2,0-9.12,4.64-9.12,8.32c0,9.84,0,16.4,0,25.36c0,4.48,5.28,7.92,8.24,7.92
			c3.12,0,3.28-2.64,3.28-2.64V43.12c0-0.88,0.72-1.6,1.6-1.6c0.88,0,1.6,0.72,1.6,1.6v25.36c0,1.36,1.36,2.16,2.72,2.16h5.84
			c1.44,0,3.12-0.64,3.12-2.08V43.12c0-0.88,0.72-1.6,1.6-1.6s1.6,0.72,1.6,1.6v24.96c0,0,0.16,2.64,3.28,2.64
			c2.96,0,8.24-3.44,8.24-7.92V37.52C90.88,33.28,86.72,29.2,81.84,29.2z M103.2,44.32h-6.24c-1.44,0-2.72,1.2-2.72,2.72V68
			c0,1.44,1.2,2.72,2.72,2.72h6.24c1.44,0,2.72-1.2,2.72-2.72V46.96C105.84,45.52,104.64,44.32,103.2,44.32z"/>
		<path class="st8" d="M123.76,44.88v10.16c0,0.4,0.32,0.8,0.8,0.8h10.16c0.4,0,0.8-0.32,0.8-0.8V44.88c0-0.4-0.32-0.8-0.8-0.8
			h-10.16C124.08,44.08,123.76,44.4,123.76,44.88z M124.96,40.88h9.28c2.56,0,4.4,1.84,4.4,4.4v9.28c0,2.56-1.84,4.4-4.4,4.4h-9.28
			c-2.56,0-4.4-1.84-4.4-4.4v-9.28C120.56,42.72,122.4,40.88,124.96,40.88z"/>
	</g>
</g>
</svg>
