<?xml version="1.0" encoding="utf-8"?>
<!-- Generator: Adobe Illustrator 27.3.1, SVG Export Plug-In . SVG Version: 6.00 Build 0)  -->
<svg version="1.1" xmlns="http://www.w3.org/2000/svg" xmlns:xlink="http://www.w3.org/1999/xlink" x="0px" y="0px"
	 viewBox="0 0 200 100" style="enable-background:new 0 0 200 100;" xml:space="preserve">
<style type="text/css">
	.st0{display:none;}
	.st1{display:inline;}
	.st2{fill:#080F27;}
	.st3{fill:#2A9B49;}
	.st4{fill:#ED1B25;}
	.st5{fill:#033572;}
	.st6{fill-rule:evenodd;clip-rule:evenodd;}
	.st7{fill:#FD393C;}
	.st8{fill:#FFFFFF;}
	.st9{fill:#FABB16;}
	.st10{fill:#5F5F5F;}
	.st11{fill:#0080FF;}
	.st12{fill-rule:evenodd;clip-rule:evenodd;fill:#0080FF;}
	.st13{fill:#E84E0F;}
	.st14{fill:#263238;}
	.st15{fill:#D4E157;}
	.st16{fill:url(#SVGID_1_);}
	.st17{fill:url(#SVGID_00000132058692824762473800000001232603103669765810_);}
	.st18{fill:url(#SVGID_00000049190384647799070670000000543398248952773002_);}
	.st19{fill:url(#SVGID_00000048489896737220317830000001036114318787990914_);}
	.st20{fill:url(#SVGID_00000116922577692497987530000011398266360177804465_);}
	.st21{fill:url(#SVGID_00000172406112409683436400000002127695005671721382_);}
	.st22{fill:url(#SVGID_00000029017937313316171410000007167080378952969889_);}
	.st23{fill:#E63351;}
	.st24{clip-path:url(#SVGID_00000093891521756383788450000013003170187083352215_);}
	.st25{clip-path:url(#SVGID_00000106868182131521219750000016071785335721133982_);}
	.st26{clip-path:url(#SVGID_00000023251690526335290480000013421134628379751813_);}
	.st27{clip-path:url(#SVGID_00000091736467664112948510000003703400617096587962_);}
	.st28{clip-path:url(#SVGID_00000018212846285875299060000008956413295532894389_);}
	.st29{clip-path:url(#SVGID_00000074416236743462636770000002613423165142195619_);}
	.st30{clip-path:url(#SVGID_00000159470142708900397420000010470731101781738933_);}
	.st31{clip-path:url(#SVGID_00000017508733390245512290000011236432025424533907_);}
	.st32{clip-path:url(#SVGID_00000128461346716913561150000010217975878161998224_);}
	.st33{clip-path:url(#SVGID_00000057834139364287273050000007426776690672419983_);}
	.st34{clip-path:url(#SVGID_00000134944353098309442530000005735196745918056322_);}
	.st35{clip-path:url(#SVGID_00000121257466035336686590000014486787701219276979_);}
	.st36{clip-path:url(#SVGID_00000159436184895062780340000010152287781381880449_);}
	.st37{clip-path:url(#SVGID_00000140009256149892231550000016288259058514098318_);}
	.st38{clip-path:url(#SVGID_00000093167037039396678520000000946208875984032925_);}
	.st39{clip-path:url(#SVGID_00000091002845025178600740000009498011052424535226_);}
	.st40{clip-path:url(#SVGID_00000115496129634192208530000001017653758525694874_);}
	.st41{clip-path:url(#SVGID_00000110447460776630664680000011148417576069847190_);}
	.st42{clip-path:url(#SVGID_00000125595790329303565150000017382526593514463649_);}
	.st43{clip-path:url(#SVGID_00000003065198427024910620000012425948430148628668_);}
	.st44{clip-path:url(#SVGID_00000106127297942143541820000011567285211158434464_);}
	.st45{clip-path:url(#SVGID_00000036941924813139213760000005542717933402837924_);}
	.st46{clip-path:url(#SVGID_00000124876871726622060330000010146555510055004346_);}
	.st47{clip-path:url(#SVGID_00000175298419288195326640000003647844648098145157_);}
	.st48{fill:#A03C56;}
	.st49{clip-path:url(#SVGID_00000006708581541528545810000011538306867166215564_);}
	.st50{clip-path:url(#SVGID_00000150083807830657284520000017810136499070867082_);}
	.st51{clip-path:url(#SVGID_00000051372267230900749070000002033130841147940480_);}
	.st52{clip-path:url(#SVGID_00000158013066473271015280000016894527681949464739_);}
	.st53{clip-path:url(#SVGID_00000111886683295366215360000015813817503141743498_);}
	.st54{clip-path:url(#SVGID_00000117664895547825219150000005803337851288891577_);}
	.st55{clip-path:url(#SVGID_00000158016189321082241660000015399652072218971306_);}
	.st56{clip-path:url(#SVGID_00000045587835420653625400000000519042585415920267_);}
	.st57{clip-path:url(#SVGID_00000132085497429404789240000012533165874253493654_);}
	.st58{clip-path:url(#SVGID_00000070839552386463616080000018089480330288527797_);}
	.st59{clip-path:url(#SVGID_00000057145433734567382150000013674945024822240912_);}
	.st60{clip-path:url(#SVGID_00000090256173438378244540000016181546443050400135_);}
	.st61{clip-path:url(#SVGID_00000091707377606434688620000003441416213024918664_);}
	.st62{clip-path:url(#SVGID_00000101810751304750956780000016353728978647289730_);}
	.st63{fill:none;}
	.st64{fill:#1388D6;}
	.st65{fill-rule:evenodd;clip-rule:evenodd;fill:#6EBE43;}
	.st66{fill-rule:evenodd;clip-rule:evenodd;fill:#1388D6;}
	.st67{fill:#62B536;}
	.st68{fill:#848688;}
	.st69{fill-rule:evenodd;clip-rule:evenodd;fill:url(#SVGID_00000012441019609710457830000007251542796394451596_);}
	.st70{fill-rule:evenodd;clip-rule:evenodd;fill:url(#SVGID_00000145760577100149544940000017386988929870629025_);}
	.st71{fill-rule:evenodd;clip-rule:evenodd;fill:#FFFFFF;}
	.st72{fill-rule:evenodd;clip-rule:evenodd;fill:url(#SVGID_00000102528948402226322290000000124018562108875189_);}
	.st73{fill-rule:evenodd;clip-rule:evenodd;fill:url(#SVGID_00000060013262758942769920000008630107721539996082_);}
	.st74{fill:url(#SVGID_00000068671137274442021060000007971214097624422588_);}
	.st75{fill:url(#SVGID_00000145774788736192723380000008046257291692926848_);}
	.st76{fill:url(#SVGID_00000121971530238239706440000004203427728893380486_);}
	.st77{fill:url(#SVGID_00000060743485151690304240000002180266663044287887_);}
	.st78{fill:url(#SVGID_00000082342110328121164810000002410578293887214512_);}
	.st79{fill:url(#SVGID_00000127020148595003795780000016401414001657047438_);}
	.st80{fill:url(#SVGID_00000109707938842779933010000017761849929995896504_);}
	.st81{clip-path:url(#SVGID_00000152250796197702732740000001485207978520793791_);}
	.st82{clip-path:url(#SVGID_00000005950984730619666130000004195914004359020452_);}
	.st83{clip-path:url(#SVGID_00000000201654048118087070000002401305590763507127_);}
	.st84{clip-path:url(#SVGID_00000010306612933801366990000010989229628536329650_);}
	.st85{clip-path:url(#SVGID_00000012466184548573290660000004894106574457652615_);}
	.st86{clip-path:url(#SVGID_00000084499237058621138030000016399536907199006873_);}
	.st87{clip-path:url(#SVGID_00000054228397083768968710000006397308030347789477_);}
	.st88{clip-path:url(#SVGID_00000078015834266070063900000004878304138214220987_);}
	.st89{clip-path:url(#SVGID_00000042702013449805220740000014186983044488723385_);}
	.st90{clip-path:url(#SVGID_00000101812858648308902500000002760494814793030846_);}
	.st91{clip-path:url(#SVGID_00000147936712311435932880000018203113942087663031_);}
	.st92{clip-path:url(#SVGID_00000150073959032190737570000003979012475481266366_);}
	.st93{clip-path:url(#SVGID_00000030463667857093164620000002308685954816513667_);}
	.st94{clip-path:url(#SVGID_00000157998066760803981270000014745081784485307026_);}
	.st95{clip-path:url(#SVGID_00000036961454339223887790000001696842508294473128_);}
	.st96{clip-path:url(#SVGID_00000134971478709981911190000010298122728828986242_);}
	.st97{clip-path:url(#SVGID_00000134951027910171684260000008494275267369826968_);}
	.st98{clip-path:url(#SVGID_00000124847795699754565130000000135263015390713763_);}
	.st99{clip-path:url(#SVGID_00000067937266851199815310000015052945890289011083_);}
	.st100{clip-path:url(#SVGID_00000016050916488518854560000006230910908770445717_);}
	.st101{clip-path:url(#SVGID_00000029766417424700311740000000947983090646695561_);}
	.st102{clip-path:url(#SVGID_00000137104169515260505570000008379052828962560920_);}
	.st103{clip-path:url(#SVGID_00000146466689651075699620000012185347466469851021_);}
	.st104{clip-path:url(#SVGID_00000051372399521842872740000003928426775965381765_);}
	.st105{clip-path:url(#SVGID_00000137121575774679531780000016615650103929836173_);}
	.st106{clip-path:url(#SVGID_00000130609150862976739900000007927224066159438242_);}
	.st107{clip-path:url(#SVGID_00000181075203690141905540000005858304392217390232_);}
	.st108{clip-path:url(#SVGID_00000180332759473166940180000016296327458372121513_);}
	.st109{clip-path:url(#SVGID_00000079448446271265201280000012768779129378224301_);}
	.st110{clip-path:url(#SVGID_00000136411197263622862420000011538815777950451618_);}
	.st111{clip-path:url(#SVGID_00000020398288631244445930000001872564116733354883_);}
	.st112{clip-path:url(#SVGID_00000178906712942433908410000015050219966060623767_);}
	.st113{clip-path:url(#SVGID_00000075883473509377342240000012547948691845935256_);}
	.st114{clip-path:url(#SVGID_00000067207196611985808840000001322086750410894012_);}
	.st115{clip-path:url(#SVGID_00000062896561621927973060000006481691672393336229_);}
	.st116{clip-path:url(#SVGID_00000075864006221629299240000017560142754023009179_);}
	.st117{clip-path:url(#SVGID_00000158016960755400207460000001571548447158837175_);}
	.st118{clip-path:url(#SVGID_00000134935949666822191080000018168424215479203489_);}
</style>
<g id="Background" class="st0">
	<rect class="st1" width="200" height="100"/>
</g>
<g id="Logos">
	<g id="Layer_x0020_1_00000090285402794876757720000006002181094520416154_">
		<g id="_66550480_00000042724947761517990250000008387885582683992246_">
			<rect x="12.63" y="27" class="st63" width="174.75" height="46"/>
			<g>
				<path class="st64" d="M25.04,42.86c0.06-0.15,0.11-0.28,0.16-0.42c-0.12,0.26-0.19,0.41-0.19,0.4L25.04,42.86z"/>
				<path class="st64" d="M55.75,36.93l-2.29,9.69c0.68,0.46,1.13,1.25,1.13,2.13c0,1.44-1.16,2.57-2.57,2.57
					c-1.44,0-2.57-1.16-2.57-2.57c0-1.29,0.95-2.34,2.17-2.53l2.07-9.43h-2.37l-3.9,17c-1.87,8.11-3.83-21.39-12.37-23.24
					c-0.14-0.02-0.25-0.05-0.39-0.05c-2.56-0.2-5.91,2.64-9.45,11.93c1.12-2.34,7.08-14.04,11.87-6.12c1.48,2.46,2.48,6.2,3.39,9.3
					c1.75,5.95,3.96,13.83,4.67,15.4c1.28,2.85,5.76,3.28,8.13-5.06l5.42-18.98L55.75,36.93z"/>
			</g>
			<g>
				<path class="st64" d="M43.95,63.04c-1.48-2.46-2.48-6.2-3.39-9.3c-1.75-5.95-3.96-13.83-4.67-15.4
					c-1.28-2.85-5.76-3.28-8.13,5.06l-5.42,18.98l2.94,0.05l2.14-9.08c-0.66-0.47-1.1-1.24-1.1-2.1c0-1.44,1.16-2.57,2.57-2.57
					c1.44,0,2.57,1.16,2.57,2.57c0,1.3-0.96,2.35-2.2,2.54l-1.93,8.79h2.37l3.9-17c1.87-8.11,3.83,21.39,12.37,23.24
					c0.14,0.02,0.25,0.05,0.39,0.05c2.56,0.2,5.91-2.64,9.45-11.93C54.7,59.27,48.74,70.97,43.95,63.04z"/>
				<path class="st64" d="M55.98,56.5c-0.05,0.15-0.11,0.28-0.16,0.42c0.12-0.26,0.19-0.41,0.19-0.4L55.98,56.5z"/>
			</g>
			<path class="st65" d="M17.3,56.94c-1.29,0.13-2.31,1.21-2.31,2.55c0,1.41,1.14,2.57,2.57,2.57c1.41,0,2.57-1.14,2.57-2.57
				c0-0.73-0.31-1.39-0.8-1.86l4.19-13.82c3.3-12.8,9.98-14.76,9.98-14.76C24.48,28.38,20.49,45.29,17.3,56.94z M17.57,60.63
				c-0.64,0-1.14-0.52-1.14-1.14c0-0.64,0.52-1.14,1.14-1.14c0.64,0,1.14,0.52,1.14,1.14C18.71,60.13,18.18,60.63,17.57,60.63z"/>
			<path class="st65" d="M63.84,36.91c-1.41,0-2.57,1.14-2.57,2.57c0,0.61,0.22,1.17,0.58,1.61l-4.39,14.45
				c-3.3,12.8-9.98,14.76-9.98,14.76c9.13,0.68,13.11-16.6,16.32-28.26c0.01,0,0.03,0,0.04,0c1.41,0,2.57-1.14,2.57-2.57
				C66.42,38.07,65.28,36.91,63.84,36.91z M63.84,40.62c-0.64,0-1.14-0.52-1.14-1.14c0-0.64,0.52-1.14,1.14-1.14
				c0.64,0,1.14,0.52,1.14,1.14C64.98,40.12,64.46,40.62,63.84,40.62z"/>
			<path class="st66" d="M52.02,47.62c0.64,0,1.14,0.52,1.14,1.14c0,0.64-0.52,1.14-1.14,1.14c-0.64,0-1.14-0.52-1.14-1.14
				C50.88,48.12,51.4,47.62,52.02,47.62z"/>
			<path class="st66" d="M28.89,50.1c0.64,0,1.14,0.52,1.14,1.14c0,0.64-0.52,1.14-1.14,1.14c-0.64,0-1.14-0.52-1.14-1.14
				C27.75,50.6,28.28,50.1,28.89,50.1z"/>
			<path class="st64" d="M91.87,55.34h-3.33c0-0.96,0-2.6,0.02-4.94c0.02-2.32,0.02-4.12,0.02-5.4v-1.28h-8.29V45
				c0,1.25,0,3.08,0.02,5.42c0.02,2.35,0.02,3.99,0.02,4.92h-3.3v-3.9V40.47h10.91c0.66,0,1.28,0.16,1.89,0.5
				c0.62,0.32,1.09,0.77,1.48,1.37c0.39,0.57,0.57,1.21,0.57,1.85v11.16H91.87z M97.93,40.53h7.09c1.07,0,1.98,0.39,2.73,1.16
				c0.77,0.77,1.16,1.69,1.16,2.78v6.97c0,1.07-0.39,1.98-1.16,2.73c-0.77,0.77-1.69,1.16-2.73,1.16h-7.09
				c-1.07,0-1.98-0.39-2.73-1.16c-0.77-0.77-1.16-1.69-1.16-2.73v-6.97c0-1.09,0.39-2,1.16-2.78
				C95.97,40.92,96.88,40.53,97.93,40.53z M105.65,52.08v-8.29h-8.36v8.29H105.65z M122.69,29.78h3.26V55.3h-10.98
				c-1.07,0-1.98-0.39-2.73-1.16c-0.77-0.77-1.16-1.69-1.16-2.78v-6.97c0-0.71,0.18-1.37,0.52-1.96c0.36-0.59,0.82-1.07,1.41-1.41
				c0.59-0.36,1.25-0.52,1.96-0.52h7.72V29.78z M122.69,52.04v-8.29h-8.36v8.29H122.69z M142.99,40.37c0,1.96,0,4.42,0,7.34
				c-0.98,0.02-2.64,0.05-4.97,0.05c-2.32,0.02-4.12,0.02-5.38,0.02h-1.28v4.92h1.28c1,0,2.44,0,4.28-0.02
				c1.85-0.02,3.12-0.02,3.83-0.02v2.53h-8.93l-0.23-0.05c-0.66-0.07-1.25-0.3-1.78-0.66c-0.52-0.36-0.96-0.84-1.25-1.39
				c-0.3-0.57-0.46-1.18-0.46-1.85v-6.97c0-1.09,0.39-2,1.16-2.78c0.77-0.77,1.69-1.16,2.73-1.16h10.98V40.37z M140.26,42.83h-8.77
				v2.46h8.77V42.83z"/>
			<path class="st67" d="M149.3,46.98h11.62c0,0.48,0,1.21,0,2.21c0,1,0,1.75,0,2.26c0,1.07-0.39,1.98-1.16,2.73
				c-0.77,0.77-1.69,1.16-2.73,1.16h-10.98v-3.26c0.91,0,2,0,3.3,0c1.28,0,2.53,0,3.74,0c1.21,0,2.3,0,3.3,0h1.28v-2.73h-11.62
				v-4.99c0-1.07,0.39-1.98,1.16-2.73c0.77-0.77,1.69-1.16,2.73-1.16h7.09h3.94v3.3c-1.09-0.02-2.78-0.05-5.08-0.05
				c-2.3,0-4.08,0-5.29,0h-1.28v3.26H149.3z M167.03,40.56h7.09c1.07,0,1.98,0.39,2.73,1.16c0.77,0.77,1.16,1.69,1.16,2.78v6.97
				c0,1.07-0.39,1.98-1.16,2.73c-0.77,0.77-1.69,1.16-2.73,1.16h-7.09c-1.07,0-1.98-0.39-2.73-1.16c-0.77-0.77-1.16-1.69-1.16-2.73
				V44.5c0-1.09,0.39-2,1.16-2.78C165.07,40.94,165.98,40.56,167.03,40.56z M174.75,52.11v-8.29h-8.36v8.29H174.75z M183.43,29.85
				v25.52h-3.26V29.85H183.43z"/>
			<path class="st68" d="M76.97,68.47v-5.88h0.66v5.88H76.97z M78.97,68.47v-4.15h0.59v0.57c0.09-0.21,0.25-0.36,0.48-0.48
				c0.23-0.09,0.5-0.16,0.87-0.16c0.55,0,0.93,0.11,1.14,0.32c0.23,0.23,0.32,0.62,0.32,1.16v2.71h-0.62v-2.6
				c0-0.43-0.07-0.73-0.18-0.87c-0.14-0.14-0.36-0.21-0.75-0.21c-0.43,0-0.75,0.09-0.96,0.3c-0.21,0.21-0.3,0.5-0.3,0.93v2.42h-0.62
				L78.97,68.47z M83.62,68.47v-4.15h0.59v0.57c0.09-0.21,0.25-0.36,0.48-0.48c0.23-0.09,0.5-0.16,0.87-0.16
				c0.55,0,0.93,0.11,1.14,0.32c0.23,0.23,0.32,0.62,0.32,1.16v2.71H86.4v-2.6c0-0.43-0.07-0.73-0.18-0.87
				c-0.14-0.14-0.36-0.21-0.75-0.21c-0.43,0-0.75,0.09-0.96,0.3c-0.21,0.21-0.3,0.5-0.3,0.93v2.42H83.6L83.62,68.47z M91.09,66.76
				v-0.71c0-0.52-0.07-0.87-0.21-1c-0.14-0.14-0.41-0.21-0.84-0.21h-0.3c-0.43,0-0.71,0.07-0.82,0.21c-0.14,0.14-0.21,0.48-0.21,1
				v0.71c0,0.52,0.07,0.87,0.21,1s0.41,0.21,0.82,0.21h0.3c0.43,0,0.71-0.07,0.84-0.23c0.14-0.14,0.21-0.48,0.21-1V66.76z
				 M89.77,68.53c-0.62,0-1.05-0.11-1.3-0.36s-0.36-0.66-0.36-1.28v-0.98c0-0.62,0.11-1.03,0.36-1.28s0.68-0.36,1.3-0.36h0.3
				c0.62,0,1.05,0.11,1.3,0.36c0.25,0.25,0.36,0.66,0.36,1.28v0.98c0,0.62-0.11,1.03-0.36,1.28c-0.25,0.25-0.68,0.36-1.3,0.36H89.77
				z M92.25,64.32h0.62l1.23,3.58l1.23-3.58h0.59l-1.44,4.15h-0.8l-1.46-4.15H92.25z M99.36,67.42v-0.43c0-0.21-0.09-0.34-0.3-0.43
				c-0.21-0.09-0.52-0.14-0.96-0.14c-0.41,0-0.66,0.05-0.8,0.16c-0.14,0.09-0.21,0.3-0.21,0.59c0,0.32,0.07,0.55,0.21,0.66
				c0.14,0.11,0.43,0.16,0.87,0.16c0.39,0,0.68-0.05,0.89-0.14c0.21-0.09,0.3-0.23,0.3-0.41V67.42z M99.38,68.03
				c-0.09,0.18-0.25,0.3-0.46,0.39c-0.21,0.07-0.5,0.11-0.87,0.11c-0.64,0-1.09-0.09-1.3-0.27c-0.23-0.18-0.34-0.52-0.34-1.03
				c0-0.3,0.02-0.52,0.07-0.68c0.05-0.16,0.14-0.3,0.25-0.39c0.09-0.09,0.25-0.14,0.43-0.18c0.21-0.05,0.48-0.05,0.84-0.05
				c0.36,0,0.66,0.02,0.87,0.09c0.21,0.07,0.34,0.16,0.46,0.32v-0.71c0-0.34-0.07-0.57-0.21-0.66s-0.46-0.16-0.98-0.16
				c-0.39,0-0.64,0.05-0.77,0.11c-0.11,0.07-0.18,0.23-0.21,0.46h-0.62V65.3c0-0.36,0.11-0.62,0.34-0.75
				c0.23-0.16,0.64-0.23,1.18-0.23c0.43,0,0.77,0.02,1,0.05c0.23,0.05,0.39,0.09,0.5,0.18c0.11,0.09,0.21,0.21,0.25,0.34
				s0.07,0.39,0.07,0.71v2.92h-0.57l-0.02-0.43L99.38,68.03z M100.8,64.84v-0.52h0.5v-0.93h0.62v0.93h2.03v0.52h-2.03v2.28
				c0,0.32,0.05,0.55,0.16,0.66c0.11,0.11,0.32,0.18,0.62,0.18s0.5-0.05,0.59-0.16c0.11-0.11,0.16-0.34,0.16-0.66v-0.11h0.62v0.05
				c0,0.59-0.09,0.98-0.3,1.18c-0.21,0.21-0.59,0.3-1.21,0.3c-0.48,0-0.8-0.11-1-0.32c-0.18-0.21-0.27-0.59-0.27-1.16v-2.21h-0.5
				L100.8,64.84z M105.19,63.29v-0.68h0.62v0.68H105.19z M105.19,68.47v-4.15h0.62v4.15H105.19z M106.49,64.32h0.62l1.23,3.58
				l1.23-3.58h0.59l-1.44,4.15h-0.8l-1.46-4.15H106.49z M111.35,65.98h2.35v-0.16c0-0.39-0.07-0.66-0.21-0.8
				c-0.14-0.14-0.41-0.21-0.82-0.21h-0.3c-0.41,0-0.68,0.07-0.82,0.21s-0.21,0.41-0.21,0.8V65.98z M112.37,68.51
				c-0.62,0-1.05-0.11-1.3-0.36s-0.36-0.66-0.36-1.28v-0.98c0-0.62,0.11-1.03,0.36-1.28c0.25-0.25,0.68-0.36,1.3-0.36h0.3
				c0.62,0,1.05,0.11,1.3,0.36c0.25,0.25,0.36,0.66,0.36,1.28v0.64h-2.98c0,0.05,0,0.09,0,0.14c0,0.05,0,0.11,0,0.21
				c0,0.43,0.07,0.71,0.21,0.87c0.14,0.14,0.41,0.23,0.82,0.23h0.3c0.36,0,0.64-0.05,0.77-0.16c0.14-0.11,0.23-0.3,0.25-0.57h0.64
				c-0.02,0.46-0.18,0.77-0.43,0.98c-0.25,0.21-0.66,0.3-1.23,0.3H112.37z M122.35,66.48v-1.8c0-0.41-0.02-0.71-0.07-0.87
				s-0.14-0.3-0.25-0.41c-0.11-0.09-0.27-0.18-0.43-0.23s-0.46-0.07-0.89-0.07h-0.36c-0.41,0-0.71,0.02-0.87,0.07
				c-0.18,0.05-0.32,0.11-0.43,0.23c-0.11,0.09-0.21,0.23-0.25,0.41c-0.05,0.16-0.07,0.46-0.07,0.87v1.66
				c0,0.41,0.02,0.71,0.07,0.87c0.05,0.16,0.14,0.3,0.25,0.41c0.11,0.11,0.27,0.18,0.43,0.23c0.16,0.05,0.46,0.07,0.87,0.07h0.5
				c0.32,0,0.55,0,0.68-0.02c0.14-0.02,0.25-0.05,0.32-0.09l-1.12-1.09l0.41-0.41l1.12,1.09c0.02-0.11,0.02-0.25,0.05-0.39
				c0-0.16,0.02-0.32,0.02-0.5L122.35,66.48z M118.04,64.52c0-0.75,0.16-1.28,0.46-1.57c0.32-0.3,0.87-0.43,1.64-0.43h0.73
				c0.8,0,1.34,0.14,1.66,0.43c0.3,0.3,0.46,0.82,0.46,1.57v1.98c0,0.39-0.02,0.66-0.07,0.84s-0.11,0.34-0.23,0.46l0.36,0.36
				l-0.43,0.43l-0.36-0.39c-0.11,0.11-0.25,0.18-0.46,0.23c-0.21,0.05-0.5,0.07-0.91,0.07h-0.73c-0.8,0-1.34-0.14-1.64-0.43
				c-0.32-0.3-0.46-0.82-0.46-1.57v-1.98H118.04z M127.57,64.3v4.15h-0.59v-0.57c-0.09,0.21-0.25,0.36-0.48,0.48
				c-0.23,0.09-0.52,0.16-0.89,0.16c-0.55,0-0.91-0.11-1.14-0.32c-0.23-0.23-0.32-0.62-0.32-1.16V64.3h0.62v2.6
				c0,0.43,0.07,0.71,0.21,0.84c0.14,0.14,0.39,0.21,0.75,0.21c0.43,0,0.75-0.09,0.93-0.3c0.21-0.21,0.3-0.5,0.3-0.93V64.3H127.57z
				 M131.56,67.4v-0.43c0-0.21-0.09-0.34-0.3-0.43c-0.21-0.09-0.52-0.14-0.96-0.14c-0.41,0-0.66,0.05-0.8,0.16
				c-0.14,0.09-0.21,0.3-0.21,0.59c0,0.32,0.07,0.55,0.21,0.66c0.14,0.11,0.43,0.16,0.87,0.16c0.39,0,0.68-0.05,0.89-0.14
				c0.21-0.09,0.3-0.23,0.3-0.41V67.4z M131.58,68.01c-0.09,0.18-0.25,0.3-0.46,0.39c-0.21,0.07-0.5,0.11-0.87,0.11
				c-0.64,0-1.09-0.09-1.3-0.27c-0.23-0.18-0.34-0.52-0.34-1.03c0-0.3,0.02-0.52,0.07-0.68s0.14-0.3,0.25-0.39
				c0.09-0.09,0.25-0.14,0.43-0.18c0.21-0.05,0.48-0.05,0.84-0.05s0.66,0.02,0.87,0.09c0.21,0.07,0.34,0.16,0.46,0.32v-0.71
				c0-0.34-0.07-0.57-0.21-0.66s-0.46-0.16-0.98-0.16c-0.39,0-0.64,0.05-0.77,0.11c-0.11,0.07-0.18,0.23-0.21,0.46h-0.62v-0.09
				c0-0.36,0.11-0.62,0.34-0.75c0.23-0.16,0.64-0.23,1.18-0.23c0.43,0,0.77,0.02,1,0.05c0.23,0.05,0.39,0.09,0.5,0.18
				c0.11,0.09,0.21,0.21,0.25,0.34c0.05,0.14,0.07,0.39,0.07,0.71v2.92h-0.57l-0.02-0.43L131.58,68.01z M133.4,68.44v-5.88h0.62
				v5.88H133.4z M135.29,63.27v-0.68h0.62v0.68H135.29z M135.29,68.44V64.3h0.62v4.15H135.29z M136.77,64.82V64.3h0.5v-0.93h0.62
				v0.93h2.03v0.52h-2.03v2.28c0,0.32,0.05,0.55,0.16,0.66c0.11,0.11,0.32,0.18,0.62,0.18s0.5-0.05,0.59-0.16
				c0.11-0.11,0.16-0.34,0.16-0.66v-0.11h0.62v0.05c0,0.59-0.09,0.98-0.3,1.18c-0.21,0.21-0.59,0.3-1.21,0.3
				c-0.48,0-0.8-0.11-1-0.32c-0.18-0.21-0.27-0.59-0.27-1.16v-2.21h-0.5L136.77,64.82z M140.71,64.3h0.62l1.23,3.58l1.23-3.58h0.62
				l-1.57,4.51c-0.18,0.48-0.34,0.82-0.52,1s-0.41,0.25-0.71,0.25c-0.05,0-0.09,0-0.14,0c-0.05,0-0.11-0.02-0.18-0.02v-0.55
				c0.02,0,0.05,0,0.07,0s0.07,0,0.11,0c0.18,0,0.34-0.05,0.43-0.14c0.11-0.09,0.21-0.25,0.3-0.5l0.16-0.43h-0.18l-1.46-4.15V64.3z
				 M147.75,66.53h0.66v0.11c0,0.34,0.02,0.62,0.07,0.77c0.05,0.16,0.14,0.27,0.25,0.34c0.09,0.05,0.25,0.09,0.43,0.11
				c0.21,0.02,0.59,0.02,1.21,0.02c0.34,0,0.59-0.02,0.77-0.07s0.32-0.11,0.41-0.21c0.05-0.05,0.09-0.14,0.11-0.27
				c0.02-0.14,0.05-0.3,0.05-0.52c0-0.43-0.05-0.71-0.14-0.82c-0.09-0.11-0.25-0.18-0.52-0.21l-1.82-0.14
				c-0.55-0.05-0.91-0.18-1.12-0.41c-0.21-0.23-0.32-0.62-0.32-1.16c0-0.34,0.02-0.62,0.09-0.82c0.07-0.21,0.18-0.39,0.34-0.52
				c0.11-0.11,0.27-0.18,0.5-0.23c0.21-0.05,0.59-0.07,1.14-0.07h0.21c0.59,0,1.03,0.02,1.28,0.09c0.25,0.07,0.46,0.16,0.62,0.3
				c0.11,0.09,0.21,0.23,0.25,0.41s0.09,0.39,0.09,0.66c0,0.07,0,0.14,0,0.18s0,0.07,0,0.11h-0.66v-0.14c0-0.21-0.02-0.39-0.05-0.5
				s-0.07-0.21-0.11-0.25c-0.09-0.09-0.23-0.14-0.43-0.18c-0.21-0.02-0.62-0.05-1.18-0.05c-0.62,0-0.98,0.07-1.14,0.21
				c-0.16,0.14-0.23,0.41-0.23,0.82c0,0.34,0.05,0.57,0.16,0.71c0.09,0.14,0.3,0.21,0.59,0.23l1.85,0.16
				c0.48,0.05,0.82,0.18,1.03,0.41c0.21,0.23,0.3,0.59,0.3,1.12c0,0.39-0.02,0.68-0.07,0.87s-0.14,0.36-0.25,0.48
				c-0.14,0.16-0.34,0.27-0.57,0.34c-0.25,0.07-0.68,0.09-1.32,0.09h-0.3c-0.55,0-0.93-0.02-1.14-0.09
				c-0.23-0.05-0.41-0.16-0.57-0.3c-0.14-0.14-0.25-0.3-0.32-0.52c-0.07-0.21-0.11-0.5-0.11-0.82v-0.3L147.75,66.53z M156.41,66.73
				v-0.71c0-0.52-0.07-0.87-0.21-1s-0.41-0.21-0.84-0.21h-0.3c-0.43,0-0.71,0.07-0.82,0.21c-0.14,0.14-0.21,0.48-0.21,1v0.71
				c0,0.52,0.07,0.87,0.21,1s0.41,0.21,0.82,0.21h0.3c0.43,0,0.71-0.07,0.84-0.23c0.14-0.14,0.21-0.48,0.21-1V66.73z M155.09,68.51
				c-0.62,0-1.05-0.11-1.3-0.36s-0.36-0.66-0.36-1.28v-0.98c0-0.62,0.11-1.03,0.36-1.28c0.25-0.25,0.68-0.36,1.3-0.36h0.3
				c0.62,0,1.05,0.11,1.3,0.36c0.25,0.25,0.36,0.66,0.36,1.28v0.98c0,0.62-0.11,1.03-0.36,1.28c-0.25,0.25-0.68,0.36-1.3,0.36
				H155.09z M158.14,68.47v-5.88h0.62v5.88H158.14z M163.41,64.32v4.15h-0.59V67.9c-0.09,0.21-0.25,0.36-0.48,0.48
				c-0.23,0.09-0.52,0.16-0.89,0.16c-0.55,0-0.91-0.11-1.14-0.32c-0.23-0.23-0.32-0.62-0.32-1.16v-2.73h0.62v2.6
				c0,0.43,0.07,0.71,0.21,0.84s0.39,0.21,0.75,0.21c0.43,0,0.75-0.09,0.93-0.3c0.21-0.21,0.3-0.5,0.3-0.93v-2.42H163.41z
				 M164.27,64.84v-0.52h0.5v-0.93h0.62v0.93h2.03v0.52h-2.03v2.28c0,0.32,0.05,0.55,0.16,0.66c0.11,0.11,0.32,0.18,0.62,0.18
				s0.5-0.05,0.59-0.16c0.11-0.11,0.16-0.34,0.16-0.66v-0.11h0.62v0.05c0,0.59-0.09,0.98-0.3,1.18c-0.21,0.21-0.59,0.3-1.21,0.3
				c-0.48,0-0.8-0.11-1-0.32c-0.18-0.21-0.27-0.59-0.27-1.16v-2.21h-0.5L164.27,64.84z M168.67,63.29v-0.68h0.62v0.68H168.67z
				 M168.67,68.47v-4.15h0.62v4.15H168.67z M173.39,66.76v-0.71c0-0.52-0.07-0.87-0.21-1s-0.41-0.21-0.84-0.21h-0.3
				c-0.43,0-0.71,0.07-0.82,0.21c-0.14,0.14-0.21,0.48-0.21,1v0.71c0,0.52,0.07,0.87,0.21,1c0.14,0.14,0.41,0.21,0.82,0.21h0.3
				c0.43,0,0.71-0.07,0.84-0.23c0.14-0.14,0.21-0.48,0.21-1V66.76z M172.06,68.53c-0.62,0-1.05-0.11-1.3-0.36
				c-0.25-0.25-0.36-0.66-0.36-1.28v-0.98c0-0.62,0.11-1.03,0.36-1.28c0.25-0.25,0.68-0.36,1.3-0.36h0.3c0.62,0,1.05,0.11,1.3,0.36
				c0.25,0.25,0.36,0.66,0.36,1.28v0.98c0,0.62-0.11,1.03-0.36,1.28c-0.25,0.25-0.68,0.36-1.3,0.36H172.06z M175.12,68.49v-4.15
				h0.59v0.57c0.09-0.21,0.25-0.36,0.48-0.48c0.23-0.09,0.5-0.16,0.87-0.16c0.55,0,0.93,0.11,1.14,0.32
				c0.23,0.23,0.32,0.62,0.32,1.16v2.71h-0.62v-2.6c0-0.43-0.07-0.73-0.18-0.87c-0.14-0.14-0.36-0.21-0.75-0.21
				c-0.43,0-0.75,0.09-0.96,0.3c-0.21,0.21-0.3,0.5-0.3,0.93v2.42h-0.62L175.12,68.49z M179.61,67.26h0.62v0.09
				c0,0.25,0.07,0.43,0.23,0.52c0.16,0.09,0.48,0.14,0.96,0.14c0.52,0,0.87-0.05,0.98-0.14c0.11-0.09,0.18-0.3,0.18-0.57
				c0-0.27-0.05-0.46-0.16-0.55c-0.09-0.09-0.34-0.14-0.75-0.16c-0.16,0-0.34-0.02-0.62-0.02c-0.55-0.02-0.89-0.05-1-0.11
				c-0.16-0.09-0.27-0.21-0.34-0.36c-0.07-0.16-0.09-0.36-0.09-0.64c0-0.46,0.11-0.77,0.34-0.93c0.23-0.16,0.75-0.25,1.55-0.25
				c0.62,0,1.03,0.07,1.25,0.23c0.23,0.16,0.32,0.43,0.32,0.82h-0.62v-0.05c0-0.18-0.07-0.32-0.23-0.39s-0.48-0.11-0.96-0.11
				c-0.46,0-0.75,0.05-0.87,0.14c-0.14,0.09-0.18,0.25-0.18,0.52c0,0.16,0.02,0.27,0.05,0.34s0.07,0.11,0.14,0.16
				c0.11,0.07,0.39,0.11,0.82,0.11c0.11,0,0.18,0,0.25,0c0.34,0.02,0.62,0.02,0.82,0.05c0.21,0.02,0.34,0.05,0.43,0.09
				c0.18,0.09,0.32,0.21,0.39,0.36c0.07,0.16,0.11,0.39,0.11,0.68c0,0.3-0.05,0.55-0.11,0.68c-0.07,0.16-0.21,0.3-0.41,0.41
				c-0.09,0.07-0.23,0.09-0.43,0.11c-0.21,0.02-0.48,0.05-0.84,0.05c-0.73,0-1.23-0.09-1.46-0.25c-0.23-0.18-0.36-0.48-0.36-0.93
				v-0.11V67.26z"/>
			
				<linearGradient id="SVGID_1_" gradientUnits="userSpaceOnUse" x1="3819.731" y1="-21967.5098" x2="4564.8975" y2="-21967.5098" gradientTransform="matrix(0.073 0 0 -0.073 -202.979 -1544.4502)">
				<stop  offset="0" style="stop-color:#FEFEFE"/>
				<stop  offset="1" style="stop-color:#00B0EF"/>
			</linearGradient>
			<rect x="75.8" y="58.24" style="fill-rule:evenodd;clip-rule:evenodd;fill:url(#SVGID_1_);" width="54.39" height="1.22"/>
			
				<linearGradient id="SVGID_00000099653198509942887800000014587138659235441589_" gradientUnits="userSpaceOnUse" x1="5314.7026" y1="-21967.5625" x2="4563.0024" y2="-21967.5625" gradientTransform="matrix(0.073 0 0 -0.073 -202.979 -1544.4502)">
				<stop  offset="0" style="stop-color:#FEFEFE"/>
				<stop  offset="1" style="stop-color:#00B0EF"/>
			</linearGradient>
			
				<polygon style="fill-rule:evenodd;clip-rule:evenodd;fill:url(#SVGID_00000099653198509942887800000014587138659235441589_);" points="
				184.91,59.47 130.05,59.47 130.05,58.24 184.91,58.24 			"/>
		</g>
	</g>
</g>
</svg>
