<?xml version="1.0" encoding="utf-8"?>
<!-- Generator: Adobe Illustrator 27.3.1, SVG Export Plug-In . SVG Version: 6.00 Build 0)  -->
<svg version="1.1" xmlns="http://www.w3.org/2000/svg" xmlns:xlink="http://www.w3.org/1999/xlink" x="0px" y="0px"
	 viewBox="0 0 200 100" style="enable-background:new 0 0 200 100;" xml:space="preserve">
<style type="text/css">
	.st0{display:none;}
	.st1{display:inline;}
	.st2{fill:#080F27;}
	.st3{fill:#2A9B49;}
	.st4{fill:#ED1B25;}
	.st5{fill:#033572;}
	.st6{fill-rule:evenodd;clip-rule:evenodd;}
	.st7{fill:#FD393C;}
	.st8{fill:#FFFFFF;}
	.st9{fill:#FABB16;}
	.st10{fill:#5F5F5F;}
	.st11{fill:#0080FF;}
	.st12{fill-rule:evenodd;clip-rule:evenodd;fill:#0080FF;}
	.st13{fill:#E84E0F;}
	.st14{fill:#263238;}
	.st15{fill:#D4E157;}
	.st16{fill:url(#SVGID_1_);}
	.st17{fill:url(#SVGID_00000049900136357676752350000014210631261924951444_);}
	.st18{fill:url(#SVGID_00000060745819605462359520000012713150826505370506_);}
	.st19{fill:url(#SVGID_00000110451998861802884200000010106740766533415296_);}
	.st20{fill:url(#SVGID_00000133496613209128145610000013842569658460549303_);}
	.st21{fill:url(#SVGID_00000031917767821845892890000016490540304530620346_);}
	.st22{fill:url(#SVGID_00000016774273397046495720000011013766326295443633_);}
	.st23{fill:#E63351;}
	.st24{clip-path:url(#SVGID_00000021115503106319892960000014650092798761966995_);}
	.st25{clip-path:url(#SVGID_00000097466020417352572300000010922418520038454948_);}
	.st26{clip-path:url(#SVGID_00000067952109740549430120000016992672046465966260_);}
	.st27{clip-path:url(#SVGID_00000023281363467625164080000006589093288193411984_);}
	.st28{clip-path:url(#SVGID_00000147904445727528288350000011583724605416363426_);}
	.st29{clip-path:url(#SVGID_00000052093385294537973640000003057306471773024940_);}
	.st30{clip-path:url(#SVGID_00000045614362269719943150000013682111423417769103_);}
	.st31{clip-path:url(#SVGID_00000101063591741522118610000013973265171202671519_);}
	.st32{clip-path:url(#SVGID_00000160174494272543569960000001722951500309501321_);}
	.st33{clip-path:url(#SVGID_00000183207155404546147020000003257051933769561500_);}
	.st34{clip-path:url(#SVGID_00000136407793351503950970000011444754629842706850_);}
	.st35{clip-path:url(#SVGID_00000122695717443115760650000005127852269837745835_);}
	.st36{clip-path:url(#SVGID_00000181770868453137750650000012608524033044217013_);}
	.st37{clip-path:url(#SVGID_00000096767713709945335920000015816921390047968937_);}
	.st38{clip-path:url(#SVGID_00000051374623435486118490000005955828309739760288_);}
	.st39{clip-path:url(#SVGID_00000099661808426212870710000009242055919006983840_);}
	.st40{clip-path:url(#SVGID_00000181778608209620360250000014319551188254843792_);}
	.st41{clip-path:url(#SVGID_00000083805351536543414760000001668401388349010619_);}
	.st42{clip-path:url(#SVGID_00000014627891071438499400000004998914768478089122_);}
	.st43{clip-path:url(#SVGID_00000142155393017601304980000001099903175227909007_);}
	.st44{clip-path:url(#SVGID_00000070818982585693958170000017452420033930104245_);}
	.st45{clip-path:url(#SVGID_00000039116900795282491510000004445158925877645217_);}
	.st46{clip-path:url(#SVGID_00000000917222474580497130000006225709907783781528_);}
	.st47{clip-path:url(#SVGID_00000024685164411036135170000008764620617940586387_);}
	.st48{fill:#A03C56;}
	.st49{clip-path:url(#SVGID_00000039124519221739374660000015371127117737878973_);}
	.st50{clip-path:url(#SVGID_00000163752578958708372040000004476428193051731127_);}
	.st51{clip-path:url(#SVGID_00000050643498104805534660000009615741929566003073_);}
	.st52{clip-path:url(#SVGID_00000017474350078544500910000001601207647182775974_);}
	.st53{clip-path:url(#SVGID_00000147909480714960093440000005634180802268155294_);}
	.st54{clip-path:url(#SVGID_00000127002024371297022170000007294994302749492388_);}
	.st55{clip-path:url(#SVGID_00000075151824344494208120000003095109928484508303_);}
	.st56{clip-path:url(#SVGID_00000070834224063009262680000001568407811356167589_);}
	.st57{clip-path:url(#SVGID_00000102526609592101445280000017466642066216692138_);}
	.st58{clip-path:url(#SVGID_00000075846142361945591890000014653006770127741070_);}
	.st59{clip-path:url(#SVGID_00000179648208919554730640000009940729050134544029_);}
	.st60{clip-path:url(#SVGID_00000137110503689056378830000001121624010918577285_);}
	.st61{clip-path:url(#SVGID_00000168805581508369613640000007821915767794993290_);}
	.st62{clip-path:url(#SVGID_00000008860067748584503120000006369858242431222662_);}
	.st63{fill:none;}
	.st64{fill:#1388D6;}
	.st65{fill-rule:evenodd;clip-rule:evenodd;fill:#6EBE43;}
	.st66{fill-rule:evenodd;clip-rule:evenodd;fill:#1388D6;}
	.st67{fill:#62B536;}
	.st68{fill:#848688;}
	.st69{fill-rule:evenodd;clip-rule:evenodd;fill:url(#SVGID_00000015355251202478654250000015473860762843064192_);}
	.st70{fill-rule:evenodd;clip-rule:evenodd;fill:url(#SVGID_00000114074352651347478670000017940766278948405907_);}
	.st71{fill-rule:evenodd;clip-rule:evenodd;fill:#FFFFFF;}
	.st72{fill-rule:evenodd;clip-rule:evenodd;fill:url(#SVGID_00000018940629640209324130000014516672423635351176_);}
	.st73{fill-rule:evenodd;clip-rule:evenodd;fill:url(#SVGID_00000006710324550591984710000016704535173830353338_);}
	.st74{fill:url(#SVGID_00000128456572531322830450000010364603215869453467_);}
	.st75{fill:url(#SVGID_00000170987974475250622090000010382249045152711353_);}
	.st76{fill:url(#SVGID_00000112628090353294199570000006136356151825063553_);}
	.st77{fill:url(#SVGID_00000047771248301166562990000016226596409880701331_);}
	.st78{fill:url(#SVGID_00000117675823568780494200000014125419291599275426_);}
	.st79{fill:url(#SVGID_00000150794614837748699990000007780918478081674909_);}
	.st80{fill:url(#SVGID_00000048503429590561731180000006531751632547624364_);}
	.st81{clip-path:url(#SVGID_00000133511038757496733780000008681275795760247960_);}
	.st82{clip-path:url(#SVGID_00000043418384248547856630000008002380159887234216_);}
	.st83{clip-path:url(#SVGID_00000052090654299292204150000010102012470520220326_);}
	.st84{clip-path:url(#SVGID_00000063591309075782650130000010321411889615605148_);}
	.st85{clip-path:url(#SVGID_00000150082138396899485580000004746644345108665010_);}
	.st86{clip-path:url(#SVGID_00000037659177852944339830000017438177838184778161_);}
	.st87{clip-path:url(#SVGID_00000047750929986071768500000016703475475719541682_);}
	.st88{clip-path:url(#SVGID_00000093159482775769084780000001803446493936829076_);}
	.st89{clip-path:url(#SVGID_00000145029245612193169870000014607274391801442966_);}
	.st90{clip-path:url(#SVGID_00000019646037945378211550000007896676310588070276_);}
	.st91{clip-path:url(#SVGID_00000005243017782188278580000008147296447616699578_);}
	.st92{clip-path:url(#SVGID_00000037666142117812988560000015514066807334077357_);}
	.st93{clip-path:url(#SVGID_00000124157803887181280720000001952638395735627430_);}
	.st94{clip-path:url(#SVGID_00000108283872911466122930000009803132807799397248_);}
	.st95{clip-path:url(#SVGID_00000037669818040744090020000017192592445684391586_);}
	.st96{clip-path:url(#SVGID_00000168819874038720598850000003088708487353240743_);}
	.st97{clip-path:url(#SVGID_00000066486872888813264610000004029869535524737970_);}
	.st98{clip-path:url(#SVGID_00000056390042787306726740000012888911666785919363_);}
	.st99{clip-path:url(#SVGID_00000053530819869843262670000005953793862076548225_);}
	.st100{clip-path:url(#SVGID_00000057849735259623937070000012173116441914063513_);}
	.st101{clip-path:url(#SVGID_00000112631397955074971730000009767643046435142055_);}
	.st102{clip-path:url(#SVGID_00000005958496688673954280000004000400723349806221_);}
	.st103{clip-path:url(#SVGID_00000128458009548806418420000015108384994645805218_);}
	.st104{clip-path:url(#SVGID_00000138532990275853396760000008378902827443475356_);}
	.st105{clip-path:url(#SVGID_00000116218727820300759270000002358345309366352821_);}
	.st106{clip-path:url(#SVGID_00000142869660887895619000000011612812617812524972_);}
	.st107{clip-path:url(#SVGID_00000039853790439251866160000010581509989852572607_);}
	.st108{clip-path:url(#SVGID_00000129197426263380005010000017879111121757130921_);}
	.st109{clip-path:url(#SVGID_00000026880355511988215150000003761990148025509283_);}
	.st110{clip-path:url(#SVGID_00000000196110559253101320000017597874460382678919_);}
	.st111{clip-path:url(#SVGID_00000080196096558380182530000013203095626620618175_);}
	.st112{clip-path:url(#SVGID_00000179645042904654144070000015257530441581998729_);}
	.st113{clip-path:url(#SVGID_00000147181783333560877320000016275191500187686808_);}
	.st114{clip-path:url(#SVGID_00000017510401545562168520000017076908672235868311_);}
	.st115{clip-path:url(#SVGID_00000164493560851873265740000005394973334982094504_);}
	.st116{clip-path:url(#SVGID_00000032608138590182634960000005095892778955041690_);}
	.st117{clip-path:url(#SVGID_00000114765145605329230520000016907173507782516135_);}
	.st118{clip-path:url(#SVGID_00000019680290402941157870000004079910022017829011_);}
</style>
<g id="Background" class="st0">
	<rect class="st1" width="200" height="100"/>
</g>
<g id="Logos">
	<g>
		<g transform="translate(0 14)">
			<path class="st8" d="M23.34,28.78c3.58,0,6.5,3.1,6.5,7.17c0,4.09-2.92,7.22-6.5,7.22c-1.5,0.01-2.94-0.58-4.01-1.63V49h-3.53
				V29.1h3.37v1.44C20.24,29.45,21.7,28.78,23.34,28.78z M22.84,32.07c-1.94,0-3.5,1.74-3.5,3.88c0,2.17,1.56,3.93,3.5,3.93
				s3.5-1.69,3.5-3.93C26.34,33.73,24.78,32.07,22.84,32.07z"/>
		</g>
		<g transform="translate(39 14)">
			<path class="st8" d="M-3.71,30.47c1.13-1.38,2.79-1.89,4.46-1.62v3.4c-1.42-0.16-2.6,0-3.41,0.85c-0.75,0.77-0.89,1.89-0.89,2.98
				v6.73h-3.54v-13.7h3.38V30.47z"/>
		</g>
		<g transform="translate(58 14)">
			<path id="svgcid--1thsgncfbxnb_00000093892486786294592870000007052682680885659015_" class="st8" d="M-11.25,28.78
				c3.87,0,7.03,3.13,7.03,7.25c0,4.12-3.16,7.2-7.03,7.2s-7-3.08-7-7.2C-18.25,31.91-15.12,28.78-11.25,28.78z M-11.25,32.01
				c-1.89,0-3.43,1.66-3.43,4.04c0,2.33,1.54,3.93,3.43,3.93s3.43-1.6,3.43-3.93C-7.82,33.67-9.36,32.01-11.25,32.01z"/>
		</g>
		<g transform="translate(90 3)">
			<path class="st8" d="M-31.27,40.03v15.48c0,3.62-2.23,4.87-5.78,4.39v-3.13c1.44,0.13,2.15-0.27,2.15-1.66V40.03H-31.27z
				 M-31.27,35.24v3.29h-3.62v-3.29H-31.27z"/>
		</g>
		<g transform="translate(108 14)">
			<path class="st8" d="M-40.56,28.78c4.06,0,7.43,3.16,6.92,8.61h-10.4c0.45,1.68,1.79,2.73,3.45,2.73c1.18,0,2.33-0.51,2.91-1.61
				h3.77c-0.8,2.81-3.23,4.71-6.66,4.71c-3.88,0-7.06-3.21-7.06-7.2C-47.62,32.04-44.44,28.78-40.56,28.78z M-40.59,31.88
				c-1.6,0-2.89,1.02-3.39,2.62h6.84C-37.57,32.9-38.9,31.88-40.59,31.88z"/>
		</g>
		<g transform="translate(144 14)">
			<path class="st8" d="M-61.73,28.78c3.28,0,5.76,1.87,6.56,4.98h-3.73c-0.48-0.94-1.56-1.74-2.83-1.74
				c-1.93,0-3.49,1.82-3.49,4.04c0,2.17,1.56,3.96,3.49,3.96c1.3,0,2.41-0.8,2.86-1.77h3.73c-0.79,3.13-3.28,4.98-6.58,4.98
				c-4.1,0-7.03-3.21-7.03-7.2C-68.76,32.04-65.83,28.78-61.73,28.78z"/>
		</g>
		<g transform="translate(181 6)">
			<path class="st8" d="M-86.95,33.48v3.51h2.49v3.14h-2.49V45c0,1.93,0.88,2.65,2.65,2.55v3.22c-4.05,0.43-6.19-2.01-6.19-5.79
				v-11.5H-86.95z"/>
		</g>
		<g transform="translate(269 14)">
			<path class="st8" d="M-135.19,28.78c2.06,0,3.85,1.15,4.82,2.54v-2.19h2.22v13.75h-2.22v-2.22c-0.98,1.42-2.76,2.56-4.82,2.56
				c-4.01,0-6.99-3.23-6.99-7.21C-142.17,32.04-139.2,28.78-135.19,28.78z M-135.19,30.94c-2.63,0-4.69,2.3-4.69,5.1
				c0,2.75,2.06,5.02,4.69,5.02c2.57,0,4.74-2.27,4.74-5.02C-130.45,33.24-132.61,30.94-135.19,30.94z"/>
		</g>
		<g transform="translate(374 14)">
			<path class="st8" d="M-196.84,28.78c3.6,0,7.06,2.94,7.03,7.84h-11.71c0.3,2.86,2.51,4.55,4.81,4.55c1.97,0,3.38-0.94,4.14-2.54
				h2.43c-0.97,2.94-3.35,4.6-6.57,4.6c-4,0-7.14-3.16-7.14-7.2C-203.84,32.04-200.71,28.78-196.84,28.78z M-196.84,30.84
				c-1.92,0-3.95,1.39-4.54,3.74h9.03C-192.92,32.34-194.81,30.84-196.84,30.84z"/>
		</g>
		<g transform="translate(341 14)">
			<path class="st8" d="M-177.62,28.78c3.05,0,5.44,1.82,6.36,4.6h-2.41c-0.77-1.5-2.17-2.51-3.95-2.51c-2.52,0-4.59,2.33-4.59,5.16
				c0,2.84,2.07,5.11,4.59,5.11c1.8,0,3.21-1.02,3.95-2.51h2.41c-0.9,2.78-3.32,4.6-6.36,4.6c-3.77,0-6.84-3.21-6.84-7.2
				C-184.46,32.04-181.38,28.78-177.62,28.78z"/>
		</g>
		<g transform="translate(309 14)">
			<path class="st8" d="M-159.43,28.78c3.39,0,5.32,2.39,5.32,5.79v8.24h-2.26v-8.32c0-2.1-1.18-3.64-3.39-3.64
				c-2.1,0-3.63,1.54-3.63,3.59v8.37h-2.28V29.12h2.2v1.49C-162.52,29.47-161.1,28.78-159.43,28.78z"/>
		</g>
		<g transform="translate(237 14)">
			<path class="st8" d="M-117.15,28.78c3.39,0,5.32,2.39,5.32,5.79v8.24h-2.26v-8.32c0-2.1-1.18-3.64-3.39-3.64
				c-2.1,0-3.63,1.54-3.63,3.59v8.37h-2.28V29.12h2.2v1.49C-120.24,29.47-118.81,28.78-117.15,28.78z"/>
		</g>
		<g transform="translate(203)">
			<path class="st8" d="M-99.91,38.09c0.98-0.88,2.28-1.23,3.92-1.04v2.06c-1.06-0.08-1.82,0.11-2.37,0.61
				c-0.71,0.64-0.87,1.9-0.87,2.83v0.53h7.37v13.72h-2.28V45.26h-5.08v11.55h-2.28V45.26h-1.9v-2.17h1.9v-0.53
				C-101.51,40.55-100.97,39.03-99.91,38.09z"/>
		</g>
		<path class="st7" d="M108.67,41.13h2.06v-2.89h-2.06V41.13z"/>
	</g>
</g>
</svg>
