<?xml version="1.0" encoding="utf-8"?>
<!-- Generator: Adobe Illustrator 27.3.1, SVG Export Plug-In . SVG Version: 6.00 Build 0)  -->
<svg version="1.1" xmlns="http://www.w3.org/2000/svg" xmlns:xlink="http://www.w3.org/1999/xlink" x="0px" y="0px"
	 viewBox="0 0 200 100" style="enable-background:new 0 0 200 100;" xml:space="preserve">
<style type="text/css">
	.st0{display:none;}
	.st1{display:inline;}
	.st2{fill:#080F27;}
	.st3{fill:#2A9B49;}
	.st4{fill:#ED1B25;}
	.st5{fill:#033572;}
	.st6{fill-rule:evenodd;clip-rule:evenodd;}
	.st7{fill:#FD393C;}
	.st8{fill:#FFFFFF;}
	.st9{fill:#FABB16;}
	.st10{fill:#5F5F5F;}
	.st11{fill:#0080FF;}
	.st12{fill-rule:evenodd;clip-rule:evenodd;fill:#0080FF;}
	.st13{fill:#E84E0F;}
	.st14{fill:#263238;}
	.st15{fill:#D4E157;}
	.st16{fill:url(#SVGID_1_);}
	.st17{fill:url(#SVGID_00000036221602450141947580000009509051812132909212_);}
	.st18{fill:url(#SVGID_00000011746776592555540830000001921800779048305033_);}
	.st19{fill:url(#SVGID_00000112605549687564673520000016505063364283487905_);}
	.st20{fill:url(#SVGID_00000148650967085276669520000012133931853000616888_);}
	.st21{fill:url(#SVGID_00000049222753049871000690000002721905484029256610_);}
	.st22{fill:url(#SVGID_00000114794619827301228480000007435367368348627856_);}
	.st23{fill:#E63351;}
	.st24{clip-path:url(#SVGID_00000029763619107256794990000003414129845943035015_);}
	.st25{clip-path:url(#SVGID_00000175324471617823747760000017624006717536090807_);}
	.st26{clip-path:url(#SVGID_00000157301134238706503190000006907669179869306790_);}
	.st27{clip-path:url(#SVGID_00000181767778247235313870000011962002480735690134_);}
	.st28{clip-path:url(#SVGID_00000042016485827403822120000015896399787393589663_);}
	.st29{clip-path:url(#SVGID_00000125594382831551366820000012148188134508556435_);}
	.st30{clip-path:url(#SVGID_00000006688068566578203970000008415346201636189574_);}
	.st31{clip-path:url(#SVGID_00000031921475512782798040000014034833488858727330_);}
	.st32{clip-path:url(#SVGID_00000112609053126550732840000005321339583403179409_);}
	.st33{clip-path:url(#SVGID_00000114755167252739300660000011589595463951549886_);}
	.st34{clip-path:url(#SVGID_00000106120401088577374190000014676627834946048665_);}
	.st35{clip-path:url(#SVGID_00000111153767656183546740000015383585765194796932_);}
	.st36{clip-path:url(#SVGID_00000044883365911069062380000017347828673331792040_);}
	.st37{clip-path:url(#SVGID_00000173856865968718801420000001514299826109348995_);}
	.st38{clip-path:url(#SVGID_00000149370673222117074920000007491224054320820147_);}
	.st39{clip-path:url(#SVGID_00000037653678005135034620000000807359152861129868_);}
	.st40{clip-path:url(#SVGID_00000093177715995100028890000005702622560679291278_);}
	.st41{clip-path:url(#SVGID_00000181774585755294323090000004645949429329406648_);}
	.st42{clip-path:url(#SVGID_00000040542828170984205990000008016099073185207734_);}
	.st43{clip-path:url(#SVGID_00000121262472208215002860000010119048268845739398_);}
	.st44{clip-path:url(#SVGID_00000080203818950275097330000013245498306485277065_);}
	.st45{clip-path:url(#SVGID_00000176755285390097165650000001440404933764756408_);}
	.st46{clip-path:url(#SVGID_00000049906163417011645830000001412269315932071818_);}
	.st47{clip-path:url(#SVGID_00000033326987084774096550000001754863894080720296_);}
	.st48{fill:#A03C56;}
	.st49{clip-path:url(#SVGID_00000153704045959620738070000000125924149677660577_);}
	.st50{clip-path:url(#SVGID_00000047739869525285579660000008406660460625447334_);}
	.st51{clip-path:url(#SVGID_00000168114192953995199230000007109077086960477353_);}
	.st52{clip-path:url(#SVGID_00000014634974963347052780000010157592768364011195_);}
	.st53{clip-path:url(#SVGID_00000083779904164313174270000016527155758817126568_);}
	.st54{clip-path:url(#SVGID_00000148623741963077716400000007640006185267862207_);}
	.st55{clip-path:url(#SVGID_00000098194289503573861340000010187507746415763076_);}
	.st56{clip-path:url(#SVGID_00000146461227197019076030000010929428022022171265_);}
	.st57{clip-path:url(#SVGID_00000100341006234248860430000012388428600906564539_);}
	.st58{clip-path:url(#SVGID_00000018936844205019984240000002151644713903782324_);}
	.st59{clip-path:url(#SVGID_00000096746763905987602770000013117530065160000130_);}
	.st60{clip-path:url(#SVGID_00000009568179792903079890000003713547621900625559_);}
	.st61{clip-path:url(#SVGID_00000077284661352070034370000015185402214115005075_);}
	.st62{clip-path:url(#SVGID_00000113314455535606963060000016259676535498374572_);}
	.st63{fill:none;}
	.st64{fill:#1388D6;}
	.st65{fill-rule:evenodd;clip-rule:evenodd;fill:#6EBE43;}
	.st66{fill-rule:evenodd;clip-rule:evenodd;fill:#1388D6;}
	.st67{fill:#62B536;}
	.st68{fill:#848688;}
	.st69{fill-rule:evenodd;clip-rule:evenodd;fill:url(#SVGID_00000137127326087808935560000007707023967376717440_);}
	.st70{fill-rule:evenodd;clip-rule:evenodd;fill:url(#SVGID_00000052083357689108818930000015946809576660369286_);}
	.st71{fill-rule:evenodd;clip-rule:evenodd;fill:#FFFFFF;}
	.st72{fill-rule:evenodd;clip-rule:evenodd;fill:url(#SVGID_00000111872497969365854720000015591827744823881658_);}
	.st73{fill-rule:evenodd;clip-rule:evenodd;fill:url(#SVGID_00000093168614967557530940000000887728814541495966_);}
	.st74{fill:url(#SVGID_00000039852787698156874010000005410044361238092440_);}
	.st75{fill:url(#SVGID_00000013896125520155842390000002031399829561421440_);}
	.st76{fill:url(#SVGID_00000012461256891387320830000002600572125510484155_);}
	.st77{fill:url(#SVGID_00000044861215165218762910000017031402853137326479_);}
	.st78{fill:url(#SVGID_00000053504923928344894970000015060730178278223528_);}
	.st79{fill:url(#SVGID_00000176725047175518645730000014111807827650732716_);}
	.st80{fill:url(#SVGID_00000107579971286882151120000008060059844009928576_);}
	.st81{clip-path:url(#SVGID_00000124872490150101283160000010376481187994941580_);}
	.st82{clip-path:url(#SVGID_00000070829663112990072560000004388168190607850931_);}
	.st83{clip-path:url(#SVGID_00000119828466287008615810000011370199201241558674_);}
	.st84{clip-path:url(#SVGID_00000011007297631917164350000002545053698250369958_);}
	.st85{clip-path:url(#SVGID_00000064323378049460112300000012409951121232734884_);}
	.st86{clip-path:url(#SVGID_00000007392784950685860120000016887077870924467854_);}
	.st87{clip-path:url(#SVGID_00000096026572969566660230000010272479420997789332_);}
	.st88{clip-path:url(#SVGID_00000074434634880015656380000010419630010377429391_);}
	.st89{clip-path:url(#SVGID_00000066491305185507069340000012558471684774909602_);}
	.st90{clip-path:url(#SVGID_00000065035009381295062770000000965505319408496031_);}
	.st91{clip-path:url(#SVGID_00000051384513537517849050000005212781509756538506_);}
	.st92{clip-path:url(#SVGID_00000177474841483173976400000000763764175906364549_);}
	.st93{clip-path:url(#SVGID_00000072252943966067164130000012325959226323240589_);}
	.st94{clip-path:url(#SVGID_00000125585132655864530550000005870317981594429101_);}
	.st95{clip-path:url(#SVGID_00000125567717141695749910000014987133066336213666_);}
	.st96{clip-path:url(#SVGID_00000100369775215122562370000006069595179230921901_);}
	.st97{clip-path:url(#SVGID_00000106851744871083142200000014547590450398608824_);}
	.st98{clip-path:url(#SVGID_00000070106826851489393080000006597979291759451042_);}
	.st99{clip-path:url(#SVGID_00000137133266825745922210000002581911241709485737_);}
	.st100{clip-path:url(#SVGID_00000158022109533819375470000008381838067456108955_);}
	.st101{clip-path:url(#SVGID_00000093145793499245637520000013610277909248080032_);}
	.st102{clip-path:url(#SVGID_00000165193086702079307580000015842122188225632649_);}
	.st103{clip-path:url(#SVGID_00000026880380456184533430000007417644271763953044_);}
	.st104{clip-path:url(#SVGID_00000127026638663046978920000015161029869901150610_);}
	.st105{clip-path:url(#SVGID_00000106843357823646957860000009468700595114761139_);}
	.st106{clip-path:url(#SVGID_00000136404827140741087110000003094635823572231814_);}
	.st107{clip-path:url(#SVGID_00000075145119351818329680000000011009231443948935_);}
	.st108{clip-path:url(#SVGID_00000146489296767333853680000017612008283621468092_);}
	.st109{clip-path:url(#SVGID_00000010273927917624039650000000899735061153907620_);}
	.st110{clip-path:url(#SVGID_00000111911660736654245710000016704644019804552323_);}
	.st111{clip-path:url(#SVGID_00000170971110784644969040000017476119477184914108_);}
	.st112{clip-path:url(#SVGID_00000078005192736225437730000007850685638811918225_);}
	.st113{clip-path:url(#SVGID_00000054223871964485994400000003271005654969223597_);}
	.st114{clip-path:url(#SVGID_00000113313565840995471950000000478966697985091241_);}
	.st115{clip-path:url(#SVGID_00000168096787265495100680000003718878615877709199_);}
	.st116{clip-path:url(#SVGID_00000047017857037922102570000009229270218660861612_);}
	.st117{clip-path:url(#SVGID_00000105408540259335241050000016737241499413489798_);}
	.st118{clip-path:url(#SVGID_00000043436133897420958870000001110265980148078000_);}
</style>
<g id="Background" class="st0">
	<rect class="st1" width="200" height="100"/>
</g>
<g id="Logos">
	<g>
		<g>
			<path class="st13" d="M93.32,48.49c-2.21-0.3-3.19-0.9-3.17-1.95c0.03-1.49,2.06-2.03,3.43-2.03l0.1,0
				c1.22,0.02,2.51,0.37,3.19,0.85c0.17,0.14,0.37,0.22,0.57,0.22c0.32,0,0.6-0.18,0.71-0.47c0.12-0.29,0.05-0.6-0.18-0.88
				c-0.99-0.98-2.95-1.36-4.32-1.39l-0.11,0c-1.96,0-5.08,0.99-5.09,3.63c0,2.13,1.74,3.4,5.17,3.77c2.7,0.29,4.01,1.17,4.01,2.69
				c0,1.03-1.03,2.57-3.84,2.57c-2.13,0-3.45-0.74-3.98-1.44c-0.2-0.26-0.45-0.4-0.72-0.4c-0.29,0-0.55,0.16-0.69,0.43
				c-0.18,0.34-0.14,0.77,0.13,1.17c0.7,1.08,2.74,1.89,4.97,1.99c0.13,0.01,0.26,0.01,0.39,0.01c3.21,0,5.46-1.77,5.46-4.31
				C99.36,49.3,95.58,48.79,93.32,48.49z"/>
			<path class="st13" d="M155.5,54.15c-0.27,0-0.52,0.13-0.71,0.37c-0.97,1.22-1.95,1.22-2.47,1.22c-0.77,0-1.36-0.16-1.74-0.48
				c-0.37-0.31-0.55-0.68-0.55-1.13v-6.3h4.35c0.31,0,0.55-0.07,0.72-0.23c0.17-0.16,0.26-0.36,0.26-0.59c0-0.24-0.09-0.44-0.26-0.6
				c-0.17-0.15-0.41-0.23-0.72-0.23h-4.35v-2.22c0-0.32-0.07-0.56-0.23-0.73c-0.16-0.17-0.37-0.25-0.6-0.25
				c-0.23,0-0.44,0.09-0.59,0.26c-0.15,0.16-0.23,0.4-0.23,0.72v10.18c0,0.99,0.38,1.8,1.12,2.39c0.72,0.57,1.69,0.86,2.88,0.86
				c2.46,0,3.71-1.94,3.81-2.23c0.09-0.25,0.06-0.5-0.08-0.7C155.98,54.26,155.75,54.15,155.5,54.15z"/>
			<path class="st13" d="M117.79,46.1c-1.34,0-2.54,0.38-3.42,1.07v-0.11c0-0.56-0.41-0.85-0.81-0.85c-0.4,0-0.83,0.3-0.83,0.85
				v9.63c0,0.52,0.43,0.81,0.83,0.81c0.4,0,0.81-0.28,0.81-0.81v-6.94c0.46-1.2,1.82-2,3.4-2c1.43,0,2.51,0.89,2.51,2.08v6.86
				c0,0.42,0.37,0.75,0.85,0.75c0.46,0,0.79-0.32,0.79-0.75v-7.02C121.93,48.74,121.17,46.1,117.79,46.1z"/>
			<path class="st13" d="M110.11,46.48c-0.2,0-0.58,0.08-0.86,0.62c-0.22,0.43-1.73,3.51-2.83,5.76l-0.97,1.99
				c-0.9-1.82-3.69-7.45-3.93-7.93c-0.16-0.31-0.45-0.5-0.8-0.5c-0.3,0-0.58,0.15-0.73,0.37c-0.12,0.2-0.14,0.43-0.03,0.65
				c0.16,0.35,2.39,4.81,3.72,7.47l0.87,1.75l-0.19,0.39c-0.51,1.03-1.56,3.17-1.82,3.72c-0.13,0.27-0.13,0.55,0.01,0.78
				c0.14,0.22,0.38,0.35,0.65,0.35c0.35,0,0.66-0.21,0.85-0.57c0.39-0.76,6.62-13.35,6.8-13.8c0.09-0.23,0.06-0.49-0.08-0.7
				C110.62,46.61,110.37,46.48,110.11,46.48z"/>
			<path class="st13" d="M159.48,42.97c-1.18,0-2.14,0.96-2.14,2.14c0,0.87,0.52,1.63,1.32,1.97v9.74c0,0.44,0.36,0.77,0.83,0.77
				c0.47,0,0.81-0.32,0.81-0.77v-9.74c0.81-0.34,1.32-1.1,1.32-1.97C161.62,43.93,160.66,42.97,159.48,42.97z M159.48,44.18
				c0.51,0,0.92,0.41,0.92,0.92c0,0.5-0.41,0.91-0.92,0.91c-0.5,0-0.91-0.41-0.91-0.91C158.57,44.6,158.98,44.18,159.48,44.18z"/>
			<path class="st13" d="M129.6,46.1c-1.57,0-2.9,0.53-3.97,1.59c-1.07,1.06-1.61,2.35-1.61,3.83c0,1.62,0.57,3.02,1.71,4.15
				c1.13,1.14,2.56,1.72,4.25,1.72c1.44,0,2.92-0.43,3.96-1.15c0.69-0.48,0.63-0.95,0.57-1.13c-0.09-0.3-0.38-0.51-0.69-0.51
				c-0.12,0-0.23,0.03-0.33,0.09c-1.28,0.71-2.18,1.06-3.51,1.06c-1.16,0-2.15-0.35-2.94-1.05c-0.69-0.62-1.15-1.43-1.34-2.4h8.72
				c0.2,0,0.39-0.08,0.52-0.23c0.13-0.15,0.2-0.34,0.19-0.54C134.82,47.23,131.38,46.1,129.6,46.1z M127,48.65
				c0.72-0.6,1.6-0.91,2.6-0.91c1.01,0,1.88,0.31,2.61,0.91c0.62,0.52,1.04,1.19,1.26,1.98h-7.73
				C125.95,49.83,126.38,49.16,127,48.65z"/>
			<path class="st13" d="M168.12,46.1c-0.91,0-3.84,0.64-4.22,1.05c-0.21,0.21-0.27,0.58-0.15,0.89c0.12,0.3,0.39,0.48,0.72,0.48
				c0.09,0,0.3-0.06,0.73-0.18c0.76-0.22,2.03-0.58,2.87-0.58c1.91,0,2.58,0.87,2.58,1.61v1.15c-0.42-0.07-1.78-0.28-2.78-0.28
				c-3.69,0-5.35,1.91-5.35,3.81c0,1.98,1.65,3.36,4,3.36c1.44,0,2.83-0.47,4.12-1.4v0.68c0,0.44,0.35,0.75,0.82,0.75
				c0.47,0,0.83-0.32,0.83-0.75v-7.31C172.31,47.77,170.84,46.1,168.12,46.1z M170.65,52.15v1.7c-1.41,1.32-2.66,1.88-4.17,1.88
				c-1.43,0-2.32-0.66-2.32-1.72c0-1.26,1.6-2.17,3.82-2.17C169.24,51.86,170.35,52.08,170.65,52.15z"/>
			<path class="st13" d="M141.07,50.44c-1.73-0.2-2.57-0.64-2.56-1.33c0.01-0.87,1.5-1.38,2.86-1.36c0.99,0.02,2.06,0.27,2.6,0.62
				c0.8,0.6,1.94-0.31,1.15-1.16c-0.88-0.79-2.58-1.09-3.76-1.11c-2.14-0.03-4.46,0.87-4.49,2.95c-0.04,2.61,3.07,2.92,4.24,3.03
				c0.66,0.07,3.56,0.37,3.54,1.88c-0.01,0.91-1.18,1.81-3.39,1.78c-0.74-0.01-1.98-0.31-2.62-0.7c-1.19-0.74-2.26,0.38-1.21,1.22
				c1.25,0.9,2.85,1.1,3.84,1.12c2.92,0.05,4.98-1.35,5.02-3.39C146.32,51.39,143.52,50.73,141.07,50.44z"/>
		</g>
		<g>
			<g>
				<path class="st13" d="M51.69,26c-13.25,0-24,10.75-24,24c0,13.25,10.74,24,24,24c13.26,0,24-10.75,24-24
					C75.69,36.75,64.95,26,51.69,26z"/>
			</g>
			<g>
				<g>
					<g>
						<path class="st8" d="M45.8,45.54c-0.07,0-0.14-0.02-0.2-0.05c-1-0.54-1.63-1.37-1.83-2.39c-0.29-1.46,0.37-3.05,1.71-4.17
							c2.33-1.94,6.36-2.25,11.09-0.82c0.22,0.07,0.35,0.3,0.28,0.53c-0.07,0.22-0.3,0.35-0.53,0.28c-4.43-1.34-8.2-1.09-10.3,0.66
							c-1.1,0.92-1.64,2.2-1.42,3.35c0.15,0.77,0.64,1.39,1.4,1.81c0.21,0.11,0.28,0.37,0.17,0.57
							C46.09,45.46,45.95,45.54,45.8,45.54z"/>
					</g>
					<g>
						<path class="st8" d="M52.74,63.05c-2.16,0-4.61-0.48-7.28-1.42c-0.22-0.08-0.34-0.32-0.26-0.54c0.08-0.22,0.32-0.33,0.54-0.26
							c2.55,0.9,4.97,1.38,7,1.38h0c2.07,0,3.73-0.46,4.93-1.37c1.19-0.9,1.79-2.21,1.62-3.52c-0.14-1.07-0.75-1.96-1.76-2.56
							c-0.2-0.12-0.27-0.38-0.15-0.58c0.12-0.2,0.38-0.27,0.58-0.15c1.24,0.74,1.99,1.84,2.17,3.18c0.21,1.61-0.52,3.22-1.95,4.3
							C56.83,62.53,55,63.05,52.74,63.05L52.74,63.05L52.74,63.05z"/>
					</g>
				</g>
				<path class="st8" d="M59.88,36c-3.16-1.25-6.15-1.87-8.8-1.87c-3.03,0-5.64,0.81-7.58,2.43c-2.21,1.83-3.26,4.57-2.76,7.13
					c0.47,2.41,2.02,4.13,4.96,5.15c0.18,1.44,1.41,2.56,2.91,2.56c1.62,0,2.93-1.31,2.93-2.93c0-1.62-1.31-2.93-2.93-2.93
					c-1.01,0-1.9,0.51-2.42,1.28c-1.81-0.59-3.09-1.88-3.41-3.53c-0.36-1.82,0.43-3.79,2.06-5.14c3.04-2.53,8.25-2.61,14.3-0.22
					c0.53,0.21,1.13-0.05,1.34-0.58C60.67,36.81,60.41,36.21,59.88,36z M48.6,46.65c1.01,0,1.82,0.82,1.82,1.82
					c0,1-0.81,1.82-1.82,1.82c-1,0-1.82-0.81-1.82-1.82C46.78,47.47,47.59,46.65,48.6,46.65z"/>
				<path class="st8" d="M63.2,56.81c-0.35-2.66-2.05-4.86-4.98-6.07c-0.02-1.6-1.33-2.89-2.93-2.89c-1.62,0-2.93,1.31-2.93,2.93
					c0,1.62,1.31,2.93,2.93,2.93c0.9,0,1.7-0.4,2.24-1.04c2.09,0.85,3.37,2.47,3.63,4.4c0.26,1.98-0.62,3.94-2.35,5.24
					c-3.34,2.52-9.12,2.3-15.88-0.6c-0.52-0.23-1.13,0.02-1.36,0.54s0.02,1.13,0.54,1.36c4.36,1.87,7.85,2.53,10.59,2.53
					c3.68,0,6.02-1.18,7.35-2.18C62.37,62.21,63.55,59.53,63.2,56.81z M55.28,52.6c-1,0-1.82-0.82-1.82-1.82
					c0-1,0.81-1.82,1.82-1.82c1.01,0,1.82,0.81,1.82,1.82C57.1,51.79,56.29,52.6,55.28,52.6z"/>
				<path class="st8" d="M62.39,39.27c0.56-0.04,0.99-0.53,0.94-1.1c-0.04-0.54-0.49-0.95-1.02-0.95c-0.03,0-0.05,0-0.08,0
					c-0.56,0.04-0.98,0.53-0.94,1.1C61.34,38.89,61.83,39.31,62.39,39.27z"/>
				<path class="st8" d="M39.89,62.23c0.56-0.04,0.99-0.53,0.94-1.1c-0.04-0.54-0.49-0.95-1.02-0.95c-0.03,0-0.05,0-0.08,0
					c-0.56,0.04-0.98,0.53-0.94,1.1C38.83,61.85,39.32,62.27,39.89,62.23z"/>
			</g>
		</g>
	</g>
</g>
</svg>
