<?xml version="1.0" encoding="utf-8"?>
<svg version="1.1" id="svg3420" 
	xmlns:svg="http://www.w3.org/2000/svg" 
	xmlns="http://www.w3.org/2000/svg" 
	xmlns:xlink="http://www.w3.org/1999/xlink" x="0px" y="0px" viewBox="0 0 145.7 145.7" style="enable-background:new 0 0 145.7 145.7;" xml:space="preserve">
	<g id="layer1" transform="translate(716.75978,326.01083)">
		<g id="g3782" transform="translate(-997.76153,-435.70167)">
			<g id="g4803" transform="matrix(0.37179714,0,0,0.37179714,941.11531,830.23437)">
				<circle id="circle8858-1-2" style="fill:#FFFFFF;" cx="-1579.6" cy="-1742.1" r="195.9"/>
				<path id="path8862-5-0" style="fill:#1976D2;" d="M-1437.3-1824.3c-7-12-15.4-23-25.2-32.9l-37.1,21.4
				c-11.5-9.9-24.7-17.4-38.7-22.4c-12.6,12.8-22.7,27.1-29.9,42.7c41.2-2.8,83.8,12.1,123.4,43l23.3-13.5
				C-1425.1-1799.3-1430.4-1812.2-1437.3-1824.3L-1437.3-1824.3z"/>
				<path id="path8864-4-9" style="fill:#42A5F5;" d="M-1437.3-1660c6.9-12,12.2-24.9,15.9-38.3l-37.1-21.4
				c2.8-14.9,2.8-30.1,0.1-44.7c-17.4-4.5-34.9-6.1-52-4.6c23.1,34.3,31.4,78.7,24.4,128.4l23.3,13.5
				C-1452.8-1636.9-1444.3-1648-1437.3-1660L-1437.3-1660z"/>
				<path id="path8866-7-3" style="fill:#1976D2;" d="M-1579.5-1577.8c13.9,0,27.7-1.8,41.1-5.3v-42.8c14.3-5.1,27.4-12.7,38.8-22.3
				c-4.8-17.4-12.2-33.2-22-47.3c-18.2,37.1-52.4,66.5-98.9,85.3v26.9C-1607.2-1579.7-1593.4-1577.9-1579.5-1577.8z"/>
				<path id="path8868-6-6" style="fill:#42A5F5;" d="M-1721.8-1660c7,12,15.4,23,25.2,32.9l37.1-21.4c11.5,9.9,24.7,17.4,38.7,22.4
				c12.6-12.8,22.7-27.1,29.9-42.7c-41.2,2.8-83.8-12.1-123.4-43l-23.3,13.5C-1734-1684.9-1728.7-1672-1721.8-1660z"/>
				<path id="path8870-5-0" style="fill:#1976D2;" d="M-1721.8-1824.2c-6.9,12-12.2,24.9-15.9,38.3l37.1,21.4
				c-2.8,14.9-2.8,30.1-0.1,44.7c17.4,4.5,34.9,6.1,52,4.6c-23.1-34.3-31.4-78.7-24.4-128.4l-23.3-13.5
				C-1706.3-1847.3-1714.8-1836.2-1721.8-1824.2L-1721.8-1824.2z"/>
				<path id="path8872-6-6" style="fill:#42A5F5;" d="M-1579.6-1906.4c-13.9,0-27.7,1.8-41.1,5.3v42.8c-14.3,5.1-27.4,12.7-38.8,22.3
				c4.8,17.4,12.2,33.2,22,47.3c18.2-37.1,52.4-66.5,98.9-85.3v-26.9C-1551.9-1904.5-1565.7-1906.3-1579.6-1906.4z"/>
				<path id="path4375" style="fill:#FF5722;" d="M-1534.1-1742.1l-78.3,45.2v-90.4L-1534.1-1742.1z"/>
			</g>
		</g>
	</g>
</svg>
