<?xml version="1.0" encoding="utf-8"?>
<svg version="1.1" id="svg3570" 
	xmlns:svg="http://www.w3.org/2000/svg" 
	xmlns="http://www.w3.org/2000/svg" 
	xmlns:xlink="http://www.w3.org/1999/xlink" x="0px" y="0px" viewBox="0 0 191.1 178.3" style="enable-background:new 0 0 191.1 178.3;" xml:space="preserve">
	<g id="layer1" transform="translate(-277.71988,-312.33911)">
		<g id="g4895-4-4" transform="translate(1419.0442,398.9018)">
			<g id="g4579-2-20" transform="translate(-29.620665,-4)">
				<g id="g4445-2-0" transform="translate(12.499948,7.809312)">
					<g id="g4561-6-7-0" transform="translate(-712.85583,-503.26814)">
						<g id="flowRoot4513-6-6-08" transform="translate(16.233481,0)">
							<path id="path3428" style="fill:#FFFFFF;" d="M-407.7,587.8c-0.3,0-0.7,0-1,0.1c-0.4,0-0.7,0-1.1,0h-7.5
							c-6.8,0-10.3-2.3-10.3-6.8v-10.8c0-4.4,3.4-6.6,10.1-6.6h7.8c6.7,0,10.1,2.2,10.1,6.6v10.8c0,2.7-1.2,4.6-3.6,5.6l2.5,1.7
							c0.7,0.4,1.1,0.9,1.1,1.4c0,0.5-0.2,0.8-0.6,1c-0.4,0.3-0.9,0.4-1.5,0.4c-0.2,0-0.4,0-0.6-0.1c-0.2,0-0.5-0.2-0.8-0.4
							L-407.7,587.8L-407.7,587.8z M-403.4,570.4c0-2.5-2.1-3.8-6.4-3.8h-7.7c-4.2,0-6.4,1.3-6.4,3.8v10.7c0,2.6,2.2,4,6.6,4h7.1
							c4.4,0,6.6-1.3,6.6-4V570.4L-403.4,570.4z"/>
							<path id="path3430" style="fill:#FFFFFF;" d="M-380,587.9c-6,0-9-1.8-9-5.5v-10.2c0-1,0.6-1.5,1.9-1.5c1.2,0,1.9,0.5,1.9,1.5
							v10.2c0,1.8,1.7,2.7,5.2,2.7h6.6c3.5,0,5.2-0.9,5.2-2.7v-10.2c0-1,0.6-1.5,1.9-1.5c1.3,0,1.9,0.5,1.9,1.5v10.2
							c0,3.7-3,5.5-9,5.5H-380z"/>
							<path id="path3432" style="fill:#FFFFFF;" d="M-347.3,587.9c-5,0-7.5-1.6-7.5-4.7v-2c0-3.1,2.5-4.6,7.5-4.6h14.9v-0.5
							c0-1.6-1.4-2.5-4.3-2.5h-4.9c-1.2,0-1.8-0.5-1.8-1.4c0-0.9,0.6-1.4,1.8-1.4h4.9c5.3,0,7.9,1.7,7.9,5.2v6.9
							c0,3.3-2.5,4.9-7.6,4.9H-347.3L-347.3,587.9z M-336.7,585.2c2.8,0,4.2-0.8,4.2-2.3V579h-14.6c-2.7,0-4.1,0.7-4.1,2.1v1.8
							c0,1.4,1.4,2.2,4.1,2.2L-336.7,585.2L-336.7,585.2z"/>
							<path id="path3434" style="fill:#FFFFFF;" d="M-295.7,584c0,2.6-2.7,3.9-8,3.9h-13.6c-1.2,0-1.8-0.5-1.8-1.4
							c0-0.9,0.6-1.4,1.8-1.4h13.6c2.9,0,4.3-0.4,4.3-1.2v-2c0-0.8-1.4-1.2-4.3-1.2h-7.2c-5.3,0-8-1.3-8-3.8v-1.6
							c0-3,2.7-4.5,8.2-4.5h4.8c1.2,0,1.8,0.5,1.8,1.4c0,0.5-0.2,0.8-0.5,1c-0.3,0.2-0.7,0.3-1.3,0.3h-4.8c-3.1,0-4.6,0.6-4.6,1.7
							v1.5c0,1,1.5,1.4,4.5,1.4h7.2c5.2,0,7.8,1.2,7.8,3.6V584L-295.7,584z"/>
							<path id="path3436" style="fill:#FFFFFF;" d="M-279,587.9c-5,0-7.5-1.6-7.5-4.7v-2c0-3.1,2.5-4.6,7.5-4.6h14.9v-0.5
							c0-1.6-1.4-2.5-4.3-2.5h-4.9c-1.2,0-1.8-0.5-1.8-1.4c0-0.9,0.6-1.4,1.8-1.4h4.9c5.3,0,7.9,1.7,7.9,5.2v6.9
							c0,3.3-2.5,4.9-7.6,4.9H-279L-279,587.9z M-268.4,585.2c2.8,0,4.2-0.8,4.2-2.3V579h-14.6c-2.7,0-4.1,0.7-4.1,2.1v1.8
							c0,1.4,1.4,2.2,4.1,2.2L-268.4,585.2L-268.4,585.2z"/>
							<path id="path3438" style="fill:#FFFFFF;" d="M-250,576.4c0-3.7,3-5.6,9-5.6h2.7c1.2,0,1.8,0.5,1.8,1.4c0,1-0.6,1.4-1.8,1.4
							h-2.8c-3.5,0-5.2,0.9-5.2,2.6v10.2c0,1-0.6,1.5-1.9,1.5c-1.2,0-1.9-0.5-1.9-1.5V576.4L-250,576.4z"/>
						</g>
					</g>
				</g>
			</g>
			<g id="g5443-0-1-5-1-9" transform="matrix(0.55595317,0,0,0.55595317,-521.93484,-328.66104)">
				<g id="g8856-6-1-1-9-0-1-9" transform="matrix(0.09527033,0,0,0.09527033,-1695.2716,706.62921)">
					<circle id="circle8858-1-3-7-6-5-3-0" style="fill:#263238;" cx="7873.9" cy="-1658.3" r="1188"/>
					<path id="path8860-5-4-8-2-9-0-9" style="fill:#FFFFFF;" d="M8068.4-1658.3c0,107.3-87,194.4-194.4,194.4h0
					c-107.3,0-194.4-87-194.4-194.4c0,0,0,0,0,0c0-107.3,87-194.4,194.4-194.4C7981.4-1852.7,8068.4-1765.6,8068.4-1658.3z"/>
					<path id="path8862-5-5-9-1-3-6-3" style="fill:#FFFFFF;" d="M8736.8-2156.5c-42.3-72.7-93.6-139.8-152.7-199.6l-224.7,129.7
					c-70-59.8-149.6-105.6-234.6-136c-76.7,77.7-137.6,164.6-181.6,259.1c250.1-17,508.4,73.5,748.2,260.9l141.4-81.6
					C8810.8-2005.3,8778.5-2083.4,8736.8-2156.5L8736.8-2156.5z"/>
					<path id="path8864-4-8-1-2-4-4-4" style="fill:#FFFFFF;" d="M8736.8-1160.2c41.8-73,74.3-150.9,96.5-232L8608.7-1522
					c16.8-90.6,16.7-182.4,0.5-271.1c-105.7-27.6-211.4-36.9-315.2-27.7c139.8,208.1,190.6,477.1,148.2,778.4l141.4,81.6
					C8642.9-1020.5,8694.4-1087.5,8736.8-1160.2L8736.8-1160.2z"/>
					<path id="path8866-7-5-5-0-6-4-7" style="fill:#FFFFFF;" d="M7874.1-662c84.1-0.2,167.8-11.1,249.2-32.4v-259.5
					c86.8-30.7,166.3-76.8,235-135.2c-29-105.3-73.7-201.5-133.6-286.8c-110.3,225.1-317.9,403.6-600,517.6V-695
					C7706.1-673.5,7789.9-662.5,7874.1-662z"/>
					<path id="path8868-6-7-4-7-2-7-3" style="fill:#FFFFFF;" d="M7011.2-1160.1c42.3,72.7,93.6,139.8,152.7,199.6l224.7-129.7
					c70,59.8,149.6,105.6,234.6,136c76.7-77.7,137.6-164.6,181.6-259.1c-250.1,17-508.4-73.5-748.2-260.9l-141.4,81.6
					C6937.2-1311.3,6969.5-1233.2,7011.2-1160.1L7011.2-1160.1z"/>
					<path id="path8870-5-3-9-3-5-5-1" style="fill:#FFFFFF;" d="M7011.2-2156.4c-41.8,73-74.3,150.9-96.5,232l224.7,129.7
					c-16.8,90.6-16.7,182.4-0.5,271.1c105.7,27.6,211.4,36.9,315.2,27.7c-139.8-208.1-190.6-477.1-148.2-778.4l-141.4-81.6
					C7105.1-2296.1,7053.6-2229.1,7011.2-2156.4z"/>
					<path id="path8872-6-3-2-1-3-3-7" style="fill:#FFFFFF;" d="M7873.9-2654.6c-84.1,0.2-167.8,11.1-249.2,32.4v259.4
					c-86.8,30.7-166.3,76.8-235,135.2c29,105.3,73.7,201.5,133.6,286.8c110.3-225.1,317.9-403.6,600-517.6v-163.3
					C8041.9-2643.1,7958.1-2654.1,7873.9-2654.6L7873.9-2654.6z"/>
				</g>
			</g>
		</g>
	</g>
</svg>
