<?xml version="1.0" encoding="utf-8"?>
<svg version="1.1" id="svg3742" 
	xmlns:svg="http://www.w3.org/2000/svg" 
	xmlns="http://www.w3.org/2000/svg" 
	xmlns:xlink="http://www.w3.org/1999/xlink" x="0px" y="0px" viewBox="0 0 381.6 125.8" style="enable-background:new 0 0 381.6 125.8;" xml:space="preserve">
	<g id="layer1" transform="translate(-118.66081,-453.70793)">
		<g id="g5519-9-0" transform="translate(2201.4292,498.40539)">
			<g id="g4636-5-7-7" transform="translate(14.241949,-1.4302574e-5)">
				<g id="g4768-9-1-2" transform="translate(-29.798982,0)">
					<g id="g5443-0-1-3-9-3" transform="matrix(0.55595317,0,0,0.55595317,-1486.6013,-286.79579)">
						<g id="g8856-6-1-1-9-9-3-3" transform="matrix(0.09527033,0,0,0.09527033,-1695.2716,706.62921)">
							<circle id="circle8858-1-3-7-6-9-7-2" style="fill:#FFFFFF;" cx="8020.4" cy="-1658.3" r="1188"/>
							<path id="path8860-5-4-8-2-7-1-8" style="fill:#263238;" d="M8214.8-1658.3c0,107.3-87,194.4-194.4,194.4h0
							c-107.3,0-194.4-87-194.4-194.4c0,0,0,0,0,0c0-107.3,87-194.4,194.4-194.4S8214.8-1765.6,8214.8-1658.3z"/>
							<path id="path8862-5-5-9-1-9-2-7" style="fill:#1976D2;" d="M8883.2-2156.5c-42.3-72.7-93.6-139.8-152.7-199.6l-224.7,129.7
							c-70-59.8-149.6-105.6-234.6-136c-76.7,77.7-137.6,164.6-181.6,259.1c250.1-17,508.4,73.5,748.2,260.9l141.4-81.6
							C8957.2-2005.3,8924.9-2083.4,8883.2-2156.5L8883.2-2156.5z"/>
							<path id="path8864-4-8-1-2-7-3-1" style="fill:#42A5F5;" d="M8883.3-1160.2c41.8-73,74.3-150.9,96.5-232L8755.1-1522
							c16.8-90.6,16.7-182.4,0.5-271.1c-105.7-27.6-211.4-36.9-315.2-27.7c139.8,208.1,190.6,477.1,148.2,778.4l141.4,81.6
							C8789.3-1020.5,8840.8-1087.5,8883.3-1160.2L8883.3-1160.2z"/>
							<path id="path8866-7-5-5-0-3-5-6" style="fill:#1976D2;" d="M8020.5-662c84.1-0.2,167.8-11.1,249.2-32.4v-259.5
							c86.8-30.7,166.3-76.8,235-135.2c-29-105.3-73.7-201.5-133.6-286.8c-110.3,225.1-317.9,403.6-600,517.6V-695
							C7852.5-673.5,7936.3-662.5,8020.5-662z"/>
							<path id="path8868-6-7-4-7-5-7-1" style="fill:#42A5F5;" d="M7157.7-1160.1c42.3,72.7,93.6,139.8,152.7,199.6l224.7-129.7
							c70,59.8,149.6,105.6,234.6,136c76.7-77.7,137.6-164.6,181.6-259.1c-250.1,17-508.4-73.5-748.2-260.9l-141.4,81.6
							C7083.7-1311.3,7115.9-1233.2,7157.7-1160.1L7157.7-1160.1z"/>
							<path id="path8870-5-3-9-3-0-0-9" style="fill:#1976D2;" d="M7157.6-2156.4c-41.8,73-74.3,150.9-96.5,232l224.7,129.7
							c-16.8,90.6-16.7,182.4-0.5,271.1c105.7,27.6,211.4,36.9,315.2,27.7c-139.8-208.1-190.6-477.1-148.2-778.4l-141.4-81.6
							C7251.6-2296.1,7200.1-2229.1,7157.6-2156.4z"/>
							<path id="path8872-6-3-2-1-4-2-1" style="fill:#42A5F5;" d="M8020.4-2654.6c-84.1,0.2-167.8,11.1-249.2,32.4v259.4
							c-86.8,30.7-166.3,76.8-235,135.2c29,105.3,73.7,201.5,133.6,286.8c110.3-225.1,317.9-403.6,600-517.6v-163.3
							C8188.4-2643.1,8104.6-2654.1,8020.4-2654.6L8020.4-2654.6z"/>
						</g>
					</g>
				</g>
			</g>
			<g id="g4579-2-2-6-2" transform="translate(-749.14716,-93.821519)">
				<g id="g4445-2-8-0-1" transform="translate(12.499948,7.809312)">
					<g id="g4561-6-7-3-7-4" transform="translate(-712.85583,-503.26814)">
						<g id="flowRoot4513-6-6-0-3-6">
							<path id="path3441" style="fill:#263238;" d="M-445.4,619.3c-0.4,0-0.8,0.1-1.2,0.1c-0.4,0-0.8,0-1.3,0h-8.6
							c-7.9,0-11.8-2.6-11.8-7.8v-12.4c0-5.1,3.9-7.6,11.6-7.6h9c7.7,0,11.6,2.5,11.6,7.6v12.4c0,3.1-1.4,5.2-4.1,6.5l2.9,2
							c0.8,0.5,1.2,1,1.2,1.6s-0.2,0.9-0.6,1.2c-0.4,0.3-1,0.4-1.7,0.4c-0.2,0-0.4,0-0.7-0.1c-0.3-0.1-0.6-0.2-1-0.4L-445.4,619.3
							L-445.4,619.3z M-440.4,599.4c0-2.9-2.4-4.4-7.3-4.4h-8.8c-4.9,0-7.3,1.5-7.3,4.4v12.3c0,3,2.5,4.5,7.6,4.5h8.2
							c5.1,0,7.6-1.5,7.6-4.5L-440.4,599.4L-440.4,599.4z"/>
							<path id="path3443" style="fill:#263238;" d="M-414.1,619.5c-6.9,0-10.4-2.1-10.4-6.4v-11.7c0-1.1,0.7-1.7,2.1-1.7
							s2.1,0.6,2.1,1.7v11.7c0,2,2,3.1,6,3.1h7.6c4,0,6-1,6-3.1v-11.7c0-1.1,0.7-1.7,2.1-1.7c1.4,0,2.2,0.6,2.2,1.7v11.7
							c0,4.2-3.5,6.4-10.4,6.4H-414.1L-414.1,619.5z"/>
							<path id="path3445" style="fill:#263238;" d="M-377.2,619.5c-5.7,0-8.6-1.8-8.6-5.3v-2.3c0-3.5,2.9-5.3,8.6-5.3h17.1V606
							c0-1.9-1.6-2.8-4.9-2.8h-5.7c-1.3,0-2-0.5-2-1.6c0-1.1,0.7-1.6,2-1.6h5.7c6.1,0,9.1,2,9.1,6v7.9c0,3.8-2.9,5.7-8.8,5.7
							L-377.2,619.5L-377.2,619.5z M-365,616.4c3.2,0,4.8-0.9,4.8-2.7v-4.4h-16.8c-3.1,0-4.7,0.8-4.7,2.5v2.1c0,1.7,1.6,2.5,4.7,2.5
							H-365z"/>
							<path id="path3447" style="fill:#263238;" d="M-318.5,615c0,3-3.1,4.5-9.2,4.5h-15.7c-1.3,0-2-0.5-2-1.6c0-1,0.7-1.6,2-1.6
							h15.7c3.3,0,4.9-0.5,4.9-1.4v-2.3c0-0.9-1.6-1.4-4.9-1.4h-8.3c-6.1,0-9.2-1.5-9.2-4.4v-1.9c0-3.4,3.1-5.1,9.4-5.1h5.5
							c1.4,0,2.1,0.5,2.1,1.6c0,0.5-0.2,0.9-0.6,1.2c-0.3,0.2-0.8,0.4-1.5,0.4h-5.5c-3.5,0-5.3,0.7-5.3,2v1.8c0,1.1,1.7,1.6,5.2,1.6
							h8.3c6,0,8.9,1.4,8.9,4.1L-318.5,615L-318.5,615z"/>
							<path id="path3449" style="fill:#263238;" d="M-300,619.5c-5.7,0-8.6-1.8-8.6-5.3v-2.3c0-3.5,2.9-5.3,8.6-5.3h17.1V606
							c0-1.9-1.6-2.8-4.9-2.8h-5.7c-1.3,0-2-0.5-2-1.6c0-1.1,0.7-1.6,2-1.6h5.7c6.1,0,9.1,2,9.1,6v7.9c0,3.8-2.9,5.7-8.8,5.7
							L-300,619.5L-300,619.5z M-287.7,616.4c3.2,0,4.8-0.9,4.8-2.7v-4.4h-16.8c-3.1,0-4.7,0.8-4.7,2.5v2.1c0,1.7,1.6,2.5,4.7,2.5
							H-287.7z"/>
							<path id="path3451" style="fill:#263238;" d="M-267.2,606.4c0-4.3,3.5-6.4,10.4-6.4h3.1c1.4,0,2.1,0.5,2.1,1.6
							c0,1.1-0.7,1.6-2.1,1.6h-3.3c-4,0-6,1-6,3V618c0,1.1-0.7,1.7-2.1,1.7s-2.1-0.6-2.1-1.7V606.4z"/>
						</g>
					</g>
				</g>
			</g>
		</g>
	</g>
</svg>
