<?xml version="1.0" encoding="utf-8"?>
<svg version="1.1" id="Layer_1" 
	xmlns="http://www.w3.org/2000/svg" 
	xmlns:xlink="http://www.w3.org/1999/xlink" x="0px" y="0px" viewBox="0 0 54.2 54.2" style="enable-background:new 0 0 54.2 54.2;" xml:space="preserve">
	<g transform="matrix(.01712 0 0 .01712 -116.963 48.725)">
		<circle style="fill:#FFFFFF;" cx="8416.4" cy="-1262.3" r="1584"/>
		<path style="fill:#263238;" d="M8675.6-1262.3c0,143.1-116,259.1-259.1,259.1h0c-143.1,0-259.1-116-259.1-259.1c0,0,0,0,0,0
		c0-143.1,116-259.1,259.1-259.1C8559.6-1521.5,8675.6-1405.4,8675.6-1262.3z M9566.8-1926.6c-56.3-96.9-124.7-186.4-203.6-266.1
		l-299.6,173c-93.4-79.8-199.5-140.9-312.8-181.3c-102.3,103.7-183.5,219.5-242.1,345.4c333.5-22.7,677.9,98,997.6,347.8
		l188.5-108.9C9665.5-1724.9,9622.4-1829.1,9566.8-1926.6L9566.8-1926.6z M9566.9-598.2c55.8-97.3,99-201.2,128.7-309.4l-299.6-173
		c22.4-120.7,22.2-243.2,0.6-361.5c-140.9-36.7-281.8-49.2-420.2-36.9c186.4,277.5,254.1,636.1,197.6,1037.9l188.5,108.9
		C9441.6-411.9,9510.3-501.3,9566.9-598.2L9566.9-598.2z M8416.5,66c112.1-0.3,223.8-14.9,332.3-43.2v-345.9
		c115.8-41,221.7-102.3,313.4-180.2c-38.6-140.4-98.3-268.7-178.1-382.4c-147.1,300.2-423.8,538.1-800,690.1V22
		C8192.6,50.7,8304.3,65.5,8416.5,66z M7266.1-598.1c56.4,96.9,124.7,186.4,203.6,266.1l299.6-173
		c93.4,79.8,199.5,140.9,312.8,181.3c102.3-103.7,183.5-219.5,242.1-345.4c-333.5,22.7-677.9-98-997.6-347.8L7138-908
		C7167.4-799.7,7210.5-695.6,7266.1-598.1L7266.1-598.1z M7266-1926.4c-55.8,97.3-99,201.2-128.7,309.4l299.6,173
		c-22.4,120.8-22.2,243.2-0.6,361.5c140.9,36.7,281.8,49.2,420.2,36.9c-186.4-277.5-254.1-636.1-197.6-1037.9l-188.5-108.9
		C7391.3-2112.7,7322.6-2023.4,7266-1926.4L7266-1926.4z M8416.4-2590.7c-112.1,0.3-223.8,14.9-332.3,43.2v345.9
		c-115.8,41-221.7,102.3-313.4,180.2c38.6,140.4,98.3,268.7,178.1,382.4c147.1-300.2,423.8-538.1,800-690.1v-217.7
		C8640.4-2575.3,8528.6-2590.1,8416.4-2590.7z"/>
	</g>
</svg>
