<?xml version="1.0" encoding="utf-8"?>
<svg version="1.1" id="svg3585" 
	xmlns:svg="http://www.w3.org/2000/svg" 
	xmlns="http://www.w3.org/2000/svg" 
	xmlns:xlink="http://www.w3.org/1999/xlink" x="0px" y="0px" viewBox="0 0 191.1 27.5" style="enable-background:new 0 0 191.1 27.5;" xml:space="preserve">
	<g id="layer1" transform="translate(-157.71995,-269.43229)">
		<g id="g4579-2-20" transform="translate(1269.4236,163.52289)">
			<g id="g4445-2-0" transform="translate(12.499948,7.809312)">
				<g id="g4561-6-7-0" transform="translate(-712.85583,-503.26814)">
					<g id="flowRoot4513-6-6-08" transform="translate(16.233481,0)">
						<path id="path3705" style="fill:#263238;" d="M-407.7,625.4c-0.3,0-0.7,0-1,0.1c-0.4,0-0.7,0-1.1,0h-7.5
						c-6.8,0-10.3-2.3-10.3-6.8V608c0-4.4,3.4-6.6,10.1-6.6h7.8c6.7,0,10.1,2.2,10.1,6.6v10.8c0,2.7-1.2,4.6-3.6,5.6l2.5,1.7
						c0.7,0.4,1.1,0.9,1.1,1.4s-0.2,0.8-0.6,1c-0.4,0.3-0.9,0.4-1.5,0.4c-0.2,0-0.4,0-0.6-0.1c-0.2,0-0.5-0.2-0.8-0.4L-407.7,625.4
						L-407.7,625.4z M-403.4,608.1c0-2.5-2.1-3.8-6.4-3.8h-7.7c-4.2,0-6.4,1.3-6.4,3.8v10.7c0,2.6,2.2,4,6.6,4h7.1
						c4.4,0,6.6-1.3,6.6-4V608.1L-403.4,608.1z"/>
						<path id="path3707" style="fill:#263238;" d="M-380,625.6c-6,0-9-1.8-9-5.5v-10.2c0-1,0.6-1.5,1.9-1.5c1.2,0,1.9,0.5,1.9,1.5
						v10.2c0,1.8,1.7,2.7,5.2,2.7h6.6c3.5,0,5.2-0.9,5.2-2.7v-10.2c0-1,0.6-1.5,1.9-1.5c1.3,0,1.9,0.5,1.9,1.5v10.2
						c0,3.7-3,5.5-9,5.5H-380z"/>
						<path id="path3709" style="fill:#263238;" d="M-347.3,625.6c-5,0-7.5-1.6-7.5-4.7v-2c0-3.1,2.5-4.6,7.5-4.6h14.9v-0.5
						c0-1.6-1.4-2.5-4.3-2.5h-4.9c-1.2,0-1.8-0.5-1.8-1.4c0-0.9,0.6-1.4,1.8-1.4h4.9c5.3,0,7.9,1.7,7.9,5.2v6.9
						c0,3.3-2.5,4.9-7.6,4.9H-347.3L-347.3,625.6z M-336.7,622.9c2.8,0,4.2-0.8,4.2-2.3v-3.8h-14.6c-2.7,0-4.1,0.7-4.1,2.1v1.8
						c0,1.4,1.4,2.2,4.1,2.2L-336.7,622.9L-336.7,622.9z"/>
						<path id="path3711" style="fill:#263238;" d="M-295.7,621.7c0,2.6-2.7,3.9-8,3.9h-13.6c-1.2,0-1.8-0.5-1.8-1.4
						c0-0.9,0.6-1.4,1.8-1.4h13.6c2.9,0,4.3-0.4,4.3-1.2v-2c0-0.8-1.4-1.2-4.3-1.2h-7.2c-5.3,0-8-1.3-8-3.8v-1.6
						c0-3,2.7-4.5,8.2-4.5h4.8c1.2,0,1.8,0.5,1.8,1.4c0,0.5-0.2,0.8-0.5,1c-0.3,0.2-0.7,0.3-1.3,0.3h-4.8c-3.1,0-4.6,0.6-4.6,1.7
						v1.5c0,1,1.5,1.4,4.5,1.4h7.2c5.2,0,7.8,1.2,7.8,3.6V621.7L-295.7,621.7z"/>
						<path id="path3713" style="fill:#263238;" d="M-279,625.6c-5,0-7.5-1.6-7.5-4.7v-2c0-3.1,2.5-4.6,7.5-4.6h14.9v-0.5
						c0-1.6-1.4-2.5-4.3-2.5h-4.9c-1.2,0-1.8-0.5-1.8-1.4c0-0.9,0.6-1.4,1.8-1.4h4.9c5.3,0,7.9,1.7,7.9,5.2v6.9
						c0,3.3-2.5,4.9-7.6,4.9H-279L-279,625.6z M-268.4,622.9c2.8,0,4.2-0.8,4.2-2.3v-3.8h-14.6c-2.7,0-4.1,0.7-4.1,2.1v1.8
						c0,1.4,1.4,2.2,4.1,2.2L-268.4,622.9L-268.4,622.9z"/>
						<path id="path3715" style="fill:#263238;" d="M-250,614.1c0-3.7,3-5.6,9-5.6h2.7c1.2,0,1.8,0.5,1.8,1.4s-0.6,1.4-1.8,1.4h-2.8
						c-3.5,0-5.2,0.9-5.2,2.6v10.2c0,1-0.6,1.5-1.9,1.5c-1.2,0-1.9-0.5-1.9-1.5V614.1L-250,614.1z"/>
					</g>
				</g>
			</g>
		</g>
	</g>
</svg>
