<?xml version="1.0" encoding="utf-8"?>
<svg version="1.1" id="svg3420" 
	xmlns:svg="http://www.w3.org/2000/svg" 
	xmlns="http://www.w3.org/2000/svg" 
	xmlns:xlink="http://www.w3.org/1999/xlink" x="0px" y="0px" viewBox="0 0 250.6 230.5" style="enable-background:new 0 0 250.6 230.5;" xml:space="preserve">
	<g id="layer1" transform="translate(782.3615,326.01083)">
		<g id="g3782" transform="translate(-997.76153,-435.70167)">
			<g id="g4803" transform="matrix(0.37179714,0,0,0.37179714,941.11531,830.23437)">
				<circle id="circle8858-1-2" style="fill:#FFFFFF;" cx="-1614.9" cy="-1742.1" r="195.9"/>
				<path id="path8862-5-0" style="fill:#1976D2;" d="M-1472.6-1824.3c-7-12-15.4-23-25.2-32.9l-37.1,21.4
				c-11.5-9.9-24.7-17.4-38.7-22.4c-12.6,12.8-22.7,27.1-29.9,42.7c41.2-2.8,83.8,12.1,123.4,43l23.3-13.5
				C-1460.4-1799.3-1465.7-1812.2-1472.6-1824.3L-1472.6-1824.3z"/>
				<path id="path8864-4-9" style="fill:#42A5F5;" d="M-1472.6-1660c6.9-12,12.2-24.9,15.9-38.3l-37.1-21.4
				c2.8-14.9,2.8-30.1,0.1-44.7c-17.4-4.5-34.9-6.1-52-4.6c23.1,34.3,31.4,78.7,24.4,128.4l23.3,13.5
				C-1488.1-1636.9-1479.6-1648-1472.6-1660L-1472.6-1660z"/>
				<path id="path8866-7-3" style="fill:#1976D2;" d="M-1614.8-1577.8c13.9,0,27.7-1.8,41.1-5.3v-42.8c14.3-5.1,27.4-12.7,38.8-22.3
				c-4.8-17.4-12.2-33.2-22-47.3c-18.2,37.1-52.4,66.5-98.9,85.3v26.9C-1642.5-1579.7-1628.7-1577.9-1614.8-1577.8z"/>
				<path id="path8868-6-6" style="fill:#42A5F5;" d="M-1757.1-1660c7,12,15.4,23,25.2,32.9l37.1-21.4c11.5,9.9,24.7,17.4,38.7,22.4
				c12.6-12.8,22.7-27.1,29.9-42.7c-41.2,2.8-83.8-12.1-123.4-43l-23.3,13.5C-1769.3-1684.9-1764-1672-1757.1-1660z"/>
				<path id="path8870-5-0" style="fill:#1976D2;" d="M-1757.1-1824.2c-6.9,12-12.2,24.9-15.9,38.3l37.1,21.4
				c-2.8,14.9-2.8,30.1-0.1,44.7c17.4,4.5,34.9,6.1,52,4.6c-23.1-34.3-31.4-78.7-24.4-128.4l-23.3-13.5
				C-1741.6-1847.3-1750.1-1836.2-1757.1-1824.2L-1757.1-1824.2z"/>
				<path id="path8872-6-6" style="fill:#42A5F5;" d="M-1614.9-1906.4c-13.9,0-27.7,1.8-41.1,5.3v42.8c-14.3,5.1-27.4,12.7-38.8,22.3
				c4.8,17.4,12.2,33.2,22,47.3c18.2-37.1,52.4-66.5,98.9-85.3v-26.9C-1587.2-1904.5-1601-1906.3-1614.9-1906.4z"/>
				<path id="path4375" style="fill:#FF5722;" d="M-1569.4-1742.1l-78.3,45.2v-90.4L-1569.4-1742.1z"/>
			</g>
			<g id="g4777" transform="matrix(0.37179714,0,0,0.37179714,633.49675,976.56435)">
				<g id="g4579-2-2-69-3" transform="matrix(3.113367,0,0,3.113367,2376.5856,-2090.9431)">
					<g id="g4445-2-8-9-1" transform="translate(12.499948,7.809312)">
						<g id="g4561-6-7-3-4-9" transform="translate(-712.85583,-503.26814)">
							<g id="flowRoot4513-6-6-0-0-4">
								<path id="path3485" style="fill:#263238;" d="M-401.4,594.1c-0.4,0-0.8,0.1-1.2,0.1c-0.4,0-0.8,0-1.3,0h-8.6
								c-7.9,0-11.8-2.6-11.8-7.8V574c0-5.1,3.9-7.6,11.6-7.6h9c7.7,0,11.6,2.5,11.6,7.6v12.4c0,3.1-1.4,5.2-4.1,6.5l2.9,2
								c0.8,0.5,1.2,1,1.2,1.6c0,0.5-0.2,0.9-0.6,1.2s-1,0.4-1.7,0.4c-0.2,0-0.4,0-0.7-0.1c-0.3-0.1-0.6-0.2-1-0.4L-401.4,594.1
								L-401.4,594.1z M-396.4,574.1c0-2.9-2.4-4.4-7.3-4.4h-8.8c-4.9,0-7.3,1.5-7.3,4.4v12.3c0,3,2.5,4.5,7.6,4.5h8.2
								c5.1,0,7.6-1.5,7.6-4.5L-396.4,574.1L-396.4,574.1z"/>
								<path id="path3487" style="fill:#263238;" d="M-370.1,594.2c-6.9,0-10.4-2.1-10.4-6.4v-11.7c0-1.1,0.7-1.7,2.1-1.7
								s2.1,0.6,2.1,1.7v11.7c0,2,2,3.1,6,3.1h7.6c4,0,6-1,6-3.1v-11.7c0-1.1,0.7-1.7,2.1-1.7s2.2,0.6,2.2,1.7v11.7
								c0,4.2-3.5,6.4-10.4,6.4H-370.1z"/>
								<path id="path3489" style="fill:#263238;" d="M-333.2,594.2c-5.7,0-8.6-1.8-8.6-5.3v-2.3c0-3.5,2.9-5.3,8.6-5.3h17.1v-0.6
								c0-1.9-1.6-2.8-4.9-2.8h-5.7c-1.3,0-2-0.5-2-1.6s0.7-1.6,2-1.6h5.7c6.1,0,9.1,2,9.1,6v7.9c0,3.8-2.9,5.7-8.8,5.7h-12.5V594.2
								z M-320.9,591.1c3.2,0,4.8-0.9,4.8-2.7V584h-16.8c-3.1,0-4.7,0.8-4.7,2.5v2.1c0,1.7,1.6,2.5,4.7,2.5L-320.9,591.1
								L-320.9,591.1z"/>
								<path id="path3491" style="fill:#263238;" d="M-274.5,589.7c0,3-3.1,4.5-9.2,4.5h-15.7c-1.3,0-2-0.5-2-1.6s0.7-1.6,2-1.6
								h15.7c3.3,0,4.9-0.5,4.9-1.4v-2.3c0-0.9-1.6-1.4-4.9-1.4h-8.3c-6.1,0-9.2-1.5-9.2-4.4v-1.9c0-3.4,3.1-5.1,9.4-5.1h5.5
								c1.4,0,2.1,0.5,2.1,1.6c0,0.5-0.2,0.9-0.6,1.2c-0.3,0.2-0.8,0.4-1.5,0.4h-5.5c-3.5,0-5.3,0.7-5.3,2v1.8
								c0,1.1,1.7,1.6,5.2,1.6h8.3c6,0,8.9,1.4,8.9,4.1v2.5H-274.5z"/>
								<path id="path3493" style="fill:#263238;" d="M-255.9,594.2c-5.7,0-8.6-1.8-8.6-5.3v-2.3c0-3.5,2.9-5.3,8.6-5.3h17.1v-0.6
								c0-1.9-1.6-2.8-4.9-2.8h-5.7c-1.3,0-2-0.5-2-1.6s0.7-1.6,2-1.6h5.7c6.1,0,9.1,2,9.1,6v7.9c0,3.8-2.9,5.7-8.8,5.7h-12.5V594.2
								z M-243.7,591.1c3.2,0,4.8-0.9,4.8-2.7V584h-16.8c-3.1,0-4.7,0.8-4.7,2.5v2.1c0,1.7,1.6,2.5,4.7,2.5L-243.7,591.1
								L-243.7,591.1z"/>
								<path id="path3495" style="fill:#263238;" d="M-223.2,581.1c0-4.3,3.5-6.4,10.4-6.4h3.1c1.4,0,2.1,0.5,2.1,1.6
								s-0.7,1.6-2.1,1.6h-3.3c-4,0-6,1-6,3v11.7c0,1.1-0.7,1.7-2.1,1.7c-1.4,0-2.1-0.6-2.1-1.7L-223.2,581.1L-223.2,581.1z"/>
							</g>
						</g>
					</g>
				</g>
				<g id="g4747" transform="matrix(3.4175093,0,0,3.4175093,2585.1751,-1948.6246)">
					<g id="g4749" transform="translate(12.499948,7.809312)">
						<g id="g4751" transform="translate(-712.85583,-503.26814)">
							<g id="flowRoot4753">
								<path id="path3498" style="fill:#FF5722;" d="M-258.2,557.3c0,2.3-1.9,3.5-5.6,3.5h-7.3v3.3c0,0.5-0.3,0.8-1,0.8
								c-0.6,0-1-0.3-1-0.8v-11.2c0-0.4,0.3-0.6,0.8-0.6h8.5c3.7,0,5.6,1.2,5.6,3.5V557.3z M-271.1,559.3h7.4c2.4,0,3.6-0.7,3.6-2.1
								v-1.4c0-1.4-1.2-2.1-3.6-2.1h-7.3c-0.1,0-0.1,0-0.1,0.1V559.3L-271.1,559.3z"/>
								<path id="path3500" style="fill:#FF5722;" d="M-245.8,564.8c-3.5,0-5.3-1.2-5.3-3.5V553c0-0.5,0.3-0.8,1-0.8s1,0.3,1,0.8v8.2
								c0,1.4,1.1,2.1,3.4,2.1h7.4c0.6,0,0.9,0.2,0.9,0.7s-0.3,0.7-0.9,0.7L-245.8,564.8L-245.8,564.8z"/>
								<path id="path3502" style="fill:#FF5722;" d="M-218.1,561.4h-9.1l-1.9,2.9c-0.2,0.3-0.5,0.5-0.9,0.5c-0.3,0-0.5-0.1-0.7-0.2
								c-0.2-0.1-0.3-0.3-0.3-0.6c0-0.1,0-0.2,0-0.3s0.1-0.2,0.2-0.3l7.1-10.8c0.1-0.2,0.2-0.3,0.4-0.4c0.2-0.1,0.4-0.1,0.6-0.1
								c0.4,0,0.7,0.2,1,0.5l7.1,10.8c0.1,0.1,0.2,0.2,0.2,0.3s0.1,0.2,0.1,0.3c0,0.2-0.1,0.4-0.3,0.6c-0.2,0.1-0.4,0.2-0.7,0.2
								c-0.4,0-0.7-0.2-0.9-0.5L-218.1,561.4L-218.1,561.4z M-226.3,560h7.3l-3.7-5.7L-226.3,560L-226.3,560z"/>
								<path id="path3504" style="fill:#FF5722;" d="M-204.4,559.3v4.8c0,0.5-0.3,0.8-1,0.8s-1-0.3-1-0.8v-4.8l-5.9-5.7
								c-0.1-0.1-0.2-0.2-0.3-0.3c0-0.1-0.1-0.2-0.1-0.3c0-0.2,0.1-0.4,0.3-0.6c0.2-0.1,0.4-0.2,0.7-0.2c0.2,0,0.3,0,0.5,0.1
								c0.1,0.1,0.2,0.2,0.4,0.3l5.3,5.3l5.4-5.3c0.1-0.1,0.2-0.2,0.4-0.3c0.1-0.1,0.3-0.1,0.5-0.1c0.3,0,0.5,0.1,0.7,0.2
								c0.2,0.1,0.3,0.3,0.3,0.6c0,0.1,0,0.2-0.1,0.3s-0.1,0.2-0.2,0.3L-204.4,559.3L-204.4,559.3z"/>
							</g>
						</g>
					</g>
				</g>
			</g>
		</g>
	</g>
</svg>
